<svg xmlns="http://www.w3.org/2000/svg" xmlns:svg="http://www.w3.org/2000/svg" xmlns:xlink="http://www.w3.org/1999/xlink" id="svg2455" width="48" height="48" version="1.0"><defs id="defs3"><filter id="filter3363"><feGaussianBlur id="feGaussianBlur3365" stdDeviation=".609"/></filter><linearGradient id="linearGradient3315"><stop id="stop3317" offset="0" stop-color="#000" stop-opacity="1"/><stop id="stop3319" offset="1" stop-color="#000" stop-opacity="0"/></linearGradient><linearGradient id="linearGradient3321" x1="64.192" x2="63.436" y1="131.891" y2="103.341" gradientUnits="userSpaceOnUse" xlink:href="#linearGradient3315"/><linearGradient id="linearGradient3335"><stop id="stop3337" offset="0" stop-color="#a40000" stop-opacity="1"/><stop id="stop3343" offset=".725" stop-color="#c00" stop-opacity="1"/><stop id="stop3349" offset=".856" stop-color="#ef2929" stop-opacity=".533"/><stop id="stop3339" offset="1" stop-color="#ef2929" stop-opacity="1"/></linearGradient><radialGradient id="radialGradient3347" cx="64.65" cy="125.641" r="65.386" fx="64.65" fy="125.641" gradientTransform="matrix(1.006948,-4.6236582e-2,1.7086631e-2,0.607885,-2.4409328,49.337379)" gradientUnits="userSpaceOnUse" xlink:href="#linearGradient3335"/><radialGradient id="radialGradient3279" cx="413.03" cy="164.845" r="62.673" fx="413.03" fy="164.845" gradientTransform="matrix(1.0528913,0.2432999,-0.1328866,0.5750727,-7.0536693e-2,-20.362734)" gradientUnits="userSpaceOnUse" xlink:href="#linearGradient3263"/><filter id="filter3295"><feGaussianBlur id="feGaussianBlur3297" stdDeviation="2.108"/></filter><linearGradient id="linearGradient3263"><stop id="stop3271" offset="0" stop-color="#ef2929" stop-opacity="1"/><stop id="stop3267" offset="1" stop-color="#a40000" stop-opacity="1"/></linearGradient><radialGradient id="radialGradient3269" cx="65.121" cy="105.035" r="64.499" fx="65.121" fy="105.035" gradientTransform="matrix(0.8669623,1.2506865e-2,-4.5610337e-3,0.634702,9.1000894,44.028236)" gradientUnits="userSpaceOnUse" xlink:href="#linearGradient3263"/><linearGradient id="linearGradient3255"><stop id="stop3257" offset="0" stop-color="#fff" stop-opacity="1"/><stop id="stop3259" offset="1" stop-color="#848484" stop-opacity="1"/></linearGradient><radialGradient id="radialGradient3261" cx="280.563" cy="429.615" r="50.012" fx="280.563" fy="429.615" gradientTransform="matrix(0.3285219,0.1205343,-2.2582858,6.155061,1172.647,-2214.2386)" gradientUnits="userSpaceOnUse" xlink:href="#linearGradient3255"/><linearGradient id="linearGradient2563"><stop id="stop2565" offset="0" stop-color="#e2e2e2" stop-opacity="1"/><stop id="stop2567" offset="1" stop-color="#9f9f9f" stop-opacity="1"/></linearGradient><linearGradient id="linearGradient2526"><stop id="stop2528" offset="0" stop-color="#e7ebeb" stop-opacity="1"/><stop id="stop2534" offset=".5" stop-color="#e6ebeb" stop-opacity="1"/><stop id="stop2530" offset="1" stop-color="#fff" stop-opacity="1"/></linearGradient><linearGradient id="linearGradient2551"><stop id="stop2553" offset="0" stop-color="#000" stop-opacity="1"/><stop id="stop2555" offset="1" stop-color="#000" stop-opacity="0"/></linearGradient><linearGradient id="linearGradient2463" x1="18.432" x2="48.287" y1="23.975" y2="39.115" gradientTransform="translate(-139.75386,143.46545)" gradientUnits="userSpaceOnUse" xlink:href="#linearGradient2551"/><linearGradient id="linearGradient5208"><stop id="stop5210" offset="0" stop-color="#edd400" stop-opacity="1"/><stop id="stop5212" offset="1" stop-color="#c4a000" stop-opacity="1"/></linearGradient><linearGradient id="linearGradient2419"><stop id="stop2420" offset="0" stop-color="#000" stop-opacity=".505"/><stop id="stop2421" offset="1" stop-color="#000" stop-opacity="0"/></linearGradient><linearGradient id="linearGradient2422" x1="156.338" x2="264.569" y1="184.921" y2="184.921" gradientTransform="scale(1.19593,0.836169)" gradientUnits="userSpaceOnUse" xlink:href="#linearGradient2419"/><linearGradient id="linearGradient2411"><stop id="stop2412" offset="0" stop-color="#FFF" stop-opacity="1"/><stop id="stop2413" offset="1" stop-color="#FFF" stop-opacity="0"/></linearGradient><radialGradient id="radialGradient2415" cx="212.598" cy="70.866" r="35.433" fx="212.598" fy="70.866" gradientUnits="userSpaceOnUse" xlink:href="#linearGradient2411"/><linearGradient id="linearGradient1779" x1="414.132" x2="302.991" y1="240.144" y2="240.802" gradientTransform="scale(0.689104,1.45116)" gradientUnits="userSpaceOnUse" xlink:href="#linearGradient1767"/><linearGradient id="linearGradient1767"><stop id="stop1768" offset="0" stop-color="#3F3318" stop-opacity="1"/><stop id="stop1769" offset="1" stop-color="#815F0E" stop-opacity="1"/></linearGradient><linearGradient id="linearGradient1778" x1="299.373" x2="411.727" y1="252.27" y2="252.27" gradientTransform="matrix(0.697599,0,0,1.47183,0,-11.8264)" gradientUnits="userSpaceOnUse" xlink:href="#linearGradient1767"/><linearGradient id="linearGradient1754"><stop id="stop1755" offset="0" stop-color="#747474" stop-opacity="1"/><stop id="stop1757" offset=".5" stop-color="#BEBEBE" stop-opacity="1"/><stop id="stop1759" offset=".625" stop-color="#D5D5D5" stop-opacity="1"/><stop id="stop1758" offset=".75" stop-color="#818181" stop-opacity="1"/><stop id="stop1756" offset="1" stop-color="#C3C3C3" stop-opacity="1"/></linearGradient><linearGradient id="linearGradient1777" x1="150.495" x2="345.533" y1="42.808" y2="242.18" gradientTransform="scale(1.00007,0.999929)" gradientUnits="userSpaceOnUse" xlink:href="#linearGradient1754"/><pattern id="pattern2568" width="28.945" height="33.076" patternTransform="translate(190.49, 70.8434)" patternUnits="userSpaceOnUse"><text id="text2569" x="189.699" y="67.75" fill="#000" fill-opacity="1" stroke="none" stroke-linecap="butt" stroke-linejoin="miter" stroke-opacity="1" stroke-width="1pt" font-family="Bitstream Vera Sans" font-style="normal" font-weight="normal" transform="translate(-190.49, -70.8434)" xml:space="preserve"><tspan id="tspan2576" x="189.699" y="79.75">0010</tspan><tspan id="tspan2578" x="189.699" y="91.75">0100</tspan><tspan id="tspan2580" x="189.699" y="103.75">0111</tspan></text></pattern><pattern id="pattern2606" width="32.232" height="37.876" patternTransform="translate(183.767, 59.4684)" patternUnits="userSpaceOnUse"><text id="text2607" x="189.699" y="67.75" fill="#000" fill-opacity="1" stroke="none" stroke-linecap="butt" stroke-linejoin="miter" stroke-opacity="1" stroke-width="1pt" font-family="Bitstream Vera Sans" font-stretch="normal" font-style="normal" font-variant="normal" font-weight="bold" text-anchor="middle" transform="translate(-173.586, -58.8434)" xml:space="preserve"><tspan id="tspan2608" x="189.699" y="67.75">0010</tspan><tspan id="tspan2610" x="189.699" y="82.15">0100</tspan><tspan id="tspan2612" x="189.699" y="96.55">0111</tspan></text></pattern><pattern id="pattern2623" width="32.232" height="28.276" patternTransform="translate(183.767, 59.4684)" patternUnits="userSpaceOnUse"><text id="text2624" x="189.699" y="67.75" fill="#000" fill-opacity="1" stroke="none" stroke-linecap="butt" stroke-linejoin="miter" stroke-opacity="1" stroke-width="1pt" font-family="Bitstream Vera Sans" font-stretch="normal" font-style="normal" font-variant="normal" font-weight="bold" text-anchor="middle" transform="translate(-173.586, -58.8434)" xml:space="preserve"><tspan id="tspan2625" x="189.699" y="67.75">0010</tspan><tspan id="tspan2627" x="189.699" y="77.35">0100</tspan><tspan id="tspan2629" x="189.699" y="86.95">0111</tspan></text></pattern><pattern id="pattern2639" width="32.232" height="25.876" patternTransform="translate(183.767, 59.4684)" patternUnits="userSpaceOnUse"><text id="text2640" x="189.699" y="67.75" fill="#000" fill-opacity="1" stroke="none" stroke-linecap="butt" stroke-linejoin="miter" stroke-opacity="1" stroke-width="1pt" font-family="Bitstream Vera Sans" font-stretch="normal" font-style="normal" font-variant="normal" font-weight="bold" text-anchor="middle" transform="translate(-173.586, -58.8434)" xml:space="preserve"><tspan id="tspan2641" x="189.699" y="67.75">0010</tspan><tspan id="tspan2643" x="189.699" y="76.15">0100</tspan><tspan id="tspan2645" x="189.699" y="84.55">0111</tspan></text></pattern><pattern id="pattern2692" width="96.697" height="77.629" patternTransform="translate(151.54, 41.6559)" patternUnits="userSpaceOnUse"><text id="text2693" x="189.699" y="67.75" fill="#000" fill-opacity="1" stroke="none" stroke-linecap="butt" stroke-linejoin="miter" stroke-opacity="1" stroke-width="1pt" font-family="Bitstream Vera Sans" font-stretch="normal" font-style="normal" font-variant="normal" font-weight="bold" text-anchor="middle" transform="translate(-141.359, -41.0309)" xml:space="preserve"><tspan id="tspan2694" x="189.699" y="67.75">0010</tspan><tspan id="tspan2696" x="189.699" y="92.95">0100</tspan><tspan id="tspan2698" x="189.699" y="118.15">0111</tspan></text></pattern><radialGradient id="radialGradient6136" cx="280.563" cy="429.615" r="50.012" fx="280.563" fy="429.615" gradientTransform="matrix(1.9301935e-2,7.0818572e-3,-0.132683,0.3616337,96.967332,-145.93804)" gradientUnits="userSpaceOnUse" xlink:href="#linearGradient3255"/><radialGradient id="radialGradient6138" cx="63.756" cy="138.482" r="64.499" fx="63.756" fy="138.482" gradientTransform="matrix(4.6474545e-2,1.3024677e-2,-1.0144861e-2,3.1419814e-2,47.724874,-3.8199386)" gradientUnits="userSpaceOnUse" xlink:href="#linearGradient3263"/><radialGradient id="radialGradient6140" cx="409.433" cy="180.725" r="62.673" fx="409.433" fy="180.725" gradientTransform="matrix(6.1861444e-2,1.4294812e-2,-7.8076027e-3,3.378775e-2,28.065633,-17.039329)" gradientUnits="userSpaceOnUse" xlink:href="#linearGradient3263"/><radialGradient id="radialGradient6160" cx="280.563" cy="429.615" r="50.012" fx="280.563" fy="429.615" gradientTransform="matrix(1.9301935e-2,7.0818572e-3,-0.132683,0.3616337,96.967332,-145.93804)" gradientUnits="userSpaceOnUse" xlink:href="#linearGradient3255"/><radialGradient id="radialGradient6162" cx="63.756" cy="138.482" r="64.499" fx="63.756" fy="138.482" gradientTransform="matrix(4.6474545e-2,1.3024677e-2,-1.0144861e-2,3.1419814e-2,47.724874,-3.8199386)" gradientUnits="userSpaceOnUse" xlink:href="#linearGradient3263"/><radialGradient id="radialGradient6164" cx="409.433" cy="180.725" r="62.673" fx="409.433" fy="180.725" gradientTransform="matrix(6.1861444e-2,1.4294812e-2,-7.8076027e-3,3.378775e-2,28.065633,-17.039329)" gradientUnits="userSpaceOnUse" xlink:href="#linearGradient3263"/><radialGradient id="radialGradient5460" cx="280.563" cy="429.615" r="50.012" fx="280.563" fy="429.615" gradientTransform="matrix(4.8455562e-2,1.3460504e-2,-0.3330873,0.6873581,179.34172,-262.32626)" gradientUnits="userSpaceOnUse" xlink:href="#linearGradient3255"/><radialGradient id="radialGradient5462" cx="63.756" cy="138.482" r="64.499" fx="63.756" fy="138.482" gradientTransform="matrix(0.1166697,2.4756036e-2,-2.5467651e-2,5.9719719e-2,55.723498,7.7979733)" gradientUnits="userSpaceOnUse" xlink:href="#linearGradient3263"/><radialGradient id="radialGradient5464" cx="409.433" cy="180.725" r="62.673" fx="409.433" fy="180.725" gradientTransform="matrix(0.1552969,2.7170185e-2,-1.96002e-2,6.4220461e-2,6.3709545,-17.328155)" gradientUnits="userSpaceOnUse" xlink:href="#linearGradient3263"/><radialGradient id="radialGradient5664" cx="175.614" cy="114.81" r="150.747" fx="175.614" fy="114.81" gradientTransform="matrix(0.12665376,0.02968174,-0.01856923,0.10404652,4.2501294,6.0787927)" gradientUnits="userSpaceOnUse" xlink:href="#linearGradient5208"/><radialGradient id="radialGradient6684" cx="409.433" cy="180.725" r="62.673" fx="409.433" fy="180.725" gradientTransform="matrix(0.1130665,2.1822215e-2,-1.4270251e-2,5.15798e-2,45.365743,-14.98849)" gradientUnits="userSpaceOnUse" xlink:href="#linearGradient3263"/><radialGradient id="radialGradient6689" cx="63.756" cy="138.482" r="64.499" fx="63.756" fy="138.482" gradientTransform="matrix(8.4943312e-2,1.9883248e-2,-1.8542146e-2,4.7964949e-2,61.988311,7.2714754)" gradientUnits="userSpaceOnUse" xlink:href="#linearGradient3263"/><radialGradient id="radialGradient6692" cx="280.563" cy="429.615" r="50.012" fx="280.563" fy="429.615" gradientTransform="matrix(3.5278876e-2,1.0811042e-2,-0.2425097,0.5520638,152.18865,-211.26794)" gradientUnits="userSpaceOnUse" xlink:href="#linearGradient3255"/><radialGradient id="radialGradient6700" cx="280.563" cy="429.615" r="50.012" fx="280.563" fy="429.615" gradientTransform="matrix(0.03527888,0.01081104,-0.2425097,0.5520638,152.18865,-211.26794)" gradientUnits="userSpaceOnUse" xlink:href="#linearGradient3255"/></defs><metadata id="metadata4"/><g id="layer4" display="inline"><path id="path2520" fill="none" stroke="#fff" stroke-linecap="butt" stroke-linejoin="miter" stroke-opacity=".345" stroke-width="1.269" d="m 2.4387417,43.854152 c -0.2323868,1.290882 -0.4635251,2.186331 0.552219,2.186331 l 42.2249603,0 c 1.065146,0 0.862475,-1.023776 0.552618,-2.268556 L 36.99844,6.0228697 l -28.1965423,0 -6.363156,37.8312823 z"/><path id="path1278" fill="url(#radialGradient5664)" fill-opacity="1" fill-rule="evenodd" stroke="#000" stroke-linecap="butt" stroke-linejoin="miter" stroke-opacity="1" stroke-width=".047" d="M 1.2145375,44.681064 3.6558492,23.0906 5.3878813,3.2143853 14.642626,3.2638965 24.29346,2.6202508 33.152115,3.2638965 42.40686,3.2143853 45.506016,23.97638 46.948177,45.39643 35.422774,45.713759 23.897371,44.842818 12.060842,45.95021 1.2145375,44.681064 z"/><path id="path2682" fill="#4e9a06" fill-opacity="1" fill-rule="evenodd" stroke="none" d="m 35.404455,40.271394 c -0.154581,2.244302 -2.402686,1.489641 -2.34539,-0.380779 -1.212739,-1.373457 -2.975785,-0.02392 -3.606006,1.548371 -0.48949,1.159733 -1.197304,3.331446 -2.385453,3.009396 -0.122347,-1.891084 2.614944,-3.120152 1.441769,-5.359457 -0.474815,-1.835672 -0.709995,-4.054908 0.22337,-5.727708 1.684788,-0.898345 1.31283,-4.266315 -0.172394,-5.179605 -0.233337,-2.13163 1.490331,-4.192179 0.440764,-6.236033 -1.282158,-1.90241 0.07721,-4.638044 -0.679297,-6.620083 -1.166272,-1.292463 -1.68297,-4.45831 0.242717,-5.034519 1.586482,-1.0255481 2.210403,-3.4906414 1.963164,-5.6329314 0.217996,-2.3085591 3.29589,-1.0398285 1.919155,0.9277262 -0.751465,2.0029772 -2.170222,4.0211028 -1.658712,6.4015322 0.830381,1.971556 3.527173,0.602753 3.256491,3.121375 0.03314,1.994357 0.819048,0.678437 2.309246,1.194552 1.320557,0.614625 1.965479,1.851314 2.325367,-0.162321 0.313602,-1.958126 0.05647,0.197907 0.960731,-1.62676 0.586761,-1.876907 2.999337,-3.866734 4.162623,-1.734396 0.922015,2.661854 -1.82099,3.326213 -2.553396,5.098239 -0.591426,2.327646 0.529343,4.574421 1.004722,6.767913 0.626252,2.533517 1.185507,5.158776 1.220607,7.82833 0.215598,2.532045 -1.76124,1.394871 -2.739175,0.82901 0.223276,1.388668 1.175655,2.786988 1.686426,4.173743 0.536092,1.452577 1.297012,3.298704 0.615911,4.850687 -1.450112,1.857736 -2.998162,-0.498876 -3.463827,-2.285863 -2.196046,0.542937 -1.353461,-0.0149 -4.169413,0.229581 z"/><path id="path1901" fill="#3465a4" fill-opacity="1" fill-rule="evenodd" stroke="none" d="m 21.984994,31.448934 c 4.03983,0.105717 1.443776,7.173137 1.443776,0.3714 0,-16.327962 9.55835,-16.841536 9.55835,-3.553327 0,2.292993 2.487482,3.403038 2.487482,5.696036 0,7.988901 1.336677,9.642183 -3.639092,9.642183 -0.794607,0 -1.589217,0 -2.383824,0 -1.225831,0 3.595733,-13.808298 -3.143896,-5.999592 -2.485296,2.879526 -5.852711,3.32614 -8.901933,4.213998 -2.587122,0.753319 -7.4318807,2.05728 -7.4318807,-4.067411 0,-5.55127 -2.1482566,-11.767341 -2.1482566,-4.031023 0,3.209562 8.6103843,-9.952836 8.9755303,-4.17791 0.107498,1.700075 4.082036,1.905646 5.183744,1.905646 z"/><path id="path2680" fill="#75507b" fill-opacity="1" fill-rule="evenodd" stroke="none" d="m 5.0982617,25.057628 2.0935834,-5.765821 -0.1744663,5.912791 2.625707,-3.538625 4.5622672,-2.374166 0.581332,2.321838 0.504029,0.870352 1.345132,0.925124 2.131778,1.795477 -2.852511,5.912792 -1.70976,2.758546 -2.302944,-2.758546 -2.2593232,2.758546 0,3.154237 -4.5622706,0 L 5.2029763,31.835582 5.0808152,31.11739 3.353607,25.204598 5.0982617,25.057637 z"/><path id="path2670" fill="none" stroke="#696969" stroke-dasharray="none" stroke-linecap="butt" stroke-linejoin="miter" stroke-miterlimit="4" stroke-opacity="1" stroke-width="1.633" d="m 5.5364622,2.2052618 c 0.7738489,0.2176198 4.9282268,1.5954422 9.1813498,1.5753355 4.253123,-0.020107 8.604992,-1.4381424 9.377733,-1.6630735 0.77274,0.2249309 4.923793,1.3276204 9.173868,1.3276204 4.250075,0 8.599173,-1.1026895 9.371914,-1.3276204 -0.10874,8.1368812 2.511845,19.0565462 2.906605,21.6618742 -0.801898,3.680872 2.027779,19.496857 1.641407,21.296306 -0.772741,0.224929 -6.184575,0.691602 -11.596409,0.550698 -5.411834,-0.140904 -10.823667,-0.889384 -11.596408,-1.114311 -0.772741,0.22493 -6.133959,1.525664 -11.5942,1.525664 -5.4602411,0 -10.0292803,-1.201712 -10.8020212,-1.426642 C 1.9866712,42.811666 3.9030528,26.473167 3.0215702,23.485453 4.20012,20.893827 5.9250487,3.9900867 5.5364622,2.2052618 z"/><path id="path5684" fill="none" stroke="#000" stroke-dasharray="none" stroke-linecap="round" stroke-miterlimit="4" stroke-opacity="1" stroke-width="2.092" d="m 25.84485,19.481544 a 6.2879233,5.8423223 0 1 1 -12.575847,0 6.2879233,5.8423223 0 1 1 12.575847,0 z" opacity=".5" transform="matrix(0.95677092,0,0,1.0719141,0.23508739,-8.1164405)"/><path id="path5688" fill="none" stroke="#000" stroke-dasharray="none" stroke-linecap="round" stroke-miterlimit="4" stroke-opacity="1" stroke-width="1.854" d="m 19.754971,19.481544 a 0.19804476,0.19804476 0 1 1 -0.396089,0 0.19804476,0.19804476 0 1 1 0.396089,0 z" display="inline" opacity=".5" transform="matrix(1.8284693,0,0,2.1415527,-16.814528,-29.225332)"/></g><g id="layer5" display="none"><path id="path2538" fill="none" fill-opacity="1" stroke="none" stroke-dashoffset="0" stroke-linecap="butt" stroke-linejoin="round" stroke-miterlimit="4" stroke-opacity="1" stroke-width="1.25" d="M 325.80811,118.61269 A 100.89618,100.89618 0 1 1 124.01575,118.61269 A 100.89618,100.89618 0 1 1 325.80811,118.61269 z" opacity=".329" transform="translate(10.1811,0.625001)"/><path id="path2615" fill="url(#pattern2692) #000000" fill-opacity="1" stroke="none" stroke-dashoffset="0" stroke-linecap="butt" stroke-linejoin="round" stroke-miterlimit="4" stroke-opacity="1" stroke-width="1.25" d="M 325.80811,118.61269 A 100.89618,100.89618 0 1 1 124.01575,118.61269 A 100.89618,100.89618 0 1 1 325.80811,118.61269 z" opacity=".36" transform="translate(10.8061,6.60814e-7)"/><rect id="rect2614" width="32.232" height="37.876" x="183.767" y="59.468" fill="none" stroke="none"/><rect id="rect2631" width="32.232" height="28.276" x="183.767" y="59.468" fill="none" stroke="none"/><rect id="rect2684" width="74.525" height="53.15" x="379.398" y="159.449" fill="none" fill-opacity="1" stroke="none" stroke-dashoffset="0" stroke-linecap="butt" stroke-linejoin="round" stroke-miterlimit="4" stroke-opacity="1" stroke-width="2.5" opacity=".36"/></g><g id="layer1" display="none"><g id="g2489" display="block"><g id="g1774" transform="matrix(0.707107,0.707107,-0.707107,0.707107,161.603,-155.887)"><path id="path1736" fill="url(#linearGradient1777) #000000" fill-opacity="1" stroke="#000" stroke-linecap="butt" stroke-linejoin="miter" stroke-miterlimit="4" stroke-opacity="1" stroke-width="6.25" d="M 248.03125,35.4375 C 189.35409,35.4375 141.71875,83.041586 141.71875,141.71875 C 141.71875,194.3456 180.07689,237.97584 230.3125,246.4375 L 230.3125,283.46875 L 265.75,283.46875 L 265.75,246.4375 C 315.98562,237.97584 354.34377,194.3456 354.34375,141.71875 C 354.34375,83.041586 306.70841,35.4375 248.03125,35.4375 z M 248.03125,53.15625 C 296.92889,53.15625 336.625,92.821111 336.625,141.71875 C 336.62501,190.61639 296.92889,230.3125 248.03125,230.3125 C 199.13361,230.31251 159.4375,190.61639 159.4375,141.71875 C 159.43749,92.821111 199.13361,53.15625 248.03125,53.15625 z"/><rect id="rect1762" width="70.866" height="157.653" x="212.598" y="280.646" fill="url(#linearGradient1778) #000000" fill-opacity="1" stroke="url(#linearGradient1779) #000000" stroke-linecap="butt" stroke-linejoin="round" stroke-miterlimit="4" stroke-opacity="1" stroke-width="7.612" rx="20" ry="20"/></g><path id="path2410" fill="url(#radialGradient2415) #000000" fill-opacity="1" stroke="none" stroke-linecap="butt" stroke-linejoin="round" stroke-miterlimit="4" stroke-opacity="1" stroke-width="6.25" d="M 248.03149,70.866119 A 35.433071,35.433071 0 1 1 177.16535,70.866119 A 35.433071,35.433071 0 1 1 248.03149,70.866119 z" transform="matrix(0.933079,0,0,0.933079,15.9212,6.43622)"/><path id="path2416" fill="url(#linearGradient2422) #000000" fill-opacity="1" stroke="none" stroke-linecap="butt" stroke-linejoin="round" stroke-miterlimit="4" stroke-opacity="1" stroke-width="6.25" d="M 315.0625,109.375 C 299.69703,151.4495 259.43408,181.5625 212.0625,181.5625 C 203.41775,181.5625 195.03901,180.45504 186.96875,178.5625 C 200.7201,191.72641 219.31873,199.875 239.84375,199.875 C 282.10327,199.875 316.40626,165.57202 316.40625,123.3125 C 316.40625,118.55128 315.89556,113.89642 315.0625,109.375 z"/></g></g></svg>