<svg xmlns="http://www.w3.org/2000/svg" xmlns:xlink="http://www.w3.org/1999/xlink" id="svg602" width="500pt" height="500pt" xml:space="preserve"><defs id="defs604"><linearGradient id="linearGradient627"><stop id="stop628" offset="0" stop-color="#7f7f7f" stop-opacity="1"/><stop id="stop629" offset="1" stop-color="#000" stop-opacity="0"/></linearGradient><linearGradient id="linearGradient630" xlink:href="#linearGradient627"/><radialGradient id="radialGradient631" cx=".492" cy=".484" r=".713" fx=".492" fy=".484" xlink:href="#linearGradient627"/><radialGradient id="radialGradient634" cx=".5" cy=".5" r=".5" fx=".5" fy=".5" xlink:href="#linearGradient627"/><radialGradient id="radialGradient637" cx=".495" cy=".535" r=".558" fx=".495" fy=".535" gradientTransform="scale(1.038947,0.962513)" gradientUnits="objectBoundingBox" xlink:href="#linearGradient627"/></defs><path id="path617" fill="none" fill-rule="evenodd" stroke="#000" stroke-width="1.036" d="M 156.0099 324.2898 L 204.6063 324.2898" font-size="12"/><path id="path618" fill="none" fill-opacity="1" fill-rule="evenodd" stroke="#000" stroke-dasharray="none" stroke-linecap="butt" stroke-linejoin="miter" stroke-opacity="1" stroke-width="12.5" d="M 239.7523 190.8234 L 204.6063 191.0687 L 206.2821 456.673 L 238.6627 456.6221"/><path id="path638" fill="none" fill-rule="evenodd" stroke="#000" stroke-opacity=".27" stroke-width="13.131" d="M 155.172 333.5064 L 208.7956 333.5064" font-size="12"/><path id="path640" fill="none" fill-opacity="1" fill-rule="evenodd" stroke="#000" stroke-dasharray="none" stroke-linecap="butt" stroke-linejoin="miter" stroke-opacity=".27" stroke-width="12.5" d="M 465.4795 398.8601 L 431.1269 398.7585 L 431.6686 532.0811 L 465.7758 532.2757"/><path id="path641" fill="none" fill-rule="evenodd" stroke="#000" stroke-opacity=".27" stroke-width="13.307" d="M 367.1527 199.4475 L 424.1279 199.4475" font-size="12"/><path id="path642" fill="none" fill-opacity="1" fill-rule="evenodd" stroke="#000" stroke-dasharray="none" stroke-linecap="butt" stroke-linejoin="miter" stroke-opacity=".27" stroke-width="12.5" d="M 466.4191 119.9008 L 429.9928 119.85 L 430.7291 253.3673 L 464.2946 253.3164"/><path id="path643" fill="none" fill-rule="evenodd" stroke="#000" stroke-opacity=".27" stroke-width="13.593" d="M 364.8845 465.0517 L 425.0302 465.0517" font-size="12"/><path id="path622" fill="none" fill-opacity="1" fill-rule="evenodd" stroke="#000" stroke-dasharray="none" stroke-linecap="butt" stroke-linejoin="miter" stroke-opacity="1" stroke-width="12.5" d="M 453.8511 110.6842 L 417.4248 110.6334 L 418.1611 244.1507 L 451.7266 244.0998"/><path id="path621" fill="none" fill-rule="evenodd" stroke="#000" stroke-dasharray="none" stroke-width="12.5" d="M 370.5042 190.2309 L 420.7764 190.2309" font-size="12"/><path id="path623" fill="none" fill-rule="evenodd" stroke="#000" stroke-dasharray="none" stroke-width="12.5" d="M 369.9117 456.673 L 420.7764 456.673" font-size="12"/><path id="path620" fill="none" fill-opacity="1" fill-rule="evenodd" stroke="#000" stroke-dasharray="none" stroke-linecap="butt" stroke-linejoin="miter" stroke-opacity="1" stroke-width="12.5" d="M 452.9115 389.6435 L 418.5589 389.5419 L 419.1006 522.8645 L 453.2078 523.0591"/><path id="path639" fill="none" fill-opacity="1" fill-rule="evenodd" stroke="#000" stroke-dasharray="none" stroke-linecap="butt" stroke-linejoin="miter" stroke-opacity=".27" stroke-width="12.5" d="M 251.8231 200.04 L 217.1743 200.2853 L 218.8501 465.8896 L 251.2307 465.8387"/><path id="path614" fill="none" fill-opacity="1" fill-rule="evenodd" stroke="#000" stroke-dasharray="none" stroke-linecap="butt" stroke-linejoin="miter" stroke-opacity="1" stroke-width="12.5" d="M 156.01 325.1277 L 202.0927 325.1277"/><path id="path664" fill="#70d4bc" fill-opacity="1" fill-rule="evenodd" stroke="none" stroke-dasharray="none" stroke-linecap="square" stroke-linejoin="miter" stroke-opacity="1" stroke-width="0" d="M 152.47 221.4361 C 258.0944 269.1659 258.0944 269.1659 258.0944 269.1659"/><path id="path670" fill="#d7d7d7" fill-rule="evenodd" stroke="#b8b8b8" stroke-dasharray="none" stroke-linecap="square" stroke-width="1.875" d="M 211.973 452.3667 C 211.9525 452.3929 237.9633 452.4482 237.9633 452.4482 L 237.9639 452.4482" font-size="12"/><path id="path671" fill="#d7d7d7" fill-rule="evenodd" stroke="#b8b8b8" stroke-linecap="square" stroke-opacity="1" stroke-width="1.865" d="M 201.9894 460.6508 C 202.0165 460.7533 201.1578 331.1745 201.1578 331.1745 L 201.1577 331.1716" font-size="12"/><path id="path672" fill="#d7d7d7" fill-rule="evenodd" stroke="#b8b8b8" stroke-dasharray="none" stroke-linecap="square" stroke-opacity="1" stroke-width="1.875" d="M 201.2082 320.0251 C 201.2352 320.1305 200.3765 187.0357 200.3765 187.0357 L 200.3764 187.0326" font-size="12"/><path id="path673" fill="#d7d7d7" fill-rule="evenodd" stroke="#b8b8b8" stroke-dasharray="none" stroke-linecap="square" stroke-opacity="1" stroke-width="1.875" d="M 200.3291 186.9318 C 200.2993 186.9585 238.5676 186.6442 238.5676 186.6442 L 238.5683 186.6442" font-size="12"/><path id="path674" fill="#d7d7d7" fill-rule="evenodd" stroke="#b8b8b8" stroke-dasharray="none" stroke-linecap="square" stroke-opacity="1" stroke-width="1.875" d="M 157.2396 321.2826 C 157.2053 321.3093 201.2233 320.995 201.2233 320.995 L 201.2241 320.995" font-size="12"/><path id="path875" fill="#d7d7d7" fill-rule="evenodd" stroke="#b8b8b8" stroke-linecap="square" stroke-width="1.869" d="M 414.0218 185.6494 C 414.0488 185.7122 413.1901 106.5653 413.1901 106.5653 L 413.19 106.5634" font-size="12"/><path id="path876" fill="#d7d7d7" fill-rule="evenodd" stroke="#b8b8b8" stroke-dasharray="none" stroke-linecap="square" stroke-opacity="1" stroke-width="1.875" d="M 414.7052 106.6189 C 414.6754 106.6456 452.9437 106.3313 452.9437 106.3313 L 452.9444 106.3313" font-size="12"/><path id="path877" fill="#d7d7d7" fill-rule="evenodd" stroke="#b8b8b8" stroke-linecap="square" stroke-width="1.841" d="M 371.6157 186.5944 C 371.5826 186.6211 414.0369 186.3068 414.0369 186.3068 L 414.0377 186.3068" font-size="12"/><rect id="rect644" width="136.532" height="99.2" x="247.502" y="151.234" fill="url(#radialGradient631)" fill-opacity=".291" fill-rule="evenodd" stroke="none" stroke-dasharray="none" stroke-dashoffset="5" stroke-opacity="1" stroke-width="0" font-size="12"/><path id="path878" fill="#d7d7d7" fill-rule="evenodd" stroke="#b8b8b8" stroke-dasharray="none" stroke-linecap="square" stroke-width="1.875" d="M 423.7126 239.8883 C 423.6909 239.9145 451.1822 239.9698 451.1822 239.9698 L 451.1828 239.9698" font-size="12"/><path id="path879" fill="#d7d7d7" fill-rule="evenodd" stroke="#b8b8b8" stroke-linecap="square" stroke-width="1.875" d="M 414.0284 247.8598 C 414.0555 247.9007 413.8233 196.5997 413.8233 196.5997 L 413.8232 196.5986" font-size="12"/><path id="path880" fill="#d7d7d7" fill-rule="evenodd" stroke="#b8b8b8" stroke-linecap="square" stroke-width="1.875" d="M 414.7178 452.2609 C 414.7446 452.3139 414.4684 385.5465 414.4684 385.5465 L 414.4683 385.5449" font-size="12"/><path id="path881" fill="#d7d7d7" fill-rule="evenodd" stroke="#b8b8b8" stroke-dasharray="none" stroke-linecap="square" stroke-width="1.875" d="M 415.2487 385.6363 C 415.2193 385.6828 452.1647 385.5016 452.1647 385.5016 L 452.1653 385.5016" font-size="12"/><path id="path882" fill="#d7d7d7" fill-rule="evenodd" stroke="#b8b8b8" stroke-linecap="square" stroke-width="1.841" d="M 371.2783 452.761 C 371.2452 452.7877 413.6995 452.4734 413.6995 452.4734 L 413.7003 452.4734" font-size="12"/><path id="path884" fill="#d7d7d7" fill-rule="evenodd" stroke="#b8b8b8" stroke-dasharray="none" stroke-linecap="square" stroke-width="1.875" d="M 424.6743 518.715 C 424.6524 518.7412 452.3001 518.7965 452.3001 518.7965 L 452.3007 518.7965" font-size="12"/><path id="path885" fill="#d7d7d7" fill-rule="evenodd" stroke="#b8b8b8" stroke-dasharray="none" stroke-linecap="square" stroke-width="1.875" d="M 415.4588 526.8428 C 415.4859 526.8941 415.2537 462.5457 415.2537 462.5457 L 415.2536 462.5443" font-size="12"/><rect id="rect886" width="136.532" height="99.2" x="246.252" y="419.361" fill="url(#radialGradient631)" fill-opacity=".291" fill-rule="evenodd" stroke="none" stroke-dasharray="none" stroke-dashoffset="5" stroke-opacity="1" stroke-width="0" font-size="12"/><rect id="rect887" width="136.532" height="99.2" x="31.251" y="286.235" fill="url(#radialGradient631)" fill-opacity=".291" fill-rule="evenodd" stroke="none" stroke-dasharray="none" stroke-dashoffset="5" stroke-opacity="1" stroke-width="0" font-size="12"/><rect id="rect888" width="136.532" height="99.2" x="460.004" y="69.358" fill="url(#radialGradient631)" fill-opacity=".291" fill-rule="evenodd" stroke="none" stroke-dasharray="none" stroke-dashoffset="5" stroke-opacity="1" stroke-width="0" font-size="12"/><rect id="rect889" width="136.532" height="99.2" x="458.754" y="204.359" fill="url(#radialGradient631)" fill-opacity=".291" fill-rule="evenodd" stroke="none" stroke-dasharray="none" stroke-dashoffset="5" stroke-opacity="1" stroke-width="0" font-size="12"/><rect id="rect890" width="136.532" height="99.2" x="459.379" y="348.735" fill="url(#radialGradient631)" fill-opacity=".291" fill-rule="evenodd" stroke="none" stroke-dasharray="none" stroke-dashoffset="5" stroke-opacity="1" stroke-width="0" font-size="12"/><rect id="rect892" width="136.532" height="99.2" x="460.004" y="483.736" fill="url(#radialGradient631)" fill-opacity=".291" fill-rule="evenodd" stroke="none" stroke-dasharray="none" stroke-dashoffset="5" stroke-opacity="1" stroke-width="0" font-size="12"/><g id="g711" font-size="12" transform="translate(168.9851,300.1636)"><rect id="rect712" width="118.977" height="81.273" x="290.74" y="182.763" fill="#ead4bc" fill-opacity="1" fill-rule="evenodd" stroke="#b39166" stroke-dasharray="none" stroke-dashoffset="5" stroke-width="12.5" font-size="12"/><path id="path713" fill="#d4b993" fill-opacity="1" fill-rule="evenodd" stroke="none" stroke-dasharray="none" stroke-linecap="square" stroke-linejoin="miter" stroke-opacity="1" stroke-width="0" d="M 284.4987 176.5118 L 415.9331 176.5096 L 403.4166 189.0328 L 296.9416 188.9893 L 284.4987 176.5118 z"/><path id="path714" fill="#b39a7d" fill-opacity="1" fill-rule="evenodd" stroke="none" stroke-dasharray="none" stroke-linecap="square" stroke-linejoin="miter" stroke-opacity="1" stroke-width="0" d="M 284.5556 176.58 L 296.9299 188.9543 L 296.8747 257.6765 L 284.5555 270.106 L 284.5556 176.58 z"/><path id="path715" fill="#887058" fill-opacity="1" fill-rule="evenodd" stroke="none" stroke-dasharray="none" stroke-linecap="square" stroke-linejoin="miter" stroke-opacity="1" stroke-width="0" d="M 415.9927 176.7363 L 403.6184 189.1105 L 403.6736 257.8327 L 415.9928 270.2622 L 415.9927 176.7363 z"/><path id="path716" fill="#695144" fill-opacity="1" fill-rule="evenodd" stroke="none" stroke-dasharray="none" stroke-linecap="square" stroke-linejoin="miter" stroke-opacity="1" stroke-width="0" d="M 416.0892 270.2808 L 284.6549 270.283 L 297.1714 257.7598 L 403.6463 257.8033 L 416.0892 270.2808 z"/></g><g id="g705" font-size="12" transform="translate(168.36,166.413)"><rect id="rect706" width="118.977" height="81.273" x="290.74" y="182.763" fill="#ead4bc" fill-opacity="1" fill-rule="evenodd" stroke="#b39166" stroke-dasharray="none" stroke-dashoffset="5" stroke-width="12.5" font-size="12"/><path id="path707" fill="#d4b993" fill-opacity="1" fill-rule="evenodd" stroke="none" stroke-dasharray="none" stroke-linecap="square" stroke-linejoin="miter" stroke-opacity="1" stroke-width="0" d="M 284.4987 176.5118 L 415.9331 176.5096 L 403.4166 189.0328 L 296.9416 188.9893 L 284.4987 176.5118 z"/><path id="path708" fill="#b39a7d" fill-opacity="1" fill-rule="evenodd" stroke="none" stroke-dasharray="none" stroke-linecap="square" stroke-linejoin="miter" stroke-opacity="1" stroke-width="0" d="M 284.5556 176.58 L 296.9299 188.9543 L 296.8747 257.6765 L 284.5555 270.106 L 284.5556 176.58 z"/><path id="path709" fill="#887058" fill-opacity="1" fill-rule="evenodd" stroke="none" stroke-dasharray="none" stroke-linecap="square" stroke-linejoin="miter" stroke-opacity="1" stroke-width="0" d="M 415.9927 176.7363 L 403.6184 189.1105 L 403.6736 257.8327 L 415.9928 270.2622 L 415.9927 176.7363 z"/><path id="path710" fill="#695144" fill-opacity="1" fill-rule="evenodd" stroke="none" stroke-dasharray="none" stroke-linecap="square" stroke-linejoin="miter" stroke-opacity="1" stroke-width="0" d="M 416.0892 270.2808 L 284.6549 270.283 L 297.1714 257.7598 L 403.6463 257.8033 L 416.0892 270.2808 z"/></g><g id="g699" font-size="12" transform="translate(167.4225,20.78735)"><rect id="rect700" width="118.977" height="81.273" x="290.74" y="182.763" fill="#ead4bc" fill-opacity="1" fill-rule="evenodd" stroke="#b39166" stroke-dasharray="none" stroke-dashoffset="5" stroke-width="12.5" font-size="12"/><path id="path701" fill="#d4b993" fill-opacity="1" fill-rule="evenodd" stroke="none" stroke-dasharray="none" stroke-linecap="square" stroke-linejoin="miter" stroke-opacity="1" stroke-width="0" d="M 284.4987 176.5118 L 415.9331 176.5096 L 403.4166 189.0328 L 296.9416 188.9893 L 284.4987 176.5118 z"/><path id="path702" fill="#b39a7d" fill-opacity="1" fill-rule="evenodd" stroke="none" stroke-dasharray="none" stroke-linecap="square" stroke-linejoin="miter" stroke-opacity="1" stroke-width="0" d="M 284.5556 176.58 L 296.9299 188.9543 L 296.8747 257.6765 L 284.5555 270.106 L 284.5556 176.58 z"/><path id="path703" fill="#887058" fill-opacity="1" fill-rule="evenodd" stroke="none" stroke-dasharray="none" stroke-linecap="square" stroke-linejoin="miter" stroke-opacity="1" stroke-width="0" d="M 415.9927 176.7363 L 403.6184 189.1105 L 403.6736 257.8327 L 415.9928 270.2622 L 415.9927 176.7363 z"/><path id="path704" fill="#695144" fill-opacity="1" fill-rule="evenodd" stroke="none" stroke-dasharray="none" stroke-linecap="square" stroke-linejoin="miter" stroke-opacity="1" stroke-width="0" d="M 416.0892 270.2808 L 284.6549 270.283 L 297.1714 257.7598 L 403.6463 257.8033 L 416.0892 270.2808 z"/></g><g id="g693" font-size="12" transform="translate(169.4538,-114.2133)"><rect id="rect694" width="118.977" height="81.273" x="290.74" y="182.763" fill="#ead4bc" fill-opacity="1" fill-rule="evenodd" stroke="#b39166" stroke-dasharray="none" stroke-dashoffset="5" stroke-width="12.5" font-size="12"/><path id="path695" fill="#d4b993" fill-opacity="1" fill-rule="evenodd" stroke="none" stroke-dasharray="none" stroke-linecap="square" stroke-linejoin="miter" stroke-opacity="1" stroke-width="0" d="M 284.4987 176.5118 L 415.9331 176.5096 L 403.4166 189.0328 L 296.9416 188.9893 L 284.4987 176.5118 z"/><path id="path696" fill="#b39a7d" fill-opacity="1" fill-rule="evenodd" stroke="none" stroke-dasharray="none" stroke-linecap="square" stroke-linejoin="miter" stroke-opacity="1" stroke-width="0" d="M 284.5556 176.58 L 296.9299 188.9543 L 296.8747 257.6765 L 284.5555 270.106 L 284.5556 176.58 z"/><path id="path697" fill="#887058" fill-opacity="1" fill-rule="evenodd" stroke="none" stroke-dasharray="none" stroke-linecap="square" stroke-linejoin="miter" stroke-opacity="1" stroke-width="0" d="M 415.9927 176.7363 L 403.6184 189.1105 L 403.6736 257.8327 L 415.9928 270.2622 L 415.9927 176.7363 z"/><path id="path698" fill="#695144" fill-opacity="1" fill-rule="evenodd" stroke="none" stroke-dasharray="none" stroke-linecap="square" stroke-linejoin="miter" stroke-opacity="1" stroke-width="0" d="M 416.0892 270.2808 L 284.6549 270.283 L 297.1714 257.7598 L 403.6463 257.8033 L 416.0892 270.2808 z"/></g><g id="g675" font-size="12" transform="translate(-45.39099,-32.96295)"><rect id="rect607" width="118.977" height="81.273" x="290.74" y="182.763" fill="#ead4bc" fill-opacity="1" fill-rule="evenodd" stroke="#b39166" stroke-dasharray="none" stroke-dashoffset="5" stroke-width="12.5" font-size="12"/><path id="path660" fill="#d4b993" fill-opacity="1" fill-rule="evenodd" stroke="none" stroke-dasharray="none" stroke-linecap="square" stroke-linejoin="miter" stroke-opacity="1" stroke-width="0" d="M 284.4987 176.5118 L 415.9331 176.5096 L 403.4166 189.0328 L 296.9416 188.9893 L 284.4987 176.5118 z"/><path id="path661" fill="#b39a7d" fill-opacity="1" fill-rule="evenodd" stroke="none" stroke-dasharray="none" stroke-linecap="square" stroke-linejoin="miter" stroke-opacity="1" stroke-width="0" d="M 284.5556 176.58 L 296.9299 188.9543 L 296.8747 257.6765 L 284.5555 270.106 L 284.5556 176.58 z"/><path id="path662" fill="#887058" fill-opacity="1" fill-rule="evenodd" stroke="none" stroke-dasharray="none" stroke-linecap="square" stroke-linejoin="miter" stroke-opacity="1" stroke-width="0" d="M 415.9927 176.7363 L 403.6184 189.1105 L 403.6736 257.8327 L 415.9928 270.2622 L 415.9927 176.7363 z"/><path id="path663" fill="#695144" fill-opacity="1" fill-rule="evenodd" stroke="none" stroke-dasharray="none" stroke-linecap="square" stroke-linejoin="miter" stroke-opacity="1" stroke-width="0" d="M 416.0892 270.2808 L 284.6549 270.283 L 297.1714 257.7598 L 403.6463 257.8033 L 416.0892 270.2808 z"/></g><g id="g687" font-size="12" transform="translate(-45.72247,234.5384)"><rect id="rect688" width="118.977" height="81.273" x="290.74" y="182.763" fill="#ead4bc" fill-opacity="1" fill-rule="evenodd" stroke="#b39166" stroke-dasharray="none" stroke-dashoffset="5" stroke-width="12.5" font-size="12"/><path id="path689" fill="#d4b993" fill-opacity="1" fill-rule="evenodd" stroke="none" stroke-dasharray="none" stroke-linecap="square" stroke-linejoin="miter" stroke-opacity="1" stroke-width="0" d="M 284.4987 176.5118 L 415.9331 176.5096 L 403.4166 189.0328 L 296.9416 188.9893 L 284.4987 176.5118 z"/><path id="path690" fill="#b39a7d" fill-opacity="1" fill-rule="evenodd" stroke="none" stroke-dasharray="none" stroke-linecap="square" stroke-linejoin="miter" stroke-opacity="1" stroke-width="0" d="M 284.5556 176.58 L 296.9299 188.9543 L 296.8747 257.6765 L 284.5555 270.106 L 284.5556 176.58 z"/><path id="path691" fill="#887058" fill-opacity="1" fill-rule="evenodd" stroke="none" stroke-dasharray="none" stroke-linecap="square" stroke-linejoin="miter" stroke-opacity="1" stroke-width="0" d="M 415.9927 176.7363 L 403.6184 189.1105 L 403.6736 257.8327 L 415.9928 270.2622 L 415.9927 176.7363 z"/><path id="path692" fill="#695144" fill-opacity="1" fill-rule="evenodd" stroke="none" stroke-dasharray="none" stroke-linecap="square" stroke-linejoin="miter" stroke-opacity="1" stroke-width="0" d="M 416.0892 270.2808 L 284.6549 270.283 L 297.1714 257.7598 L 403.6463 257.8033 L 416.0892 270.2808 z"/></g><g id="g681" font-size="12" transform="translate(-259.767,101.4127)"><rect id="rect682" width="118.977" height="81.273" x="290.74" y="182.763" fill="#ead4bc" fill-opacity="1" fill-rule="evenodd" stroke="#b39166" stroke-dasharray="none" stroke-dashoffset="5" stroke-width="12.5" font-size="12"/><path id="path683" fill="#d4b993" fill-opacity="1" fill-rule="evenodd" stroke="none" stroke-dasharray="none" stroke-linecap="square" stroke-linejoin="miter" stroke-opacity="1" stroke-width="0" d="M 284.4987 176.5118 L 415.9331 176.5096 L 403.4166 189.0328 L 296.9416 188.9893 L 284.4987 176.5118 z"/><path id="path684" fill="#b39a7d" fill-opacity="1" fill-rule="evenodd" stroke="none" stroke-dasharray="none" stroke-linecap="square" stroke-linejoin="miter" stroke-opacity="1" stroke-width="0" d="M 284.5556 176.58 L 296.9299 188.9543 L 296.8747 257.6765 L 284.5555 270.106 L 284.5556 176.58 z"/><path id="path685" fill="#887058" fill-opacity="1" fill-rule="evenodd" stroke="none" stroke-dasharray="none" stroke-linecap="square" stroke-linejoin="miter" stroke-opacity="1" stroke-width="0" d="M 415.9927 176.7363 L 403.6184 189.1105 L 403.6736 257.8327 L 415.9928 270.2622 L 415.9927 176.7363 z"/><path id="path686" fill="#695144" fill-opacity="1" fill-rule="evenodd" stroke="none" stroke-dasharray="none" stroke-linecap="square" stroke-linejoin="miter" stroke-opacity="1" stroke-width="0" d="M 416.0892 270.2808 L 284.6549 270.283 L 297.1714 257.7598 L 403.6463 257.8033 L 416.0892 270.2808 z"/></g></svg>