<svg xmlns="http://www.w3.org/2000/svg" xmlns:cc="http://web.resource.org/cc/" xmlns:svg="http://www.w3.org/2000/svg" xmlns:xlink="http://www.w3.org/1999/xlink" id="svg249" width="48" height="48"><defs id="defs3"><linearGradient id="linearGradient3703"><stop id="stop3705" offset="0" stop-color="#000" stop-opacity="0"/><stop id="stop3711" offset=".5" stop-color="#000" stop-opacity="1"/><stop id="stop3707" offset="1" stop-color="#000" stop-opacity="0"/></linearGradient><linearGradient id="linearGradient3722" x1="17.554" x2="17.554" y1="46" y2="35" gradientTransform="matrix(1.179548,0,0,1,-4.219389,0)" gradientUnits="userSpaceOnUse" xlink:href="#linearGradient3703"/><radialGradient id="radialGradient3720" cx="5" cy="41.5" r="5" fx="5" fy="41.5" gradientTransform="matrix(0.99001,0,0,1.1,-14.88523,-86.15)" gradientUnits="userSpaceOnUse" xlink:href="#linearGradient3681"/><linearGradient id="linearGradient3681"><stop id="stop3683" offset="0" stop-color="#000" stop-opacity="1"/><stop id="stop3685" offset="1" stop-color="#000" stop-opacity="0"/></linearGradient><radialGradient id="radialGradient3718" cx="5" cy="41.5" r="5" fx="5" fy="41.5" gradientTransform="matrix(0.990017,0,0,1.1,32.1147,-5.15)" gradientUnits="userSpaceOnUse" xlink:href="#linearGradient3681"/><linearGradient id="linearGradient4210"><stop id="stop4212" offset="0" stop-color="#eaba6f" stop-opacity="1"/><stop id="stop4214" offset="1" stop-color="#b97a1b" stop-opacity="1"/></linearGradient><linearGradient id="linearGradient3845" x1="24.99" x2="23.452" y1="49.424" y2="14.383" gradientTransform="matrix(0.5,0,0,0.664951,6.506572,0.222892)" gradientUnits="userSpaceOnUse" xlink:href="#linearGradient4210"/><linearGradient id="linearGradient4559"><stop id="stop4561" offset="0" stop-color="#fff" stop-opacity="1"/><stop id="stop4563" offset="1" stop-color="#fff" stop-opacity="0"/></linearGradient><linearGradient id="linearGradient4565" x1="23.452" x2="43.007" y1="30.555" y2="45.934" gradientTransform="matrix(0.5,0,0,0.5,6.506572,4.555092)" gradientUnits="userSpaceOnUse" xlink:href="#linearGradient4559"/><linearGradient id="linearGradient4532"><stop id="stop4534" offset="0" stop-color="#000" stop-opacity="1"/><stop id="stop4536" offset="1" stop-color="#000" stop-opacity="0"/></linearGradient><linearGradient id="linearGradient4538" x1="35.188" x2="26.563" y1="17.5" y2="17.438" gradientTransform="matrix(0.5,0,0,0.5,6.506572,4.555092)" gradientUnits="userSpaceOnUse" xlink:href="#linearGradient4532"/><linearGradient id="linearGradient4760"><stop id="stop4762" offset="0" stop-color="#fff" stop-opacity="1"/><stop id="stop4764" offset="1" stop-color="#fff" stop-opacity="0"/></linearGradient><linearGradient id="linearGradient4766" x1="28.063" x2="23.938" y1="19" y2="19" gradientTransform="matrix(0.5,0,0,0.5,6.506572,4.555092)" gradientUnits="userSpaceOnUse" xlink:href="#linearGradient4760"/><linearGradient id="linearGradient4770"><stop id="stop4772" offset="0" stop-color="#fcf3e6" stop-opacity="1"/><stop id="stop4774" offset="1" stop-color="#fcf3e6" stop-opacity="0"/></linearGradient><linearGradient id="linearGradient4776" x1="23.158" x2="30.008" y1="7.142" y2="11.474" gradientTransform="matrix(0.5,0,0,0.5,6.506572,4.555092)" gradientUnits="userSpaceOnUse" xlink:href="#linearGradient4770"/><linearGradient id="linearGradient627"><stop id="stop628" offset="0" stop-color="#7f7f7f" stop-opacity="1"/><stop id="stop629" offset="1" stop-color="#000" stop-opacity="0"/></linearGradient><radialGradient id="radialGradient631" cx="449.368" cy="623.876" r="82.947" fx="449.368" fy="623.876" gradientTransform="matrix(5.513908e-2,0,0,4.006233e-2,10.61721,14.74641)" gradientUnits="userSpaceOnUse" xlink:href="#linearGradient627"/><linearGradient id="linearGradient3702"><stop id="stop3704" offset="0" stop-color="#000" stop-opacity="0"/><stop id="stop3710" offset=".5" stop-color="#000" stop-opacity="1"/><stop id="stop3706" offset="1" stop-color="#000" stop-opacity="0"/></linearGradient><linearGradient id="linearGradient3688"><stop id="stop3690" offset="0" stop-color="#000" stop-opacity="1"/><stop id="stop3692" offset="1" stop-color="#000" stop-opacity="0"/></linearGradient><linearGradient id="linearGradient4790"><stop id="stop4792" offset="0" stop-color="#000" stop-opacity="1"/><stop id="stop4794" offset="1" stop-color="#000" stop-opacity="0"/></linearGradient><linearGradient id="linearGradient2251"><stop id="stop2253" offset="0" stop-color="#fff" stop-opacity="1"/><stop id="stop2255" offset="1" stop-color="#fff" stop-opacity="0"/></linearGradient><linearGradient id="linearGradient15662"><stop id="stop15664" offset="0" stop-color="#fff" stop-opacity="1"/><stop id="stop15666" offset="1" stop-color="#f8f8f8" stop-opacity="1"/></linearGradient><linearGradient id="linearGradient269"><stop id="stop270" offset="0" stop-color="#a3a3a3" stop-opacity="1"/><stop id="stop271" offset="1" stop-color="#8a8a8a" stop-opacity="1"/></linearGradient><linearGradient id="linearGradient259"><stop id="stop260" offset="0" stop-color="#fafafa" stop-opacity="1"/><stop id="stop261" offset="1" stop-color="#bbb" stop-opacity="1"/></linearGradient><radialGradient id="radialGradient15656" cx="8.824" cy="3.756" r="37.752" fx="8.824" fy="3.756" gradientTransform="matrix(0.968868,0,0,1.036068,3.351554,0.506089)" gradientUnits="userSpaceOnUse" xlink:href="#linearGradient269"/><radialGradient id="radialGradient15658" cx="33.967" cy="35.737" r="86.708" fx="33.967" fy="35.737" gradientTransform="matrix(0.961084,0,0,1.044459,-4.060961e-3,-0.142424)" gradientUnits="userSpaceOnUse" xlink:href="#linearGradient259"/><radialGradient id="radialGradient15668" cx="8.144" cy="7.268" r="38.159" fx="8.144" fy="7.268" gradientTransform="matrix(0.968273,0.000000,0.000000,1.032767,3.353553,0.646447)" gradientUnits="userSpaceOnUse" xlink:href="#linearGradient15662"/><radialGradient id="radialGradient3717" cx="4.993" cy="43.5" r="2.5" fx="4.993" fy="43.5" gradientTransform="matrix(2.003784,0,0,1.4,27.98813,-17.4)" gradientUnits="userSpaceOnUse" xlink:href="#linearGradient3688"/><radialGradient id="radialGradient3719" cx="4.993" cy="43.5" r="2.5" fx="4.993" fy="43.5" gradientTransform="matrix(2.003784,0,0,1.4,-20.01187,-104.4)" gradientUnits="userSpaceOnUse" xlink:href="#linearGradient3688"/><linearGradient id="linearGradient3721" x1="25.058" x2="25.058" y1="47.028" y2="39.999" gradientUnits="userSpaceOnUse" xlink:href="#linearGradient3702"/><radialGradient id="radialGradient1923" cx="37.03" cy="12.989" r="4.293" fx="37.03" fy="12.989" gradientTransform="matrix(1.744653,0,0,1.283833,-26.58256,-3.478359)" gradientUnits="userSpaceOnUse" xlink:href="#linearGradient4790"/><radialGradient id="radialGradient1925" cx="30.654" cy="14.937" r="86.708" fx="30.654" fy="14.937" gradientTransform="matrix(0.148355,1.009137e-2,-1.104438e-2,0.162365,25.06011,12.81706)" gradientUnits="userSpaceOnUse" xlink:href="#linearGradient259"/><radialGradient id="radialGradient1927" cx="31.863" cy="2.367" r="37.752" fx="31.863" fy="2.367" gradientTransform="matrix(0.331735,0,0,0.353831,20.10526,9.5823)" gradientUnits="userSpaceOnUse" xlink:href="#linearGradient269"/><linearGradient id="linearGradient1929" x1="33.396" x2="34.17" y1="36.921" y2="38.07" gradientTransform="matrix(-2.48131e-2,-0.756771,0.756567,-2.481981e-2,8.221918,36.1682)" gradientUnits="userSpaceOnUse" xlink:href="#linearGradient2251"/><radialGradient id="radialGradient6194" cx="268.234" cy="233.794" r="82.947" fx="268.234" fy="233.794" gradientTransform="matrix(5.513908e-2,0,0,4.006233e-2,10.28826,14.41746)" gradientUnits="userSpaceOnUse" xlink:href="#linearGradient627"/><radialGradient id="radialGradient6196" cx="267.169" cy="548.353" r="82.947" fx="267.169" fy="548.353" gradientTransform="matrix(5.513908e-2,0,0,4.006233e-2,10.28826,14.41746)" gradientUnits="userSpaceOnUse" xlink:href="#linearGradient627"/><radialGradient id="radialGradient6198" cx="83.904" cy="392.174" r="82.947" fx="83.904" fy="392.174" gradientTransform="matrix(5.513908e-2,0,0,4.006233e-2,10.28826,14.41746)" gradientUnits="userSpaceOnUse" xlink:href="#linearGradient627"/><radialGradient id="radialGradient6200" cx="449.368" cy="137.74" r="82.947" fx="449.368" fy="137.74" gradientTransform="matrix(5.513908e-2,0,0,4.006233e-2,10.28826,14.41746)" gradientUnits="userSpaceOnUse" xlink:href="#linearGradient627"/><radialGradient id="radialGradient6202" cx="448.303" cy="296.119" r="82.947" fx="448.303" fy="296.119" gradientTransform="matrix(5.513908e-2,0,0,4.006233e-2,10.28826,14.41746)" gradientUnits="userSpaceOnUse" xlink:href="#linearGradient627"/><radialGradient id="radialGradient6204" cx="448.835" cy="465.497" r="82.947" fx="448.835" fy="465.497" gradientTransform="matrix(5.513908e-2,0,0,4.006233e-2,10.28826,14.41746)" gradientUnits="userSpaceOnUse" xlink:href="#linearGradient627"/></defs><metadata id="metadata4"/><g id="layer6"><g id="g3712" opacity=".4" transform="matrix(1.052632,0,0,1.285713,-1.263158,-13.42854)"><rect id="rect2801" width="5" height="7" x="38" y="40" fill="url(#radialGradient3717)" fill-opacity="1" stroke="none" stroke-dasharray="none" stroke-linecap="round" stroke-linejoin="miter" stroke-miterlimit="4" stroke-opacity="1" stroke-width="1" opacity="1"/><rect id="rect3696" width="5" height="7" x="-10" y="-47" fill="url(#radialGradient3719)" fill-opacity="1" stroke="none" stroke-dasharray="none" stroke-linecap="round" stroke-linejoin="miter" stroke-miterlimit="4" stroke-opacity="1" stroke-width="1" opacity="1" transform="scale(-1,-1)"/><rect id="rect3700" width="28" height="7" x="10" y="40" fill="url(#linearGradient3721)" fill-opacity="1" stroke="none" stroke-dasharray="none" stroke-linecap="round" stroke-linejoin="miter" stroke-miterlimit="4" stroke-opacity="1" stroke-width="1" opacity="1"/></g></g><g id="layer1" display="inline"><path id="rect15391" fill="url(#radialGradient15658)" fill-opacity="1" fill-rule="nonzero" stroke="url(#radialGradient15656)" stroke-dashoffset="0" stroke-linecap="round" stroke-linejoin="round" stroke-miterlimit="4" stroke-opacity="1" stroke-width="1" marker-end="none" marker-mid="none" marker-start="none" d="M 7.7533083,3.5156762 L 36.217818,3.5000013 C 36.217818,3.5000013 41.500001,8.7962658 41.500001,9.4348733 L 41.500001,43.414232 C 41.500001,44.052839 40.98721,44.566952 40.350246,44.566952 L 7.7533083,44.566952 C 7.1163439,44.566952 6.603553,44.052839 6.603553,43.414232 L 6.603553,4.6683972 C 6.603553,4.0297898 7.1163439,3.5156762 7.7533083,3.5156762 z" color="#000" display="block" overflow="visible" visibility="visible" style="marker:none"/><path id="rect15660" fill="none" fill-opacity="1" fill-rule="nonzero" stroke="url(#radialGradient15668)" stroke-dashoffset="0" stroke-linecap="round" stroke-linejoin="round" stroke-miterlimit="4" stroke-opacity="1" stroke-width="1" marker-end="none" marker-mid="none" marker-start="none" d="M 7.8151023,4.5839462 L 36.691494,4.5839462 C 36.691494,4.5839462 40.44194,8.605373 40.44194,8.687946 L 40.44194,43.381282 C 40.44194,43.463855 40.375465,43.530331 40.292892,43.530331 L 7.8151023,43.530331 C 7.7325294,43.530331 7.6660538,43.463855 7.6660538,43.381282 L 7.6660538,4.7329948 C 7.6660538,4.6504219 7.7325294,4.5839462 7.8151023,4.5839462 z" color="#000" display="block" overflow="visible" visibility="visible" style="marker:none"/></g><g id="layer5" display="inline"><g id="g1918" transform="matrix(0.589097,0,0,0.577622,17.11331,1.395056)"><path stroke-width="1" style="marker:none" id="path5348" fill="url(#radialGradient1923)" fill-opacity="1" fill-rule="evenodd" stroke="none" stroke-dasharray="none" stroke-dashoffset="0" stroke-linecap="butt" stroke-linejoin="miter" stroke-miterlimit="4" stroke-opacity="1" marker-end="none" marker-mid="none" marker-start="none" d="M 40.985189,13.861445 C 40.256827,12.514817 34.882221,10.130934 32.084635,9.3314083 C 32.254143,10.904354 31.961856,15.649439 31.961856,15.649439 C 34.024356,14.274439 40.204485,13.699331 40.985189,13.861445 z" color="#000" display="inline" opacity=".357" overflow="visible" visibility="visible"/><path stroke-width="1.714" style="marker:none" id="path2210" fill="url(#radialGradient1925)" fill-opacity="1" fill-rule="nonzero" stroke="url(#radialGradient1927)" stroke-dasharray="none" stroke-dashoffset="0" stroke-linecap="butt" stroke-linejoin="round" stroke-miterlimit="4" stroke-opacity="1" marker-end="none" marker-mid="none" marker-start="none" d="M 41.410559,13.739267 C 41.423724,12.324125 35.058025,3.5320142 31.175441,3.6354934 C 32.148479,3.8684884 32.634036,9.5059668 31.244316,12.318467 C 33.994316,12.318467 40.446694,11.881093 41.410559,13.739267 z" color="#000" display="block" opacity="1" overflow="visible" visibility="visible"/><path id="path2247" fill="none" fill-opacity="1" fill-rule="evenodd" stroke="url(#linearGradient1929)" stroke-dasharray="none" stroke-dashoffset="0" stroke-linecap="butt" stroke-linejoin="miter" stroke-miterlimit="4" stroke-opacity="1" stroke-width="1.714" marker-end="none" marker-mid="none" marker-start="none" d="M 38.373065,10.820521 C 37.821714,9.8008851 35.225165,6.9819727 33.769819,6.0453244 C 33.950691,7.1249452 33.99069,8.6442222 33.524667,10.584399 C 33.524667,10.584399 37.782093,10.697772 38.373065,10.820521 z" color="#000" display="inline" opacity="1" overflow="visible" visibility="visible" style="marker:none"/></g><g id="g3713" opacity=".4" transform="matrix(0.5,0,0,0.409092,6.506572,8.236872)"><rect id="rect1907" width="4.935" height="11" x="37.065" y="35" fill="url(#radialGradient3718)" fill-opacity="1" stroke="none" stroke-dasharray="none" stroke-dashoffset="1.2" stroke-linecap="round" stroke-linejoin="miter" stroke-miterlimit="4" stroke-opacity="1" stroke-width="1" opacity="1"/><rect id="rect3689" width="4.935" height="11" x="-9.935" y="-46" fill="url(#radialGradient3720)" fill-opacity="1" stroke="none" stroke-dasharray="none" stroke-dashoffset="1.2" stroke-linecap="round" stroke-linejoin="miter" stroke-miterlimit="4" stroke-opacity="1" stroke-width="1" opacity="1" transform="scale(-1,-1)"/><rect id="rect3693" width="27.13" height="11" x="9.935" y="35" fill="url(#linearGradient3722)" fill-opacity="1" stroke="none" stroke-dasharray="none" stroke-dashoffset="1.2" stroke-linecap="round" stroke-linejoin="miter" stroke-miterlimit="4" stroke-opacity="1" stroke-width="1" opacity="1"/></g><path id="rect3115" fill="url(#linearGradient3845)" fill-opacity="1" fill-rule="nonzero" stroke="#a0670c" stroke-dashoffset="0" stroke-linecap="butt" stroke-linejoin="miter" stroke-miterlimit="4" stroke-opacity="1" stroke-width=".5" marker-end="none" marker-mid="none" marker-start="none" d="M 12.387332,10.38031 L 18.006572,10.03656 L 18.022197,10.38031 L 23.889882,10.38031 C 24.561368,10.38031 24.97695,10.633021 25.2582,11.327532 L 26.22695,14.242593 L 26.22695,24.552031 C 26.22695,25.215292 25.686368,25.749253 25.014882,25.749253 L 11.449832,25.749253 C 10.778347,25.749253 10.237765,25.215292 10.237765,24.552031 L 10.237765,14.242593 L 11.175265,11.265032 C 11.362765,10.726771 11.715847,10.38031 12.387332,10.38031 z" color="#000" display="block" overflow="visible" visibility="visible" style="marker:none"/><path id="path3847" fill="none" fill-opacity="1" fill-rule="nonzero" stroke="url(#linearGradient4565)" stroke-dashoffset="0" stroke-linecap="butt" stroke-linejoin="miter" stroke-miterlimit="4" stroke-opacity="1" stroke-width=".5" marker-end="none" marker-mid="none" marker-start="none" d="M 12.752895,10.861501 L 23.536053,10.861501 C 24.165542,10.861501 24.555133,11.098388 24.818793,11.749409 L 25.726955,14.481932 L 25.726955,24.333303 C 25.726955,24.955031 25.407682,25.268057 24.778193,25.268057 L 11.624028,25.268057 C 10.994539,25.268057 10.737766,24.923781 10.737766,24.302053 L 10.737766,14.481932 L 11.616633,11.690823 C 11.792406,11.186267 12.123406,10.861501 12.752895,10.861501 z" color="#000" display="block" opacity=".505" overflow="visible" visibility="visible" style="marker:none"/><path id="path4740" fill="#000" fill-opacity=".756" fill-rule="evenodd" stroke="none" stroke-dasharray="none" stroke-dashoffset="0" stroke-linecap="butt" stroke-linejoin="miter" stroke-miterlimit="4" stroke-opacity="1" stroke-width="1" marker-end="none" marker-mid="none" marker-start="none" d="M 10.694072,14.492593 L 18.037822,14.680093 L 18.018909,12.336509 C 18.018909,12.336509 21.298444,12.258125 21.298444,12.258125 C 21.298444,12.258125 18.01562,12.149038 18.01562,12.149038 L 18.006572,11.117593 L 17.861974,11.101715 L 17.819072,14.055093 L 10.694072,14.492593 z" color="#000" display="inline" opacity=".505" overflow="visible" visibility="visible" style="marker:none"/><path id="path4742" fill="#f5ddb8" fill-opacity="1" fill-rule="evenodd" stroke="none" stroke-dasharray="none" stroke-dashoffset="0" stroke-linecap="butt" stroke-linejoin="miter" stroke-miterlimit="4" stroke-opacity="1" stroke-width="1" marker-end="none" marker-mid="none" marker-start="none" d="M 10.756572,14.461343 L 17.819072,14.070718 L 17.881572,10.617593 L 17.647197,13.820718 L 11.162822,14.273843 L 10.756572,14.461343 z" color="#000" display="inline" opacity="1" overflow="visible" visibility="visible" style="marker:none"/><path id="path4744" fill="#dcbd8e" fill-opacity="1" fill-rule="evenodd" stroke="none" stroke-dasharray="none" stroke-dashoffset="0" stroke-linecap="butt" stroke-linejoin="miter" stroke-miterlimit="4" stroke-opacity="1" stroke-width="1" marker-end="none" marker-mid="none" marker-start="none" d="M 17.662822,13.836343 L 10.506572,14.398843 L 11.444072,11.273843 C 11.693976,10.778907 12.142369,10.581705 12.725322,10.586343 L 17.897197,10.273843 L 17.662822,13.836343 z" color="#000" display="inline" opacity="1" overflow="visible" visibility="visible" style="marker:none"/><path id="path4746" fill="url(#linearGradient4538)" fill-opacity="1" fill-rule="evenodd" stroke="none" stroke-dasharray="none" stroke-dashoffset="0" stroke-linecap="butt" stroke-linejoin="miter" stroke-miterlimit="4" stroke-opacity="1" stroke-width="1" marker-end="none" marker-mid="none" marker-start="none" d="M 18.006572,11.117593 L 18.006572,14.086343 L 25.350322,14.117593 L 24.238882,11.15275 L 18.006572,11.117593 z" color="#000" display="inline" opacity=".429" overflow="visible" visibility="visible" style="marker:none"/><path id="path4748" fill="#c68b31" fill-opacity="1" fill-rule="evenodd" stroke="#a0670c" stroke-dasharray="none" stroke-dashoffset="0" stroke-linecap="butt" stroke-linejoin="round" stroke-miterlimit="4" stroke-opacity="1" stroke-width=".5" marker-end="none" marker-mid="none" marker-start="none" d="M 26.162822,14.242593 L 18.881572,10.867593 L 18.756572,7.0238431 L 24.543417,10.377231 C 24.758799,10.534776 24.995004,10.754856 25.131572,11.023843 L 26.162822,14.242593 z" color="#000" display="inline" opacity="1" overflow="visible" visibility="visible" style="marker:none"/><path id="path4758" fill="url(#linearGradient4766)" fill-opacity="1" fill-rule="evenodd" stroke="none" stroke-dasharray="none" stroke-dashoffset="0" stroke-linecap="butt" stroke-linejoin="round" stroke-miterlimit="4" stroke-opacity="1" stroke-width="1" marker-end="none" marker-mid="none" marker-start="none" d="M 18.006572,14.055093 L 18.006572,14.555093 L 25.506572,14.555093 L 25.287822,14.055093 L 18.006572,14.055093 z" color="#000" display="inline" opacity=".231" overflow="visible" visibility="visible" style="marker:none"/><path id="path4768" fill="url(#linearGradient4776)" fill-opacity="1" fill-rule="evenodd" stroke="none" stroke-dasharray="none" stroke-dashoffset="0" stroke-linecap="butt" stroke-linejoin="round" stroke-miterlimit="4" stroke-opacity="1" stroke-width="1" marker-end="none" marker-mid="none" marker-start="none" d="M 19.101912,10.678549 L 19.013523,7.4744721 L 24.007465,10.369191 L 19.256591,7.7617341 L 19.34498,10.52387 L 21.09065,11.606628 L 19.101912,10.678549 z" color="#000" display="inline" opacity="1" overflow="visible" visibility="visible" style="marker:none"/><path id="path4528" fill="#fff" fill-opacity="1" fill-rule="evenodd" stroke="none" stroke-dasharray="none" stroke-dashoffset="0" stroke-linecap="butt" stroke-linejoin="miter" stroke-miterlimit="4" stroke-opacity="1" stroke-width="1" marker-end="none" marker-mid="none" marker-start="none" d="M 18.006572,14.055093 L 17.975322,12.336343 L 21.412822,12.273843 L 21.600322,12.398843 L 18.100322,12.430093 L 18.006572,14.055093 z" color="#000" display="inline" opacity=".11" overflow="visible" visibility="visible" style="marker:none"/><path id="path617" fill="none" fill-rule="evenodd" stroke="#000" stroke-width=".049" d="M 17.620726,29.659092 L 19.904757,29.659092" font-size="12"/><path id="path618" fill="none" fill-opacity="1" fill-rule="evenodd" stroke="#000" stroke-dasharray="none" stroke-linecap="butt" stroke-linejoin="miter" stroke-opacity="1" stroke-width=".587" d="M 21.556619,23.386171 L 19.904757,23.397701 L 19.98352,35.881103 L 21.505408,35.87871"/><path id="path638" fill="none" fill-rule="evenodd" stroke="#000" stroke-opacity=".27" stroke-width=".617" d="M 17.581345,30.092272 L 20.101654,30.092272" font-size="12"/><path id="path640" fill="none" fill-opacity="1" fill-rule="evenodd" stroke="#000" stroke-dasharray="none" stroke-linecap="butt" stroke-linejoin="miter" stroke-opacity=".27" stroke-width=".587" d="M 32.165798,33.163896 L 30.551226,33.159121 L 30.576685,39.425283 L 32.179724,39.43443"/><path id="path641" fill="none" fill-rule="evenodd" stroke="#000" stroke-opacity=".27" stroke-width=".625" d="M 27.544438,23.791504 L 30.222273,23.791504" font-size="12"/><path id="path642" fill="none" fill-opacity="1" fill-rule="evenodd" stroke="#000" stroke-dasharray="none" stroke-linecap="butt" stroke-linejoin="miter" stroke-opacity=".27" stroke-width=".587" d="M 32.209959,20.052809 L 30.497923,20.050421 L 30.532529,26.325735 L 32.110107,26.323342"/><path id="path643" fill="none" fill-rule="evenodd" stroke="#000" stroke-opacity=".27" stroke-width=".639" d="M 27.437833,36.274902 L 30.264681,36.274902" font-size="12"/><path id="path622" fill="none" fill-opacity="1" fill-rule="evenodd" stroke="#000" stroke-dasharray="none" stroke-linecap="butt" stroke-linejoin="miter" stroke-opacity="1" stroke-width=".587" d="M 31.619263,19.619629 L 29.907227,19.617241 L 29.941833,25.892554 L 31.519411,25.890162"/><path id="path621" fill="none" fill-rule="evenodd" stroke="#000" stroke-dasharray="none" stroke-width=".587" d="M 27.701959,23.358324 L 30.064752,23.358324" font-size="12"/><path id="path623" fill="none" fill-rule="evenodd" stroke="#000" stroke-dasharray="none" stroke-width=".587" d="M 27.674111,35.881103 L 30.064752,35.881103" font-size="12"/><path id="path620" fill="none" fill-opacity="1" fill-rule="evenodd" stroke="#000" stroke-dasharray="none" stroke-linecap="butt" stroke-linejoin="miter" stroke-opacity="1" stroke-width=".587" d="M 31.575102,32.730716 L 29.96053,32.725941 L 29.985989,38.992103 L 31.589028,39.001249"/><path id="path639" fill="none" fill-opacity="1" fill-rule="evenodd" stroke="#000" stroke-dasharray="none" stroke-linecap="butt" stroke-linejoin="miter" stroke-opacity=".27" stroke-width=".587" d="M 22.123947,23.819352 L 20.495453,23.830881 L 20.574216,36.314283 L 22.096104,36.311891"/><path id="path614" fill="none" fill-opacity="1" fill-rule="evenodd" stroke="#000" stroke-dasharray="none" stroke-linecap="butt" stroke-linejoin="miter" stroke-opacity="1" stroke-width=".587" d="M 17.620731,29.698473 L 19.786618,29.698473"/><path id="path664" fill="#70d4bc" fill-opacity="1" fill-rule="evenodd" stroke="none" stroke-dasharray="none" stroke-linecap="square" stroke-linejoin="miter" stroke-opacity="1" stroke-width="0" d="M 17.454351,24.824968 C 22.418698,27.068269 22.418698,27.068269 22.418698,27.068269"/><path id="path670" fill="#d7d7d7" fill-rule="evenodd" stroke="#b8b8b8" stroke-dasharray="none" stroke-linecap="square" stroke-width=".088" d="M 20.250992,35.678707 C 20.250029,35.679938 21.472536,35.682537 21.472536,35.682537 L 21.472564,35.682537" font-size="12"/><path id="path671" fill="#d7d7d7" fill-rule="evenodd" stroke="#b8b8b8" stroke-linecap="square" stroke-opacity="1" stroke-width=".088" d="M 19.781763,36.068059 C 19.783037,36.072877 19.742678,29.982673 19.742678,29.982673 L 19.742673,29.982537" font-size="12"/><path id="path672" fill="#d7d7d7" fill-rule="evenodd" stroke="#b8b8b8" stroke-dasharray="none" stroke-linecap="square" stroke-opacity="1" stroke-width=".088" d="M 19.745046,29.458651 C 19.746315,29.463605 19.705957,23.20815 19.705957,23.20815 L 19.705952,23.208004" font-size="12"/><path id="path673" fill="#d7d7d7" fill-rule="evenodd" stroke="#b8b8b8" stroke-dasharray="none" stroke-linecap="square" stroke-opacity="1" stroke-width=".088" d="M 19.703729,23.203266 C 19.702328,23.204521 21.500938,23.189749 21.500938,23.189749 L 21.500971,23.189749" font-size="12"/><path id="path674" fill="#d7d7d7" fill-rule="evenodd" stroke="#b8b8b8" stroke-dasharray="none" stroke-linecap="square" stroke-opacity="1" stroke-width=".088" d="M 17.678522,29.517754 C 17.67691,29.519009 19.745756,29.504237 19.745756,29.504237 L 19.745794,29.504237" font-size="12"/><path id="path875" fill="#d7d7d7" fill-rule="evenodd" stroke="#b8b8b8" stroke-linecap="square" stroke-width=".088" d="M 29.747286,23.142993 C 29.748555,23.145945 29.708196,19.426041 29.708196,19.426041 L 29.708191,19.425951" font-size="12"/><path id="path876" fill="#d7d7d7" fill-rule="evenodd" stroke="#b8b8b8" stroke-dasharray="none" stroke-linecap="square" stroke-opacity="1" stroke-width=".088" d="M 29.779406,19.42856 C 29.778005,19.429815 31.576615,19.415043 31.576615,19.415043 L 31.576648,19.415043" font-size="12"/><path id="path877" fill="#d7d7d7" fill-rule="evenodd" stroke="#b8b8b8" stroke-linecap="square" stroke-width=".087" d="M 27.754199,23.187408 C 27.752644,23.188663 29.747996,23.173891 29.747996,23.173891 L 29.748033,23.173891" font-size="12"/><rect id="rect644" width="6.417" height="4.662" x="21.921" y="21.525" fill="url(#radialGradient6194)" fill-opacity=".291" fill-rule="evenodd" stroke="none" stroke-dasharray="none" stroke-dashoffset="5" stroke-opacity="1" stroke-width="0" font-size="12"/><path id="path878" fill="#d7d7d7" fill-rule="evenodd" stroke="#b8b8b8" stroke-dasharray="none" stroke-linecap="square" stroke-width=".088" d="M 30.202753,25.692222 C 30.201734,25.693453 31.493825,25.696052 31.493825,25.696052 L 31.493853,25.696052" font-size="12"/><path id="path879" fill="#d7d7d7" fill-rule="evenodd" stroke="#b8b8b8" stroke-linecap="square" stroke-width=".088" d="M 29.747596,26.066882 C 29.74887,26.068804 29.737956,23.657658 29.737956,23.657658 L 29.737952,23.657606" font-size="12"/><path id="path880" fill="#d7d7d7" fill-rule="evenodd" stroke="#b8b8b8" stroke-linecap="square" stroke-width=".088" d="M 29.779998,35.673734 C 29.781258,35.676225 29.768276,32.538157 29.768276,32.538157 L 29.768271,32.538082" font-size="12"/><path id="path881" fill="#d7d7d7" fill-rule="evenodd" stroke="#b8b8b8" stroke-dasharray="none" stroke-linecap="square" stroke-width=".088" d="M 29.80495,32.542378 C 29.803568,32.544563 31.540002,32.536047 31.540002,32.536047 L 31.54003,32.536047" font-size="12"/><path id="path882" fill="#d7d7d7" fill-rule="evenodd" stroke="#b8b8b8" stroke-linecap="square" stroke-width=".087" d="M 27.738341,35.697239 C 27.736786,35.698494 29.732138,35.683721 29.732138,35.683721 L 29.732175,35.683721" font-size="12"/><path id="path884" fill="#d7d7d7" fill-rule="evenodd" stroke="#b8b8b8" stroke-dasharray="none" stroke-linecap="square" stroke-width=".088" d="M 30.247953,38.797077 C 30.246924,38.798308 31.546366,38.800907 31.546366,38.800907 L 31.546394,38.800907" font-size="12"/><path id="path885" fill="#d7d7d7" fill-rule="evenodd" stroke="#b8b8b8" stroke-dasharray="none" stroke-linecap="square" stroke-width=".088" d="M 29.814825,39.179083 C 29.816099,39.181494 29.805185,36.15712 29.805185,36.15712 L 29.805181,36.157054" font-size="12"/><rect id="rect886" width="6.417" height="4.662" x="21.862" y="34.127" fill="url(#radialGradient6196)" fill-opacity=".291" fill-rule="evenodd" stroke="none" stroke-dasharray="none" stroke-dashoffset="5" stroke-opacity="1" stroke-width="0" font-size="12"/><rect id="rect887" width="6.417" height="4.662" x="11.757" y="27.871" fill="url(#radialGradient6198)" fill-opacity=".291" fill-rule="evenodd" stroke="none" stroke-dasharray="none" stroke-dashoffset="5" stroke-opacity="1" stroke-width="0" font-size="12"/><rect id="rect888" width="6.417" height="4.662" x="31.908" y="17.677" fill="url(#radialGradient6200)" fill-opacity=".291" fill-rule="evenodd" stroke="none" stroke-dasharray="none" stroke-dashoffset="5" stroke-opacity="1" stroke-width="0" font-size="12"/><rect id="rect889" width="6.417" height="4.662" x="31.85" y="24.022" fill="url(#radialGradient6202)" fill-opacity=".291" fill-rule="evenodd" stroke="none" stroke-dasharray="none" stroke-dashoffset="5" stroke-opacity="1" stroke-width="0" font-size="12"/><rect id="rect890" width="6.417" height="4.662" x="31.879" y="30.808" fill="url(#radialGradient6204)" fill-opacity=".291" fill-rule="evenodd" stroke="none" stroke-dasharray="none" stroke-dashoffset="5" stroke-opacity="1" stroke-width="0" font-size="12"/><rect id="rect892" width="6.417" height="4.662" x="32.237" y="37.482" fill="url(#radialGradient631)" fill-opacity=".291" fill-rule="evenodd" stroke="none" stroke-dasharray="none" stroke-dashoffset="5" stroke-opacity="1" stroke-width="0" font-size="12"/><g id="g711" font-size="12" transform="matrix(4.7e-2,0,0,4.7e-2,18.23056,28.52516)"><rect id="rect712" width="118.977" height="81.273" x="290.74" y="182.763" fill="#ead4bc" fill-opacity="1" fill-rule="evenodd" stroke="#b39166" stroke-dasharray="none" stroke-dashoffset="5" stroke-width="12.5" font-size="12"/><path id="path713" fill="#d4b993" fill-opacity="1" fill-rule="evenodd" stroke="none" stroke-dasharray="none" stroke-linecap="square" stroke-linejoin="miter" stroke-opacity="1" stroke-width="0" d="M 284.4987,176.5118 L 415.9331,176.5096 L 403.4166,189.0328 L 296.9416,188.9893 L 284.4987,176.5118 z"/><path id="path714" fill="#b39a7d" fill-opacity="1" fill-rule="evenodd" stroke="none" stroke-dasharray="none" stroke-linecap="square" stroke-linejoin="miter" stroke-opacity="1" stroke-width="0" d="M 284.5556,176.58 L 296.9299,188.9543 L 296.8747,257.6765 L 284.5555,270.106 L 284.5556,176.58 z"/><path id="path715" fill="#887058" fill-opacity="1" fill-rule="evenodd" stroke="none" stroke-dasharray="none" stroke-linecap="square" stroke-linejoin="miter" stroke-opacity="1" stroke-width="0" d="M 415.9927,176.7363 L 403.6184,189.1105 L 403.6736,257.8327 L 415.9928,270.2622 L 415.9927,176.7363 z"/><path id="path716" fill="#695144" fill-opacity="1" fill-rule="evenodd" stroke="none" stroke-dasharray="none" stroke-linecap="square" stroke-linejoin="miter" stroke-opacity="1" stroke-width="0" d="M 416.0892,270.2808 L 284.6549,270.283 L 297.1714,257.7598 L 403.6463,257.8033 L 416.0892,270.2808 z"/></g><g id="g705" font-size="12" transform="matrix(4.7e-2,0,0,4.7e-2,18.20118,22.23888)"><rect id="rect706" width="118.977" height="81.273" x="290.74" y="182.763" fill="#ead4bc" fill-opacity="1" fill-rule="evenodd" stroke="#b39166" stroke-dasharray="none" stroke-dashoffset="5" stroke-width="12.5" font-size="12"/><path id="path707" fill="#d4b993" fill-opacity="1" fill-rule="evenodd" stroke="none" stroke-dasharray="none" stroke-linecap="square" stroke-linejoin="miter" stroke-opacity="1" stroke-width="0" d="M 284.4987,176.5118 L 415.9331,176.5096 L 403.4166,189.0328 L 296.9416,188.9893 L 284.4987,176.5118 z"/><path id="path708" fill="#b39a7d" fill-opacity="1" fill-rule="evenodd" stroke="none" stroke-dasharray="none" stroke-linecap="square" stroke-linejoin="miter" stroke-opacity="1" stroke-width="0" d="M 284.5556,176.58 L 296.9299,188.9543 L 296.8747,257.6765 L 284.5555,270.106 L 284.5556,176.58 z"/><path id="path709" fill="#887058" fill-opacity="1" fill-rule="evenodd" stroke="none" stroke-dasharray="none" stroke-linecap="square" stroke-linejoin="miter" stroke-opacity="1" stroke-width="0" d="M 415.9927,176.7363 L 403.6184,189.1105 L 403.6736,257.8327 L 415.9928,270.2622 L 415.9927,176.7363 z"/><path id="path710" fill="#695144" fill-opacity="1" fill-rule="evenodd" stroke="none" stroke-dasharray="none" stroke-linecap="square" stroke-linejoin="miter" stroke-opacity="1" stroke-width="0" d="M 416.0892,270.2808 L 284.6549,270.283 L 297.1714,257.7598 L 403.6463,257.8033 L 416.0892,270.2808 z"/></g><g id="g699" font-size="12" transform="matrix(4.7e-2,0,0,4.7e-2,18.15712,15.39448)"><rect id="rect700" width="118.977" height="81.273" x="290.74" y="182.763" fill="#ead4bc" fill-opacity="1" fill-rule="evenodd" stroke="#b39166" stroke-dasharray="none" stroke-dashoffset="5" stroke-width="12.5" font-size="12"/><path id="path701" fill="#d4b993" fill-opacity="1" fill-rule="evenodd" stroke="none" stroke-dasharray="none" stroke-linecap="square" stroke-linejoin="miter" stroke-opacity="1" stroke-width="0" d="M 284.4987,176.5118 L 415.9331,176.5096 L 403.4166,189.0328 L 296.9416,188.9893 L 284.4987,176.5118 z"/><path id="path702" fill="#b39a7d" fill-opacity="1" fill-rule="evenodd" stroke="none" stroke-dasharray="none" stroke-linecap="square" stroke-linejoin="miter" stroke-opacity="1" stroke-width="0" d="M 284.5556,176.58 L 296.9299,188.9543 L 296.8747,257.6765 L 284.5555,270.106 L 284.5556,176.58 z"/><path id="path703" fill="#887058" fill-opacity="1" fill-rule="evenodd" stroke="none" stroke-dasharray="none" stroke-linecap="square" stroke-linejoin="miter" stroke-opacity="1" stroke-width="0" d="M 415.9927,176.7363 L 403.6184,189.1105 L 403.6736,257.8327 L 415.9928,270.2622 L 415.9927,176.7363 z"/><path id="path704" fill="#695144" fill-opacity="1" fill-rule="evenodd" stroke="none" stroke-dasharray="none" stroke-linecap="square" stroke-linejoin="miter" stroke-opacity="1" stroke-width="0" d="M 416.0892,270.2808 L 284.6549,270.283 L 297.1714,257.7598 L 403.6463,257.8033 L 416.0892,270.2808 z"/></g><g id="g693" font-size="12" transform="matrix(4.7e-2,0,0,4.7e-2,18.25259,9.049452)"><rect id="rect694" width="118.977" height="81.273" x="290.74" y="182.763" fill="#ead4bc" fill-opacity="1" fill-rule="evenodd" stroke="#b39166" stroke-dasharray="none" stroke-dashoffset="5" stroke-width="12.5" font-size="12"/><path id="path695" fill="#d4b993" fill-opacity="1" fill-rule="evenodd" stroke="none" stroke-dasharray="none" stroke-linecap="square" stroke-linejoin="miter" stroke-opacity="1" stroke-width="0" d="M 284.4987,176.5118 L 415.9331,176.5096 L 403.4166,189.0328 L 296.9416,188.9893 L 284.4987,176.5118 z"/><path id="path696" fill="#b39a7d" fill-opacity="1" fill-rule="evenodd" stroke="none" stroke-dasharray="none" stroke-linecap="square" stroke-linejoin="miter" stroke-opacity="1" stroke-width="0" d="M 284.5556,176.58 L 296.9299,188.9543 L 296.8747,257.6765 L 284.5555,270.106 L 284.5556,176.58 z"/><path id="path697" fill="#887058" fill-opacity="1" fill-rule="evenodd" stroke="none" stroke-dasharray="none" stroke-linecap="square" stroke-linejoin="miter" stroke-opacity="1" stroke-width="0" d="M 415.9927,176.7363 L 403.6184,189.1105 L 403.6736,257.8327 L 415.9928,270.2622 L 415.9927,176.7363 z"/><path id="path698" fill="#695144" fill-opacity="1" fill-rule="evenodd" stroke="none" stroke-dasharray="none" stroke-linecap="square" stroke-linejoin="miter" stroke-opacity="1" stroke-width="0" d="M 416.0892,270.2808 L 284.6549,270.283 L 297.1714,257.7598 L 403.6463,257.8033 L 416.0892,270.2808 z"/></g><g id="g675" font-size="12" transform="matrix(4.7e-2,0,0,4.7e-2,8.154885,12.86821)"><rect id="rect607" width="118.977" height="81.273" x="290.74" y="182.763" fill="#ead4bc" fill-opacity="1" fill-rule="evenodd" stroke="#b39166" stroke-dasharray="none" stroke-dashoffset="5" stroke-width="12.5" font-size="12"/><path id="path660" fill="#d4b993" fill-opacity="1" fill-rule="evenodd" stroke="none" stroke-dasharray="none" stroke-linecap="square" stroke-linejoin="miter" stroke-opacity="1" stroke-width="0" d="M 284.4987,176.5118 L 415.9331,176.5096 L 403.4166,189.0328 L 296.9416,188.9893 L 284.4987,176.5118 z"/><path id="path661" fill="#b39a7d" fill-opacity="1" fill-rule="evenodd" stroke="none" stroke-dasharray="none" stroke-linecap="square" stroke-linejoin="miter" stroke-opacity="1" stroke-width="0" d="M 284.5556,176.58 L 296.9299,188.9543 L 296.8747,257.6765 L 284.5555,270.106 L 284.5556,176.58 z"/><path id="path662" fill="#887058" fill-opacity="1" fill-rule="evenodd" stroke="none" stroke-dasharray="none" stroke-linecap="square" stroke-linejoin="miter" stroke-opacity="1" stroke-width="0" d="M 415.9927,176.7363 L 403.6184,189.1105 L 403.6736,257.8327 L 415.9928,270.2622 L 415.9927,176.7363 z"/><path id="path663" fill="#695144" fill-opacity="1" fill-rule="evenodd" stroke="none" stroke-dasharray="none" stroke-linecap="square" stroke-linejoin="miter" stroke-opacity="1" stroke-width="0" d="M 416.0892,270.2808 L 284.6549,270.283 L 297.1714,257.7598 L 403.6463,257.8033 L 416.0892,270.2808 z"/></g><g id="g687" font-size="12" transform="matrix(4.7e-2,0,0,4.7e-2,8.139305,25.44077)"><rect id="rect688" width="118.977" height="81.273" x="290.74" y="182.763" fill="#ead4bc" fill-opacity="1" fill-rule="evenodd" stroke="#b39166" stroke-dasharray="none" stroke-dashoffset="5" stroke-width="12.5" font-size="12"/><path id="path689" fill="#d4b993" fill-opacity="1" fill-rule="evenodd" stroke="none" stroke-dasharray="none" stroke-linecap="square" stroke-linejoin="miter" stroke-opacity="1" stroke-width="0" d="M 284.4987,176.5118 L 415.9331,176.5096 L 403.4166,189.0328 L 296.9416,188.9893 L 284.4987,176.5118 z"/><path id="path690" fill="#b39a7d" fill-opacity="1" fill-rule="evenodd" stroke="none" stroke-dasharray="none" stroke-linecap="square" stroke-linejoin="miter" stroke-opacity="1" stroke-width="0" d="M 284.5556,176.58 L 296.9299,188.9543 L 296.8747,257.6765 L 284.5555,270.106 L 284.5556,176.58 z"/><path id="path691" fill="#887058" fill-opacity="1" fill-rule="evenodd" stroke="none" stroke-dasharray="none" stroke-linecap="square" stroke-linejoin="miter" stroke-opacity="1" stroke-width="0" d="M 415.9927,176.7363 L 403.6184,189.1105 L 403.6736,257.8327 L 415.9928,270.2622 L 415.9927,176.7363 z"/><path id="path692" fill="#695144" fill-opacity="1" fill-rule="evenodd" stroke="none" stroke-dasharray="none" stroke-linecap="square" stroke-linejoin="miter" stroke-opacity="1" stroke-width="0" d="M 416.0892,270.2808 L 284.6549,270.283 L 297.1714,257.7598 L 403.6463,257.8033 L 416.0892,270.2808 z"/></g><g id="g681" font-size="12" transform="matrix(4.7e-2,0,0,4.7e-2,-1.920785,19.18387)"><rect id="rect682" width="118.977" height="81.273" x="290.74" y="182.763" fill="#ead4bc" fill-opacity="1" fill-rule="evenodd" stroke="#b39166" stroke-dasharray="none" stroke-dashoffset="5" stroke-width="12.5" font-size="12"/><path id="path683" fill="#d4b993" fill-opacity="1" fill-rule="evenodd" stroke="none" stroke-dasharray="none" stroke-linecap="square" stroke-linejoin="miter" stroke-opacity="1" stroke-width="0" d="M 284.4987,176.5118 L 415.9331,176.5096 L 403.4166,189.0328 L 296.9416,188.9893 L 284.4987,176.5118 z"/><path id="path684" fill="#b39a7d" fill-opacity="1" fill-rule="evenodd" stroke="none" stroke-dasharray="none" stroke-linecap="square" stroke-linejoin="miter" stroke-opacity="1" stroke-width="0" d="M 284.5556,176.58 L 296.9299,188.9543 L 296.8747,257.6765 L 284.5555,270.106 L 284.5556,176.58 z"/><path id="path685" fill="#887058" fill-opacity="1" fill-rule="evenodd" stroke="none" stroke-dasharray="none" stroke-linecap="square" stroke-linejoin="miter" stroke-opacity="1" stroke-width="0" d="M 415.9927,176.7363 L 403.6184,189.1105 L 403.6736,257.8327 L 415.9928,270.2622 L 415.9927,176.7363 z"/><path id="path686" fill="#695144" fill-opacity="1" fill-rule="evenodd" stroke="none" stroke-dasharray="none" stroke-linecap="square" stroke-linejoin="miter" stroke-opacity="1" stroke-width="0" d="M 416.0892,270.2808 L 284.6549,270.283 L 297.1714,257.7598 L 403.6463,257.8033 L 416.0892,270.2808 z"/></g></g></svg>