<svg xmlns="http://www.w3.org/2000/svg" xmlns:cc="http://web.resource.org/cc/" xmlns:svg="http://www.w3.org/2000/svg" xmlns:xlink="http://www.w3.org/1999/xlink" id="svg249" width="48" height="48"><defs id="defs3"><linearGradient id="linearGradient627"><stop id="stop628" offset="0" stop-color="#7f7f7f" stop-opacity="1"/><stop id="stop629" offset="1" stop-color="#000" stop-opacity="0"/></linearGradient><radialGradient id="radialGradient631" cx="449.368" cy="623.876" r="82.947" fx="449.368" fy="623.876" gradientTransform="matrix(5.513908e-2,0,0,4.006233e-2,9.465892,14.41747)" gradientUnits="userSpaceOnUse" xlink:href="#linearGradient627"/><linearGradient id="linearGradient3702"><stop id="stop3704" offset="0" stop-color="#000" stop-opacity="0"/><stop id="stop3710" offset=".5" stop-color="#000" stop-opacity="1"/><stop id="stop3706" offset="1" stop-color="#000" stop-opacity="0"/></linearGradient><linearGradient id="linearGradient3688"><stop id="stop3690" offset="0" stop-color="#000" stop-opacity="1"/><stop id="stop3692" offset="1" stop-color="#000" stop-opacity="0"/></linearGradient><linearGradient id="linearGradient4790"><stop id="stop4792" offset="0" stop-color="#000" stop-opacity="1"/><stop id="stop4794" offset="1" stop-color="#000" stop-opacity="0"/></linearGradient><linearGradient id="linearGradient2251"><stop id="stop2253" offset="0" stop-color="#fff" stop-opacity="1"/><stop id="stop2255" offset="1" stop-color="#fff" stop-opacity="0"/></linearGradient><linearGradient id="linearGradient15662"><stop id="stop15664" offset="0" stop-color="#fff" stop-opacity="1"/><stop id="stop15666" offset="1" stop-color="#f8f8f8" stop-opacity="1"/></linearGradient><linearGradient id="linearGradient269"><stop id="stop270" offset="0" stop-color="#a3a3a3" stop-opacity="1"/><stop id="stop271" offset="1" stop-color="#8a8a8a" stop-opacity="1"/></linearGradient><linearGradient id="linearGradient259"><stop id="stop260" offset="0" stop-color="#fafafa" stop-opacity="1"/><stop id="stop261" offset="1" stop-color="#bbb" stop-opacity="1"/></linearGradient><radialGradient id="radialGradient15656" cx="8.824" cy="3.756" r="37.752" fx="8.824" fy="3.756" gradientTransform="matrix(0.968868,0,0,1.036068,3.351554,0.506089)" gradientUnits="userSpaceOnUse" xlink:href="#linearGradient269"/><radialGradient id="radialGradient15658" cx="33.967" cy="35.737" r="86.708" fx="33.967" fy="35.737" gradientTransform="matrix(0.961084,0,0,1.044459,-4.060961e-3,-0.142424)" gradientUnits="userSpaceOnUse" xlink:href="#linearGradient259"/><radialGradient id="radialGradient15668" cx="8.144" cy="7.268" r="38.159" fx="8.144" fy="7.268" gradientTransform="matrix(0.968273,0.000000,0.000000,1.032767,3.353553,0.646447)" gradientUnits="userSpaceOnUse" xlink:href="#linearGradient15662"/><radialGradient id="radialGradient3717" cx="4.993" cy="43.5" r="2.5" fx="4.993" fy="43.5" gradientTransform="matrix(2.003784,0,0,1.4,27.98813,-17.4)" gradientUnits="userSpaceOnUse" xlink:href="#linearGradient3688"/><radialGradient id="radialGradient3719" cx="4.993" cy="43.5" r="2.5" fx="4.993" fy="43.5" gradientTransform="matrix(2.003784,0,0,1.4,-20.01187,-104.4)" gradientUnits="userSpaceOnUse" xlink:href="#linearGradient3688"/><linearGradient id="linearGradient3721" x1="25.058" x2="25.058" y1="47.028" y2="39.999" gradientUnits="userSpaceOnUse" xlink:href="#linearGradient3702"/><radialGradient id="radialGradient1923" cx="37.03" cy="12.989" r="4.293" fx="37.03" fy="12.989" gradientTransform="matrix(1.744653,0,0,1.283833,-26.58256,-3.478359)" gradientUnits="userSpaceOnUse" xlink:href="#linearGradient4790"/><radialGradient id="radialGradient1925" cx="30.654" cy="14.937" r="86.708" fx="30.654" fy="14.937" gradientTransform="matrix(0.148355,1.009137e-2,-1.104438e-2,0.162365,25.06011,12.81706)" gradientUnits="userSpaceOnUse" xlink:href="#linearGradient259"/><radialGradient id="radialGradient1927" cx="31.863" cy="2.367" r="37.752" fx="31.863" fy="2.367" gradientTransform="matrix(0.331735,0,0,0.353831,20.10526,9.5823)" gradientUnits="userSpaceOnUse" xlink:href="#linearGradient269"/><linearGradient id="linearGradient1929" x1="33.396" x2="34.17" y1="36.921" y2="38.07" gradientTransform="matrix(-2.48131e-2,-0.756771,0.756567,-2.481981e-2,8.221918,36.1682)" gradientUnits="userSpaceOnUse" xlink:href="#linearGradient2251"/><radialGradient id="radialGradient6194" cx="268.234" cy="233.794" r="82.947" fx="268.234" fy="233.794" gradientTransform="matrix(5.513908e-2,0,0,4.006233e-2,9.465892,14.41747)" gradientUnits="userSpaceOnUse" xlink:href="#linearGradient627"/><radialGradient id="radialGradient6196" cx="267.169" cy="548.353" r="82.947" fx="267.169" fy="548.353" gradientTransform="matrix(5.513908e-2,0,0,4.006233e-2,9.465892,14.41747)" gradientUnits="userSpaceOnUse" xlink:href="#linearGradient627"/><radialGradient id="radialGradient6198" cx="83.904" cy="392.174" r="82.947" fx="83.904" fy="392.174" gradientTransform="matrix(5.513908e-2,0,0,4.006233e-2,9.465892,14.41747)" gradientUnits="userSpaceOnUse" xlink:href="#linearGradient627"/><radialGradient id="radialGradient6200" cx="449.368" cy="137.74" r="82.947" fx="449.368" fy="137.74" gradientTransform="matrix(5.513908e-2,0,0,4.006233e-2,9.465892,14.41747)" gradientUnits="userSpaceOnUse" xlink:href="#linearGradient627"/><radialGradient id="radialGradient6202" cx="448.303" cy="296.119" r="82.947" fx="448.303" fy="296.119" gradientTransform="matrix(5.513908e-2,0,0,4.006233e-2,9.465892,14.41747)" gradientUnits="userSpaceOnUse" xlink:href="#linearGradient627"/><radialGradient id="radialGradient6204" cx="448.835" cy="465.497" r="82.947" fx="448.835" fy="465.497" gradientTransform="matrix(5.513908e-2,0,0,4.006233e-2,9.465892,14.41747)" gradientUnits="userSpaceOnUse" xlink:href="#linearGradient627"/></defs><metadata id="metadata4"/><g id="layer6"><g id="g3712" opacity=".4" transform="matrix(1.052632,0,0,1.285713,-1.263158,-13.42854)"><rect id="rect2801" width="5" height="7" x="38" y="40" fill="url(#radialGradient3717)" fill-opacity="1" stroke="none" stroke-dasharray="none" stroke-linecap="round" stroke-linejoin="miter" stroke-miterlimit="4" stroke-opacity="1" stroke-width="1" opacity="1"/><rect id="rect3696" width="5" height="7" x="-10" y="-47" fill="url(#radialGradient3719)" fill-opacity="1" stroke="none" stroke-dasharray="none" stroke-linecap="round" stroke-linejoin="miter" stroke-miterlimit="4" stroke-opacity="1" stroke-width="1" opacity="1" transform="scale(-1,-1)"/><rect id="rect3700" width="28" height="7" x="10" y="40" fill="url(#linearGradient3721)" fill-opacity="1" stroke="none" stroke-dasharray="none" stroke-linecap="round" stroke-linejoin="miter" stroke-miterlimit="4" stroke-opacity="1" stroke-width="1" opacity="1"/></g></g><g id="layer1" display="inline"><path id="rect15391" fill="url(#radialGradient15658)" fill-opacity="1" fill-rule="nonzero" stroke="url(#radialGradient15656)" stroke-dashoffset="0" stroke-linecap="round" stroke-linejoin="round" stroke-miterlimit="4" stroke-opacity="1" stroke-width="1" marker-end="none" marker-mid="none" marker-start="none" d="M 7.7533083,3.5156762 L 36.217818,3.5000013 C 36.217818,3.5000013 41.500001,8.7962658 41.500001,9.4348733 L 41.500001,43.414232 C 41.500001,44.052839 40.98721,44.566952 40.350246,44.566952 L 7.7533083,44.566952 C 7.1163439,44.566952 6.603553,44.052839 6.603553,43.414232 L 6.603553,4.6683972 C 6.603553,4.0297898 7.1163439,3.5156762 7.7533083,3.5156762 z" color="#000" display="block" overflow="visible" visibility="visible" style="marker:none"/><path id="rect15660" fill="none" fill-opacity="1" fill-rule="nonzero" stroke="url(#radialGradient15668)" stroke-dashoffset="0" stroke-linecap="round" stroke-linejoin="round" stroke-miterlimit="4" stroke-opacity="1" stroke-width="1" marker-end="none" marker-mid="none" marker-start="none" d="M 7.8151023,4.5839462 L 36.691494,4.5839462 C 36.691494,4.5839462 40.44194,8.605373 40.44194,8.687946 L 40.44194,43.381282 C 40.44194,43.463855 40.375465,43.530331 40.292892,43.530331 L 7.8151023,43.530331 C 7.7325294,43.530331 7.6660538,43.463855 7.6660538,43.381282 L 7.6660538,4.7329948 C 7.6660538,4.6504219 7.7325294,4.5839462 7.8151023,4.5839462 z" color="#000" display="block" overflow="visible" visibility="visible" style="marker:none"/></g><g id="layer5" display="inline"><path id="path617" fill="none" fill-rule="evenodd" stroke="#000" stroke-width=".049" d="M 16.798357,29.659091 L 19.082388,29.659091" font-size="12"/><path id="path618" fill="none" fill-opacity="1" fill-rule="evenodd" stroke="#000" stroke-dasharray="none" stroke-linecap="butt" stroke-linejoin="miter" stroke-opacity="1" stroke-width=".587" d="M 20.73425,23.38617 L 19.082388,23.3977 L 19.161151,35.881102 L 20.683039,35.878709"/><path id="path638" fill="none" fill-rule="evenodd" stroke="#000" stroke-opacity=".27" stroke-width=".617" d="M 16.758976,30.092271 L 19.279285,30.092271" font-size="12"/><path id="path640" fill="none" fill-opacity="1" fill-rule="evenodd" stroke="#000" stroke-dasharray="none" stroke-linecap="butt" stroke-linejoin="miter" stroke-opacity=".27" stroke-width=".587" d="M 31.343429,33.163895 L 29.728857,33.15912 L 29.754316,39.425282 L 31.357355,39.434429"/><path id="path641" fill="none" fill-rule="evenodd" stroke="#000" stroke-opacity=".27" stroke-width=".625" d="M 26.722069,23.791503 L 29.399904,23.791503" font-size="12"/><path id="path642" fill="none" fill-opacity="1" fill-rule="evenodd" stroke="#000" stroke-dasharray="none" stroke-linecap="butt" stroke-linejoin="miter" stroke-opacity=".27" stroke-width=".587" d="M 31.38759,20.052808 L 29.675554,20.05042 L 29.71016,26.325734 L 31.287738,26.323341"/><path id="path643" fill="none" fill-rule="evenodd" stroke="#000" stroke-opacity=".27" stroke-width=".639" d="M 26.615464,36.274901 L 29.442312,36.274901" font-size="12"/><path id="path622" fill="none" fill-opacity="1" fill-rule="evenodd" stroke="#000" stroke-dasharray="none" stroke-linecap="butt" stroke-linejoin="miter" stroke-opacity="1" stroke-width=".587" d="M 30.796894,19.619628 L 29.084858,19.61724 L 29.119464,25.892553 L 30.697042,25.890161"/><path id="path621" fill="none" fill-rule="evenodd" stroke="#000" stroke-dasharray="none" stroke-width=".587" d="M 26.87959,23.358323 L 29.242383,23.358323" font-size="12"/><path id="path623" fill="none" fill-rule="evenodd" stroke="#000" stroke-dasharray="none" stroke-width=".587" d="M 26.851742,35.881102 L 29.242383,35.881102" font-size="12"/><path id="path620" fill="none" fill-opacity="1" fill-rule="evenodd" stroke="#000" stroke-dasharray="none" stroke-linecap="butt" stroke-linejoin="miter" stroke-opacity="1" stroke-width=".587" d="M 30.752733,32.730715 L 29.138161,32.72594 L 29.16362,38.992102 L 30.766659,39.001248"/><path id="path639" fill="none" fill-opacity="1" fill-rule="evenodd" stroke="#000" stroke-dasharray="none" stroke-linecap="butt" stroke-linejoin="miter" stroke-opacity=".27" stroke-width=".587" d="M 21.301578,23.819351 L 19.673084,23.83088 L 19.751847,36.314282 L 21.273735,36.31189"/><path id="path614" fill="none" fill-opacity="1" fill-rule="evenodd" stroke="#000" stroke-dasharray="none" stroke-linecap="butt" stroke-linejoin="miter" stroke-opacity="1" stroke-width=".587" d="M 16.798362,29.698472 L 18.964249,29.698472"/><path id="path664" fill="#70d4bc" fill-opacity="1" fill-rule="evenodd" stroke="none" stroke-dasharray="none" stroke-linecap="square" stroke-linejoin="miter" stroke-opacity="1" stroke-width="0" d="M 16.631982,24.824967 C 21.596329,27.068268 21.596329,27.068268 21.596329,27.068268"/><path id="path670" fill="#d7d7d7" fill-rule="evenodd" stroke="#b8b8b8" stroke-dasharray="none" stroke-linecap="square" stroke-width=".088" d="M 19.428623,35.678706 C 19.42766,35.679937 20.650167,35.682536 20.650167,35.682536 L 20.650195,35.682536" font-size="12"/><path id="path671" fill="#d7d7d7" fill-rule="evenodd" stroke="#b8b8b8" stroke-linecap="square" stroke-opacity="1" stroke-width=".088" d="M 18.959394,36.068058 C 18.960668,36.072876 18.920309,29.982672 18.920309,29.982672 L 18.920304,29.982536" font-size="12"/><path id="path672" fill="#d7d7d7" fill-rule="evenodd" stroke="#b8b8b8" stroke-dasharray="none" stroke-linecap="square" stroke-opacity="1" stroke-width=".088" d="M 18.922677,29.45865 C 18.923946,29.463604 18.883588,23.208149 18.883588,23.208149 L 18.883583,23.208003" font-size="12"/><path id="path673" fill="#d7d7d7" fill-rule="evenodd" stroke="#b8b8b8" stroke-dasharray="none" stroke-linecap="square" stroke-opacity="1" stroke-width=".088" d="M 18.88136,23.203265 C 18.879959,23.20452 20.678569,23.189748 20.678569,23.189748 L 20.678602,23.189748" font-size="12"/><path id="path674" fill="#d7d7d7" fill-rule="evenodd" stroke="#b8b8b8" stroke-dasharray="none" stroke-linecap="square" stroke-opacity="1" stroke-width=".088" d="M 16.856153,29.517753 C 16.854541,29.519008 18.923387,29.504236 18.923387,29.504236 L 18.923425,29.504236" font-size="12"/><path id="path875" fill="#d7d7d7" fill-rule="evenodd" stroke="#b8b8b8" stroke-linecap="square" stroke-width=".088" d="M 28.924917,23.142992 C 28.926186,23.145944 28.885827,19.42604 28.885827,19.42604 L 28.885822,19.42595" font-size="12"/><path id="path876" fill="#d7d7d7" fill-rule="evenodd" stroke="#b8b8b8" stroke-dasharray="none" stroke-linecap="square" stroke-opacity="1" stroke-width=".088" d="M 28.957037,19.428559 C 28.955636,19.429814 30.754246,19.415042 30.754246,19.415042 L 30.754279,19.415042" font-size="12"/><path id="path877" fill="#d7d7d7" fill-rule="evenodd" stroke="#b8b8b8" stroke-linecap="square" stroke-width=".087" d="M 26.93183,23.187407 C 26.930275,23.188662 28.925627,23.17389 28.925627,23.17389 L 28.925664,23.17389" font-size="12"/><rect id="rect644" width="6.417" height="4.662" x="21.099" y="21.525" fill="url(#radialGradient6194)" fill-opacity=".291" fill-rule="evenodd" stroke="none" stroke-dasharray="none" stroke-dashoffset="5" stroke-opacity="1" stroke-width="0" font-size="12"/><path id="path878" fill="#d7d7d7" fill-rule="evenodd" stroke="#b8b8b8" stroke-dasharray="none" stroke-linecap="square" stroke-width=".088" d="M 29.380384,25.692221 C 29.379365,25.693452 30.671456,25.696051 30.671456,25.696051 L 30.671484,25.696051" font-size="12"/><path id="path879" fill="#d7d7d7" fill-rule="evenodd" stroke="#b8b8b8" stroke-linecap="square" stroke-width=".088" d="M 28.925227,26.066881 C 28.926501,26.068803 28.915587,23.657657 28.915587,23.657657 L 28.915583,23.657605" font-size="12"/><path id="path880" fill="#d7d7d7" fill-rule="evenodd" stroke="#b8b8b8" stroke-linecap="square" stroke-width=".088" d="M 28.957629,35.673733 C 28.958889,35.676224 28.945907,32.538156 28.945907,32.538156 L 28.945902,32.538081" font-size="12"/><path id="path881" fill="#d7d7d7" fill-rule="evenodd" stroke="#b8b8b8" stroke-dasharray="none" stroke-linecap="square" stroke-width=".088" d="M 28.982581,32.542377 C 28.981199,32.544562 30.717633,32.536046 30.717633,32.536046 L 30.717661,32.536046" font-size="12"/><path id="path882" fill="#d7d7d7" fill-rule="evenodd" stroke="#b8b8b8" stroke-linecap="square" stroke-width=".087" d="M 26.915972,35.697238 C 26.914417,35.698493 28.909769,35.68372 28.909769,35.68372 L 28.909806,35.68372" font-size="12"/><path id="path884" fill="#d7d7d7" fill-rule="evenodd" stroke="#b8b8b8" stroke-dasharray="none" stroke-linecap="square" stroke-width=".088" d="M 29.425584,38.797076 C 29.424555,38.798307 30.723997,38.800906 30.723997,38.800906 L 30.724025,38.800906" font-size="12"/><path id="path885" fill="#d7d7d7" fill-rule="evenodd" stroke="#b8b8b8" stroke-dasharray="none" stroke-linecap="square" stroke-width=".088" d="M 28.992456,39.179082 C 28.99373,39.181493 28.982816,36.157119 28.982816,36.157119 L 28.982812,36.157053" font-size="12"/><rect id="rect886" width="6.417" height="4.662" x="21.04" y="34.127" fill="url(#radialGradient6196)" fill-opacity=".291" fill-rule="evenodd" stroke="none" stroke-dasharray="none" stroke-dashoffset="5" stroke-opacity="1" stroke-width="0" font-size="12"/><rect id="rect887" width="6.417" height="4.662" x="10.935" y="27.871" fill="url(#radialGradient6198)" fill-opacity=".291" fill-rule="evenodd" stroke="none" stroke-dasharray="none" stroke-dashoffset="5" stroke-opacity="1" stroke-width="0" font-size="12"/><rect id="rect888" width="6.417" height="4.662" x="31.086" y="17.677" fill="url(#radialGradient6200)" fill-opacity=".291" fill-rule="evenodd" stroke="none" stroke-dasharray="none" stroke-dashoffset="5" stroke-opacity="1" stroke-width="0" font-size="12"/><rect id="rect889" width="6.417" height="4.662" x="31.027" y="24.022" fill="url(#radialGradient6202)" fill-opacity=".291" fill-rule="evenodd" stroke="none" stroke-dasharray="none" stroke-dashoffset="5" stroke-opacity="1" stroke-width="0" font-size="12"/><rect id="rect890" width="6.417" height="4.662" x="31.057" y="30.808" fill="url(#radialGradient6204)" fill-opacity=".291" fill-rule="evenodd" stroke="none" stroke-dasharray="none" stroke-dashoffset="5" stroke-opacity="1" stroke-width="0" font-size="12"/><rect id="rect892" width="6.417" height="4.662" x="31.086" y="37.153" fill="url(#radialGradient631)" fill-opacity=".291" fill-rule="evenodd" stroke="none" stroke-dasharray="none" stroke-dashoffset="5" stroke-opacity="1" stroke-width="0" font-size="12"/><g id="g711" font-size="12" transform="matrix(4.7e-2,0,0,4.7e-2,17.40819,28.52516)"><rect id="rect712" width="118.977" height="81.273" x="290.74" y="182.763" fill="#ead4bc" fill-opacity="1" fill-rule="evenodd" stroke="#b39166" stroke-dasharray="none" stroke-dashoffset="5" stroke-width="12.5" font-size="12"/><path id="path713" fill="#d4b993" fill-opacity="1" fill-rule="evenodd" stroke="none" stroke-dasharray="none" stroke-linecap="square" stroke-linejoin="miter" stroke-opacity="1" stroke-width="0" d="M 284.4987,176.5118 L 415.9331,176.5096 L 403.4166,189.0328 L 296.9416,188.9893 L 284.4987,176.5118 z"/><path id="path714" fill="#b39a7d" fill-opacity="1" fill-rule="evenodd" stroke="none" stroke-dasharray="none" stroke-linecap="square" stroke-linejoin="miter" stroke-opacity="1" stroke-width="0" d="M 284.5556,176.58 L 296.9299,188.9543 L 296.8747,257.6765 L 284.5555,270.106 L 284.5556,176.58 z"/><path id="path715" fill="#887058" fill-opacity="1" fill-rule="evenodd" stroke="none" stroke-dasharray="none" stroke-linecap="square" stroke-linejoin="miter" stroke-opacity="1" stroke-width="0" d="M 415.9927,176.7363 L 403.6184,189.1105 L 403.6736,257.8327 L 415.9928,270.2622 L 415.9927,176.7363 z"/><path id="path716" fill="#695144" fill-opacity="1" fill-rule="evenodd" stroke="none" stroke-dasharray="none" stroke-linecap="square" stroke-linejoin="miter" stroke-opacity="1" stroke-width="0" d="M 416.0892,270.2808 L 284.6549,270.283 L 297.1714,257.7598 L 403.6463,257.8033 L 416.0892,270.2808 z"/></g><g id="g705" font-size="12" transform="matrix(4.7e-2,0,0,4.7e-2,17.37881,22.23888)"><rect id="rect706" width="118.977" height="81.273" x="290.74" y="182.763" fill="#ead4bc" fill-opacity="1" fill-rule="evenodd" stroke="#b39166" stroke-dasharray="none" stroke-dashoffset="5" stroke-width="12.5" font-size="12"/><path id="path707" fill="#d4b993" fill-opacity="1" fill-rule="evenodd" stroke="none" stroke-dasharray="none" stroke-linecap="square" stroke-linejoin="miter" stroke-opacity="1" stroke-width="0" d="M 284.4987,176.5118 L 415.9331,176.5096 L 403.4166,189.0328 L 296.9416,188.9893 L 284.4987,176.5118 z"/><path id="path708" fill="#b39a7d" fill-opacity="1" fill-rule="evenodd" stroke="none" stroke-dasharray="none" stroke-linecap="square" stroke-linejoin="miter" stroke-opacity="1" stroke-width="0" d="M 284.5556,176.58 L 296.9299,188.9543 L 296.8747,257.6765 L 284.5555,270.106 L 284.5556,176.58 z"/><path id="path709" fill="#887058" fill-opacity="1" fill-rule="evenodd" stroke="none" stroke-dasharray="none" stroke-linecap="square" stroke-linejoin="miter" stroke-opacity="1" stroke-width="0" d="M 415.9927,176.7363 L 403.6184,189.1105 L 403.6736,257.8327 L 415.9928,270.2622 L 415.9927,176.7363 z"/><path id="path710" fill="#695144" fill-opacity="1" fill-rule="evenodd" stroke="none" stroke-dasharray="none" stroke-linecap="square" stroke-linejoin="miter" stroke-opacity="1" stroke-width="0" d="M 416.0892,270.2808 L 284.6549,270.283 L 297.1714,257.7598 L 403.6463,257.8033 L 416.0892,270.2808 z"/></g><g id="g699" font-size="12" transform="matrix(4.7e-2,0,0,4.7e-2,17.33475,15.39448)"><rect id="rect700" width="118.977" height="81.273" x="290.74" y="182.763" fill="#ead4bc" fill-opacity="1" fill-rule="evenodd" stroke="#b39166" stroke-dasharray="none" stroke-dashoffset="5" stroke-width="12.5" font-size="12"/><path id="path701" fill="#d4b993" fill-opacity="1" fill-rule="evenodd" stroke="none" stroke-dasharray="none" stroke-linecap="square" stroke-linejoin="miter" stroke-opacity="1" stroke-width="0" d="M 284.4987,176.5118 L 415.9331,176.5096 L 403.4166,189.0328 L 296.9416,188.9893 L 284.4987,176.5118 z"/><path id="path702" fill="#b39a7d" fill-opacity="1" fill-rule="evenodd" stroke="none" stroke-dasharray="none" stroke-linecap="square" stroke-linejoin="miter" stroke-opacity="1" stroke-width="0" d="M 284.5556,176.58 L 296.9299,188.9543 L 296.8747,257.6765 L 284.5555,270.106 L 284.5556,176.58 z"/><path id="path703" fill="#887058" fill-opacity="1" fill-rule="evenodd" stroke="none" stroke-dasharray="none" stroke-linecap="square" stroke-linejoin="miter" stroke-opacity="1" stroke-width="0" d="M 415.9927,176.7363 L 403.6184,189.1105 L 403.6736,257.8327 L 415.9928,270.2622 L 415.9927,176.7363 z"/><path id="path704" fill="#695144" fill-opacity="1" fill-rule="evenodd" stroke="none" stroke-dasharray="none" stroke-linecap="square" stroke-linejoin="miter" stroke-opacity="1" stroke-width="0" d="M 416.0892,270.2808 L 284.6549,270.283 L 297.1714,257.7598 L 403.6463,257.8033 L 416.0892,270.2808 z"/></g><g id="g693" font-size="12" transform="matrix(4.7e-2,0,0,4.7e-2,17.43022,9.049448)"><rect id="rect694" width="118.977" height="81.273" x="290.74" y="182.763" fill="#ead4bc" fill-opacity="1" fill-rule="evenodd" stroke="#b39166" stroke-dasharray="none" stroke-dashoffset="5" stroke-width="12.5" font-size="12"/><path id="path695" fill="#d4b993" fill-opacity="1" fill-rule="evenodd" stroke="none" stroke-dasharray="none" stroke-linecap="square" stroke-linejoin="miter" stroke-opacity="1" stroke-width="0" d="M 284.4987,176.5118 L 415.9331,176.5096 L 403.4166,189.0328 L 296.9416,188.9893 L 284.4987,176.5118 z"/><path id="path696" fill="#b39a7d" fill-opacity="1" fill-rule="evenodd" stroke="none" stroke-dasharray="none" stroke-linecap="square" stroke-linejoin="miter" stroke-opacity="1" stroke-width="0" d="M 284.5556,176.58 L 296.9299,188.9543 L 296.8747,257.6765 L 284.5555,270.106 L 284.5556,176.58 z"/><path id="path697" fill="#887058" fill-opacity="1" fill-rule="evenodd" stroke="none" stroke-dasharray="none" stroke-linecap="square" stroke-linejoin="miter" stroke-opacity="1" stroke-width="0" d="M 415.9927,176.7363 L 403.6184,189.1105 L 403.6736,257.8327 L 415.9928,270.2622 L 415.9927,176.7363 z"/><path id="path698" fill="#695144" fill-opacity="1" fill-rule="evenodd" stroke="none" stroke-dasharray="none" stroke-linecap="square" stroke-linejoin="miter" stroke-opacity="1" stroke-width="0" d="M 416.0892,270.2808 L 284.6549,270.283 L 297.1714,257.7598 L 403.6463,257.8033 L 416.0892,270.2808 z"/></g><g id="g675" font-size="12" transform="matrix(4.7e-2,0,0,4.7e-2,7.332512,12.86822)"><rect id="rect607" width="118.977" height="81.273" x="290.74" y="182.763" fill="#ead4bc" fill-opacity="1" fill-rule="evenodd" stroke="#b39166" stroke-dasharray="none" stroke-dashoffset="5" stroke-width="12.5" font-size="12"/><path id="path660" fill="#d4b993" fill-opacity="1" fill-rule="evenodd" stroke="none" stroke-dasharray="none" stroke-linecap="square" stroke-linejoin="miter" stroke-opacity="1" stroke-width="0" d="M 284.4987,176.5118 L 415.9331,176.5096 L 403.4166,189.0328 L 296.9416,188.9893 L 284.4987,176.5118 z"/><path id="path661" fill="#b39a7d" fill-opacity="1" fill-rule="evenodd" stroke="none" stroke-dasharray="none" stroke-linecap="square" stroke-linejoin="miter" stroke-opacity="1" stroke-width="0" d="M 284.5556,176.58 L 296.9299,188.9543 L 296.8747,257.6765 L 284.5555,270.106 L 284.5556,176.58 z"/><path id="path662" fill="#887058" fill-opacity="1" fill-rule="evenodd" stroke="none" stroke-dasharray="none" stroke-linecap="square" stroke-linejoin="miter" stroke-opacity="1" stroke-width="0" d="M 415.9927,176.7363 L 403.6184,189.1105 L 403.6736,257.8327 L 415.9928,270.2622 L 415.9927,176.7363 z"/><path id="path663" fill="#695144" fill-opacity="1" fill-rule="evenodd" stroke="none" stroke-dasharray="none" stroke-linecap="square" stroke-linejoin="miter" stroke-opacity="1" stroke-width="0" d="M 416.0892,270.2808 L 284.6549,270.283 L 297.1714,257.7598 L 403.6463,257.8033 L 416.0892,270.2808 z"/></g><g id="g687" font-size="12" transform="matrix(4.7e-2,0,0,4.7e-2,7.316932,25.44077)"><rect id="rect688" width="118.977" height="81.273" x="290.74" y="182.763" fill="#ead4bc" fill-opacity="1" fill-rule="evenodd" stroke="#b39166" stroke-dasharray="none" stroke-dashoffset="5" stroke-width="12.5" font-size="12"/><path id="path689" fill="#d4b993" fill-opacity="1" fill-rule="evenodd" stroke="none" stroke-dasharray="none" stroke-linecap="square" stroke-linejoin="miter" stroke-opacity="1" stroke-width="0" d="M 284.4987,176.5118 L 415.9331,176.5096 L 403.4166,189.0328 L 296.9416,188.9893 L 284.4987,176.5118 z"/><path id="path690" fill="#b39a7d" fill-opacity="1" fill-rule="evenodd" stroke="none" stroke-dasharray="none" stroke-linecap="square" stroke-linejoin="miter" stroke-opacity="1" stroke-width="0" d="M 284.5556,176.58 L 296.9299,188.9543 L 296.8747,257.6765 L 284.5555,270.106 L 284.5556,176.58 z"/><path id="path691" fill="#887058" fill-opacity="1" fill-rule="evenodd" stroke="none" stroke-dasharray="none" stroke-linecap="square" stroke-linejoin="miter" stroke-opacity="1" stroke-width="0" d="M 415.9927,176.7363 L 403.6184,189.1105 L 403.6736,257.8327 L 415.9928,270.2622 L 415.9927,176.7363 z"/><path id="path692" fill="#695144" fill-opacity="1" fill-rule="evenodd" stroke="none" stroke-dasharray="none" stroke-linecap="square" stroke-linejoin="miter" stroke-opacity="1" stroke-width="0" d="M 416.0892,270.2808 L 284.6549,270.283 L 297.1714,257.7598 L 403.6463,257.8033 L 416.0892,270.2808 z"/></g><g id="g681" font-size="12" transform="matrix(4.7e-2,0,0,4.7e-2,-2.743158,19.18387)"><rect id="rect682" width="118.977" height="81.273" x="290.74" y="182.763" fill="#ead4bc" fill-opacity="1" fill-rule="evenodd" stroke="#b39166" stroke-dasharray="none" stroke-dashoffset="5" stroke-width="12.5" font-size="12"/><path id="path683" fill="#d4b993" fill-opacity="1" fill-rule="evenodd" stroke="none" stroke-dasharray="none" stroke-linecap="square" stroke-linejoin="miter" stroke-opacity="1" stroke-width="0" d="M 284.4987,176.5118 L 415.9331,176.5096 L 403.4166,189.0328 L 296.9416,188.9893 L 284.4987,176.5118 z"/><path id="path684" fill="#b39a7d" fill-opacity="1" fill-rule="evenodd" stroke="none" stroke-dasharray="none" stroke-linecap="square" stroke-linejoin="miter" stroke-opacity="1" stroke-width="0" d="M 284.5556,176.58 L 296.9299,188.9543 L 296.8747,257.6765 L 284.5555,270.106 L 284.5556,176.58 z"/><path id="path685" fill="#887058" fill-opacity="1" fill-rule="evenodd" stroke="none" stroke-dasharray="none" stroke-linecap="square" stroke-linejoin="miter" stroke-opacity="1" stroke-width="0" d="M 415.9927,176.7363 L 403.6184,189.1105 L 403.6736,257.8327 L 415.9928,270.2622 L 415.9927,176.7363 z"/><path id="path686" fill="#695144" fill-opacity="1" fill-rule="evenodd" stroke="none" stroke-dasharray="none" stroke-linecap="square" stroke-linejoin="miter" stroke-opacity="1" stroke-width="0" d="M 416.0892,270.2808 L 284.6549,270.283 L 297.1714,257.7598 L 403.6463,257.8033 L 416.0892,270.2808 z"/></g><text id="text2625" x="9.375" y="15.434" fill="#000" fill-opacity="1" stroke="none" stroke-linecap="butt" stroke-linejoin="miter" stroke-opacity="1" stroke-width="1" font-family="Bitstream Vera Sans" font-size="10" font-style="normal" font-weight="normal" xml:space="preserve"><tspan id="tspan2627" x="9.375" y="15.434">GRDB</tspan></text><g id="g1918" transform="matrix(0.589097,0,0,0.577622,17.11331,1.395056)"><path stroke-width="1" style="marker:none" id="path5348" fill="url(#radialGradient1923)" fill-opacity="1" fill-rule="evenodd" stroke="none" stroke-dasharray="none" stroke-dashoffset="0" stroke-linecap="butt" stroke-linejoin="miter" stroke-miterlimit="4" stroke-opacity="1" marker-end="none" marker-mid="none" marker-start="none" d="M 40.985189,13.861445 C 40.256827,12.514817 34.882221,10.130934 32.084635,9.3314083 C 32.254143,10.904354 31.961856,15.649439 31.961856,15.649439 C 34.024356,14.274439 40.204485,13.699331 40.985189,13.861445 z" color="#000" display="inline" opacity=".357" overflow="visible" visibility="visible"/><path stroke-width="1.714" style="marker:none" id="path2210" fill="url(#radialGradient1925)" fill-opacity="1" fill-rule="nonzero" stroke="url(#radialGradient1927)" stroke-dasharray="none" stroke-dashoffset="0" stroke-linecap="butt" stroke-linejoin="round" stroke-miterlimit="4" stroke-opacity="1" marker-end="none" marker-mid="none" marker-start="none" d="M 41.410559,13.739267 C 41.423724,12.324125 35.058025,3.5320142 31.175441,3.6354934 C 32.148479,3.8684884 32.634036,9.5059668 31.244316,12.318467 C 33.994316,12.318467 40.446694,11.881093 41.410559,13.739267 z" color="#000" display="block" opacity="1" overflow="visible" visibility="visible"/><path id="path2247" fill="none" fill-opacity="1" fill-rule="evenodd" stroke="url(#linearGradient1929)" stroke-dasharray="none" stroke-dashoffset="0" stroke-linecap="butt" stroke-linejoin="miter" stroke-miterlimit="4" stroke-opacity="1" stroke-width="1.714" marker-end="none" marker-mid="none" marker-start="none" d="M 38.373065,10.820521 C 37.821714,9.8008851 35.225165,6.9819727 33.769819,6.0453244 C 33.950691,7.1249452 33.99069,8.6442222 33.524667,10.584399 C 33.524667,10.584399 37.782093,10.697772 38.373065,10.820521 z" color="#000" display="inline" opacity="1" overflow="visible" visibility="visible" style="marker:none"/></g></g></svg>