<svg xmlns="http://www.w3.org/2000/svg" xmlns:cc="http://web.resource.org/cc/" xmlns:svg="http://www.w3.org/2000/svg" xmlns:xlink="http://www.w3.org/1999/xlink" id="svg249" width="48" height="48"><defs id="defs3"><linearGradient id="linearGradient627"><stop id="stop628" offset="0" stop-color="#7f7f7f" stop-opacity="1"/><stop id="stop629" offset="1" stop-color="#000" stop-opacity="0"/></linearGradient><radialGradient id="radialGradient631" cx="449.368" cy="623.876" r="82.947" fx="449.368" fy="623.876" gradientTransform="matrix(5.513908e-2,0,0,4.006233e-2,8.838008,15.75957)" gradientUnits="userSpaceOnUse" xlink:href="#linearGradient627"/><linearGradient id="linearGradient3702"><stop id="stop3704" offset="0" stop-color="#000" stop-opacity="0"/><stop id="stop3710" offset=".5" stop-color="#000" stop-opacity="1"/><stop id="stop3706" offset="1" stop-color="#000" stop-opacity="0"/></linearGradient><linearGradient id="linearGradient3688"><stop id="stop3690" offset="0" stop-color="#000" stop-opacity="1"/><stop id="stop3692" offset="1" stop-color="#000" stop-opacity="0"/></linearGradient><linearGradient id="linearGradient4790"><stop id="stop4792" offset="0" stop-color="#000" stop-opacity="1"/><stop id="stop4794" offset="1" stop-color="#000" stop-opacity="0"/></linearGradient><linearGradient id="linearGradient2251"><stop id="stop2253" offset="0" stop-color="#fff" stop-opacity="1"/><stop id="stop2255" offset="1" stop-color="#fff" stop-opacity="0"/></linearGradient><linearGradient id="linearGradient15662"><stop id="stop15664" offset="0" stop-color="#fff" stop-opacity="1"/><stop id="stop15666" offset="1" stop-color="#f8f8f8" stop-opacity="1"/></linearGradient><linearGradient id="linearGradient269"><stop id="stop270" offset="0" stop-color="#a3a3a3" stop-opacity="1"/><stop id="stop271" offset="1" stop-color="#8a8a8a" stop-opacity="1"/></linearGradient><linearGradient id="linearGradient259"><stop id="stop260" offset="0" stop-color="#fafafa" stop-opacity="1"/><stop id="stop261" offset="1" stop-color="#bbb" stop-opacity="1"/></linearGradient><radialGradient id="radialGradient15656" cx="8.824" cy="3.756" r="37.752" fx="8.824" fy="3.756" gradientTransform="matrix(0.968868,0,0,1.036068,3.351554,0.506089)" gradientUnits="userSpaceOnUse" xlink:href="#linearGradient269"/><radialGradient id="radialGradient15658" cx="33.967" cy="35.737" r="86.708" fx="33.967" fy="35.737" gradientTransform="matrix(0.961084,0,0,1.044459,-4.060961e-3,-0.142424)" gradientUnits="userSpaceOnUse" xlink:href="#linearGradient259"/><radialGradient id="radialGradient15668" cx="8.144" cy="7.268" r="38.159" fx="8.144" fy="7.268" gradientTransform="matrix(0.968273,0.000000,0.000000,1.032767,3.353553,0.646447)" gradientUnits="userSpaceOnUse" xlink:href="#linearGradient15662"/><radialGradient id="radialGradient3717" cx="4.993" cy="43.5" r="2.5" fx="4.993" fy="43.5" gradientTransform="matrix(2.003784,0,0,1.4,27.98813,-17.4)" gradientUnits="userSpaceOnUse" xlink:href="#linearGradient3688"/><radialGradient id="radialGradient3719" cx="4.993" cy="43.5" r="2.5" fx="4.993" fy="43.5" gradientTransform="matrix(2.003784,0,0,1.4,-20.01187,-104.4)" gradientUnits="userSpaceOnUse" xlink:href="#linearGradient3688"/><linearGradient id="linearGradient3721" x1="25.058" x2="25.058" y1="47.028" y2="39.999" gradientUnits="userSpaceOnUse" xlink:href="#linearGradient3702"/><radialGradient id="radialGradient1923" cx="37.03" cy="12.989" r="4.293" fx="37.03" fy="12.989" gradientTransform="matrix(1.744653,0,0,1.283833,-26.58256,-3.478359)" gradientUnits="userSpaceOnUse" xlink:href="#linearGradient4790"/><radialGradient id="radialGradient1925" cx="30.654" cy="14.937" r="86.708" fx="30.654" fy="14.937" gradientTransform="matrix(0.148355,1.009137e-2,-1.104438e-2,0.162365,25.06011,12.81706)" gradientUnits="userSpaceOnUse" xlink:href="#linearGradient259"/><radialGradient id="radialGradient1927" cx="31.863" cy="2.367" r="37.752" fx="31.863" fy="2.367" gradientTransform="matrix(0.331735,0,0,0.353831,20.10526,9.5823)" gradientUnits="userSpaceOnUse" xlink:href="#linearGradient269"/><linearGradient id="linearGradient1929" x1="33.396" x2="34.17" y1="36.921" y2="38.07" gradientTransform="matrix(-2.48131e-2,-0.756771,0.756567,-2.481981e-2,8.221918,36.1682)" gradientUnits="userSpaceOnUse" xlink:href="#linearGradient2251"/><radialGradient id="radialGradient6194" cx="268.234" cy="233.794" r="82.947" fx="268.234" fy="233.794" gradientTransform="matrix(5.513908e-2,0,0,4.006233e-2,8.838008,15.75957)" gradientUnits="userSpaceOnUse" xlink:href="#linearGradient627"/><radialGradient id="radialGradient6196" cx="267.169" cy="548.353" r="82.947" fx="267.169" fy="548.353" gradientTransform="matrix(5.513908e-2,0,0,4.006233e-2,8.838008,15.75957)" gradientUnits="userSpaceOnUse" xlink:href="#linearGradient627"/><radialGradient id="radialGradient6198" cx="83.904" cy="392.174" r="82.947" fx="83.904" fy="392.174" gradientTransform="matrix(5.513908e-2,0,0,4.006233e-2,8.838008,15.75957)" gradientUnits="userSpaceOnUse" xlink:href="#linearGradient627"/><radialGradient id="radialGradient6200" cx="449.368" cy="137.74" r="82.947" fx="449.368" fy="137.74" gradientTransform="matrix(5.513908e-2,0,0,4.006233e-2,8.838008,15.75957)" gradientUnits="userSpaceOnUse" xlink:href="#linearGradient627"/><radialGradient id="radialGradient6202" cx="448.303" cy="296.119" r="82.947" fx="448.303" fy="296.119" gradientTransform="matrix(5.513908e-2,0,0,4.006233e-2,8.838008,15.75957)" gradientUnits="userSpaceOnUse" xlink:href="#linearGradient627"/><radialGradient id="radialGradient6204" cx="448.835" cy="465.497" r="82.947" fx="448.835" fy="465.497" gradientTransform="matrix(5.513908e-2,0,0,4.006233e-2,8.838008,15.75957)" gradientUnits="userSpaceOnUse" xlink:href="#linearGradient627"/></defs><metadata id="metadata4"/><g id="layer6"><g id="g3712" opacity=".4" transform="matrix(1.052632,0,0,1.285713,-1.263158,-13.42854)"><rect id="rect2801" width="5" height="7" x="38" y="40" fill="url(#radialGradient3717)" fill-opacity="1" stroke="none" stroke-dasharray="none" stroke-linecap="round" stroke-linejoin="miter" stroke-miterlimit="4" stroke-opacity="1" stroke-width="1" opacity="1"/><rect id="rect3696" width="5" height="7" x="-10" y="-47" fill="url(#radialGradient3719)" fill-opacity="1" stroke="none" stroke-dasharray="none" stroke-linecap="round" stroke-linejoin="miter" stroke-miterlimit="4" stroke-opacity="1" stroke-width="1" opacity="1" transform="scale(-1,-1)"/><rect id="rect3700" width="28" height="7" x="10" y="40" fill="url(#linearGradient3721)" fill-opacity="1" stroke="none" stroke-dasharray="none" stroke-linecap="round" stroke-linejoin="miter" stroke-miterlimit="4" stroke-opacity="1" stroke-width="1" opacity="1"/></g></g><g id="layer1" display="inline"><path id="rect15391" fill="url(#radialGradient15658)" fill-opacity="1" fill-rule="nonzero" stroke="url(#radialGradient15656)" stroke-dashoffset="0" stroke-linecap="round" stroke-linejoin="round" stroke-miterlimit="4" stroke-opacity="1" stroke-width="1" marker-end="none" marker-mid="none" marker-start="none" d="M 7.7533083,3.5156762 L 36.217818,3.5000013 C 36.217818,3.5000013 41.500001,8.7962658 41.500001,9.4348733 L 41.500001,43.414232 C 41.500001,44.052839 40.98721,44.566952 40.350246,44.566952 L 7.7533083,44.566952 C 7.1163439,44.566952 6.603553,44.052839 6.603553,43.414232 L 6.603553,4.6683972 C 6.603553,4.0297898 7.1163439,3.5156762 7.7533083,3.5156762 z" color="#000" display="block" overflow="visible" visibility="visible" style="marker:none"/><path id="rect15660" fill="none" fill-opacity="1" fill-rule="nonzero" stroke="url(#radialGradient15668)" stroke-dashoffset="0" stroke-linecap="round" stroke-linejoin="round" stroke-miterlimit="4" stroke-opacity="1" stroke-width="1" marker-end="none" marker-mid="none" marker-start="none" d="M 7.8151023,4.5839462 L 36.691494,4.5839462 C 36.691494,4.5839462 40.44194,8.605373 40.44194,8.687946 L 40.44194,43.381282 C 40.44194,43.463855 40.375465,43.530331 40.292892,43.530331 L 7.8151023,43.530331 C 7.7325294,43.530331 7.6660538,43.463855 7.6660538,43.381282 L 7.6660538,4.7329948 C 7.6660538,4.6504219 7.7325294,4.5839462 7.8151023,4.5839462 z" color="#000" display="block" overflow="visible" visibility="visible" style="marker:none"/></g><g id="layer5" display="inline"><g id="g1918" transform="matrix(0.589097,0,0,0.577622,17.11331,1.395056)"><path stroke-width="1" style="marker:none" id="path5348" fill="url(#radialGradient1923)" fill-opacity="1" fill-rule="evenodd" stroke="none" stroke-dasharray="none" stroke-dashoffset="0" stroke-linecap="butt" stroke-linejoin="miter" stroke-miterlimit="4" stroke-opacity="1" marker-end="none" marker-mid="none" marker-start="none" d="M 40.985189,13.861445 C 40.256827,12.514817 34.882221,10.130934 32.084635,9.3314083 C 32.254143,10.904354 31.961856,15.649439 31.961856,15.649439 C 34.024356,14.274439 40.204485,13.699331 40.985189,13.861445 z" color="#000" display="inline" opacity=".357" overflow="visible" visibility="visible"/><path stroke-width="1.714" style="marker:none" id="path2210" fill="url(#radialGradient1925)" fill-opacity="1" fill-rule="nonzero" stroke="url(#radialGradient1927)" stroke-dasharray="none" stroke-dashoffset="0" stroke-linecap="butt" stroke-linejoin="round" stroke-miterlimit="4" stroke-opacity="1" marker-end="none" marker-mid="none" marker-start="none" d="M 41.410559,13.739267 C 41.423724,12.324125 35.058025,3.5320142 31.175441,3.6354934 C 32.148479,3.8684884 32.634036,9.5059668 31.244316,12.318467 C 33.994316,12.318467 40.446694,11.881093 41.410559,13.739267 z" color="#000" display="block" opacity="1" overflow="visible" visibility="visible"/><path id="path2247" fill="none" fill-opacity="1" fill-rule="evenodd" stroke="url(#linearGradient1929)" stroke-dasharray="none" stroke-dashoffset="0" stroke-linecap="butt" stroke-linejoin="miter" stroke-miterlimit="4" stroke-opacity="1" stroke-width="1.714" marker-end="none" marker-mid="none" marker-start="none" d="M 38.373065,10.820521 C 37.821714,9.8008851 35.225165,6.9819727 33.769819,6.0453244 C 33.950691,7.1249452 33.99069,8.6442222 33.524667,10.584399 C 33.524667,10.584399 37.782093,10.697772 38.373065,10.820521 z" color="#000" display="inline" opacity="1" overflow="visible" visibility="visible" style="marker:none"/></g><path id="path617" fill="none" fill-rule="evenodd" stroke="#000" stroke-width=".049" d="M 16.170473,31.001196 L 18.454504,31.001196" font-size="12"/><path id="path618" fill="none" fill-opacity="1" fill-rule="evenodd" stroke="#000" stroke-dasharray="none" stroke-linecap="butt" stroke-linejoin="miter" stroke-opacity="1" stroke-width=".587" d="M 20.106366,24.728275 L 18.454504,24.739805 L 18.533267,37.223207 L 20.055155,37.220814"/><path id="path638" fill="none" fill-rule="evenodd" stroke="#000" stroke-opacity=".27" stroke-width=".617" d="M 16.131092,31.434376 L 18.651401,31.434376" font-size="12"/><path id="path640" fill="none" fill-opacity="1" fill-rule="evenodd" stroke="#000" stroke-dasharray="none" stroke-linecap="butt" stroke-linejoin="miter" stroke-opacity=".27" stroke-width=".587" d="M 30.715545,34.506 L 29.100973,34.501225 L 29.126432,40.767387 L 30.729471,40.776534"/><path id="path641" fill="none" fill-rule="evenodd" stroke="#000" stroke-opacity=".27" stroke-width=".625" d="M 26.094185,25.133608 L 28.77202,25.133608" font-size="12"/><path id="path642" fill="none" fill-opacity="1" fill-rule="evenodd" stroke="#000" stroke-dasharray="none" stroke-linecap="butt" stroke-linejoin="miter" stroke-opacity=".27" stroke-width=".587" d="M 30.759706,21.394913 L 29.04767,21.392525 L 29.082276,27.667839 L 30.659854,27.665446"/><path id="path643" fill="none" fill-rule="evenodd" stroke="#000" stroke-opacity=".27" stroke-width=".639" d="M 25.98758,37.617006 L 28.814428,37.617006" font-size="12"/><path id="path622" fill="none" fill-opacity="1" fill-rule="evenodd" stroke="#000" stroke-dasharray="none" stroke-linecap="butt" stroke-linejoin="miter" stroke-opacity="1" stroke-width=".587" d="M 30.16901,20.961733 L 28.456974,20.959345 L 28.49158,27.234658 L 30.069158,27.232266"/><path id="path621" fill="none" fill-rule="evenodd" stroke="#000" stroke-dasharray="none" stroke-width=".587" d="M 26.251706,24.700428 L 28.614499,24.700428" font-size="12"/><path id="path623" fill="none" fill-rule="evenodd" stroke="#000" stroke-dasharray="none" stroke-width=".587" d="M 26.223858,37.223207 L 28.614499,37.223207" font-size="12"/><path id="path620" fill="none" fill-opacity="1" fill-rule="evenodd" stroke="#000" stroke-dasharray="none" stroke-linecap="butt" stroke-linejoin="miter" stroke-opacity="1" stroke-width=".587" d="M 30.124849,34.07282 L 28.510277,34.068045 L 28.535736,40.334207 L 30.138775,40.343353"/><path id="path639" fill="none" fill-opacity="1" fill-rule="evenodd" stroke="#000" stroke-dasharray="none" stroke-linecap="butt" stroke-linejoin="miter" stroke-opacity=".27" stroke-width=".587" d="M 20.673694,25.161456 L 19.0452,25.172985 L 19.123963,37.656387 L 20.645851,37.653995"/><path id="path614" fill="none" fill-opacity="1" fill-rule="evenodd" stroke="#000" stroke-dasharray="none" stroke-linecap="butt" stroke-linejoin="miter" stroke-opacity="1" stroke-width=".587" d="M 16.170478,31.040577 L 18.336365,31.040577"/><path id="path664" fill="#70d4bc" fill-opacity="1" fill-rule="evenodd" stroke="none" stroke-dasharray="none" stroke-linecap="square" stroke-linejoin="miter" stroke-opacity="1" stroke-width="0" d="M 16.004098,26.167072 C 20.968445,28.410373 20.968445,28.410373 20.968445,28.410373"/><path id="path670" fill="#d7d7d7" fill-rule="evenodd" stroke="#b8b8b8" stroke-dasharray="none" stroke-linecap="square" stroke-width=".088" d="M 18.800739,37.020811 C 18.799776,37.022042 20.022283,37.024641 20.022283,37.024641 L 20.022311,37.024641" font-size="12"/><path id="path671" fill="#d7d7d7" fill-rule="evenodd" stroke="#b8b8b8" stroke-linecap="square" stroke-opacity="1" stroke-width=".088" d="M 18.33151,37.410163 C 18.332784,37.414981 18.292425,31.324777 18.292425,31.324777 L 18.29242,31.324641" font-size="12"/><path id="path672" fill="#d7d7d7" fill-rule="evenodd" stroke="#b8b8b8" stroke-dasharray="none" stroke-linecap="square" stroke-opacity="1" stroke-width=".088" d="M 18.294793,30.800755 C 18.296062,30.805709 18.255704,24.550254 18.255704,24.550254 L 18.255699,24.550108" font-size="12"/><path id="path673" fill="#d7d7d7" fill-rule="evenodd" stroke="#b8b8b8" stroke-dasharray="none" stroke-linecap="square" stroke-opacity="1" stroke-width=".088" d="M 18.253476,24.54537 C 18.252075,24.546625 20.050685,24.531853 20.050685,24.531853 L 20.050718,24.531853" font-size="12"/><path id="path674" fill="#d7d7d7" fill-rule="evenodd" stroke="#b8b8b8" stroke-dasharray="none" stroke-linecap="square" stroke-opacity="1" stroke-width=".088" d="M 16.228269,30.859858 C 16.226657,30.861113 18.295503,30.846341 18.295503,30.846341 L 18.295541,30.846341" font-size="12"/><path id="path875" fill="#d7d7d7" fill-rule="evenodd" stroke="#b8b8b8" stroke-linecap="square" stroke-width=".088" d="M 28.297033,24.485097 C 28.298302,24.488049 28.257943,20.768145 28.257943,20.768145 L 28.257938,20.768055" font-size="12"/><path id="path876" fill="#d7d7d7" fill-rule="evenodd" stroke="#b8b8b8" stroke-dasharray="none" stroke-linecap="square" stroke-opacity="1" stroke-width=".088" d="M 28.329153,20.770664 C 28.327752,20.771919 30.126362,20.757147 30.126362,20.757147 L 30.126395,20.757147" font-size="12"/><path id="path877" fill="#d7d7d7" fill-rule="evenodd" stroke="#b8b8b8" stroke-linecap="square" stroke-width=".087" d="M 26.303946,24.529512 C 26.302391,24.530767 28.297743,24.515995 28.297743,24.515995 L 28.29778,24.515995" font-size="12"/><rect id="rect644" width="6.417" height="4.662" x="20.471" y="22.868" fill="url(#radialGradient6194)" fill-opacity=".291" fill-rule="evenodd" stroke="none" stroke-dasharray="none" stroke-dashoffset="5" stroke-opacity="1" stroke-width="0" font-size="12"/><path id="path878" fill="#d7d7d7" fill-rule="evenodd" stroke="#b8b8b8" stroke-dasharray="none" stroke-linecap="square" stroke-width=".088" d="M 28.7525,27.034326 C 28.751481,27.035557 30.043572,27.038156 30.043572,27.038156 L 30.0436,27.038156" font-size="12"/><path id="path879" fill="#d7d7d7" fill-rule="evenodd" stroke="#b8b8b8" stroke-linecap="square" stroke-width=".088" d="M 28.297343,27.408986 C 28.298617,27.410908 28.287703,24.999762 28.287703,24.999762 L 28.287699,24.99971" font-size="12"/><path id="path880" fill="#d7d7d7" fill-rule="evenodd" stroke="#b8b8b8" stroke-linecap="square" stroke-width=".088" d="M 28.329745,37.015838 C 28.331005,37.018329 28.318023,33.880261 28.318023,33.880261 L 28.318018,33.880186" font-size="12"/><path id="path881" fill="#d7d7d7" fill-rule="evenodd" stroke="#b8b8b8" stroke-dasharray="none" stroke-linecap="square" stroke-width=".088" d="M 28.354697,33.884482 C 28.353315,33.886667 30.089749,33.878151 30.089749,33.878151 L 30.089777,33.878151" font-size="12"/><path id="path882" fill="#d7d7d7" fill-rule="evenodd" stroke="#b8b8b8" stroke-linecap="square" stroke-width=".087" d="M 26.288088,37.039343 C 26.286533,37.040598 28.281885,37.025825 28.281885,37.025825 L 28.281922,37.025825" font-size="12"/><path id="path884" fill="#d7d7d7" fill-rule="evenodd" stroke="#b8b8b8" stroke-dasharray="none" stroke-linecap="square" stroke-width=".088" d="M 28.7977,40.139181 C 28.796671,40.140412 30.096113,40.143011 30.096113,40.143011 L 30.096141,40.143011" font-size="12"/><path id="path885" fill="#d7d7d7" fill-rule="evenodd" stroke="#b8b8b8" stroke-dasharray="none" stroke-linecap="square" stroke-width=".088" d="M 28.364572,40.521187 C 28.365846,40.523598 28.354932,37.499224 28.354932,37.499224 L 28.354928,37.499158" font-size="12"/><rect id="rect886" width="6.417" height="4.662" x="20.412" y="35.47" fill="url(#radialGradient6196)" fill-opacity=".291" fill-rule="evenodd" stroke="none" stroke-dasharray="none" stroke-dashoffset="5" stroke-opacity="1" stroke-width="0" font-size="12"/><rect id="rect887" width="6.417" height="4.662" x="10.307" y="29.213" fill="url(#radialGradient6198)" fill-opacity=".291" fill-rule="evenodd" stroke="none" stroke-dasharray="none" stroke-dashoffset="5" stroke-opacity="1" stroke-width="0" font-size="12"/><rect id="rect888" width="6.417" height="4.662" x="30.458" y="19.019" fill="url(#radialGradient6200)" fill-opacity=".291" fill-rule="evenodd" stroke="none" stroke-dasharray="none" stroke-dashoffset="5" stroke-opacity="1" stroke-width="0" font-size="12"/><rect id="rect889" width="6.417" height="4.662" x="30.399" y="25.364" fill="url(#radialGradient6202)" fill-opacity=".291" fill-rule="evenodd" stroke="none" stroke-dasharray="none" stroke-dashoffset="5" stroke-opacity="1" stroke-width="0" font-size="12"/><rect id="rect890" width="6.417" height="4.662" x="30.429" y="32.15" fill="url(#radialGradient6204)" fill-opacity=".291" fill-rule="evenodd" stroke="none" stroke-dasharray="none" stroke-dashoffset="5" stroke-opacity="1" stroke-width="0" font-size="12"/><rect id="rect892" width="6.417" height="4.662" x="30.458" y="38.495" fill="url(#radialGradient631)" fill-opacity=".291" fill-rule="evenodd" stroke="none" stroke-dasharray="none" stroke-dashoffset="5" stroke-opacity="1" stroke-width="0" font-size="12"/><g id="g711" font-size="12" transform="matrix(4.7e-2,0,0,4.7e-2,16.7803,29.86727)"><rect id="rect712" width="118.977" height="81.273" x="290.74" y="182.763" fill="#ead4bc" fill-opacity="1" fill-rule="evenodd" stroke="#b39166" stroke-dasharray="none" stroke-dashoffset="5" stroke-width="12.5" font-size="12"/><path id="path713" fill="#d4b993" fill-opacity="1" fill-rule="evenodd" stroke="none" stroke-dasharray="none" stroke-linecap="square" stroke-linejoin="miter" stroke-opacity="1" stroke-width="0" d="M 284.4987,176.5118 L 415.9331,176.5096 L 403.4166,189.0328 L 296.9416,188.9893 L 284.4987,176.5118 z"/><path id="path714" fill="#b39a7d" fill-opacity="1" fill-rule="evenodd" stroke="none" stroke-dasharray="none" stroke-linecap="square" stroke-linejoin="miter" stroke-opacity="1" stroke-width="0" d="M 284.5556,176.58 L 296.9299,188.9543 L 296.8747,257.6765 L 284.5555,270.106 L 284.5556,176.58 z"/><path id="path715" fill="#887058" fill-opacity="1" fill-rule="evenodd" stroke="none" stroke-dasharray="none" stroke-linecap="square" stroke-linejoin="miter" stroke-opacity="1" stroke-width="0" d="M 415.9927,176.7363 L 403.6184,189.1105 L 403.6736,257.8327 L 415.9928,270.2622 L 415.9927,176.7363 z"/><path id="path716" fill="#695144" fill-opacity="1" fill-rule="evenodd" stroke="none" stroke-dasharray="none" stroke-linecap="square" stroke-linejoin="miter" stroke-opacity="1" stroke-width="0" d="M 416.0892,270.2808 L 284.6549,270.283 L 297.1714,257.7598 L 403.6463,257.8033 L 416.0892,270.2808 z"/></g><g id="g705" font-size="12" transform="matrix(4.7e-2,0,0,4.7e-2,16.75092,23.58099)"><rect id="rect706" width="118.977" height="81.273" x="290.74" y="182.763" fill="#ead4bc" fill-opacity="1" fill-rule="evenodd" stroke="#b39166" stroke-dasharray="none" stroke-dashoffset="5" stroke-width="12.5" font-size="12"/><path id="path707" fill="#d4b993" fill-opacity="1" fill-rule="evenodd" stroke="none" stroke-dasharray="none" stroke-linecap="square" stroke-linejoin="miter" stroke-opacity="1" stroke-width="0" d="M 284.4987,176.5118 L 415.9331,176.5096 L 403.4166,189.0328 L 296.9416,188.9893 L 284.4987,176.5118 z"/><path id="path708" fill="#b39a7d" fill-opacity="1" fill-rule="evenodd" stroke="none" stroke-dasharray="none" stroke-linecap="square" stroke-linejoin="miter" stroke-opacity="1" stroke-width="0" d="M 284.5556,176.58 L 296.9299,188.9543 L 296.8747,257.6765 L 284.5555,270.106 L 284.5556,176.58 z"/><path id="path709" fill="#887058" fill-opacity="1" fill-rule="evenodd" stroke="none" stroke-dasharray="none" stroke-linecap="square" stroke-linejoin="miter" stroke-opacity="1" stroke-width="0" d="M 415.9927,176.7363 L 403.6184,189.1105 L 403.6736,257.8327 L 415.9928,270.2622 L 415.9927,176.7363 z"/><path id="path710" fill="#695144" fill-opacity="1" fill-rule="evenodd" stroke="none" stroke-dasharray="none" stroke-linecap="square" stroke-linejoin="miter" stroke-opacity="1" stroke-width="0" d="M 416.0892,270.2808 L 284.6549,270.283 L 297.1714,257.7598 L 403.6463,257.8033 L 416.0892,270.2808 z"/></g><g id="g699" font-size="12" transform="matrix(4.7e-2,0,0,4.7e-2,16.70686,16.73659)"><rect id="rect700" width="118.977" height="81.273" x="290.74" y="182.763" fill="#ead4bc" fill-opacity="1" fill-rule="evenodd" stroke="#b39166" stroke-dasharray="none" stroke-dashoffset="5" stroke-width="12.5" font-size="12"/><path id="path701" fill="#d4b993" fill-opacity="1" fill-rule="evenodd" stroke="none" stroke-dasharray="none" stroke-linecap="square" stroke-linejoin="miter" stroke-opacity="1" stroke-width="0" d="M 284.4987,176.5118 L 415.9331,176.5096 L 403.4166,189.0328 L 296.9416,188.9893 L 284.4987,176.5118 z"/><path id="path702" fill="#b39a7d" fill-opacity="1" fill-rule="evenodd" stroke="none" stroke-dasharray="none" stroke-linecap="square" stroke-linejoin="miter" stroke-opacity="1" stroke-width="0" d="M 284.5556,176.58 L 296.9299,188.9543 L 296.8747,257.6765 L 284.5555,270.106 L 284.5556,176.58 z"/><path id="path703" fill="#887058" fill-opacity="1" fill-rule="evenodd" stroke="none" stroke-dasharray="none" stroke-linecap="square" stroke-linejoin="miter" stroke-opacity="1" stroke-width="0" d="M 415.9927,176.7363 L 403.6184,189.1105 L 403.6736,257.8327 L 415.9928,270.2622 L 415.9927,176.7363 z"/><path id="path704" fill="#695144" fill-opacity="1" fill-rule="evenodd" stroke="none" stroke-dasharray="none" stroke-linecap="square" stroke-linejoin="miter" stroke-opacity="1" stroke-width="0" d="M 416.0892,270.2808 L 284.6549,270.283 L 297.1714,257.7598 L 403.6463,257.8033 L 416.0892,270.2808 z"/></g><g id="g693" font-size="12" transform="matrix(4.7e-2,0,0,4.7e-2,16.80233,10.39155)"><rect id="rect694" width="118.977" height="81.273" x="290.74" y="182.763" fill="#ead4bc" fill-opacity="1" fill-rule="evenodd" stroke="#b39166" stroke-dasharray="none" stroke-dashoffset="5" stroke-width="12.5" font-size="12"/><path id="path695" fill="#d4b993" fill-opacity="1" fill-rule="evenodd" stroke="none" stroke-dasharray="none" stroke-linecap="square" stroke-linejoin="miter" stroke-opacity="1" stroke-width="0" d="M 284.4987,176.5118 L 415.9331,176.5096 L 403.4166,189.0328 L 296.9416,188.9893 L 284.4987,176.5118 z"/><path id="path696" fill="#b39a7d" fill-opacity="1" fill-rule="evenodd" stroke="none" stroke-dasharray="none" stroke-linecap="square" stroke-linejoin="miter" stroke-opacity="1" stroke-width="0" d="M 284.5556,176.58 L 296.9299,188.9543 L 296.8747,257.6765 L 284.5555,270.106 L 284.5556,176.58 z"/><path id="path697" fill="#887058" fill-opacity="1" fill-rule="evenodd" stroke="none" stroke-dasharray="none" stroke-linecap="square" stroke-linejoin="miter" stroke-opacity="1" stroke-width="0" d="M 415.9927,176.7363 L 403.6184,189.1105 L 403.6736,257.8327 L 415.9928,270.2622 L 415.9927,176.7363 z"/><path id="path698" fill="#695144" fill-opacity="1" fill-rule="evenodd" stroke="none" stroke-dasharray="none" stroke-linecap="square" stroke-linejoin="miter" stroke-opacity="1" stroke-width="0" d="M 416.0892,270.2808 L 284.6549,270.283 L 297.1714,257.7598 L 403.6463,257.8033 L 416.0892,270.2808 z"/></g><g id="g675" font-size="12" transform="matrix(4.7e-2,0,0,4.7e-2,6.704628,14.21032)"><rect id="rect607" width="118.977" height="81.273" x="290.74" y="182.763" fill="#ead4bc" fill-opacity="1" fill-rule="evenodd" stroke="#b39166" stroke-dasharray="none" stroke-dashoffset="5" stroke-width="12.5" font-size="12"/><path id="path660" fill="#d4b993" fill-opacity="1" fill-rule="evenodd" stroke="none" stroke-dasharray="none" stroke-linecap="square" stroke-linejoin="miter" stroke-opacity="1" stroke-width="0" d="M 284.4987,176.5118 L 415.9331,176.5096 L 403.4166,189.0328 L 296.9416,188.9893 L 284.4987,176.5118 z"/><path id="path661" fill="#b39a7d" fill-opacity="1" fill-rule="evenodd" stroke="none" stroke-dasharray="none" stroke-linecap="square" stroke-linejoin="miter" stroke-opacity="1" stroke-width="0" d="M 284.5556,176.58 L 296.9299,188.9543 L 296.8747,257.6765 L 284.5555,270.106 L 284.5556,176.58 z"/><path id="path662" fill="#887058" fill-opacity="1" fill-rule="evenodd" stroke="none" stroke-dasharray="none" stroke-linecap="square" stroke-linejoin="miter" stroke-opacity="1" stroke-width="0" d="M 415.9927,176.7363 L 403.6184,189.1105 L 403.6736,257.8327 L 415.9928,270.2622 L 415.9927,176.7363 z"/><path id="path663" fill="#695144" fill-opacity="1" fill-rule="evenodd" stroke="none" stroke-dasharray="none" stroke-linecap="square" stroke-linejoin="miter" stroke-opacity="1" stroke-width="0" d="M 416.0892,270.2808 L 284.6549,270.283 L 297.1714,257.7598 L 403.6463,257.8033 L 416.0892,270.2808 z"/></g><g id="g687" font-size="12" transform="matrix(4.7e-2,0,0,4.7e-2,6.689048,26.78288)"><rect id="rect688" width="118.977" height="81.273" x="290.74" y="182.763" fill="#ead4bc" fill-opacity="1" fill-rule="evenodd" stroke="#b39166" stroke-dasharray="none" stroke-dashoffset="5" stroke-width="12.5" font-size="12"/><path id="path689" fill="#d4b993" fill-opacity="1" fill-rule="evenodd" stroke="none" stroke-dasharray="none" stroke-linecap="square" stroke-linejoin="miter" stroke-opacity="1" stroke-width="0" d="M 284.4987,176.5118 L 415.9331,176.5096 L 403.4166,189.0328 L 296.9416,188.9893 L 284.4987,176.5118 z"/><path id="path690" fill="#b39a7d" fill-opacity="1" fill-rule="evenodd" stroke="none" stroke-dasharray="none" stroke-linecap="square" stroke-linejoin="miter" stroke-opacity="1" stroke-width="0" d="M 284.5556,176.58 L 296.9299,188.9543 L 296.8747,257.6765 L 284.5555,270.106 L 284.5556,176.58 z"/><path id="path691" fill="#887058" fill-opacity="1" fill-rule="evenodd" stroke="none" stroke-dasharray="none" stroke-linecap="square" stroke-linejoin="miter" stroke-opacity="1" stroke-width="0" d="M 415.9927,176.7363 L 403.6184,189.1105 L 403.6736,257.8327 L 415.9928,270.2622 L 415.9927,176.7363 z"/><path id="path692" fill="#695144" fill-opacity="1" fill-rule="evenodd" stroke="none" stroke-dasharray="none" stroke-linecap="square" stroke-linejoin="miter" stroke-opacity="1" stroke-width="0" d="M 416.0892,270.2808 L 284.6549,270.283 L 297.1714,257.7598 L 403.6463,257.8033 L 416.0892,270.2808 z"/></g><g id="g681" font-size="12" transform="matrix(4.7e-2,0,0,4.7e-2,-3.371042,20.52598)"><rect id="rect682" width="118.977" height="81.273" x="290.74" y="182.763" fill="#ead4bc" fill-opacity="1" fill-rule="evenodd" stroke="#b39166" stroke-dasharray="none" stroke-dashoffset="5" stroke-width="12.5" font-size="12"/><path id="path683" fill="#d4b993" fill-opacity="1" fill-rule="evenodd" stroke="none" stroke-dasharray="none" stroke-linecap="square" stroke-linejoin="miter" stroke-opacity="1" stroke-width="0" d="M 284.4987,176.5118 L 415.9331,176.5096 L 403.4166,189.0328 L 296.9416,188.9893 L 284.4987,176.5118 z"/><path id="path684" fill="#b39a7d" fill-opacity="1" fill-rule="evenodd" stroke="none" stroke-dasharray="none" stroke-linecap="square" stroke-linejoin="miter" stroke-opacity="1" stroke-width="0" d="M 284.5556,176.58 L 296.9299,188.9543 L 296.8747,257.6765 L 284.5555,270.106 L 284.5556,176.58 z"/><path id="path685" fill="#887058" fill-opacity="1" fill-rule="evenodd" stroke="none" stroke-dasharray="none" stroke-linecap="square" stroke-linejoin="miter" stroke-opacity="1" stroke-width="0" d="M 415.9927,176.7363 L 403.6184,189.1105 L 403.6736,257.8327 L 415.9928,270.2622 L 415.9927,176.7363 z"/><path id="path686" fill="#695144" fill-opacity="1" fill-rule="evenodd" stroke="none" stroke-dasharray="none" stroke-linecap="square" stroke-linejoin="miter" stroke-opacity="1" stroke-width="0" d="M 416.0892,270.2808 L 284.6549,270.283 L 297.1714,257.7598 L 403.6463,257.8033 L 416.0892,270.2808 z"/></g><text id="text6631" x="12.829" y="15.997" fill="#000" fill-opacity="1" stroke="none" stroke-linecap="butt" stroke-linejoin="miter" stroke-opacity="1" stroke-width="1" font-family="Bitstream Vera Sans" font-size="12" font-style="normal" font-weight="normal" xml:space="preserve"><tspan id="tspan6633" x="12.829" y="15.997">GW</tspan></text></g></svg>