<svg xmlns="http://www.w3.org/2000/svg" xmlns:cc="http://web.resource.org/cc/" xmlns:svg="http://www.w3.org/2000/svg" xmlns:xlink="http://www.w3.org/1999/xlink" id="svg2556" width="48" height="48" version="1.0"><defs id="defs2558"><radialGradient id="radialGradient4364" cx="38.659" cy="9.341" r="8.342" fx="38.659" fy="9.341" gradientUnits="userSpaceOnUse" xlink:href="#linearGradient2378"/><linearGradient id="linearGradient2250"><stop id="stop2252" offset="0" stop-color="#fff" stop-opacity="1"/><stop id="stop2254" offset="1" stop-color="#fff" stop-opacity="0"/></linearGradient><linearGradient id="linearGradient14344" x1="21.29" x2="72.147" y1=".957" y2="3.839" gradientTransform="translate(-20.547862,13.863133)" gradientUnits="userSpaceOnUse" xlink:href="#linearGradient2250"/><linearGradient id="linearGradient14342" x1="48.08" x2="48.017" y1="-1.134" y2="1.594" gradientTransform="translate(-20.547851,13.863148)" gradientUnits="userSpaceOnUse" xlink:href="#linearGradient2230"/><linearGradient id="linearGradient2243"><stop id="stop2245" offset="0" stop-color="#2a5387" stop-opacity="1"/><stop id="stop2247" offset="1" stop-color="#3465a4" stop-opacity="1"/></linearGradient><linearGradient id="linearGradient3682"><stop id="stop3684" offset="0" stop-color="#497fc6" stop-opacity="1"/><stop id="stop3686" offset="1" stop-color="#90b3d9" stop-opacity="1"/></linearGradient><linearGradient id="linearGradient2834"><stop id="stop2836" offset="0" stop-color="#fff" stop-opacity="1"/><stop id="stop2838" offset="1" stop-color="#b3b3b3" stop-opacity="0"/></linearGradient><linearGradient id="linearGradient1624" x1="19.892" x2="21.507" y1="16.115" y2="85.697" gradientTransform="matrix(0.5952182,0,0,0.5952182,-25.400325,3.726061)" gradientUnits="userSpaceOnUse" xlink:href="#linearGradient2834"/><linearGradient id="linearGradient2233"><stop id="stop2235" offset="0" stop-color="#fff" stop-opacity="1"/><stop id="stop2237" offset="1" stop-color="#fff" stop-opacity="0"/></linearGradient><linearGradient id="linearGradient1621" x1="24.912" x2="24.912" y1="22.136" y2="-11.931" gradientTransform="matrix(0.5952182,0,0,0.5952182,-25.995544,3.7260611)" gradientUnits="userSpaceOnUse" xlink:href="#linearGradient2233"/><linearGradient id="linearGradient2230"><stop id="stop2232" offset="0" stop-color="#d3d7cf" stop-opacity="1"/><stop id="stop2234" offset="1" stop-color="#818d75" stop-opacity="1"/></linearGradient><radialGradient id="radialGradient4590" cx="18.241" cy="21.818" r="8.309" fx="18.241" fy="21.818" gradientUnits="userSpaceOnUse" xlink:href="#linearGradient4454"/><linearGradient id="linearGradient4586" x1="18.293" x2="17.501" y1="13.602" y2="25.743" gradientUnits="userSpaceOnUse" xlink:href="#linearGradient2366"/><linearGradient id="linearGradient4467"><stop id="stop4469" offset="0" stop-color="#fff" stop-opacity="1"/><stop id="stop4471" offset="1" stop-color="#fff" stop-opacity=".248"/></linearGradient><linearGradient id="linearGradient4454"><stop id="stop4456" offset="0" stop-color="#729fcf" stop-opacity=".208"/><stop id="stop4458" offset="1" stop-color="#729fcf" stop-opacity=".676"/></linearGradient><linearGradient id="linearGradient4487"><stop id="stop4489" offset="0" stop-color="#fff" stop-opacity="1"/><stop id="stop4491" offset="1" stop-color="#fff" stop-opacity="0"/></linearGradient><radialGradient id="radialGradient4588" cx="24.13" cy="37.968" r="16.529" fx="24.13" fy="37.968" gradientTransform="matrix(1,0,0,0.237968,0,28.93278)" gradientUnits="userSpaceOnUse" xlink:href="#linearGradient4487"/><linearGradient id="linearGradient2366"><stop id="stop2368" offset="0" stop-color="#fff" stop-opacity="1"/><stop id="stop2374" offset=".5" stop-color="#fff" stop-opacity=".219"/><stop id="stop2370" offset="1" stop-color="#fff" stop-opacity="1"/></linearGradient><linearGradient id="linearGradient4440"><stop id="stop4442" offset="0" stop-color="#7d7d7d" stop-opacity="1"/><stop id="stop4448" offset=".5" stop-color="#b1b1b1" stop-opacity="1"/><stop id="stop4444" offset="1" stop-color="#686868" stop-opacity="1"/></linearGradient><linearGradient id="linearGradient2846"><stop id="stop2848" offset="0" stop-color="#8a8a8a" stop-opacity="1"/><stop id="stop2850" offset="1" stop-color="#484848" stop-opacity="1"/></linearGradient><linearGradient id="linearGradient269"><stop id="stop270" offset="0" stop-color="#a3a3a3" stop-opacity="1"/><stop id="stop271" offset="1" stop-color="#8a8a8a" stop-opacity="1"/></linearGradient><linearGradient id="linearGradient259"><stop id="stop260" offset="0" stop-color="#fafafa" stop-opacity="1"/><stop id="stop261" offset="1" stop-color="#bbb" stop-opacity="1"/></linearGradient><linearGradient id="linearGradient2378"><stop id="stop2380" offset="0" stop-color="#fff" stop-opacity="1"/><stop id="stop4146" offset=".25" stop-color="#fefede" stop-opacity=".918"/><stop id="stop2386" offset=".5" stop-color="#f5f328" stop-opacity="1"/><stop id="stop2382" offset="1" stop-color="#f5f32d" stop-opacity=".122"/></linearGradient><linearGradient id="linearGradient4785"><stop id="stop4787" offset="0" stop-color="#2e3436" stop-opacity="1"/><stop id="stop4789" offset="1" stop-color="#2e3436" stop-opacity="0"/></linearGradient><radialGradient id="radialGradient4791" cx="22.403" cy="43.072" r="22.318" fx="22.403" fy="43.072" gradientTransform="matrix(1.026073,-4.434013e-3,9.770098e-4,7.524542e-2,-0.626191,41.79022)" gradientUnits="userSpaceOnUse" xlink:href="#linearGradient4785"/><linearGradient id="linearGradient4755"><stop id="stop4757" offset="0" stop-color="#eeeeec" stop-opacity="1"/><stop id="stop4759" offset="1" stop-color="#fff" stop-opacity="1"/></linearGradient><linearGradient id="linearGradient4761" x1="36.669" x2="10.304" y1="36.383" y2="7.493" gradientTransform="translate(0.2495557,1.9167039e-2)" gradientUnits="userSpaceOnUse" xlink:href="#linearGradient4755"/><linearGradient id="linearGradient4647" x1="30.656" x2="33.219" y1="34" y2="31.063" gradientTransform="matrix(0.7730392,-0.1877302,0.179191,0.7581772,42.71329,-12.352936)" gradientUnits="userSpaceOnUse" xlink:href="#linearGradient4440"/><linearGradient id="linearGradient4651" x1="27.366" x2="31.336" y1="26.58" y2="30.558" gradientTransform="matrix(0.805118,-0.192885,0.192885,0.805118,51.417196,-17.381556)" gradientUnits="userSpaceOnUse" xlink:href="#linearGradient2846"/><radialGradient id="radialGradient5645" cx="24.13" cy="37.968" r="16.529" fx="24.13" fy="37.968" gradientTransform="matrix(1,0,0,0.237968,0,28.93278)" gradientUnits="userSpaceOnUse" xlink:href="#linearGradient4487"/><radialGradient id="radialGradient5648" cx="15.414" cy="13.078" r="6.656" fx="15.414" fy="13.078" gradientTransform="matrix(1.4574099,-0.349157,0.3032584,1.2658255,58.779285,-19.812754)" gradientUnits="userSpaceOnUse" xlink:href="#linearGradient4467"/><linearGradient id="linearGradient5655" x1="30.656" x2="33.219" y1="34" y2="31.063" gradientTransform="matrix(0.750126,-0.1797104,0.1738797,0.7257881,70.490607,-15.795443)" gradientUnits="userSpaceOnUse" xlink:href="#linearGradient4440"/><linearGradient id="linearGradient5659" x1="27.366" x2="31.336" y1="26.58" y2="30.558" gradientTransform="matrix(0.5620635,-0.1346556,0.1346556,0.5620635,75.414967,-12.541146)" gradientUnits="userSpaceOnUse" xlink:href="#linearGradient2846"/><radialGradient id="radialGradient6645" cx="24.13" cy="37.968" r="16.529" fx="24.13" fy="37.968" gradientTransform="matrix(1,0,0,0.237968,0,28.93278)" gradientUnits="userSpaceOnUse" xlink:href="#linearGradient4487"/><linearGradient id="linearGradient6647" x1="30.656" x2="33.219" y1="34" y2="31.063" gradientTransform="matrix(0.7730392,-0.1877302,0.179191,0.7581772,42.71329,-12.352936)" gradientUnits="userSpaceOnUse" xlink:href="#linearGradient4440"/><linearGradient id="linearGradient6651" x1="30.656" x2="33.219" y1="34" y2="31.063" gradientTransform="matrix(1.4776547,-0.3392034,0.3425214,1.369925,-103.68065,-20.257635)" gradientUnits="userSpaceOnUse" xlink:href="#linearGradient4440"/><radialGradient id="radialGradient2459" cx="22.403" cy="43.072" r="22.318" fx="22.403" fy="43.072" gradientTransform="matrix(1.026073,-4.434013e-3,9.770098e-4,7.524542e-2,-0.626191,41.79022)" gradientUnits="userSpaceOnUse" xlink:href="#linearGradient4785"/><linearGradient id="linearGradient2461" x1="36.669" x2="10.304" y1="36.383" y2="7.493" gradientTransform="translate(59.66473,1.2267061)" gradientUnits="userSpaceOnUse" xlink:href="#linearGradient4755"/><radialGradient id="radialGradient2663" cx="22.403" cy="43.072" r="22.318" fx="22.403" fy="43.072" gradientTransform="matrix(1.026073,-4.434013e-3,9.770098e-4,7.524542e-2,-0.626191,41.79022)" gradientUnits="userSpaceOnUse" xlink:href="#linearGradient4785"/><linearGradient id="linearGradient2665" x1="36.669" x2="10.304" y1="36.383" y2="7.493" gradientTransform="translate(0.2495557,1.9167039e-2)" gradientUnits="userSpaceOnUse" xlink:href="#linearGradient4755"/></defs><metadata id="metadata2561"/><g id="layer1"><g id="g2654" transform="matrix(1.0915032,0,0,0.979676,-2.2703365,4.0565928e-2)"><path id="path4775" fill="url(#radialGradient2663)" fill-opacity="1" stroke="none" stroke-dasharray="none" stroke-dashoffset="0" stroke-linecap="butt" stroke-linejoin="miter" stroke-miterlimit="4" stroke-opacity="1" stroke-width="1.025" d="M 46.138718 45.083183 A 22.318058 1.6793786 0 1 1 1.5026016,45.083183 A 22.318058 1.6793786 0 1 1 46.138718 45.083183 z" opacity=".5" transform="matrix(0.940942,0,0,1.786371,1.8356947,-35.516123)"/><rect id="rect1314" width="41.011" height="42.987" x="3.738" y="2.531" fill="url(#linearGradient2665)" fill-opacity="1" stroke="#888a85" stroke-dasharray="none" stroke-dashoffset="0" stroke-linecap="round" stroke-linejoin="round" stroke-miterlimit="4" stroke-opacity="1" stroke-width="1.025" opacity="1" rx=".915" ry="1.02"/><rect id="rect4753" width="39.014" height="41.034" x="4.737" y="3.532" fill="none" fill-opacity="1" stroke="#fff" stroke-dasharray="none" stroke-dashoffset="0" stroke-linecap="butt" stroke-linejoin="miter" stroke-miterlimit="4" stroke-opacity="1" stroke-width="1.025" opacity="1" rx="0" ry="0"/><path font-family="Arial Rounded CE" style="text-align:start;line-height:120.00000477%" id="path3880" fill="#000" fill-opacity="1" stroke="none" stroke-linecap="butt" stroke-linejoin="miter" stroke-opacity="1" stroke-width="1pt" d="M 9.8153163,8.914823 L 9.8153163,14.823216 C 10.542646,14.06756 11.284146,13.491362 12.039816,13.094622 C 12.795476,12.688464 13.730616,12.485378 14.845246,12.485363 C 16.129866,12.485378 17.253926,12.792369 18.217416,13.406335 C 19.190326,14.010885 19.941276,14.894073 20.470256,16.055902 C 21.008656,17.208309 21.277866,18.577959 21.277876,20.164856 C 21.277866,21.33615 21.126726,22.412979 20.824476,23.395344 C 20.531636,24.368272 20.101856,25.213677 19.535116,25.93156 C 18.968346,26.649448 18.278806,27.206753 17.466466,27.603479 C 16.663556,27.99076 15.775646,28.1844 14.802736,28.1844 C 14.207636,28.1844 13.645606,28.113556 13.116646,27.971868 C 12.597116,27.83018 12.153156,27.645986 11.784776,27.419285 C 11.416386,27.183139 11.099946,26.942269 10.835466,26.696676 C 10.580426,26.451084 10.240376,26.082696 9.8153163,25.591509 L 9.8153163,25.974067 C 9.8153063,26.7014 9.6405663,27.253983 9.2910663,27.631817 C 8.9415663,28.000206 8.4976163,28.1844 7.9592063,28.1844 C 7.4113363,28.1844 6.9721063,28.000206 6.6415063,27.631817 C 6.3203463,27.253983 6.1597663,26.7014 6.1597663,25.974067 L 6.1597663,9.084848 C 6.1597663,8.300861 6.3156163,7.710494 6.6273363,7.313748 C 6.9484963,6.907596 7.3924463,6.70451 7.9592063,6.704489 C 8.5542863,6.70451 9.0124163,6.89815 9.3335763,7.28541 C 9.6547263,7.663265 9.8153063,8.206402 9.8153163,8.914823 M 9.9995063,20.405726 C 9.9995063,21.945408 10.349006,23.130864 11.048006,23.962096 C 11.756436,24.78389 12.682126,25.194785 13.825086,25.194782 C 14.798006,25.194785 15.633956,24.774444 16.332966,23.933758 C 17.041396,23.083635 17.395616,21.869842 17.395626,20.292375 C 17.395616,19.27223 17.249206,18.393765 16.956396,17.656977 C 16.663556,16.92021 16.247946,16.353459 15.709536,15.95672 C 15.171116,15.55056 14.542966,15.347474 13.825086,15.347462 C 13.088296,15.347474 12.431816,15.55056 11.855626,15.95672 C 11.279416,16.353459 10.826016,16.934379 10.495416,17.699484 C 10.164806,18.455163 9.9995063,19.357242 9.9995063,20.405726" font-size="29.018" font-stretch="normal" font-style="normal" font-variant="normal" font-weight="bold" text-anchor="start" writing-mode="lr-tb"/><path font-family="Nimbus Roman No9 L" style="text-align:start;line-height:125%" id="path4851" fill="#000" fill-opacity="1" stroke="#000" stroke-linecap="butt" stroke-linejoin="miter" stroke-opacity="1" stroke-width="1" d="M 42.682121,27.320072 C 40.636653,27.140645 40.421339,27.142333 39.954828,24.5227 L 36.581596,4.2115445 L 35.93735,4.2115445 L 25.2418,22.154261 C 22.406854,26.927018 21.735157,27.032989 20.299741,27.320072 L 20.299741,28.183013 L 27.323156,28.183013 L 27.323156,27.320072 C 25.493,27.140645 25.205915,27.249992 25.205915,26.352857 C 25.205915,25.671034 25.313572,25.348063 25.923624,24.127958 L 27.969094,20.506067 L 35.863889,20.506067 L 36.581596,24.773897 C 36.617483,25.096866 36.653368,25.419835 36.653368,25.706918 C 36.653368,27.070564 36.463808,27.10476 34.167143,27.320072 L 34.167143,28.183013 L 42.682121,28.183013 L 42.682121,27.320072 M 28.722688,18.78103 L 34.105502,9.4508185 L 35.684462,18.78103 L 28.722688,18.78103" font-size="46.601" font-stretch="normal" font-style="italic" font-variant="normal" font-weight="normal" text-anchor="start" writing-mode="lr-tb"/><path font-family="Carbon Block" style="text-align:start;line-height:120.00000477%" id="path4853" fill="#000" fill-opacity="1" stroke="none" stroke-linecap="butt" stroke-linejoin="miter" stroke-opacity="1" stroke-width="1pt" d="M 22.562494,34.103337 C 22.562484,34.298565 22.549474,34.584886 22.523444,34.9623 C 22.510424,35.326716 22.503924,35.593515 22.503924,35.762697 L 19.770864,35.762697 L 19.770864,33.361506 C 19.770864,32.892992 19.510574,32.65873 18.989994,32.658719 C 18.469404,32.65873 18.209114,32.892992 18.209114,33.361506 L 18.209114,41.072644 C 18.209114,41.554185 18.469404,41.794955 18.989994,41.794953 C 19.510574,41.794955 19.770864,41.554185 19.770864,41.072644 L 19.770864,38.51528 L 22.503924,38.51528 L 22.503924,41.014079 C 22.503924,41.78194 22.087454,42.367595 21.254524,42.771047 C 20.590774,43.096411 19.835934,43.259093 18.989994,43.259093 C 18.131024,43.259093 17.376184,43.096411 16.725454,42.771047 C 15.892524,42.367595 15.476054,41.78194 15.476054,41.014079 L 15.476054,33.498159 C 15.476054,32.053552 16.647364,31.331244 18.989994,31.331232 C 20.161294,31.331244 21.020254,31.506941 21.566874,31.858323 C 22.230614,32.287814 22.562484,33.036152 22.562494,34.103337" font-size="19.522" font-stretch="normal" font-style="normal" font-variant="normal" font-weight="normal" text-anchor="start" writing-mode="lr-tb"/><path font-family="Times New Roman" style="text-align:start;line-height:120.00000477%" id="text3423" fill="#000" fill-opacity="1" stroke="none" stroke-linecap="butt" stroke-linejoin="miter" stroke-opacity="1" stroke-width="1pt" d="M 37.983774,32.371456 L 35.698618,40.316768 L 35.440806,41.383174 C 35.417359,41.484738 35.405641,41.570676 35.405649,41.640987 C 35.405641,41.765988 35.444703,41.875363 35.522837,41.969112 C 35.585328,42.039425 35.663453,42.074581 35.757212,42.074581 C 35.858765,42.074581 35.991578,42.012081 36.155649,41.887081 C 36.460327,41.660519 36.866577,41.19177 37.374399,40.480831 L 37.772837,40.762081 C 37.233764,41.574582 36.679077,42.195675 36.108774,42.625362 C 35.538453,43.047237 35.01111,43.258174 34.526743,43.258174 C 34.190798,43.258174 33.936892,43.172237 33.765024,43.000362 C 33.600955,42.836299 33.518924,42.594112 33.518931,42.273799 C 33.518924,41.890988 33.604861,41.387082 33.776743,40.762081 L 34.022837,39.883174 C 32.999393,41.219114 32.057988,42.152706 31.198618,42.683956 C 30.581427,43.066768 29.975959,43.258174 29.382212,43.258174 C 28.811897,43.258174 28.31971,43.023799 27.905649,42.555049 C 27.491586,42.078488 27.284555,41.426145 27.284555,40.598018 C 27.284555,39.355834 27.655648,38.047242 28.397837,36.672237 C 29.147834,35.289432 30.097052,34.183964 31.245493,33.355831 C 32.143925,32.699591 32.991581,32.371466 33.788462,32.371456 C 34.265017,32.371466 34.659548,32.496466 34.972056,32.746456 C 35.29236,32.996466 35.534547,33.410528 35.698618,33.988643 L 36.120493,32.652706 L 37.983774,32.371456 M 33.811899,32.980831 C 33.311893,32.980841 32.780643,33.215215 32.218149,33.683956 C 31.42127,34.348027 30.710333,35.332401 30.085337,36.637081 C 29.468147,37.941773 29.159553,39.121459 29.159556,40.176143 C 29.159553,40.707395 29.292366,41.12927 29.557993,41.441768 C 29.823615,41.746457 30.128302,41.8988 30.472056,41.898799 C 31.323614,41.8988 32.249394,41.269895 33.249399,40.012081 C 34.585329,38.34021 35.253297,36.625368 35.253306,34.867549 C 35.253297,34.203496 35.124391,33.723027 34.866587,33.426143 C 34.608766,33.129278 34.257204,32.980841 33.811899,32.980831" font-size="24" font-stretch="normal" font-style="italic" font-variant="normal" font-weight="normal" text-anchor="start" writing-mode="lr-tb"/></g></g></svg>