<svg xmlns="http://www.w3.org/2000/svg" xmlns:cc="http://web.resource.org/cc/" xmlns:svg="http://www.w3.org/2000/svg" xmlns:xlink="http://www.w3.org/1999/xlink" id="svg2556" width="48" height="48" version="1.0"><defs id="defs2558"><linearGradient id="linearGradient2250"><stop id="stop2252" offset="0" stop-color="#fff" stop-opacity="1"/><stop id="stop2254" offset="1" stop-color="#fff" stop-opacity="0"/></linearGradient><linearGradient id="linearGradient14344" x1="21.29" x2="72.147" y1=".957" y2="3.839" gradientTransform="translate(-20.547862,13.863133)" gradientUnits="userSpaceOnUse" xlink:href="#linearGradient2250"/><linearGradient id="linearGradient2230"><stop id="stop2232" offset="0" stop-color="#d3d7cf" stop-opacity="1"/><stop id="stop2234" offset="1" stop-color="#818d75" stop-opacity="1"/></linearGradient><linearGradient id="linearGradient14342" x1="48.08" x2="48.017" y1="-1.134" y2="1.594" gradientTransform="translate(-20.547851,13.863148)" gradientUnits="userSpaceOnUse" xlink:href="#linearGradient2230"/><radialGradient id="radialGradient4590" cx="18.241" cy="21.818" r="8.309" fx="18.241" fy="21.818" gradientUnits="userSpaceOnUse" xlink:href="#linearGradient4454"/><linearGradient id="linearGradient4586" x1="18.293" x2="17.501" y1="13.602" y2="25.743" gradientUnits="userSpaceOnUse" xlink:href="#linearGradient2366"/><linearGradient id="linearGradient4467"><stop id="stop4469" offset="0" stop-color="#fff" stop-opacity="1"/><stop id="stop4471" offset="1" stop-color="#fff" stop-opacity=".248"/></linearGradient><linearGradient id="linearGradient4454"><stop id="stop4456" offset="0" stop-color="#729fcf" stop-opacity=".208"/><stop id="stop4458" offset="1" stop-color="#729fcf" stop-opacity=".676"/></linearGradient><linearGradient id="linearGradient4487"><stop id="stop4489" offset="0" stop-color="#fff" stop-opacity="1"/><stop id="stop4491" offset="1" stop-color="#fff" stop-opacity="0"/></linearGradient><radialGradient id="radialGradient4588" cx="24.13" cy="37.968" r="16.529" fx="24.13" fy="37.968" gradientTransform="matrix(1,0,0,0.237968,0,28.93278)" gradientUnits="userSpaceOnUse" xlink:href="#linearGradient4487"/><linearGradient id="linearGradient2366"><stop id="stop2368" offset="0" stop-color="#fff" stop-opacity="1"/><stop id="stop2374" offset=".5" stop-color="#fff" stop-opacity=".219"/><stop id="stop2370" offset="1" stop-color="#fff" stop-opacity="1"/></linearGradient><linearGradient id="linearGradient4440"><stop id="stop4442" offset="0" stop-color="#7d7d7d" stop-opacity="1"/><stop id="stop4448" offset=".5" stop-color="#b1b1b1" stop-opacity="1"/><stop id="stop4444" offset="1" stop-color="#686868" stop-opacity="1"/></linearGradient><linearGradient id="linearGradient2846"><stop id="stop2848" offset="0" stop-color="#8a8a8a" stop-opacity="1"/><stop id="stop2850" offset="1" stop-color="#484848" stop-opacity="1"/></linearGradient><linearGradient id="linearGradient269"><stop id="stop270" offset="0" stop-color="#a3a3a3" stop-opacity="1"/><stop id="stop271" offset="1" stop-color="#8a8a8a" stop-opacity="1"/></linearGradient><linearGradient id="linearGradient259"><stop id="stop260" offset="0" stop-color="#fafafa" stop-opacity="1"/><stop id="stop261" offset="1" stop-color="#bbb" stop-opacity="1"/></linearGradient><linearGradient id="linearGradient2378"><stop id="stop2380" offset="0" stop-color="#fff" stop-opacity="1"/><stop id="stop4146" offset=".25" stop-color="#fefede" stop-opacity=".918"/><stop id="stop2386" offset=".5" stop-color="#f5f328" stop-opacity="1"/><stop id="stop2382" offset="1" stop-color="#f5f32d" stop-opacity=".122"/></linearGradient><linearGradient id="linearGradient4785"><stop id="stop4787" offset="0" stop-color="#2e3436" stop-opacity="1"/><stop id="stop4789" offset="1" stop-color="#2e3436" stop-opacity="0"/></linearGradient><radialGradient id="radialGradient4791" cx="22.403" cy="43.072" r="22.318" fx="22.403" fy="43.072" gradientTransform="matrix(1.026073,-4.434013e-3,9.770098e-4,7.524542e-2,-0.626191,41.79022)" gradientUnits="userSpaceOnUse" xlink:href="#linearGradient4785"/><linearGradient id="linearGradient4755"><stop id="stop4757" offset="0" stop-color="#eeeeec" stop-opacity="1"/><stop id="stop4759" offset="1" stop-color="#fff" stop-opacity="1"/></linearGradient><linearGradient id="linearGradient4761" x1="36.669" x2="10.304" y1="36.383" y2="7.493" gradientTransform="translate(0.2495557,1.9167039e-2)" gradientUnits="userSpaceOnUse" xlink:href="#linearGradient4755"/><radialGradient id="radialGradient4364" cx="38.659" cy="9.341" r="8.342" fx="38.659" fy="9.341" gradientUnits="userSpaceOnUse" xlink:href="#linearGradient2378"/><linearGradient id="linearGradient4647" x1="30.656" x2="33.219" y1="34" y2="31.063" gradientTransform="matrix(0.7730392,-0.1877302,0.179191,0.7581772,42.71329,-12.352936)" gradientUnits="userSpaceOnUse" xlink:href="#linearGradient4440"/><linearGradient id="linearGradient4651" x1="27.366" x2="31.336" y1="26.58" y2="30.558" gradientTransform="matrix(0.805118,-0.192885,0.192885,0.805118,51.417196,-17.381556)" gradientUnits="userSpaceOnUse" xlink:href="#linearGradient2846"/><radialGradient id="radialGradient5645" cx="24.13" cy="37.968" r="16.529" fx="24.13" fy="37.968" gradientTransform="matrix(1,0,0,0.237968,0,28.93278)" gradientUnits="userSpaceOnUse" xlink:href="#linearGradient4487"/><radialGradient id="radialGradient5648" cx="15.414" cy="13.078" r="6.656" fx="15.414" fy="13.078" gradientTransform="matrix(1.4574099,-0.349157,0.3032584,1.2658255,58.779285,-19.812754)" gradientUnits="userSpaceOnUse" xlink:href="#linearGradient4467"/><linearGradient id="linearGradient5655" x1="30.656" x2="33.219" y1="34" y2="31.063" gradientTransform="matrix(0.750126,-0.1797104,0.1738797,0.7257881,70.490607,-15.795443)" gradientUnits="userSpaceOnUse" xlink:href="#linearGradient4440"/><linearGradient id="linearGradient5659" x1="27.366" x2="31.336" y1="26.58" y2="30.558" gradientTransform="matrix(0.5620635,-0.1346556,0.1346556,0.5620635,75.414967,-12.541146)" gradientUnits="userSpaceOnUse" xlink:href="#linearGradient2846"/><radialGradient id="radialGradient6645" cx="24.13" cy="37.968" r="16.529" fx="24.13" fy="37.968" gradientTransform="matrix(1,0,0,0.237968,0,28.93278)" gradientUnits="userSpaceOnUse" xlink:href="#linearGradient4487"/><linearGradient id="linearGradient6647" x1="30.656" x2="33.219" y1="34" y2="31.063" gradientTransform="matrix(0.7730392,-0.1877302,0.179191,0.7581772,42.71329,-12.352936)" gradientUnits="userSpaceOnUse" xlink:href="#linearGradient4440"/><linearGradient id="linearGradient6651" x1="30.656" x2="33.219" y1="34" y2="31.063" gradientTransform="matrix(1.4776547,-0.3392034,0.3425214,1.369925,-103.68065,-20.257635)" gradientUnits="userSpaceOnUse" xlink:href="#linearGradient4440"/></defs><metadata id="metadata2561"/><g id="layer1"><path id="path4775" fill="url(#radialGradient4791)" fill-opacity="1" stroke="none" stroke-dasharray="none" stroke-dashoffset="0" stroke-linecap="butt" stroke-linejoin="miter" stroke-miterlimit="4" stroke-opacity="1" stroke-width="1.025" d="M 46.138718 45.083183 A 22.318058 1.6793786 0 1 1 1.5026016,45.083183 A 22.318058 1.6793786 0 1 1 46.138718 45.083183 z" opacity=".5" transform="matrix(0.940942,0,0,1.786371,1.8356947,-35.516123)"/><rect id="rect1314" width="44.337" height="42.156" x="1.763" y="2.323" fill="url(#linearGradient4761)" fill-opacity="1" stroke="#888a85" stroke-dasharray="none" stroke-dashoffset="0" stroke-linecap="round" stroke-linejoin="round" stroke-miterlimit="4" stroke-opacity="1" stroke-width="1.025" opacity="1" rx=".999" ry=".999"/><rect id="rect4753" width="41.82" height="40.41" x="2.762" y="3.324" fill="none" fill-opacity="1" stroke="#fff" stroke-dasharray="none" stroke-dashoffset="0" stroke-linecap="butt" stroke-linejoin="round" stroke-miterlimit="4" stroke-opacity="1" stroke-width="1.025" opacity="1" rx="0" ry="0"/><path id="text3427" fill="#75507b" fill-opacity="1" stroke="#5c3566" stroke-linecap="butt" stroke-linejoin="miter" stroke-opacity="1" stroke-width="1pt" d="M 9.5944949,8.966246 L 9.5944949,14.874639 C 10.321825,14.118983 11.063325,13.542785 11.818995,13.146045 C 12.574655,12.739887 13.509795,12.536801 14.624425,12.536786 C 15.909045,12.536801 17.033105,12.843792 17.996595,13.457758 C 18.969505,14.062308 19.720455,14.945496 20.249435,16.107325 C 20.787835,17.259732 21.057045,18.629382 21.057055,20.216279 C 21.057045,21.387573 20.905905,22.464402 20.603655,23.446767 C 20.310815,24.419695 19.881035,25.2651 19.314295,25.982983 C 18.747525,26.700871 18.057985,27.258176 17.245645,27.654902 C 16.442735,28.042183 15.554825,28.235823 14.581915,28.235823 C 13.986815,28.235823 13.424785,28.164979 12.895825,28.023291 C 12.376295,27.881603 11.932335,27.697409 11.563955,27.470708 C 11.195565,27.234562 10.879125,26.993692 10.614645,26.748099 C 10.359605,26.502507 10.019555,26.134119 9.5944949,25.642932 L 9.5944949,26.02549 C 9.5944849,26.752823 9.4197449,27.305406 9.0702449,27.68324 C 8.7207449,28.051629 8.2767949,28.235823 7.7383849,28.235823 C 7.1905149,28.235823 6.7512849,28.051629 6.4206849,27.68324 C 6.0995249,27.305406 5.9389449,26.752823 5.9389449,26.02549 L 5.9389449,9.136271 C 5.9389449,8.352284 6.0947949,7.761917 6.4065149,7.365171 C 6.7276749,6.959019 7.1716249,6.755933 7.7383849,6.755912 C 8.3334649,6.755933 8.7915949,6.949573 9.1127549,7.336833 C 9.4339049,7.714688 9.5944849,8.257825 9.5944949,8.966246 M 9.7786849,20.457149 C 9.7786849,21.996831 10.128185,23.182287 10.827185,24.013519 C 11.535615,24.835313 12.461305,25.246208 13.604265,25.246205 C 14.577185,25.246208 15.413135,24.825867 16.112145,23.985181 C 16.820575,23.135058 17.174795,21.921265 17.174805,20.343798 C 17.174795,19.323653 17.028385,18.445188 16.735575,17.7084 C 16.442735,16.971633 16.027125,16.404882 15.488715,16.008143 C 14.950295,15.601983 14.322145,15.398897 13.604265,15.398885 C 12.867475,15.398897 12.210995,15.601983 11.634805,16.008143 C 11.058595,16.404882 10.605195,16.985802 10.274595,17.750907 C 9.9439849,18.506586 9.7786849,19.408665 9.7786849,20.457149" font-family="Arial Rounded CE" font-size="29.018" font-stretch="normal" font-style="normal" font-variant="normal" font-weight="bold" text-anchor="start" writing-mode="lr-tb" style="text-align:start;line-height:120.00000477%"/><path id="text3431" fill="#3465a4" fill-opacity="1" stroke="#204a87" stroke-linecap="butt" stroke-linejoin="miter" stroke-opacity="1" stroke-width="1pt" d="M 22.427884,32.938703 C 22.427874,33.133931 22.414864,33.420252 22.388834,33.797666 C 22.375814,34.162082 22.369314,34.428881 22.369314,34.598063 L 19.636254,34.598063 L 19.636254,32.196872 C 19.636254,31.728358 19.375964,31.494096 18.855384,31.494085 C 18.334794,31.494096 18.074504,31.728358 18.074504,32.196872 L 18.074504,39.90801 C 18.074504,40.389551 18.334794,40.630321 18.855384,40.630319 C 19.375964,40.630321 19.636254,40.389551 19.636254,39.90801 L 19.636254,37.350646 L 22.369314,37.350646 L 22.369314,39.849445 C 22.369314,40.617306 21.952844,41.202961 21.119914,41.606413 C 20.456164,41.931777 19.701324,42.094459 18.855384,42.094459 C 17.996414,42.094459 17.241574,41.931777 16.590844,41.606413 C 15.757914,41.202961 15.341444,40.617306 15.341444,39.849445 L 15.341444,32.333525 C 15.341444,30.888918 16.512754,30.16661 18.855384,30.166598 C 20.026684,30.16661 20.885644,30.342307 21.432264,30.693689 C 22.096004,31.12318 22.427874,31.871518 22.427884,32.938703" font-family="Carbon Block" font-size="19.522" font-stretch="normal" font-style="normal" font-variant="normal" font-weight="normal" text-anchor="start" writing-mode="lr-tb" style="text-align:start;line-height:120.00000477%"/><path id="text2044" fill="#f57900" fill-opacity="1" stroke="#ce5c00" stroke-linecap="butt" stroke-linejoin="miter" stroke-opacity="1" stroke-width="1" d="M 43.172979,27.372882 C 41.127511,27.193455 40.912197,27.195143 40.445686,24.57551 L 37.072454,4.264354 L 36.428208,4.264354 L 25.732658,22.207071 C 22.897712,26.979828 22.226015,27.085799 20.790599,27.372882 L 20.790599,28.235823 L 27.814014,28.235823 L 27.814014,27.372882 C 25.983858,27.193455 25.696773,27.302802 25.696773,26.405667 C 25.696773,25.723844 25.80443,25.400873 26.414482,24.180768 L 28.459952,20.558877 L 36.354747,20.558877 L 37.072454,24.826707 C 37.108341,25.149676 37.144226,25.472645 37.144226,25.759728 C 37.144226,27.123374 36.954666,27.15757 34.658001,27.372882 L 34.658001,28.235823 L 43.172979,28.235823 L 43.172979,27.372882 M 29.213546,18.83384 L 34.59636,9.503628 L 36.17532,18.83384 L 29.213546,18.83384" font-family="Nimbus Roman No9 L" font-size="46.601" font-stretch="normal" font-style="italic" font-variant="normal" font-weight="normal" text-anchor="start" writing-mode="lr-tb" style="text-align:start;line-height:125%"/><g id="g14338" transform="matrix(1.0110972,0,0,1.0110972,28.799523,9.7957376)"><rect id="rect2228" width="38.003" height="4.694" x="-.389" y="12.559" fill="url(#linearGradient14342)" fill-opacity="1" fill-rule="evenodd" stroke="#555753" stroke-dasharray="none" stroke-dashoffset="0" stroke-linecap="round" stroke-linejoin="round" stroke-miterlimit="4" stroke-opacity="1" stroke-width="1" marker-end="none" marker-mid="none" marker-start="none" color="#000" display="inline" overflow="visible" rx="2.321" ry="2.321" transform="matrix(0.7401646,0.6724257,-0.6724257,0.7401646,0,0)" visibility="visible" style="marker:none"/><rect id="rect2248" width="35.899" height="2.609" x=".613" y="13.552" fill="none" fill-opacity="1" fill-rule="evenodd" stroke="url(#linearGradient14344)" stroke-dasharray="none" stroke-dashoffset="0" stroke-linecap="round" stroke-linejoin="round" stroke-miterlimit="4" stroke-opacity="1" stroke-width="1" marker-end="none" marker-mid="none" marker-start="none" color="#000" display="inline" opacity=".466" overflow="visible" rx="1.764" ry="1.09" transform="matrix(0.7401651,0.6724251,-0.6724251,0.7401651,0,0)" visibility="visible" style="marker:none"/></g><g id="g4360" opacity=".815" transform="translate(-58.425666,15.08829)"><path id="path2388" fill="url(#radialGradient4364)" fill-opacity="1" fill-rule="evenodd" stroke="none" stroke-linecap="butt" stroke-linejoin="miter" stroke-opacity="1" stroke-width="1" d="M 47.000506 9.3411446 A 8.341651 8.341651 0 1 1 30.317204,9.3411446 A 8.341651 8.341651 0 1 1 47.000506 9.3411446 z" display="inline" transform="matrix(1.14985,0,0,1.14985,31.814632,-5.672398)"/><path id="path1345" fill="#fff" fill-opacity="1" fill-rule="evenodd" stroke="none" stroke-dasharray="none" stroke-dashoffset="0" stroke-linecap="butt" stroke-linejoin="miter" stroke-miterlimit="4" stroke-opacity="1" stroke-width=".5" marker-end="none" marker-mid="none" marker-start="none" d="M 44.520054,15.50279 C 44.012883,16.381236 39.925351,15.341967 38.998703,15.754538 C 38.072055,16.167108 36.109289,19.900142 35.117113,19.689249 C 34.124936,19.478355 33.850222,15.26973 33.171495,14.515926 C 32.492767,13.762123 28.335913,13.048993 28.229885,12.040207 C 28.123857,11.031421 32.041607,9.4696164 32.548778,8.5911701 C 33.055949,7.7127238 32.449637,3.5389508 33.376285,3.1263806 C 34.302933,2.7138103 36.998949,5.957187 37.991126,6.1680807 C 38.983302,6.3789743 42.765436,4.5125708 43.444163,5.2663741 C 44.122891,6.0201775 41.871371,9.5864995 41.977399,10.595285 C 42.083426,11.604071 45.027225,14.624343 44.520054,15.50279 z" color="#000" display="inline" overflow="visible" transform="matrix(0.674116,0.299577,-0.299577,0.674116,54.87409,-13.355762)" visibility="visible" style="marker:none"/></g></g></svg>