<svg xmlns="http://www.w3.org/2000/svg" xmlns:cc="http://web.resource.org/cc/" xmlns:svg="http://www.w3.org/2000/svg" xmlns:xlink="http://www.w3.org/1999/xlink" id="svg2108" width="48" height="48"><defs id="defs3"><linearGradient id="linearGradient1397" x1="22.687" x2="21.408" y1="36.39" y2="35.74" gradientTransform="matrix(-0.977685,0.210075,0.210075,0.977685,38.93076,-6.86866)" gradientUnits="userSpaceOnUse" xlink:href="#linearGradient4356"/><linearGradient id="linearGradient1400" x1="20.662" x2="22.627" y1="35.818" y2="36.218" gradientTransform="matrix(0.983375,0.181588,-0.181588,0.983375,-9.94712,-5.57492)" gradientUnits="userSpaceOnUse" xlink:href="#linearGradient4356"/><linearGradient id="linearGradient4338"><stop id="stop4340" offset="0" stop-color="#e9b15e" stop-opacity="1"/><stop id="stop4342" offset="1" stop-color="#966416" stop-opacity="1"/></linearGradient><radialGradient id="radialGradient4328" cx="29.345" cy="17.064" r="9.162" fx="29.345" fy="17.064" gradientTransform="matrix(0.787998,0,0,0.787998,6.221198,3.617627)" gradientUnits="userSpaceOnUse" xlink:href="#linearGradient4338"/><radialGradient id="radialGradient4330" cx="31.113" cy="19.009" r="8.662" fx="31.113" fy="19.009" gradientUnits="userSpaceOnUse" xlink:href="#linearGradient3816"/><linearGradient id="linearGradient4344"><stop id="stop4346" offset="0" stop-color="#727e0a" stop-opacity="1"/><stop id="stop4348" offset="1" stop-color="#5b6508" stop-opacity="1"/></linearGradient><radialGradient id="radialGradient1412" cx="16.215" cy="19.836" r="13.565" fx="16.215" fy="19.836" gradientTransform="matrix(1,0,0,0.681917,-2.875,12.48377)" gradientUnits="userSpaceOnUse" xlink:href="#linearGradient4344"/><radialGradient id="radialGradient4336" cx="31.113" cy="19.009" r="8.662" fx="31.113" fy="19.009" gradientUnits="userSpaceOnUse" xlink:href="#linearGradient3816"/><linearGradient id="linearGradient4356"><stop id="stop4358" offset="0" stop-color="#000" stop-opacity="1"/><stop id="stop4360" offset="1" stop-color="#000" stop-opacity="0"/></linearGradient><linearGradient id="linearGradient4163"><stop id="stop4165" offset="0" stop-color="#888a85" stop-opacity="1"/><stop id="stop4167" offset="1" stop-color="#555753" stop-opacity=".941"/></linearGradient><linearGradient id="linearGradient3824"><stop id="stop3826" offset="0" stop-color="#fff" stop-opacity="1"/><stop id="stop3828" offset="1" stop-color="#c9c9c9" stop-opacity="1"/></linearGradient><linearGradient id="linearGradient3816"><stop id="stop3818" offset="0" stop-color="#000" stop-opacity="1"/><stop id="stop3820" offset="1" stop-color="#000" stop-opacity="0"/></linearGradient><linearGradient id="linearGradient3800"><stop id="stop3802" offset="0" stop-color="#d3d7cf" stop-opacity="1"/><stop id="stop3804" offset="1" stop-color="#aeb1a9" stop-opacity="1"/></linearGradient><radialGradient id="radialGradient1407" cx="31.113" cy="19.009" r="8.662" fx="31.113" fy="19.009" gradientUnits="userSpaceOnUse" xlink:href="#linearGradient3816"/><radialGradient id="radialGradient1413" cx="31.113" cy="19.009" r="8.662" fx="31.113" fy="19.009" gradientUnits="userSpaceOnUse" xlink:href="#linearGradient3816"/><radialGradient id="radialGradient1415" cx="29.345" cy="17.064" r="9.162" fx="29.345" fy="17.064" gradientTransform="matrix(0.787998,3.877637e-16,-3.877637e-16,0.787998,6.221198,3.617627)" gradientUnits="userSpaceOnUse" xlink:href="#linearGradient3800"/><linearGradient id="linearGradient2315" x1="22.687" x2="21.408" y1="36.39" y2="35.74" gradientTransform="matrix(-1.355135,0.277439,0.291178,1.291197,57.48475,-16.61568)" gradientUnits="userSpaceOnUse" xlink:href="#linearGradient4356"/><linearGradient id="linearGradient2318" x1="20.662" x2="22.627" y1="35.818" y2="36.218" gradientTransform="matrix(1.363022,0.239817,-0.251693,1.298712,-10.26318,-14.90707)" gradientUnits="userSpaceOnUse" xlink:href="#linearGradient4356"/><linearGradient id="linearGradient2327" x1="30.936" x2="30.936" y1="29.553" y2="35.803" gradientTransform="matrix(1.386065,0,0,1.320668,-18.90074,-11.40536)" gradientUnits="userSpaceOnUse" xlink:href="#linearGradient3824"/><radialGradient id="radialGradient2330" cx="28.09" cy="27.203" r="13.565" fx="28.09" fy="27.203" gradientTransform="matrix(1.798508,3.805072e-16,-2.72323e-16,1.168568,-30.48616,-4.880645)" gradientUnits="userSpaceOnUse" xlink:href="#linearGradient4163"/><linearGradient id="linearGradient2334" x1="22.687" x2="21.408" y1="36.39" y2="35.74" gradientTransform="matrix(-1.355135,0.277439,0.291178,1.291197,39.04476,-26.08942)" gradientUnits="userSpaceOnUse" xlink:href="#linearGradient4356"/><linearGradient id="linearGradient2337" x1="30.936" x2="30.936" y1="29.553" y2="35.803" gradientTransform="matrix(1.386065,0,0,1.320668,-36.11274,-20.65004)" gradientUnits="userSpaceOnUse" xlink:href="#linearGradient3824"/><linearGradient id="linearGradient4020" x1="30.936" x2="30.936" y1="29.553" y2="35.803" gradientTransform="matrix(1.386065,0,0,1.320668,-36.11274,-20.65004)" gradientUnits="userSpaceOnUse" xlink:href="#linearGradient3824"/><linearGradient id="linearGradient4022" x1="22.687" x2="21.408" y1="36.39" y2="35.74" gradientTransform="matrix(-1.355135,0.277439,0.291178,1.291197,39.04476,-26.08942)" gradientUnits="userSpaceOnUse" xlink:href="#linearGradient4356"/><radialGradient id="radialGradient4024" cx="31.113" cy="19.009" r="8.662" fx="31.113" fy="19.009" gradientUnits="userSpaceOnUse" xlink:href="#linearGradient3816"/><radialGradient id="radialGradient4026" cx="28.09" cy="27.203" r="13.565" fx="28.09" fy="27.203" gradientTransform="matrix(1.798508,3.805072e-16,-2.72323e-16,1.168568,-30.48616,-4.880645)" gradientUnits="userSpaceOnUse" xlink:href="#linearGradient4163"/><linearGradient id="linearGradient4028" x1="30.936" x2="30.936" y1="29.553" y2="35.803" gradientTransform="matrix(1.386065,0,0,1.320668,-18.90074,-11.40536)" gradientUnits="userSpaceOnUse" xlink:href="#linearGradient3824"/><radialGradient id="radialGradient4030" cx="31.113" cy="19.009" r="8.662" fx="31.113" fy="19.009" gradientUnits="userSpaceOnUse" xlink:href="#linearGradient3816"/><radialGradient id="radialGradient4032" cx="29.345" cy="17.064" r="9.162" fx="29.345" fy="17.064" gradientTransform="matrix(0.787998,3.877637e-16,-3.877637e-16,0.787998,6.221198,3.617627)" gradientUnits="userSpaceOnUse" xlink:href="#linearGradient3800"/><linearGradient id="linearGradient4034" x1="20.662" x2="22.627" y1="35.818" y2="36.218" gradientTransform="matrix(1.363022,0.239817,-0.251693,1.298712,-10.26318,-14.90707)" gradientUnits="userSpaceOnUse" xlink:href="#linearGradient4356"/><linearGradient id="linearGradient4036" x1="22.687" x2="21.408" y1="36.39" y2="35.74" gradientTransform="matrix(-1.355135,0.277439,0.291178,1.291197,57.48475,-16.61568)" gradientUnits="userSpaceOnUse" xlink:href="#linearGradient4356"/></defs><metadata id="metadata4"/><g id="layer2" display="inline"><g id="g8831" display="inline" transform="translate(-0.112686,0.42033)"><path id="path4177" fill="url(#radialGradient4336)" fill-opacity="1" fill-rule="evenodd" stroke="none" stroke-dasharray="none" stroke-dashoffset="0" stroke-linecap="round" stroke-linejoin="round" stroke-miterlimit="4" stroke-opacity="1" stroke-width="1" marker-end="none" marker-mid="none" marker-start="none" d="M 39.774755 19.008621 A 8.6620579 8.6620579 0 1 1 22.45064,19.008621 A 8.6620579 8.6620579 0 1 1 39.774755 19.008621 z" color="#000" display="inline" overflow="visible" transform="matrix(1.77551,0,0,0.959183,-40.25322,16.02153)" visibility="visible" style="marker:none"/><path id="path2329" fill="url(#radialGradient1412)" fill-opacity="1" fill-rule="evenodd" stroke="#404604" stroke-dasharray="none" stroke-dashoffset="0" stroke-linecap="round" stroke-linejoin="round" stroke-miterlimit="4" stroke-opacity="1" stroke-width="1" marker-end="none" marker-mid="none" marker-start="none" d="M 9.986174,38.886039 L 20.592776,38.886039 C 23.59798,38.886039 26.57326,37.784107 27.663843,34.643398 C 28.699482,31.660922 27.84062,25.98134 21.123106,21.385146 L 8.57196,21.385146 C 1.854446,25.627786 1.014969,31.429977 2.561553,34.820174 C 4.137148,38.273964 6.804193,38.886039 9.986174,38.886039 z" color="#000" display="inline" overflow="visible" visibility="visible" style="marker:none"/><path id="path3812" fill="#9db029" fill-opacity="1" fill-rule="evenodd" stroke="none" stroke-dasharray="none" stroke-dashoffset="0" stroke-linecap="round" stroke-linejoin="round" stroke-miterlimit="4" stroke-opacity="1" stroke-width="1" marker-end="none" marker-mid="none" marker-start="none" d="M 15.057367,24.036797 C 15.057367,24.036797 12.906044,25.697132 13.091376,27.69733 C 11.05015,25.896536 10.991503,22.445806 10.991503,22.445806 L 15.057367,24.036797 z" color="#000" display="inline" overflow="visible" visibility="visible" style="marker:none"/><path id="path3838" fill="none" fill-opacity="1" fill-rule="evenodd" stroke="#fff" stroke-dasharray="none" stroke-dashoffset="0" stroke-linecap="round" stroke-linejoin="round" stroke-miterlimit="4" stroke-opacity="1" stroke-width="1" marker-end="none" marker-mid="none" marker-start="none" d="M 10.091639,37.821836 L 20.408309,37.821836 C 23.048032,37.821836 25.66147,36.853917 26.619421,34.095169 C 27.52911,31.475409 26.524699,26.486555 20.624142,22.449332 L 9.099417,22.449332 C 3.19886,26.175999 2.211477,31.272551 3.569971,34.250446 C 4.953949,37.2842 7.296638,37.821836 10.091639,37.821836 z" color="#000" display="inline" opacity=".215" overflow="visible" visibility="visible" style="marker:none"/><path id="path3810" fill="#9db029" fill-opacity="1" fill-rule="evenodd" stroke="none" stroke-dasharray="none" stroke-dashoffset="0" stroke-linecap="round" stroke-linejoin="round" stroke-miterlimit="4" stroke-opacity="1" stroke-width="1" marker-end="none" marker-mid="none" marker-start="none" d="M 16.035795,24.036797 C 16.035795,24.036797 18.187118,25.697132 18.001786,27.69733 C 20.043012,25.896536 20.101659,22.445806 20.101659,22.445806 L 16.035795,24.036797 z" color="#000" display="inline" overflow="visible" visibility="visible" style="marker:none"/><path id="path3814" fill="url(#radialGradient4330)" fill-opacity="1" fill-rule="evenodd" stroke="none" stroke-dasharray="none" stroke-dashoffset="0" stroke-linecap="round" stroke-linejoin="round" stroke-miterlimit="4" stroke-opacity="1" stroke-width="1" marker-end="none" marker-mid="none" marker-start="none" d="M 39.774755 19.008621 A 8.6620579 8.6620579 0 1 1 22.45064,19.008621 A 8.6620579 8.6620579 0 1 1 39.774755 19.008621 z" color="#000" display="inline" overflow="visible" transform="translate(-16.125,0.75)" visibility="visible" style="marker:none"/><path id="path2327" fill="url(#radialGradient4328)" fill-opacity="1" fill-rule="evenodd" stroke="#6f4709" stroke-dasharray="none" stroke-dashoffset="0" stroke-linecap="round" stroke-linejoin="round" stroke-miterlimit="4" stroke-opacity="1" stroke-width="1" marker-end="none" marker-mid="none" marker-start="none" d="M 39.774755 19.008621 A 8.6620579 8.6620579 0 1 1 22.45064,19.008621 A 8.6620579 8.6620579 0 1 1 39.774755 19.008621 z" color="#000" display="inline" overflow="visible" transform="translate(-16,-2.75)" visibility="visible" style="marker:none"/><path id="path3834" fill="none" fill-opacity="1" fill-rule="evenodd" stroke="#fff" stroke-dasharray="none" stroke-dashoffset="0" stroke-linecap="round" stroke-linejoin="round" stroke-miterlimit="4" stroke-opacity="1" stroke-width="1.14" marker-end="none" marker-mid="none" marker-start="none" d="M 39.774755 19.008621 A 8.6620579 8.6620579 0 1 1 22.45064,19.008621 A 8.6620579 8.6620579 0 1 1 39.774755 19.008621 z" color="#000" display="inline" opacity=".127" overflow="visible" transform="matrix(0.877095,0,0,0.877095,-12.17607,-0.413733)" visibility="visible" style="marker:none"/><path stroke-width="1" style="marker:none" id="path4368" fill="url(#linearGradient1400)" fill-opacity="1" fill-rule="evenodd" stroke="none" stroke-dasharray="none" stroke-dashoffset="0" stroke-linecap="round" stroke-linejoin="round" stroke-miterlimit="4" stroke-opacity="1" marker-end="none" marker-mid="none" marker-start="none" d="M 5.6729535,37.851747 C 4.4253465,37.306778 3.8669595,35.99347 3.8669595,35.99347 C 4.7082405,31.924334 7.586885,28.947254 7.586885,28.947254 C 7.586885,28.947254 5.3075635,35.358768 5.6729535,37.851747 z" color="#000" display="inline" opacity=".228" overflow="visible" visibility="visible"/><path id="path4083" fill="url(#linearGradient1397)" fill-opacity="1" fill-rule="evenodd" stroke="none" stroke-dasharray="none" stroke-dashoffset="0" stroke-linecap="round" stroke-linejoin="round" stroke-miterlimit="4" stroke-opacity="1" stroke-width="1" marker-end="none" marker-mid="none" marker-start="none" d="M 24.578661,36.993396 C 25.809912,36.412418 26.383041,34.991075 26.383041,34.991075 C 25.423921,30.948092 22.406892,28.148254 22.406892,28.148254 C 22.406892,28.148254 24.871485,34.490856 24.578661,36.993396 z" color="#000" display="inline" opacity=".228" overflow="visible" visibility="visible" style="marker:none"/></g><g id="g3992" transform="matrix(0.7244,0,0,0.7244,15.87825,7.849471)"><path id="path3994" fill="url(#linearGradient4020)" fill-opacity="1" fill-rule="evenodd" stroke="none" stroke-dasharray="none" stroke-dashoffset="0" stroke-linecap="round" stroke-linejoin="round" stroke-miterlimit="4" stroke-opacity="1" stroke-width="1" marker-end="none" marker-mid="none" marker-start="none" d="M 12.402006,24.298421 L 18.282581,24.298421 L 14.852246,21.263398 L 14.117174,22.197251 L 13.382101,21.496861 L 12.402006,24.298421 z" color="#000" display="inline" overflow="visible" visibility="visible" style="marker:none"/><path stroke-width="1" style="marker:none" id="path3996" fill="url(#linearGradient4022)" fill-opacity="1" fill-rule="evenodd" stroke="none" stroke-dasharray="none" stroke-dashoffset="0" stroke-linecap="round" stroke-linejoin="round" stroke-miterlimit="4" stroke-opacity="1" marker-end="none" marker-mid="none" marker-start="none" d="M 19.15182,31.837791 C 20.858414,31.070512 21.652808,29.19339 21.652808,29.19339 C 20.323405,23.853951 16.141607,20.156295 16.141607,20.156295 C 16.141607,20.156295 19.557693,28.532766 19.15182,31.837791 z" color="#000" display="inline" opacity=".228" overflow="visible" visibility="visible"/><path id="path3998" fill="url(#radialGradient4024)" fill-opacity="1" fill-rule="evenodd" stroke="none" stroke-dasharray="none" stroke-dashoffset="0" stroke-linecap="round" stroke-linejoin="round" stroke-miterlimit="4" stroke-opacity="1" stroke-width="1" marker-end="none" marker-mid="none" marker-start="none" d="M 39.774755 19.008621 A 8.6620579 8.6620579 0 1 1 22.45064,19.008621 A 8.6620579 8.6620579 0 1 1 39.774755 19.008621 z" color="#000" display="inline" overflow="visible" transform="matrix(2.460972,0,0,1.266762,-52.51728,13.38559)" visibility="visible" style="marker:none"/><path id="path4000" fill="url(#radialGradient4026)" fill-opacity="1" fill-rule="evenodd" stroke="#555753" stroke-dasharray="none" stroke-dashoffset="0" stroke-linecap="round" stroke-linejoin="round" stroke-miterlimit="4" stroke-opacity="1" stroke-width="1.353" marker-end="none" marker-mid="none" marker-start="none" d="M 17.117787,43.58202 L 31.819227,43.58202 C 35.984635,43.58202 40.108567,42.126734 41.620186,37.9789 C 43.055649,34.040039 41.86521,26.539197 32.554299,20.46915 L 15.157595,20.46915 C 5.8466837,26.072269 4.683114,33.735037 6.82678,38.212362 C 9.010657,42.773672 12.707355,43.58202 17.117787,43.58202 z" color="#000" display="inline" overflow="visible" visibility="visible" style="marker:none"/><path id="path4002" fill="url(#linearGradient4028)" fill-opacity="1" fill-rule="evenodd" stroke="none" stroke-dasharray="none" stroke-dashoffset="0" stroke-linecap="round" stroke-linejoin="round" stroke-miterlimit="4" stroke-opacity="1" stroke-width="1" marker-end="none" marker-mid="none" marker-start="none" d="M 18.097884,22.57032 C 22.508315,26.305733 24.468507,39.846607 24.468507,39.846607 C 24.468507,39.846607 26.428698,26.305734 29.859035,22.336858 L 18.097884,22.57032 z" color="#000" display="inline" overflow="visible" visibility="visible" style="marker:none"/><path id="path4004" fill="#babdb6" fill-opacity="1" fill-rule="evenodd" stroke="none" stroke-dasharray="none" stroke-dashoffset="0" stroke-linecap="round" stroke-linejoin="round" stroke-miterlimit="4" stroke-opacity="1" stroke-width="1" marker-end="none" marker-mid="none" marker-start="none" d="M 21.257336,23.971101 C 21.257336,23.971101 18.275462,26.163852 18.532344,28.80545 C 15.703072,26.427199 15.621784,21.86993 15.621784,21.86993 L 21.257336,23.971101 z" color="#000" display="inline" overflow="visible" visibility="visible" style="marker:none"/><path stroke-width="1.353" style="marker:none" id="path4006" fill="none" fill-opacity="1" fill-rule="evenodd" stroke="#fff" stroke-dasharray="none" stroke-dashoffset="0" stroke-linecap="round" stroke-linejoin="round" stroke-miterlimit="4" stroke-opacity="1" marker-end="none" marker-mid="none" marker-start="none" d="M 17.018944,42.205744 L 31.563544,42.176561 C 35.222371,42.176561 38.844766,40.898261 40.172549,37.254871 C 41.433437,33.795038 40.041258,27.206418 31.862702,21.874587 L 15.888684,21.553575 C 7.7101289,26.475265 6.1271553,33.206118 8.0407442,37.459941 C 9.9543344,41.713763 12.746727,42.176561 17.018944,42.205744 z" color="#000" display="inline" opacity=".215" overflow="visible" visibility="visible"/><path id="path4008" fill="#babdb6" fill-opacity="1" fill-rule="evenodd" stroke="none" stroke-dasharray="none" stroke-dashoffset="0" stroke-linecap="round" stroke-linejoin="round" stroke-miterlimit="4" stroke-opacity="1" stroke-width="1" marker-end="none" marker-mid="none" marker-start="none" d="M 27.408795,23.971101 C 27.408795,23.971101 30.390668,26.163852 30.133786,28.80545 C 32.963058,26.427199 33.044346,21.86993 33.044346,21.86993 L 27.408795,23.971101 z" color="#000" display="inline" overflow="visible" visibility="visible" style="marker:none"/><path id="path4010" fill="url(#radialGradient4030)" fill-opacity="1" fill-rule="evenodd" stroke="none" stroke-dasharray="none" stroke-dashoffset="0" stroke-linecap="round" stroke-linejoin="round" stroke-miterlimit="4" stroke-opacity="1" stroke-width="1" marker-end="none" marker-mid="none" marker-start="none" d="M 39.774755 19.008621 A 8.6620579 8.6620579 0 1 1 22.45064,19.008621 A 8.6620579 8.6620579 0 1 1 39.774755 19.008621 z" color="#000" display="inline" overflow="visible" transform="matrix(1.386065,0,0,1.320668,-19.074,-6.783026)" visibility="visible" style="marker:none"/><path id="path4012" fill="url(#radialGradient4032)" fill-opacity="1" fill-rule="evenodd" stroke="#555753" stroke-dasharray="none" stroke-dashoffset="0" stroke-linecap="round" stroke-linejoin="round" stroke-miterlimit="4" stroke-opacity="1" stroke-width="1" marker-end="none" marker-mid="none" marker-start="none" d="M 39.774755 19.008621 A 8.6620579 8.6620579 0 1 1 22.45064,19.008621 A 8.6620579 8.6620579 0 1 1 39.774755 19.008621 z" color="#000" display="inline" overflow="visible" transform="matrix(1.386065,0,0,1.320668,-18.90074,-11.40536)" visibility="visible" style="marker:none"/><path stroke-width="1.14" style="marker:none" id="path4014" fill="none" fill-opacity="1" fill-rule="evenodd" stroke="#fff" stroke-dasharray="none" stroke-dashoffset="0" stroke-linecap="round" stroke-linejoin="round" stroke-miterlimit="4" stroke-opacity="1" marker-end="none" marker-mid="none" marker-start="none" d="M 39.774755 19.008621 A 8.6620579 8.6620579 0 1 1 22.45064,19.008621 A 8.6620579 8.6620579 0 1 1 39.774755 19.008621 z" color="#000" display="inline" opacity=".196" overflow="visible" transform="matrix(1.215711,0,0,1.158351,-13.60053,-8.319931)" visibility="visible"/><path id="path4016" fill="url(#linearGradient4034)" fill-opacity="1" fill-rule="evenodd" stroke="none" stroke-dasharray="none" stroke-dashoffset="0" stroke-linecap="round" stroke-linejoin="round" stroke-miterlimit="4" stroke-opacity="1" stroke-width="1" marker-end="none" marker-mid="none" marker-start="none" d="M 11.387262,42.445133 C 9.6579979,41.72541 8.8840372,39.990966 8.8840372,39.990966 C 10.050107,34.616989 14.040095,30.685254 14.040095,30.685254 C 14.040095,30.685254 10.880808,39.152736 11.387262,42.445133 z" color="#000" display="inline" opacity=".228" overflow="visible" visibility="visible" style="marker:none"/><path stroke-width="1" style="marker:none" id="path4018" fill="url(#linearGradient4036)" fill-opacity="1" fill-rule="evenodd" stroke="none" stroke-dasharray="none" stroke-dashoffset="0" stroke-linecap="round" stroke-linejoin="round" stroke-miterlimit="4" stroke-opacity="1" marker-end="none" marker-mid="none" marker-start="none" d="M 37.591801,41.311537 C 39.298395,40.544258 40.092789,38.667135 40.092789,38.667135 C 38.763386,33.327697 34.581588,29.630041 34.581588,29.630041 C 34.581588,29.630041 37.997674,38.006512 37.591801,41.311537 z" color="#000" display="inline" opacity=".228" overflow="visible" visibility="visible"/></g></g></svg>