<svg xmlns="http://www.w3.org/2000/svg" xmlns:svg="http://www.w3.org/2000/svg" xmlns:xlink="http://www.w3.org/1999/xlink" id="svg4542" width="22" height="22" version="1.0"><defs id="defs4544"><linearGradient id="linearGradient8668"><stop id="stop8670" offset="0" stop-color="#fff" stop-opacity="1"/><stop id="stop8676" offset=".5" stop-color="#edd400" stop-opacity="1"/><stop id="stop8672" offset="1" stop-color="#edd400" stop-opacity="0"/></linearGradient><linearGradient id="linearGradient5154"><stop id="stop5156" offset="0" stop-color="#fff" stop-opacity="1"/><stop id="stop5158" offset="1" stop-color="#d3d7cf" stop-opacity="1"/></linearGradient><linearGradient id="linearGradient5146"><stop id="stop5148" offset="0" stop-color="#fff" stop-opacity="1"/><stop id="stop5150" offset="1" stop-color="#fff" stop-opacity="0"/></linearGradient><linearGradient id="linearGradient5135"><stop id="stop5137" offset="0" stop-color="#fff" stop-opacity="1"/><stop id="stop5139" offset="1" stop-color="#fff" stop-opacity="0"/></linearGradient><radialGradient id="radialGradient5141" cx="7.999" cy="6.366" r="3.019" fx="7.999" fy="6.366" gradientUnits="userSpaceOnUse" xlink:href="#linearGradient5135"/><linearGradient id="linearGradient5152" x1="9.152" x2="8.032" y1="15" y2=".062" gradientTransform="matrix(1.3320387,0,0,1.2877478,-0.1982722,0.8276555)" gradientUnits="userSpaceOnUse" xlink:href="#linearGradient5146"/><radialGradient id="radialGradient5160" cx="8.03" cy="11.565" r="6.004" fx="8.03" fy="11.565" gradientTransform="matrix(1.3188775,0,0,1.7490954,-5.4317078e-2,-3.3022448)" gradientUnits="userSpaceOnUse" xlink:href="#linearGradient5154"/><filter id="filter5242" width="1.224" height="2.019" x="-.112" y="-.509"><feGaussianBlur id="feGaussianBlur5244" stdDeviation=".769"/></filter><radialGradient id="radialGradient8674" cx="16.529" cy="4.322" r="5.215" fx="16.529" fy="4.322" gradientUnits="userSpaceOnUse" xlink:href="#linearGradient8668"/></defs><metadata id="metadata4547"/><g id="layer1"><rect id="rect5212" width="16.5" height="3.625" x="2.25" y="17.25" fill="#000" fill-opacity="1" fill-rule="evenodd" stroke="none" stroke-dasharray="none" stroke-dashoffset="0" stroke-linecap="butt" stroke-linejoin="miter" stroke-miterlimit="4" stroke-opacity="1" stroke-width="1" marker-end="none" marker-mid="none" marker-start="none" color="#000" display="inline" enable-background="accumulate" filter="url(#filter5242)" opacity=".359" overflow="visible" rx="1.813" ry="1.813" visibility="visible" style="marker:none"/><path id="rect4550" fill="url(#radialGradient5160)" fill-opacity="1" fill-rule="evenodd" stroke="#888a85" stroke-dashoffset="0" stroke-linecap="butt" stroke-linejoin="miter" stroke-miterlimit="4" stroke-opacity="1" stroke-width="1" marker-end="none" marker-mid="none" marker-start="none" d="M 8.0075554,1.5000049 C 7.9261297,1.5000049 7.1704875,1.5648405 6.6633357,2.2083456 C 5.8189525,3.2797502 4.6237633,4.9273413 3.8958247,6.1042196 C 3.4977305,6.7478297 3.5795378,7.3012987 3.5795377,7.4815488 L 3.5795377,19.129819 C 3.5795377,19.837629 4.1810296,20.389091 4.9237574,20.389091 L 16.151945,20.389091 C 16.894673,20.389091 17.496165,19.837629 17.496165,19.129819 L 17.496165,7.4815488 C 17.496165,7.3065686 17.558573,6.7602173 17.179878,6.1435719 C 16.420161,4.9064935 15.235183,3.1290493 14.372831,2.0509366 C 13.926232,1.4926004 13.221994,1.500005 13.147219,1.5000049 L 8.0075554,1.5000049 z M 10.537851,3.4880253 C 11.646305,3.4880253 12.552287,4.3897989 12.552287,5.493106 C 12.552287,6.5964131 11.646306,7.4981868 10.537851,7.4981868 C 9.4293957,7.4981865 8.5234152,6.5964132 8.5234152,5.493106 C 8.5234153,4.3897989 9.4293962,3.4880253 10.537851,3.4880253 z" color="#000" display="inline" enable-background="accumulate" overflow="visible" visibility="visible" style="marker:none"/><path marker-end="none" style="marker:none" id="path5133" fill="none" fill-opacity="1" fill-rule="evenodd" stroke="url(#radialGradient5141)" stroke-dasharray="none" stroke-dashoffset="0" stroke-linecap="butt" stroke-linejoin="miter" stroke-miterlimit="4" stroke-opacity="1" stroke-width=".881" marker-mid="none" marker-start="none" d="M 10.518214,3.8907964 A 2.519068,2.519068 0 1 1 5.4800775,3.8907964 A 2.519068,2.519068 0 1 1 10.518214,3.8907964 z" color="#000" display="inline" enable-background="accumulate" opacity="1" overflow="visible" transform="matrix(1.1372503,0,0,1.1319689,1.4002041,1.2894864)" visibility="visible"/><path id="path5143" fill="none" fill-opacity="1" fill-rule="evenodd" stroke="url(#linearGradient5152)" stroke-dashoffset="0" stroke-linecap="butt" stroke-linejoin="miter" stroke-miterlimit="4" stroke-opacity="1" stroke-width="1" marker-end="none" marker-mid="none" marker-start="none" d="M 7.8355863,2.7592772 C 8.1479175,2.7592772 7.858081,2.7617019 7.7523339,2.7995194 C 7.6465867,2.8373367 7.5430527,2.8995475 7.4609504,3.00073 C 6.6044824,4.0562358 5.3465131,5.7394375 4.6303682,6.8639734 C 4.5315216,7.0191886 4.5178409,7.1273694 4.5054895,7.2261524 C 4.4931381,7.3249356 4.5054899,7.3022556 4.5054895,7.5883316 L 4.5054895,19.499999 C 4.5054895,19.497658 4.4691641,19.499999 4.588742,19.499999 L 16.410586,19.499999 C 16.530165,19.499999 16.493838,19.497658 16.493838,19.499999 L 16.493838,7.5883316 C 16.493838,7.3464779 16.507701,7.3260914 16.493838,7.2261524 C 16.479974,7.1262134 16.460034,7.0482525 16.368959,6.9042155 C 15.594416,5.6792417 14.330701,3.8524027 13.49675,2.8397614 C 13.455128,2.7892186 13.414069,2.7592772 13.246994,2.7592772 L 10.499664,2.7592772 L 7.8355863,2.7592772 z" color="#000" display="inline" enable-background="accumulate" opacity=".482" overflow="visible" visibility="visible" style="marker:none"/><rect stroke-opacity="1" style="marker:none" id="rect5162" width="1" height="8" x="6" y="10" fill="#babdb6" fill-opacity="1" fill-rule="evenodd" stroke="none" stroke-dasharray="none" stroke-dashoffset="0" stroke-linecap="butt" stroke-linejoin="miter" stroke-miterlimit="4" stroke-width="1" marker-end="none" marker-mid="none" marker-start="none" color="#000" display="inline" enable-background="accumulate" opacity="1" overflow="visible" rx=".5" ry=".5" visibility="visible"/><rect stroke-opacity="1" style="marker:none" id="rect5204" width="1" height="6" x="8" y="12" fill="#babdb6" fill-opacity="1" fill-rule="evenodd" stroke="none" stroke-dasharray="none" stroke-dashoffset="0" stroke-linecap="butt" stroke-linejoin="miter" stroke-miterlimit="4" stroke-width="1" marker-end="none" marker-mid="none" marker-start="none" color="#000" display="inline" enable-background="accumulate" opacity="1" overflow="visible" rx=".5" ry=".5" visibility="visible"/><rect stroke-opacity="1" style="marker:none" id="rect5206" width="1" height="8" x="10" y="10" fill="#babdb6" fill-opacity="1" fill-rule="evenodd" stroke="none" stroke-dasharray="none" stroke-dashoffset="0" stroke-linecap="butt" stroke-linejoin="miter" stroke-miterlimit="4" stroke-width="1" marker-end="none" marker-mid="none" marker-start="none" color="#000" display="inline" enable-background="accumulate" opacity="1" overflow="visible" rx=".5" ry=".5" visibility="visible"/><rect stroke-opacity="1" style="marker:none" id="rect5208" width="1" height="7" x="12" y="11" fill="#babdb6" fill-opacity="1" fill-rule="evenodd" stroke="none" stroke-dasharray="none" stroke-dashoffset="0" stroke-linecap="butt" stroke-linejoin="miter" stroke-miterlimit="4" stroke-width="1" marker-end="none" marker-mid="none" marker-start="none" color="#000" display="inline" enable-background="accumulate" opacity="1" overflow="visible" rx=".5" ry=".5" visibility="visible"/><rect stroke-opacity="1" style="marker:none" id="rect5210" width="1" height="6" x="14" y="12" fill="#babdb6" fill-opacity="1" fill-rule="evenodd" stroke="none" stroke-dasharray="none" stroke-dashoffset="0" stroke-linecap="butt" stroke-linejoin="miter" stroke-miterlimit="4" stroke-width="1" marker-end="none" marker-mid="none" marker-start="none" color="#000" display="inline" enable-background="accumulate" opacity="1" overflow="visible" rx=".5" ry=".5" visibility="visible"/></g></svg>