<svg xmlns="http://www.w3.org/2000/svg" xmlns:cc="http://web.resource.org/cc/" xmlns:svg="http://www.w3.org/2000/svg" xmlns:xlink="http://www.w3.org/1999/xlink" id="svg2108" width="48" height="48"><defs id="defs3"><linearGradient id="linearGradient4845"><stop id="stop4847" offset="0" stop-color="none"/><stop id="stop4849" offset=".333" stop-color="#5b86be" stop-opacity="1"/><stop id="stop4851" offset="1" stop-color="#83a8d8" stop-opacity="0"/></linearGradient><linearGradient id="linearGradient2797"><stop id="stop2799" offset="0" stop-color="#fff" stop-opacity="1"/><stop id="stop2801" offset="1" stop-color="#fff" stop-opacity="0"/></linearGradient><linearGradient id="linearGradient2402"><stop id="stop2404" offset="0" stop-color="#729fcf" stop-opacity="1"/><stop id="stop2406" offset="1" stop-color="#528ac5" stop-opacity="1"/></linearGradient><linearGradient id="linearGradient2408" x1="18.936" x2="53.589" y1="23.668" y2="26.649" gradientUnits="userSpaceOnUse" xlink:href="#linearGradient2402"/><linearGradient id="linearGradient2682"><stop id="stop2684" offset="0" stop-color="#3977c3" stop-opacity="1"/><stop id="stop2686" offset="1" stop-color="#89aedc" stop-opacity="0"/></linearGradient><linearGradient id="linearGradient2690"><stop id="stop2692" offset="0" stop-color="#c4d7eb" stop-opacity="1"/><stop id="stop2694" offset="1" stop-color="#c4d7eb" stop-opacity="0"/></linearGradient><linearGradient id="linearGradient2871"><stop id="stop2873" offset="0" stop-color="#3465a4" stop-opacity="1"/><stop id="stop2875" offset="1" stop-color="#3465a4" stop-opacity="1"/></linearGradient><linearGradient id="linearGradient1501" x1="46.835" x2="45.38" y1="45.264" y2="50.94" gradientUnits="userSpaceOnUse" xlink:href="#linearGradient2871"/><linearGradient id="linearGradient2380"><stop id="stop2382" offset="0" stop-color="#b9cfe7" stop-opacity="1"/><stop id="stop2384" offset="1" stop-color="#729fcf" stop-opacity="1"/></linearGradient><linearGradient id="linearGradient2386" x1="62.514" x2="15.985" y1="36.061" y2="20.609" gradientUnits="userSpaceOnUse" xlink:href="#linearGradient2380"/><linearGradient id="linearGradient2847"><stop id="stop2849" offset="0" stop-color="#3465a4" stop-opacity="1"/><stop id="stop2851" offset="1" stop-color="#3465a4" stop-opacity="0"/></linearGradient><linearGradient id="linearGradient2831"><stop id="stop2833" offset="0" stop-color="#3465a4" stop-opacity="1"/><stop id="stop2855" offset=".333" stop-color="#5b86be" stop-opacity="1"/><stop id="stop2835" offset="1" stop-color="#83a8d8" stop-opacity="0"/></linearGradient><linearGradient id="linearGradient8662"><stop id="stop8664" offset="0" stop-color="#000" stop-opacity="1"/><stop id="stop8666" offset="1" stop-color="#000" stop-opacity="0"/></linearGradient><linearGradient id="linearGradient4356"><stop id="stop4358" offset="0" stop-color="#000" stop-opacity="1"/><stop id="stop4360" offset="1" stop-color="#000" stop-opacity="0"/></linearGradient><linearGradient id="linearGradient4344"><stop id="stop4346" offset="0" stop-color="#727e0a" stop-opacity="1"/><stop id="stop4348" offset="1" stop-color="#5b6508" stop-opacity="1"/></linearGradient><linearGradient id="linearGradient4338"><stop id="stop4340" offset="0" stop-color="#e9b15e" stop-opacity="1"/><stop id="stop4342" offset="1" stop-color="#966416" stop-opacity="1"/></linearGradient><linearGradient id="linearGradient4163"><stop id="stop4165" offset="0" stop-color="#3b74bc" stop-opacity="1"/><stop id="stop4167" offset="1" stop-color="#2d5990" stop-opacity="1"/></linearGradient><linearGradient id="linearGradient3824"><stop id="stop3826" offset="0" stop-color="#fff" stop-opacity="1"/><stop id="stop3828" offset="1" stop-color="#c9c9c9" stop-opacity="1"/></linearGradient><linearGradient id="linearGradient3816"><stop id="stop3818" offset="0" stop-color="#000" stop-opacity="1"/><stop id="stop3820" offset="1" stop-color="#000" stop-opacity="0"/></linearGradient><linearGradient id="linearGradient3800"><stop id="stop3802" offset="0" stop-color="#f4d9b1" stop-opacity="1"/><stop id="stop3804" offset="1" stop-color="#df9725" stop-opacity="1"/></linearGradient><radialGradient id="radialGradient3806" cx="29.345" cy="17.064" r="9.162" fx="29.345" fy="17.064" gradientUnits="userSpaceOnUse" xlink:href="#linearGradient3800"/><linearGradient id="linearGradient4175" x1="30.936" x2="30.936" y1="29.553" y2="35.803" gradientTransform="translate(0.707108,0.000000)" gradientUnits="userSpaceOnUse" xlink:href="#linearGradient3824"/><linearGradient id="linearGradient4326" x1="30.936" x2="30.936" y1="29.553" y2="35.803" gradientTransform="translate(-12.41789,-7.000000)" gradientUnits="userSpaceOnUse" xlink:href="#linearGradient3824"/><radialGradient id="radialGradient4328" cx="29.345" cy="17.064" r="9.162" fx="29.345" fy="17.064" gradientTransform="matrix(0.787998,3.877637e-16,-3.877637e-16,0.787998,6.221198,3.617627)" gradientUnits="userSpaceOnUse" xlink:href="#linearGradient4338"/><radialGradient id="radialGradient4330" cx="31.113" cy="19.009" r="8.662" fx="31.113" fy="19.009" gradientUnits="userSpaceOnUse" xlink:href="#linearGradient3816"/><linearGradient id="linearGradient4332" x1="30.936" x2="30.936" y1="29.553" y2="35.803" gradientTransform="translate(-13.12500,-7.000000)" gradientUnits="userSpaceOnUse" xlink:href="#linearGradient3824"/><radialGradient id="radialGradient4336" cx="31.113" cy="19.009" r="8.662" fx="31.113" fy="19.009" gradientUnits="userSpaceOnUse" xlink:href="#linearGradient3816"/><radialGradient id="radialGradient4350" cx="16.215" cy="19.836" r="13.565" fx="16.215" fy="19.836" gradientTransform="matrix(1.000000,0.000000,0.000000,0.681917,0.000000,8.233773)" gradientUnits="userSpaceOnUse" xlink:href="#linearGradient4344"/><linearGradient id="linearGradient4372" x1="20.662" x2="22.627" y1="35.818" y2="36.218" gradientTransform="matrix(0.983375,0.181588,-0.181588,0.983375,-7.072120,-9.824920)" gradientUnits="userSpaceOnUse" xlink:href="#linearGradient4356"/><linearGradient id="linearGradient4374" x1="22.687" x2="21.408" y1="36.39" y2="35.74" gradientTransform="matrix(-0.977685,0.210075,0.210075,0.977685,41.80576,-11.11866)" gradientUnits="userSpaceOnUse" xlink:href="#linearGradient4356"/><linearGradient id="linearGradient1369" x1="20.662" x2="22.627" y1="35.818" y2="36.218" gradientTransform="matrix(0.983375,0.181588,-0.181588,0.983375,-7.07212,-9.82492)" gradientUnits="userSpaceOnUse" xlink:href="#linearGradient4356"/><radialGradient id="radialGradient1381" cx="16.215" cy="19.836" r="13.565" fx="16.215" fy="19.836" gradientTransform="matrix(1,0,0,0.681917,0,8.233773)" gradientUnits="userSpaceOnUse" xlink:href="#linearGradient4344"/><radialGradient id="radialGradient1404" cx="31.113" cy="19.009" r="8.662" fx="31.113" fy="19.009" gradientUnits="userSpaceOnUse" xlink:href="#linearGradient3816"/><radialGradient id="radialGradient1410" cx="31.113" cy="19.009" r="8.662" fx="31.113" fy="19.009" gradientUnits="userSpaceOnUse" xlink:href="#linearGradient3816"/><radialGradient id="radialGradient1412" cx="29.345" cy="17.064" r="9.162" fx="29.345" fy="17.064" gradientTransform="matrix(0.787998,3.877637e-16,-3.877637e-16,0.787998,6.221198,3.617627)" gradientUnits="userSpaceOnUse" xlink:href="#linearGradient3800"/><linearGradient id="linearGradient2748" x1="32.648" x2="37.124" y1="30.749" y2="24.842" gradientTransform="matrix(0.724542,0,0,0.724542,15.6303,17.03958)" gradientUnits="userSpaceOnUse" xlink:href="#linearGradient2690"/><linearGradient id="linearGradient2750" x1="36.714" x2="37.124" y1="31.456" y2="24.842" gradientTransform="matrix(0.724542,0,0,0.724542,15.6303,17.03958)" gradientUnits="userSpaceOnUse" xlink:href="#linearGradient2682"/><linearGradient id="linearGradient2760" x1="5.965" x2="52.854" y1="26.048" y2="26.048" gradientUnits="userSpaceOnUse" xlink:href="#linearGradient2797"/><linearGradient id="linearGradient2762" x1="18.936" x2="53.589" y1="23.668" y2="26.649" gradientUnits="userSpaceOnUse" xlink:href="#linearGradient2402"/><linearGradient id="linearGradient2764" x1="46.835" x2="45.38" y1="45.264" y2="50.94" gradientUnits="userSpaceOnUse" xlink:href="#linearGradient2871"/><radialGradient id="radialGradient2766" cx="24.837" cy="36.421" r="15.645" fx="24.837" fy="36.421" gradientTransform="matrix(1,0,0,0.536723,-9.680928e-14,16.87306)" gradientUnits="userSpaceOnUse" xlink:href="#linearGradient8662"/><linearGradient id="linearGradient3023" x1="13.479" x2="15.419" y1="10.612" y2="19.115" gradientTransform="matrix(0.724542,-6.033024e-17,6.033024e-17,0.724542,30.21751,-1.161547)" gradientUnits="userSpaceOnUse" xlink:href="#linearGradient2831"/><linearGradient id="linearGradient3025" x1="37.128" x2="37.065" y1="29.73" y2="26.194" gradientTransform="matrix(-0.724542,6.033024e-17,-6.033024e-17,-0.724542,64.31626,32.25794)" gradientUnits="userSpaceOnUse" xlink:href="#linearGradient2847"/><linearGradient id="linearGradient3027" x1="62.514" x2="15.985" y1="36.061" y2="20.609" gradientUnits="userSpaceOnUse" xlink:href="#linearGradient2380"/><linearGradient id="linearGradient3029" x1="46.835" x2="45.38" y1="45.264" y2="50.94" gradientUnits="userSpaceOnUse" xlink:href="#linearGradient2871"/><linearGradient id="linearGradient3031" x1="5.965" x2="52.854" y1="26.048" y2="26.048" gradientUnits="userSpaceOnUse" xlink:href="#linearGradient2797"/><linearGradient id="linearGradient3034" x1="22.687" x2="21.408" y1="36.39" y2="35.74" gradientTransform="matrix(-1.159064,0.249048,0.249048,1.159064,46.56287,-12.00385)" gradientUnits="userSpaceOnUse" xlink:href="#linearGradient4356"/><linearGradient id="linearGradient3037" x1="20.662" x2="22.627" y1="35.818" y2="36.218" gradientTransform="matrix(1.16581,0.215276,-0.215276,1.16581,-11.38279,-10.47009)" gradientUnits="userSpaceOnUse" xlink:href="#linearGradient4356"/><linearGradient id="linearGradient3046" x1="30.936" x2="30.936" y1="29.553" y2="35.803" gradientTransform="matrix(1.185519,0,0,1.185519,-18.77061,-7.326729)" gradientUnits="userSpaceOnUse" xlink:href="#linearGradient3824"/><radialGradient id="radialGradient3049" cx="28.09" cy="27.203" r="13.565" fx="28.09" fy="27.203" gradientTransform="matrix(1.538287,3.415684e-16,-2.329213e-16,1.048984,-28.67978,-1.469709)" gradientUnits="userSpaceOnUse" xlink:href="#linearGradient4163"/><linearGradient id="linearGradient3053" x1="22.687" x2="21.408" y1="36.39" y2="35.74" gradientTransform="matrix(-1.159064,0.249048,0.249048,1.159064,30.79091,-20.50811)" gradientUnits="userSpaceOnUse" xlink:href="#linearGradient4356"/><linearGradient id="linearGradient3056" x1="30.936" x2="30.936" y1="29.553" y2="35.803" gradientTransform="matrix(1.185519,0,0,1.185519,-33.49225,-15.62536)" gradientUnits="userSpaceOnUse" xlink:href="#linearGradient3824"/><linearGradient id="linearGradient3970" x1="37.128" x2="37.065" y1="29.73" y2="26.194" gradientTransform="matrix(-0.700622,-0.184634,0.184634,-0.700622,29.04453,39.01222)" gradientUnits="userSpaceOnUse" xlink:href="#linearGradient2847"/><linearGradient id="linearGradient4861" x1="32.648" x2="37.124" y1="30.749" y2="24.842" gradientTransform="matrix(0.724542,0,0,0.724542,15.6303,17.03958)" gradientUnits="userSpaceOnUse" xlink:href="#linearGradient2690"/><linearGradient id="linearGradient4863" x1="36.714" x2="37.124" y1="31.456" y2="24.842" gradientTransform="matrix(0.724542,0,0,0.724542,15.6303,17.03958)" gradientUnits="userSpaceOnUse" xlink:href="#linearGradient2682"/><linearGradient id="linearGradient4865" x1="18.936" x2="53.589" y1="23.668" y2="26.649" gradientUnits="userSpaceOnUse" xlink:href="#linearGradient2402"/><linearGradient id="linearGradient4867" x1="46.835" x2="45.38" y1="45.264" y2="50.94" gradientUnits="userSpaceOnUse" xlink:href="#linearGradient2871"/><linearGradient id="linearGradient4869" x1="5.965" x2="52.854" y1="26.048" y2="26.048" gradientUnits="userSpaceOnUse" xlink:href="#linearGradient2797"/><linearGradient id="linearGradient4885" x1="32.648" x2="37.124" y1="30.749" y2="24.842" gradientTransform="matrix(0.724542,-8.044032e-17,8.044032e-17,0.724542,15.6303,17.03958)" gradientUnits="userSpaceOnUse" xlink:href="#linearGradient2690"/><linearGradient id="linearGradient4887" x1="36.714" x2="37.124" y1="31.456" y2="24.842" gradientTransform="matrix(0.724542,-8.044032e-17,8.044032e-17,0.724542,15.6303,17.03958)" gradientUnits="userSpaceOnUse" xlink:href="#linearGradient2682"/><linearGradient id="linearGradient4893" x1="18.936" x2="53.589" y1="23.668" y2="26.649" gradientUnits="userSpaceOnUse" xlink:href="#linearGradient2402"/><linearGradient id="linearGradient4895" x1="46.835" x2="45.38" y1="45.264" y2="50.94" gradientUnits="userSpaceOnUse" xlink:href="#linearGradient2871"/><linearGradient id="linearGradient4897" x1="5.965" x2="52.854" y1="26.048" y2="26.048" gradientUnits="userSpaceOnUse" xlink:href="#linearGradient2797"/><linearGradient id="linearGradient4905" x1="13.479" x2="15.419" y1="10.612" y2="19.115" gradientTransform="matrix(0.700622,0.184634,-0.184634,0.700622,13.59768,-3.280432)" gradientUnits="userSpaceOnUse" xlink:href="#linearGradient2831"/><linearGradient id="linearGradient4907" x1="37.128" x2="37.065" y1="29.73" y2="26.194" gradientTransform="matrix(-0.700622,-0.184634,0.184634,-0.700622,38.05444,37.72509)" gradientUnits="userSpaceOnUse" xlink:href="#linearGradient2847"/><linearGradient id="linearGradient4909" x1="62.817" x2="15.985" y1="35.652" y2="20.609" gradientUnits="userSpaceOnUse" xlink:href="#linearGradient2380"/><linearGradient id="linearGradient1760" x1="37.128" x2="37.065" y1="29.73" y2="26.194" gradientTransform="matrix(-0.634287,-0.259993,0.254099,-0.675701,27.77358,37.51688)" gradientUnits="userSpaceOnUse" xlink:href="#linearGradient2847"/><linearGradient id="linearGradient1762" x1="5.965" x2="52.854" y1="26.048" y2="26.048" gradientUnits="userSpaceOnUse" xlink:href="#linearGradient2797"/><linearGradient id="linearGradient1764" x1="62.817" x2="15.985" y1="35.652" y2="20.609" gradientUnits="userSpaceOnUse" xlink:href="#linearGradient2380"/><linearGradient id="linearGradient1766" x1="46.835" x2="45.38" y1="45.264" y2="50.94" gradientUnits="userSpaceOnUse" xlink:href="#linearGradient2871"/><linearGradient id="linearGradient1768" x1="13.479" x2="15.419" y1="10.612" y2="19.115" gradientTransform="matrix(0.634287,0.259993,-0.254099,0.675701,18.22451,-6.179034)" gradientUnits="userSpaceOnUse" xlink:href="#linearGradient2831"/><linearGradient id="linearGradient1770" x1="37.128" x2="37.065" y1="29.73" y2="26.194" gradientTransform="matrix(-0.634287,-0.259993,0.254099,-0.675701,36.3553,37.22359)" gradientUnits="userSpaceOnUse" xlink:href="#linearGradient2847"/></defs><metadata id="metadata4"/><g id="layer2" display="inline"><path id="path2865" fill="url(#linearGradient1768)" fill-opacity="1" fill-rule="nonzero" stroke="url(#linearGradient1770)" stroke-dasharray="none" stroke-dashoffset="0" stroke-linecap="butt" stroke-linejoin="miter" stroke-miterlimit="4" stroke-opacity="1" stroke-width=".703" marker-end="none" marker-mid="none" marker-start="none" d="M 27.996375,6.1611452 C 27.996375,6.1611452 22.86397,-0.51477307 21.940216,7.2950688 L 16.686409,9.2262855 C 16.686409,9.2262855 20.020982,1.3323323 27.996375,6.1611452 z" color="#000" display="block" overflow="visible" visibility="visible" style="marker:none"/><g id="g2992" display="inline" transform="matrix(0.618,0,0,0.618,28.08586,15.88271)"><path stroke-width="1" style="marker:none" id="path4177" fill="url(#radialGradient4336)" fill-opacity="1" fill-rule="evenodd" stroke="none" stroke-dasharray="none" stroke-dashoffset="0" stroke-linecap="round" stroke-linejoin="round" stroke-miterlimit="4" stroke-opacity="1" marker-end="none" marker-mid="none" marker-start="none" d="M 39.774755 19.008621 A 8.6620579 8.6620579 0 1 1 22.45064,19.008621 A 8.6620579 8.6620579 0 1 1 39.774755 19.008621 z" color="#000" display="inline" opacity="1" overflow="visible" transform="matrix(1.77551,0,0,0.959183,-37.37822,11.77153)" visibility="visible"/><path stroke-width="1" style="marker:none" id="path2329" fill="url(#radialGradient1381)" fill-opacity="1" fill-rule="evenodd" stroke="#404604" stroke-dasharray="none" stroke-dashoffset="0" stroke-linecap="round" stroke-linejoin="round" stroke-miterlimit="4" stroke-opacity="1" marker-end="none" marker-mid="none" marker-start="none" d="M 12.861174,34.636039 L 23.467776,34.636039 C 26.47298,34.636039 29.44826,33.534107 30.538843,30.393398 C 31.574482,27.410922 30.71562,21.73134 23.998106,17.135146 L 11.44696,17.135146 C 4.729446,21.377786 3.889969,27.179977 5.436553,30.570174 C 7.012148,34.023964 9.679193,34.636039 12.861174,34.636039 z" color="#000" display="inline" opacity="1" overflow="visible" visibility="visible"/><path id="path3812" fill="#9db029" fill-opacity="1" fill-rule="evenodd" stroke="none" stroke-dasharray="none" stroke-dashoffset="0" stroke-linecap="round" stroke-linejoin="round" stroke-miterlimit="4" stroke-opacity="1" stroke-width="1" marker-end="none" marker-mid="none" marker-start="none" d="M 17.932367,19.786797 C 17.932367,19.786797 15.781044,21.447132 15.966376,23.44733 C 13.92515,21.646536 13.866503,18.195806 13.866503,18.195806 L 17.932367,19.786797 z" color="#000" display="inline" opacity="1" overflow="visible" visibility="visible" style="marker:none"/><path id="path3838" fill="none" fill-opacity="1" fill-rule="evenodd" stroke="#fff" stroke-dasharray="none" stroke-dashoffset="0" stroke-linecap="round" stroke-linejoin="round" stroke-miterlimit="4" stroke-opacity="1" stroke-width="1" marker-end="none" marker-mid="none" marker-start="none" d="M 12.966639,33.571836 L 23.283309,33.571836 C 25.923032,33.571836 28.53647,32.603917 29.494421,29.845169 C 30.40411,27.225409 29.399699,22.236555 23.499142,18.199332 L 11.974417,18.199332 C 6.07386,21.925999 5.086477,27.022551 6.444971,30.000446 C 7.828949,33.0342 10.171638,33.571836 12.966639,33.571836 z" color="#000" display="inline" opacity=".215" overflow="visible" visibility="visible" style="marker:none"/><path stroke-width="1" style="marker:none" id="path3810" fill="#9db029" fill-opacity="1" fill-rule="evenodd" stroke="none" stroke-dasharray="none" stroke-dashoffset="0" stroke-linecap="round" stroke-linejoin="round" stroke-miterlimit="4" stroke-opacity="1" marker-end="none" marker-mid="none" marker-start="none" d="M 18.910795,19.786797 C 18.910795,19.786797 21.062118,21.447132 20.876786,23.44733 C 22.918012,21.646536 22.976659,18.195806 22.976659,18.195806 L 18.910795,19.786797 z" color="#000" display="inline" opacity="1" overflow="visible" visibility="visible"/><path id="path3814" fill="url(#radialGradient4330)" fill-opacity="1" fill-rule="evenodd" stroke="none" stroke-dasharray="none" stroke-dashoffset="0" stroke-linecap="round" stroke-linejoin="round" stroke-miterlimit="4" stroke-opacity="1" stroke-width="1" marker-end="none" marker-mid="none" marker-start="none" d="M 39.774755 19.008621 A 8.6620579 8.6620579 0 1 1 22.45064,19.008621 A 8.6620579 8.6620579 0 1 1 39.774755 19.008621 z" color="#000" display="inline" opacity="1" overflow="visible" transform="translate(-13.25,-3.5)" visibility="visible" style="marker:none"/><path id="path2327" fill="url(#radialGradient4328)" fill-opacity="1" fill-rule="evenodd" stroke="#6f4709" stroke-dasharray="none" stroke-dashoffset="0" stroke-linecap="round" stroke-linejoin="round" stroke-miterlimit="4" stroke-opacity="1" stroke-width="1" marker-end="none" marker-mid="none" marker-start="none" d="M 39.774755 19.008621 A 8.6620579 8.6620579 0 1 1 22.45064,19.008621 A 8.6620579 8.6620579 0 1 1 39.774755 19.008621 z" color="#000" display="inline" opacity="1" overflow="visible" transform="translate(-13.125,-7)" visibility="visible" style="marker:none"/><path id="path3834" fill="none" fill-opacity="1" fill-rule="evenodd" stroke="#fff" stroke-dasharray="none" stroke-dashoffset="0" stroke-linecap="round" stroke-linejoin="round" stroke-miterlimit="4" stroke-opacity="1" stroke-width="1.14" marker-end="none" marker-mid="none" marker-start="none" d="M 39.774755 19.008621 A 8.6620579 8.6620579 0 1 1 22.45064,19.008621 A 8.6620579 8.6620579 0 1 1 39.774755 19.008621 z" color="#000" display="inline" opacity=".127" overflow="visible" transform="matrix(0.877095,0,0,0.877095,-9.301073,-4.663733)" visibility="visible" style="marker:none"/><path stroke-width="1" style="marker:none" id="path4368" fill="url(#linearGradient1369)" fill-opacity="1" fill-rule="evenodd" stroke="none" stroke-dasharray="none" stroke-dashoffset="0" stroke-linecap="round" stroke-linejoin="round" stroke-miterlimit="4" stroke-opacity="1" marker-end="none" marker-mid="none" marker-start="none" d="M 8.5479535,33.601747 C 7.3003465,33.056778 6.7419595,31.74347 6.7419595,31.74347 C 7.5832405,27.674334 10.461885,24.697254 10.461885,24.697254 C 10.461885,24.697254 8.1825635,31.108768 8.5479535,33.601747 z" color="#000" display="inline" opacity=".228" overflow="visible" visibility="visible"/></g><g id="g1878" fill="url(#linearGradient2386)" fill-opacity="1" stroke="#3465a4" stroke-opacity="1" transform="matrix(-0.242972,-0.481122,-0.457448,0.26407,50.56211,17.72034)"><path stroke-width="1.319" style="marker:none" id="path1880" fill="url(#linearGradient1764)" fill-opacity="1" fill-rule="nonzero" stroke="url(#linearGradient1766)" stroke-dasharray="none" stroke-dashoffset="0" stroke-linecap="butt" stroke-linejoin="miter" stroke-miterlimit="4" stroke-opacity="1" marker-end="none" marker-mid="none" marker-start="none" d="M 44.306783,50.229694 C 62.821497,35.818859 49.664587,13.411704 22.462411,12.49765 L 22.113843,3.1515478 L 7.6245439,20.496754 L 22.714328,33.219189 C 22.714328,33.219189 22.462411,23.337969 22.462411,23.337969 C 41.292171,24.336946 55.444038,37.409698 44.306783,50.229694 z" color="#000" display="block" opacity="1" overflow="visible" visibility="visible"/></g><g id="g2805" fill="none" fill-opacity="1" stroke="#fff" stroke-opacity="1" opacity=".5" transform="matrix(-0.213384,-0.422532,-0.401742,0.231912,48.11093,16.711)"><path id="path2807" fill="none" fill-opacity="1" fill-rule="nonzero" stroke="url(#linearGradient1762)" stroke-dasharray="none" stroke-dashoffset="0" stroke-linecap="butt" stroke-linejoin="miter" stroke-miterlimit="4" stroke-opacity="1" stroke-width="1.502" marker-end="none" marker-mid="none" marker-start="none" d="M 51.389927,46.505946 C 60.510127,31.286196 47.050763,12.432359 19.628482,12.069755 L 19.342824,4.0507204 L 6.3413093,19.379475 L 19.809059,30.764589 C 19.809059,30.764589 19.627294,21.311346 19.627294,21.311346 C 37.872231,21.693318 54.411175,32.236592 51.389927,46.505946 z" color="#000" display="block" opacity="1" overflow="visible" visibility="visible" style="marker:none"/></g><path id="path2811" fill="#fff" fill-opacity="1" fill-rule="nonzero" stroke="none" stroke-dasharray="none" stroke-dashoffset="0" stroke-linecap="round" stroke-linejoin="miter" stroke-miterlimit="4" stroke-opacity="1" stroke-width="1" marker-end="none" marker-mid="none" marker-start="none" d="M 17.987232,6.8078111 C 21.877009,2.433874 25.075493,4.4005667 26.834637,5.3052267 C 29.429245,6.5336726 29.342101,1.7166196 31.493198,2.4696784 C 29.399394,1.0726298 21.782482,-2.5545055 17.987232,6.8078111 z" color="#000" display="inline" opacity=".272" overflow="visible" visibility="visible" style="marker:none"/><path id="path3935" fill="none" fill-opacity="1" fill-rule="evenodd" stroke="#c17d11" stroke-dasharray="none" stroke-dashoffset="0" stroke-linecap="round" stroke-linejoin="round" stroke-miterlimit="4" stroke-opacity="1" stroke-width="1" marker-end="none" marker-mid="none" marker-start="none" d="M 39.774755,19.008621 A 8.6620579,8.6620579 0 0 1 39.294347,21.853239" color="#000" display="inline" overflow="visible" transform="matrix(1.17751,0.137568,-0.137568,1.17751,-17.09913,-14.33775)" visibility="visible" style="marker:none"/><path id="path3966" fill="none" fill-opacity="1" fill-rule="evenodd" stroke="url(#linearGradient1760)" stroke-dasharray="none" stroke-dashoffset="0" stroke-linecap="butt" stroke-linejoin="miter" stroke-miterlimit="4" stroke-opacity="1" stroke-width=".703" marker-end="none" marker-mid="none" marker-start="none" d="M 17.003704,9.4221165 C 17.003704,9.4221165 17.953603,8.8030975 22.119995,7.1861124" color="#000" display="block" overflow="visible" visibility="visible" style="marker:none"/><path id="path4173" fill="url(#linearGradient3056)" fill-opacity="1" fill-rule="evenodd" stroke="none" stroke-dasharray="none" stroke-dashoffset="0" stroke-linecap="round" stroke-linejoin="round" stroke-miterlimit="4" stroke-opacity="1" stroke-width="1" marker-end="none" marker-mid="none" marker-start="none" d="M 8.0030254,24.723352 L 13.032756,24.723352 L 10.098747,21.998914 L 9.4700305,22.837203 L 8.841313,22.208486 L 8.0030254,24.723352 z" color="#000" display="inline" overflow="visible" visibility="visible" style="marker:none"/><path stroke-width="1" style="marker:none" id="path4370" fill="url(#linearGradient3053)" fill-opacity="1" fill-rule="evenodd" stroke="none" stroke-dasharray="none" stroke-dashoffset="0" stroke-linecap="round" stroke-linejoin="round" stroke-miterlimit="4" stroke-opacity="1" marker-end="none" marker-mid="none" marker-start="none" d="M 13.776227,31.491189 C 15.235898,30.802429 15.915354,29.117399 15.915354,29.117399 C 14.778299,24.324366 11.201553,21.005105 11.201553,21.005105 C 11.201553,21.005105 14.123375,28.52438 13.776227,31.491189 z" color="#000" display="inline" opacity=".228" overflow="visible" visibility="visible"/><path id="path4306" fill="url(#radialGradient1404)" fill-opacity="1" fill-rule="evenodd" stroke="none" stroke-dasharray="none" stroke-dashoffset="0" stroke-linecap="round" stroke-linejoin="round" stroke-miterlimit="4" stroke-opacity="1" stroke-width="1" marker-end="none" marker-mid="none" marker-start="none" d="M 39.774755 19.008621 A 8.6620579 8.6620579 0 1 1 22.45064,19.008621 A 8.6620579 8.6620579 0 1 1 39.774755 19.008621 z" color="#000" display="inline" overflow="visible" transform="matrix(2.104901,0,0,1.13713,-47.52326,14.92728)" visibility="visible" style="marker:none"/><path id="path4308" fill="url(#radialGradient3049)" fill-opacity="1" fill-rule="evenodd" stroke="#204a87" stroke-dasharray="none" stroke-dashoffset="0" stroke-linecap="round" stroke-linejoin="round" stroke-miterlimit="4" stroke-opacity="1" stroke-width="1.186" marker-end="none" marker-mid="none" marker-start="none" d="M 12.036493,42.033586 L 24.610821,42.033586 C 28.173548,42.033586 31.700799,40.727225 32.993705,37.003855 C 34.221475,33.468073 33.203278,26.73482 25.239538,21.285945 L 10.359915,21.285945 C 2.396175,26.315675 1.400959,33.194283 3.2344638,37.213426 C 5.1023616,41.30796 8.2641941,42.033586 12.036493,42.033586 z" color="#000" display="inline" overflow="visible" visibility="visible" style="marker:none"/><path id="path4310" fill="url(#linearGradient3046)" fill-opacity="1" fill-rule="evenodd" stroke="none" stroke-dasharray="none" stroke-dashoffset="0" stroke-linecap="round" stroke-linejoin="round" stroke-miterlimit="4" stroke-opacity="1" stroke-width="1" marker-end="none" marker-mid="none" marker-start="none" d="M 12.874782,23.172094 C 16.64708,26.525248 18.323657,38.680432 18.323657,38.680432 C 18.323657,38.680432 20.000233,26.525249 22.934244,22.962523 L 12.874782,23.172094 z" color="#000" display="inline" overflow="visible" visibility="visible" style="marker:none"/><path id="path4312" fill="#729fcf" fill-opacity="1" fill-rule="evenodd" stroke="none" stroke-dasharray="none" stroke-dashoffset="0" stroke-linecap="round" stroke-linejoin="round" stroke-miterlimit="4" stroke-opacity="1" stroke-width="1" marker-end="none" marker-mid="none" marker-start="none" d="M 15.577101,24.429528 C 15.577101,24.429528 13.026667,26.397886 13.246382,28.769159 C 10.826469,26.634284 10.756942,22.543378 10.756942,22.543378 L 15.577101,24.429528 z" color="#000" display="inline" overflow="visible" visibility="visible" style="marker:none"/><path stroke-width="1.186" style="marker:none" id="path4314" fill="none" fill-opacity="1" fill-rule="evenodd" stroke="#fff" stroke-dasharray="none" stroke-dashoffset="0" stroke-linecap="round" stroke-linejoin="round" stroke-miterlimit="4" stroke-opacity="1" marker-end="none" marker-mid="none" marker-start="none" d="M 11.951951,40.79815 L 24.392132,40.771953 C 27.521574,40.771953 30.619854,39.624467 31.755523,36.353919 C 32.833977,33.248144 31.643229,27.333762 24.648006,22.547558 L 10.985226,22.259396 C 3.9900033,26.677431 2.6360659,32.71949 4.2727828,36.538003 C 5.9095008,40.356516 8.2978699,40.771953 11.951951,40.79815 z" color="#000" display="inline" opacity=".215" overflow="visible" visibility="visible"/><path id="path4316" fill="#729fcf" fill-opacity="1" fill-rule="evenodd" stroke="none" stroke-dasharray="none" stroke-dashoffset="0" stroke-linecap="round" stroke-linejoin="round" stroke-miterlimit="4" stroke-opacity="1" stroke-width="1" marker-end="none" marker-mid="none" marker-start="none" d="M 20.838522,24.429528 C 20.838522,24.429528 23.388957,26.397886 23.169242,28.769159 C 25.589154,26.634284 25.658681,22.543378 25.658681,22.543378 L 20.838522,24.429528 z" color="#000" display="inline" overflow="visible" visibility="visible" style="marker:none"/><path id="path4318" fill="url(#radialGradient1410)" fill-opacity="1" fill-rule="evenodd" stroke="none" stroke-dasharray="none" stroke-dashoffset="0" stroke-linecap="round" stroke-linejoin="round" stroke-miterlimit="4" stroke-opacity="1" stroke-width="1" marker-end="none" marker-mid="none" marker-start="none" d="M 39.774755 19.008621 A 8.6620579 8.6620579 0 1 1 22.45064,19.008621 A 8.6620579 8.6620579 0 1 1 39.774755 19.008621 z" color="#000" display="inline" overflow="visible" transform="matrix(1.185519,0,0,1.185519,-18.9188,-3.177413)" visibility="visible" style="marker:none"/><path id="path4320" fill="url(#radialGradient1412)" fill-opacity="1" fill-rule="evenodd" stroke="#c17d11" stroke-dasharray="none" stroke-dashoffset="0" stroke-linecap="round" stroke-linejoin="round" stroke-miterlimit="4" stroke-opacity="1" stroke-width="1" marker-end="none" marker-mid="none" marker-start="none" d="M 39.774755 19.008621 A 8.6620579 8.6620579 0 1 1 22.45064,19.008621 A 8.6620579 8.6620579 0 1 1 39.774755 19.008621 z" color="#000" display="inline" overflow="visible" transform="matrix(1.185519,0,0,1.185519,-18.77061,-7.326729)" visibility="visible" style="marker:none"/><path stroke-width="1.14" style="marker:none" id="path4322" fill="none" fill-opacity="1" fill-rule="evenodd" stroke="#fff" stroke-dasharray="none" stroke-dashoffset="0" stroke-linecap="round" stroke-linejoin="round" stroke-miterlimit="4" stroke-opacity="1" marker-end="none" marker-mid="none" marker-start="none" d="M 39.774755 19.008621 A 8.6620579 8.6620579 0 1 1 22.45064,19.008621 A 8.6620579 8.6620579 0 1 1 39.774755 19.008621 z" color="#000" display="inline" opacity=".196" overflow="visible" transform="matrix(1.039813,0,0,1.039813,-14.23727,-4.55704)" visibility="visible"/><path id="path4354" fill="url(#linearGradient3037)" fill-opacity="1" fill-rule="evenodd" stroke="none" stroke-dasharray="none" stroke-dashoffset="0" stroke-linecap="round" stroke-linejoin="round" stroke-miterlimit="4" stroke-opacity="1" stroke-width="1" marker-end="none" marker-mid="none" marker-start="none" d="M 7.1351022,41.013042 C 5.6560404,40.366971 4.994062,38.810019 4.994062,38.810019 C 5.9914166,33.985981 9.4041038,30.456596 9.4041038,30.456596 C 9.4041038,30.456596 6.7019254,38.057568 7.1351022,41.013042 z" color="#000" display="inline" opacity=".228" overflow="visible" visibility="visible" style="marker:none"/><path stroke-width="1" style="marker:none" id="path4364" fill="url(#linearGradient3034)" fill-opacity="1" fill-rule="evenodd" stroke="none" stroke-dasharray="none" stroke-dashoffset="0" stroke-linecap="round" stroke-linejoin="round" stroke-miterlimit="4" stroke-opacity="1" marker-end="none" marker-mid="none" marker-start="none" d="M 29.548177,39.99545 C 31.007849,39.30669 31.687304,37.621661 31.687304,37.621661 C 30.550249,32.828628 26.973504,29.509366 26.973504,29.509366 C 26.973504,29.509366 29.895326,37.028642 29.548177,39.99545 z" color="#000" display="inline" opacity=".228" overflow="visible" visibility="visible"/><path id="path8660" fill="url(#radialGradient2766)" fill-opacity="1" fill-rule="evenodd" stroke="none" stroke-dasharray="none" stroke-dashoffset="0" stroke-linecap="butt" stroke-linejoin="miter" stroke-miterlimit="10" stroke-opacity="1" stroke-width="1" marker-end="none" marker-mid="none" marker-start="none" d="M 40.481863 36.421127 A 15.644737 8.3968935 0 1 1 9.1923885,36.421127 A 15.644737 8.3968935 0 1 1 40.481863 36.421127 z" color="#000" display="inline" opacity=".383" overflow="visible" transform="matrix(-1.079376,0,0,-0.725449,59.97855,61.58449)" visibility="visible" style="marker:none"/><g id="g4853"><path id="path2839" fill="url(#linearGradient4861)" fill-opacity="1" fill-rule="nonzero" stroke="url(#linearGradient4863)" stroke-dasharray="none" stroke-dashoffset="0" stroke-linecap="butt" stroke-linejoin="miter" stroke-miterlimit="4" stroke-opacity="1" stroke-width=".725" marker-end="none" marker-mid="none" marker-start="none" d="M 36.189188,41.26646 C 36.189188,41.26646 42.664782,41.719299 40.672293,34.111607 L 46.30625,34.111607 C 46.30625,35.200306 45.879938,42.715545 36.189188,41.26646 z" color="#000" display="block" overflow="visible" visibility="visible" style="marker:none"/><g id="g2779" fill="url(#linearGradient2408)" fill-opacity="1" fill-rule="nonzero" stroke="url(#linearGradient1501)" stroke-dasharray="none" stroke-dashoffset="0" stroke-linecap="butt" stroke-linejoin="miter" stroke-miterlimit="4" stroke-opacity="1" stroke-width="1.319" marker-end="none" marker-mid="none" marker-start="none" color="#000" display="block" transform="matrix(0.419547,0.354467,0.354467,-0.419547,9.891194,39.1642)" visibility="visible" style="marker:none"><path stroke-width="1.319" style="marker:none" id="path2781" fill="url(#linearGradient4865)" fill-opacity="1" fill-rule="nonzero" stroke="url(#linearGradient4867)" stroke-dasharray="none" stroke-dashoffset="0" stroke-linecap="butt" stroke-linejoin="miter" stroke-miterlimit="4" stroke-opacity="1" marker-end="none" marker-mid="none" marker-start="none" d="M 44.306783,50.229694 C 62.821497,35.818859 49.664587,13.411704 22.462411,12.49765 L 22.399432,3.0690297 L 7.793943,20.424005 L 22.462411,33.006349 C 22.462411,33.006349 22.462411,23.337969 22.462411,23.337969 C 41.292171,24.336946 55.444038,37.409698 44.306783,50.229694 z" color="#000" display="block" opacity="1" overflow="visible" visibility="visible"/></g><path stroke-width="1" style="marker:none" id="path2791" fill="#fff" fill-opacity="1" fill-rule="nonzero" stroke="none" stroke-dasharray="none" stroke-dashoffset="0" stroke-linecap="round" stroke-linejoin="miter" stroke-miterlimit="4" stroke-opacity="1" marker-end="none" marker-mid="none" marker-start="none" d="M 20.747385,44.708035 L 20.79267,33.930472 L 30.166432,33.658769 L 26.98651,37.411039 L 29.788477,39.130522 C 27.61485,40.760742 26.492137,40.885455 25.767595,42.742094 L 23.726663,41.213113 L 20.747385,44.708035 z" color="#000" display="inline" opacity=".272" overflow="visible" visibility="visible"/><g id="g2793" fill="none" fill-opacity="1" stroke="#fff" stroke-opacity="1" opacity=".5" transform="matrix(0.368456,0.311301,0.311301,-0.368456,12.75157,39.16796)"><path id="path2795" fill="none" fill-opacity="1" fill-rule="nonzero" stroke="url(#linearGradient4869)" stroke-dasharray="none" stroke-dashoffset="0" stroke-linecap="butt" stroke-linejoin="miter" stroke-miterlimit="4" stroke-opacity="1" stroke-width="1.502" marker-end="none" marker-mid="none" marker-start="none" d="M 51.090265,45.943705 C 60.210465,30.723955 46.631614,12.20113 19.485058,11.948579 L 19.513464,3.7032834 L 6.5341979,19.296639 L 19.367661,30.26876 C 19.367661,30.26876 19.423281,21.261882 19.423281,21.261882 C 36.951096,21.037973 54.618466,31.365254 51.090265,45.943705 z" color="#000" display="block" opacity="1" overflow="visible" visibility="visible" style="marker:none"/></g></g></g></svg>