<svg xmlns="http://www.w3.org/2000/svg" xmlns:cc="http://web.resource.org/cc/" xmlns:svg="http://www.w3.org/2000/svg" xmlns:xlink="http://www.w3.org/1999/xlink" id="svg1288" width="48" height="48"><defs id="defs3"><linearGradient id="linearGradient2563"><stop id="stop2565" offset="0" stop-color="#e2e2e2" stop-opacity="1"/><stop id="stop2567" offset="1" stop-color="#9f9f9f" stop-opacity="1"/></linearGradient><linearGradient id="linearGradient2551"><stop id="stop2553" offset="0" stop-color="#000" stop-opacity="1"/><stop id="stop2555" offset="1" stop-color="#000" stop-opacity="0"/></linearGradient><linearGradient id="linearGradient2526"><stop id="stop2528" offset="0" stop-color="#e7ebeb" stop-opacity="1"/><stop id="stop2534" offset=".5" stop-color="#e6ebeb" stop-opacity="1"/><stop id="stop2530" offset="1" stop-color="#fff" stop-opacity="1"/></linearGradient><linearGradient id="linearGradient2532" x1="13.357" x2="42.214" y1="14.429" y2="28.429" gradientTransform="translate(0.000000,0.785718)" gradientUnits="userSpaceOnUse" xlink:href="#linearGradient2526"/><radialGradient id="radialGradient2557" cx="26" cy="29" r="18.429" fx="26" fy="29" gradientTransform="matrix(1,0,0,0.751938,0,7.193799)" gradientUnits="userSpaceOnUse" xlink:href="#linearGradient2551"/><linearGradient id="linearGradient2569" x1="6.786" x2="42.214" y1="30.786" y2="30.786" gradientTransform="matrix(1.1363499,0,0,1.1363499,-4.4587946,-2.3838468)" gradientUnits="userSpaceOnUse" xlink:href="#linearGradient2563"/><linearGradient id="linearGradient2582" x1="13.357" x2="42.214" y1="14.429" y2="28.429" gradientTransform="translate(0,0.785718)" gradientUnits="userSpaceOnUse" xlink:href="#linearGradient2526"/><linearGradient id="linearGradient2839" x1="12.911" x2="13.597" y1="1.563" y2="5.635" gradientUnits="userSpaceOnUse" xlink:href="#linearGradient2833"/><linearGradient id="linearGradient5351" x1="17.948" x2="17.948" y1="17.797" y2="4.362" gradientTransform="matrix(0.7229796,0,6.7794804e-2,0.8114825,58.235106,24.134876)" gradientUnits="userSpaceOnUse" xlink:href="#linearGradient5345"/><radialGradient id="radialGradient3271" cx="38.659" cy="9.341" r="8.342" fx="38.659" fy="9.341" gradientUnits="userSpaceOnUse" xlink:href="#linearGradient2378"/><linearGradient id="linearGradient259"><stop id="stop260" offset="0" stop-color="#fafafa" stop-opacity="1"/><stop id="stop261" offset="1" stop-color="#bbb" stop-opacity="1"/></linearGradient><linearGradient id="linearGradient269"><stop id="stop270" offset="0" stop-color="#a3a3a3" stop-opacity="1"/><stop id="stop271" offset="1" stop-color="#8a8a8a" stop-opacity="1"/></linearGradient><linearGradient id="linearGradient15662"><stop id="stop15664" offset="0" stop-color="#fff" stop-opacity="1"/><stop id="stop15666" offset="1" stop-color="#f8f8f8" stop-opacity="1"/></linearGradient><linearGradient id="linearGradient2378"><stop id="stop2380" offset="0" stop-color="#fff" stop-opacity="1"/><stop id="stop4146" offset=".25" stop-color="#fefede" stop-opacity=".918"/><stop id="stop2386" offset=".5" stop-color="#f5f328" stop-opacity="1"/><stop id="stop2382" offset="1" stop-color="#f5f32d" stop-opacity=".122"/></linearGradient><linearGradient id="linearGradient5345"><stop id="stop5347" offset="0" stop-color="#ef2929" stop-opacity="1"/><stop id="stop1936" offset=".425" stop-color="#c00" stop-opacity="1"/><stop id="stop7129" offset=".904" stop-color="#c00" stop-opacity="1"/><stop id="stop5349" offset="1" stop-color="#ef2929" stop-opacity="1"/></linearGradient><linearGradient id="linearGradient3702"><stop id="stop3704" offset="0" stop-color="#000" stop-opacity="0"/><stop id="stop3710" offset=".5" stop-color="#000" stop-opacity="1"/><stop id="stop3706" offset="1" stop-color="#000" stop-opacity="0"/></linearGradient><linearGradient id="linearGradient2833"><stop id="stop2835" offset="0" stop-color="#fff" stop-opacity="1"/><stop id="stop2837" offset="1" stop-color="#fff" stop-opacity=".563"/></linearGradient><linearGradient id="linearGradient2463" x1="18.432" x2="48.287" y1="23.975" y2="39.115" gradientTransform="translate(-1.7733934,0)" gradientUnits="userSpaceOnUse" xlink:href="#linearGradient2551"/></defs><metadata id="metadata4"/><g id="layer1"><path id="path2549" fill="url(#radialGradient2557)" fill-opacity="1" fill-rule="evenodd" stroke="none" stroke-dasharray="none" stroke-dashoffset="0" stroke-linecap="butt" stroke-linejoin="miter" stroke-miterlimit="4" stroke-opacity="1" stroke-width="1" marker-end="none" marker-mid="none" marker-start="none" d="M 44.428572 29 A 18.428572 13.857142 0 1 1 7.5714283,29 A 18.428572 13.857142 0 1 1 44.428572 29 z" color="#000" display="inline" opacity="1" overflow="visible" transform="matrix(1.2409031,0,0,0.6091778,-8.4921082,20.290438)" visibility="visible" style="marker:none"/><path id="path1316" fill="#a7a7a7" fill-opacity="1" fill-rule="evenodd" stroke="#656565" stroke-linecap="butt" stroke-linejoin="miter" stroke-opacity="1" stroke-width="1.136" d="M 1.0606192,40.391604 C 0.81711556,41.527954 1.7505459,42.704887 3.292735,42.664304 L 44.404249,42.664304 C 45.86527,42.62372 46.352278,41.28445 46.027607,40.188684 L 37.099143,7.4374583 L 7.5540473,7.4374583 L 1.0606192,40.391604 z"/><path id="path2575" fill="#000" fill-opacity="1" fill-rule="evenodd" stroke="#000" stroke-dasharray="none" stroke-dashoffset="0" stroke-linecap="butt" stroke-linejoin="miter" stroke-miterlimit="4" stroke-opacity="1" stroke-width="1.136" marker-end="none" marker-mid="none" marker-start="none" d="M 5.9530156,31.730217 L 40.307816,31.730217 C 41.281897,31.730217 42.066086,32.494169 42.066086,33.443113 L 43.574236,38.898655 C 43.574236,39.847599 42.790048,40.611551 41.815966,40.611551 L 4.9475816,40.611551 C 3.9734996,40.611551 3.1893107,39.847599 3.1893107,38.898655 L 4.1947446,33.443113 C 4.1947446,32.494169 4.9789335,31.730217 5.9530156,31.730217 z" color="#000" display="inline" font-family="Bitstream Vera Sans" opacity=".109" overflow="visible" visibility="visible" style="marker:none"/><path id="path2520" fill="none" fill-opacity="1" fill-rule="evenodd" stroke="#fff" stroke-linecap="butt" stroke-linejoin="miter" stroke-opacity=".345" stroke-width="1.136" d="M 2.4136717,39.683656 C 2.1865593,40.743513 1.9606689,41.4787 2.9533458,41.4787 L 44.219523,41.4787 C 45.260484,41.4787 45.062408,40.638153 44.759591,39.616148 L 36.188635,8.623114 L 8.6323376,8.623114 L 2.4136717,39.683656 z"/><path id="path2518" fill="#c5c5c5" fill-opacity="1" fill-rule="evenodd" stroke="#696969" stroke-dasharray="none" stroke-dashoffset="0" stroke-linecap="butt" stroke-linejoin="miter" stroke-miterlimit="4" stroke-opacity="1" stroke-width="1.136" marker-end="none" marker-mid="none" marker-start="none" d="M 6.4976655,30.732634 L 39.77888,30.732634 C 40.722522,30.732634 41.482205,31.472712 41.482205,32.392001 L 42.943226,37.677059 C 42.943226,38.596347 42.183543,39.336426 41.239901,39.336426 L 5.5236513,39.336426 C 4.5800093,39.336426 3.8203262,38.596347 3.8203262,37.677059 L 4.7943404,32.392001 C 4.7943404,31.472712 5.5540235,30.732634 6.4976655,30.732634 z" color="#000" display="inline" font-family="Bitstream Vera Sans" opacity="1" overflow="visible" visibility="visible" style="marker:none"/><path stroke-width="1.136" style="marker:none" id="rect2225" fill="url(#linearGradient2569)" fill-opacity="1" fill-rule="evenodd" stroke="#696969" stroke-dashoffset="0" stroke-linecap="butt" stroke-linejoin="miter" stroke-miterlimit="4" stroke-opacity="1" marker-end="none" marker-mid="none" marker-start="none" d="M 6.4976655,28.297598 L 39.77888,28.297598 C 40.722522,28.297598 41.482205,29.037677 41.482205,29.956966 L 42.943226,35.242023 C 42.943226,36.161312 42.183543,36.901391 41.239901,36.901391 L 5.5236513,36.901391 C 4.5800093,36.901391 3.8203262,36.161312 3.8203262,35.242023 L 4.7943404,29.956966 C 4.7943404,29.037677 5.5540235,28.297598 6.4976655,28.297598 z" color="#000" display="inline" overflow="visible" visibility="visible"/><g id="g2578" transform="matrix(1.0710654,0,0,1.0710654,-4.7117676,-1.1677911)"><path id="path2524" fill="url(#linearGradient2582)" fill-opacity="1" fill-rule="evenodd" stroke="#696969" stroke-linecap="butt" stroke-linejoin="miter" stroke-opacity="1" stroke-width="1.061" d="M 10.891973,11.500004 L 6.5714281,33.21429 C 6.5714281,33.21429 32.857143,33.214291 32.857143,33.214291 C 45.441975,33.214291 48.085306,29.21429 48.085306,29.21429 C 48.085306,29.21429 44.728164,28.035719 43.299593,23.071433 C 43.299593,23.071433 40.23864,11.500004 40.23864,11.500004 L 10.891973,11.500004 z"/><path id="path2571" fill="none" fill-opacity="1" fill-rule="evenodd" stroke="#fff" stroke-linecap="butt" stroke-linejoin="miter" stroke-opacity="1" stroke-width="1.061" d="M 11.803734,12.474609 L 7.8122567,32.239668 C 7.8122567,32.239668 24.956518,32.239669 32.238382,32.239669 C 43.465021,32.239669 46.348811,29.388804 46.348811,29.388804 C 46.348811,29.388804 43.355751,27.525962 42.055419,23.007305 C 42.055419,23.007305 39.316856,12.546038 39.316856,12.546038 L 11.803734,12.474609 z"/></g><text id="text2185" x="13.224" y="32.575" fill="url(#linearGradient2463)" fill-opacity="1" stroke="none" stroke-linecap="butt" stroke-linejoin="miter" stroke-opacity="1" stroke-width="1" font-family="ae_Ouhod" font-size="18.693" font-stretch="normal" font-style="normal" font-variant="normal" font-weight="bold" text-anchor="start" transform="scale(1.1277813,0.8866967)" writing-mode="lr-tb" xml:space="preserve" style="text-align:start;line-height:125%"><tspan font-stretch="normal" style="text-align:start;line-height:125%" id="tspan2187" x="13.224" y="32.575" fill="url(#linearGradient2463)" fill-opacity="1" font-family="ae_Ouhod" font-size="18.693" font-style="normal" font-variant="normal" font-weight="bold" text-anchor="start" writing-mode="lr-tb">2</tspan></text><g id="g2425" transform="matrix(1,0,0.10473,1,5.5833136,33.0745)"><g id="layer5" display="inline" transform="translate(-43.090055,-48.718143)"><path id="path7273" fill="#2e3436" fill-opacity="1" fill-rule="evenodd" stroke="none" stroke-linecap="butt" stroke-linejoin="round" stroke-opacity="1" stroke-width="1" d="M 64.518598,26.593902 L 74.988633,26.593902 L 76.408386,43.58789 L 71.695437,38.156472 L 67.840476,43.646316 L 66.480643,27.369522 C 66.444195,26.933265 65.230825,26.593902 64.518598,26.593902 z" display="inline" opacity=".15"/><path id="path4386" fill="url(#linearGradient5351)" fill-opacity="1" fill-rule="evenodd" stroke="#a40000" stroke-linecap="butt" stroke-linejoin="round" stroke-opacity="1" stroke-width=".794" d="M 68.613944,26.307707 L 74.507478,26.199442 C 75.72795,26.199442 76.154986,26.61118 76.254207,27.798835 L 77.540338,43.193431 L 72.82739,37.762012 L 68.97243,43.251856 L 67.716795,27.786545 C 67.609327,26.500204 68.676577,26.415973 68.613944,26.307707 z"/><path id="path1934" fill="none" fill-opacity="1" fill-rule="evenodd" stroke="url(#linearGradient2839)" stroke-linecap="butt" stroke-linejoin="miter" stroke-opacity="1" stroke-width="1" d="M 13.09375,3.40625 C 13.238509,3.7345631 13.40625,4.0663658 13.40625,4.46875 L 13.375,21 L 17.34375,16.1875 C 17.514359,15.984425 17.76602,15.867166 18.03125,15.867166 C 18.29648,15.867166 18.548141,15.984425 18.71875,16.1875 L 22.59375,20.9375 L 22.59375,4.46875 C 22.59375,3.8373627 22.497367,3.6517523 22.4375,3.59375 C 22.377633,3.5357477 22.127066,3.40625 21.4375,3.40625 L 13.09375,3.40625 z" display="inline" opacity=".6" transform="matrix(0.7766059,0,6.7794802e-2,0.8114825,57.700861,24.170736)"/></g></g><path stroke-width="1.136" style="marker:none" id="rect2522" fill="#9b9b9b" fill-opacity="1" fill-rule="evenodd" stroke="#696969" stroke-dashoffset="0" stroke-linecap="butt" stroke-linejoin="miter" stroke-miterlimit="4" stroke-opacity="1" marker-end="none" marker-mid="none" marker-start="none" d="M 8.3997984,5.1647579 L 37.011742,5.1647579 C 38.003908,5.1647579 38.802657,5.9247154 38.802657,6.8686985 L 39.208496,9.3049023 C 39.208496,10.248885 38.409748,11.008843 37.417581,11.008843 L 7.993959,11.008843 C 7.0017926,11.008843 6.2030447,10.248885 6.2030447,9.3049023 L 6.608884,6.8686985 C 6.608884,5.9247154 7.407632,5.1647579 8.3997984,5.1647579 z" color="#000" display="inline" overflow="visible" visibility="visible"/><path id="path2559" fill="#fefefe" fill-opacity="1" fill-rule="evenodd" stroke="none" stroke-dasharray="none" stroke-dashoffset="0" stroke-linecap="butt" stroke-linejoin="miter" stroke-miterlimit="4" stroke-opacity="1" stroke-width="1" marker-end="none" marker-mid="none" marker-start="none" d="M 12.857143 9.9285717 A 1.3571428 1.3571428 0 1 1 10.142857,9.9285717 A 1.3571428 1.3571428 0 1 1 12.857143 9.9285717 z" color="#000" display="inline" opacity=".526" overflow="visible" transform="matrix(0.7775031,0,0,0.7775031,-0.4132141,-0.6878686)" visibility="visible" style="marker:none"/><path id="path2561" fill="none" fill-opacity=".75" fill-rule="evenodd" stroke="#fff" stroke-linecap="round" stroke-linejoin="miter" stroke-opacity="1" stroke-width="1.136" d="M 10.36154,6.4970649 L 36.871737,6.4970649" opacity=".303"/></g></svg>