<svg xmlns="http://www.w3.org/2000/svg" xmlns:cc="http://web.resource.org/cc/" xmlns:svg="http://www.w3.org/2000/svg" xmlns:xlink="http://www.w3.org/1999/xlink" id="svg249" width="48" height="48"><defs id="defs3"><linearGradient id="linearGradient2843"><stop id="stop2845" offset="0" stop-color="#eeeeec" stop-opacity="1"/><stop id="stop2847" offset="1" stop-color="#fff" stop-opacity="1"/></linearGradient><linearGradient id="linearGradient23434"><stop id="stop23436" offset="0" stop-color="#2e3436"/><stop id="stop23438" offset="1" stop-color="#555753"/></linearGradient><linearGradient id="linearGradient19914"><stop id="stop19916" offset="0" stop-color="#000" stop-opacity="1"/><stop id="stop19918" offset="1" stop-color="#000" stop-opacity="0"/></linearGradient><linearGradient id="linearGradient19900"><stop id="stop19902" offset="0" stop-color="#888a85"/><stop id="stop19904" offset="1" stop-color="#d3d7cf"/></linearGradient><linearGradient id="linearGradient11102"><stop id="stop11104" offset="0" stop-color="#fff" stop-opacity="1"/><stop id="stop11106" offset="1" stop-color="#fff" stop-opacity="0"/></linearGradient><linearGradient id="linearGradient4952"><stop id="stop4954" offset="0" stop-color="#fff" stop-opacity="1"/><stop id="stop4956" offset="1" stop-color="#fff" stop-opacity="0"/></linearGradient><linearGradient id="linearGradient4931"><stop id="stop4933" offset="0" stop-color="#babdb6" stop-opacity="1"/><stop id="stop4935" offset="1" stop-color="#888a85"/></linearGradient><linearGradient id="linearGradient4919"><stop id="stop4921" offset="0" stop-color="#429eff" stop-opacity="1"/><stop id="stop4923" offset="1" stop-color="#0044a7" stop-opacity="1"/></linearGradient><linearGradient id="linearGradient2980"><stop id="stop2982" offset="0" stop-color="#000" stop-opacity="1"/><stop id="stop2984" offset="1" stop-color="#000" stop-opacity="0"/></linearGradient><linearGradient id="linearGradient2609"><stop id="stop2611" offset="0" stop-color="#fff" stop-opacity="1"/><stop id="stop2613" offset="1" stop-color="#eeeeec"/></linearGradient><linearGradient id="linearGradient2617"><stop id="stop2619" offset="0" stop-color="#fbfbfa" stop-opacity="1"/><stop id="stop2621" offset="1" stop-color="#d3d7cf"/></linearGradient><linearGradient id="linearGradient2690"><stop id="stop2692" offset="0" stop-color="#2e3436"/><stop id="stop2694" offset="1" stop-color="#555753"/></linearGradient><linearGradient id="linearGradient2698"><stop id="stop2700" offset="0" stop-color="#555753"/><stop id="stop2706" offset=".702" stop-color="#a3a5a2" stop-opacity="1"/><stop id="stop2702" offset="1" stop-color="#888a85"/></linearGradient><radialGradient id="radialGradient1409" cx="45.095" cy="-2.694" r="10.498" fx="45.095" fy="-2.694" gradientTransform="matrix(-3.294293e-16,1.143443,-1.247217,-1.248581e-6,41.735,-54.25682)" gradientUnits="userSpaceOnUse" xlink:href="#linearGradient2609"/><radialGradient id="radialGradient1411" cx="59.787" cy="10.902" r="10.556" fx="59.787" fy="10.902" gradientTransform="matrix(4.928248e-11,-1.686609,1.66336,-1.770202e-15,41.65431,111.7396)" gradientUnits="userSpaceOnUse" xlink:href="#linearGradient2617"/><linearGradient id="linearGradient1421" x1="81.332" x2="82.92" y1="55.107" y2="53.511" gradientUnits="userSpaceOnUse" xlink:href="#linearGradient2698"/><linearGradient id="linearGradient1423" x1="81.096" x2="83.629" y1="57.148" y2="54.615" gradientUnits="userSpaceOnUse" xlink:href="#linearGradient2690"/><radialGradient id="radialGradient4925" cx="17.062" cy="28.851" r="13.5" fx="17.062" fy="28.851" gradientTransform="matrix(1.459545,-9.027299e-15,-5.118666e-17,1.345339,-7.403138,-10.82184)" gradientUnits="userSpaceOnUse" xlink:href="#linearGradient4919"/><linearGradient id="linearGradient4937" x1="54.113" x2="50.08" y1="12.847" y2="-3.881" gradientUnits="userSpaceOnUse" xlink:href="#linearGradient4931"/><radialGradient id="radialGradient4960" cx="16.83" cy="24.744" r="16.925" fx="16.83" fy="24.744" gradientTransform="matrix(2.231289,-0.597872,0.530253,1.979013,-30.74857,-16.49764)" gradientUnits="userSpaceOnUse" xlink:href="#linearGradient4952"/><radialGradient id="radialGradient11108" cx="8.04" cy="9.528" r="9.813" fx="8.04" fy="9.528" gradientTransform="matrix(0.946826,-1.897043e-16,1.897043e-16,0.946826,0.469351,0.499261)" gradientUnits="userSpaceOnUse" xlink:href="#linearGradient11102"/><linearGradient id="linearGradient19906" x1="40.25" x2="43.063" y1="41" y2="38.435" gradientTransform="translate(-1,0)" gradientUnits="userSpaceOnUse" xlink:href="#linearGradient19900"/><linearGradient id="linearGradient19920" x1="33.985" x2="37.211" y1="32.046" y2="35.272" gradientTransform="translate(-1,0)" gradientUnits="userSpaceOnUse" xlink:href="#linearGradient19914"/><radialGradient id="radialGradient23426" cx="28.284" cy="30.146" r="13.258" fx="28.284" fy="30.146" gradientTransform="matrix(1,0,0,0.34,1.362626e-15,19.89607)" gradientUnits="userSpaceOnUse" xlink:href="#linearGradient2980"/><radialGradient id="radialGradient23432" cx="28.284" cy="30.146" r="13.258" fx="28.284" fy="30.146" gradientTransform="matrix(1,-4.196543e-16,-3.619011e-17,0.34,1.860387e-15,19.89607)" gradientUnits="userSpaceOnUse" xlink:href="#linearGradient2980"/><linearGradient id="linearGradient23440" x1="55.878" x2="52.5" y1="12.472" y2="-4.621" gradientUnits="userSpaceOnUse" xlink:href="#linearGradient23434"/><linearGradient id="linearGradient2849" x1="17.25" x2="21" y1="12.563" y2="28.438" gradientUnits="userSpaceOnUse" xlink:href="#linearGradient2843"/></defs><metadata id="metadata4"/><g id="layer5" display="inline"><path id="path1425" fill="url(#radialGradient4925)" fill-opacity="1" fill-rule="nonzero" stroke="none" stroke-dasharray="none" stroke-dashoffset="0" stroke-linecap="round" stroke-linejoin="round" stroke-miterlimit="4" stroke-opacity="1" stroke-width="2" marker-end="none" marker-mid="none" marker-start="none" d="M 31 18.25 A 13.5 13.75 0 1 1 4,18.25 A 13.5 13.75 0 1 1 31 18.25 z" color="#000" display="inline" opacity=".6" overflow="visible" transform="matrix(1.185185,0,0,1.163637,0.259261,-1.236368)" visibility="visible" style="marker:none"/><path id="path4939" fill="url(#radialGradient4960)" fill-opacity="1" fill-rule="nonzero" stroke="none" stroke-dasharray="none" stroke-dashoffset="0" stroke-linecap="round" stroke-linejoin="round" stroke-miterlimit="4" stroke-opacity="1" stroke-width="2" marker-end="none" marker-mid="none" marker-start="none" d="M 20.430801,3.5 C 11.914639,3.824042 5.1019281,10.849356 5.1019281,19.444373 C 5.1019281,21.861291 6.5050447,24.166163 7.5932363,26.15625 C 7.1211653,20.728065 9.4598537,19.543069 11.012791,20.025177 C 15.724296,21.487861 23.900134,22.817382 32.299922,18.431707 C 35.244588,16.894246 36.961785,20.661175 36.844126,17.275469 C 35.904686,9.4808807 29.114153,3.5000001 21.046301,3.5 C 20.840021,3.5 20.635189,3.492223 20.430801,3.5 z" color="#000" display="inline" opacity=".5" overflow="visible" visibility="visible" style="marker:none"/><path id="path2607" fill="none" fill-opacity="1" fill-rule="nonzero" stroke="url(#radialGradient1411)" stroke-dasharray="none" stroke-dashoffset="0" stroke-linecap="round" stroke-linejoin="miter" stroke-miterlimit="4" stroke-opacity="1" stroke-width="1.875" marker-end="none" marker-mid="none" marker-start="none" d="M 62.5 4.5 A 10 10 0 1 1 42.5,4.5 A 10 10 0 1 1 62.5 4.5 z" color="#000" display="inline" overflow="visible" transform="matrix(1.6,0,0,1.6,-63,12.8)" visibility="visible" style="marker:none"/><path id="path23418" fill="url(#radialGradient23432)" fill-opacity="1" fill-rule="nonzero" stroke="none" stroke-dasharray="none" stroke-dashoffset="0" stroke-linecap="round" stroke-linejoin="round" stroke-miterlimit="4" stroke-opacity="1" stroke-width="1" marker-end="none" marker-mid="none" marker-start="none" d="M 41.542523 30.145554 A 13.258252 4.5078058 0 1 1 15.026019,30.145554 A 13.258252 4.5078058 0 1 1 41.542523 30.145554 z" color="#000" display="inline" opacity=".047" overflow="visible" transform="matrix(0.98756,0.175983,-0.12162,0.682489,11.58742,17.92885)" visibility="visible" style="marker:none"/><g id="g2708" transform="matrix(1.544052,0,0,1.536016,-85.57756,-44.44515)"><path id="path2682" fill="url(#linearGradient1421)" fill-opacity="1" fill-rule="nonzero" stroke="url(#linearGradient1423)" stroke-dashoffset="0" stroke-linecap="round" stroke-linejoin="round" stroke-miterlimit="4" stroke-opacity="1" stroke-width=".677" marker-end="none" marker-mid="none" marker-start="none" d="M 76.796351,49.768459 L 77.443998,53.023634 L 82.625171,58.237128 C 82.817674,58.430832 83.596641,58.55743 84.56811,57.580878 C 85.53958,56.604326 85.463684,55.876998 85.215757,55.627773 L 80.034584,50.419494 L 76.796351,49.768459 z" color="#000" display="inline" overflow="visible" visibility="visible" style="marker:none"/><path id="path2687" fill="#fff" fill-opacity="1" fill-rule="nonzero" stroke="none" stroke-dashoffset="0" stroke-linecap="round" stroke-linejoin="miter" stroke-miterlimit="4" stroke-opacity="1" stroke-width="1" marker-end="none" marker-mid="none" marker-start="none" d="M 79.567301,51.320041 C 79.564315,51.331245 79.861402,51.644359 79.32201,52.185023 C 78.782611,52.725686 78.314866,52.559011 78.328524,52.545282 L 78.059375,51.023705 L 79.567301,51.320041 z" color="#000" display="inline" opacity=".192" overflow="visible" visibility="visible" style="marker:none"/></g><path stroke-width="1" style="marker:none" id="path17267" fill="none" fill-opacity="1" fill-rule="nonzero" stroke="url(#linearGradient19906)" stroke-dasharray="none" stroke-dashoffset="0" stroke-linecap="round" stroke-linejoin="miter" stroke-miterlimit="4" stroke-opacity="1" marker-end="none" marker-mid="none" marker-start="none" d="M 34.284644,33.278595 L 34.90721,36.479814 L 42.406806,44.02859 C 42.77564,44.399843 43.340655,44.246496 44.274502,43.312648 C 45.208352,42.3788 45.449128,41.911353 44.985457,41.44495 L 37.485862,33.90116 L 34.284644,33.278595 z" color="#000" display="inline" opacity="1" overflow="visible" visibility="visible"/><path id="path19908" fill="url(#linearGradient19920)" fill-opacity="1" fill-rule="nonzero" stroke="none" stroke-dashoffset="0" stroke-linecap="round" stroke-linejoin="round" stroke-miterlimit="4" stroke-opacity="1" stroke-width=".677" marker-end="none" marker-mid="none" marker-start="none" d="M 32.831928,31.491641 C 32.5721,31.57915 32.424582,31.851686 32.494166,32.115648 L 33.50745,37.1077 C 33.532728,37.199365 33.582796,37.282377 33.652205,37.347702 L 41.613723,45.363786 C 41.970537,45.720948 42.509181,45.825341 43.157775,45.699789 C 43.80637,45.574237 44.570165,45.162961 45.37735,44.355775 C 46.177873,43.555254 46.590458,42.839054 46.728396,42.195753 C 46.866334,41.552451 46.742411,40.963513 46.390634,40.611736 L 38.380865,32.643653 C 38.302123,32.566369 38.200751,32.515947 38.091355,32.499652 L 33.121437,31.491641 C 33.026862,31.464506 32.926503,31.464506 32.831928,31.491641 z" color="#000" display="inline" opacity=".153" overflow="visible" visibility="visible" style="marker:none"/><path id="path2605" fill="none" fill-opacity="1" fill-rule="nonzero" stroke="url(#radialGradient1409)" stroke-dasharray="none" stroke-dashoffset="0" stroke-linecap="round" stroke-linejoin="miter" stroke-miterlimit="4" stroke-opacity="1" stroke-width=".606" marker-end="none" marker-mid="none" marker-start="none" d="M 62.5 4.5 A 10 10 0 1 1 42.5,4.5 A 10 10 0 1 1 62.5 4.5 z" color="#000" display="inline" overflow="visible" transform="matrix(1.65,0,0,1.65,-65.625,12.575)" visibility="visible" style="marker:none"/><path id="path2599" fill="none" fill-opacity="1" fill-rule="nonzero" stroke="url(#linearGradient23440)" stroke-dasharray="none" stroke-dashoffset="0" stroke-linecap="round" stroke-linejoin="miter" stroke-miterlimit="4" stroke-opacity="1" stroke-width=".571" marker-end="none" marker-mid="none" marker-start="none" d="M 62.5 4.5 A 10 10 0 1 1 42.5,4.5 A 10 10 0 1 1 62.5 4.5 z" color="#000" display="inline" overflow="visible" transform="matrix(1.75,0,0,1.75,-70.875,12.125)" visibility="visible" style="marker:none"/><path id="path4927" fill="none" fill-opacity="1" fill-rule="nonzero" stroke="url(#linearGradient4937)" stroke-dasharray="none" stroke-dashoffset="0" stroke-linecap="round" stroke-linejoin="miter" stroke-miterlimit="4" stroke-opacity="1" stroke-width=".688" marker-end="none" marker-mid="none" marker-start="none" d="M 62.5 4.5 A 10 10 0 1 1 42.5,4.5 A 10 10 0 1 1 62.5 4.5 z" color="#000" display="inline" overflow="visible" transform="matrix(1.453172,0,0,1.453175,-55.29154,13.46071)" visibility="visible" style="marker:none"/><path id="path11092" fill="url(#radialGradient11108)" fill-opacity="1" fill-rule="nonzero" stroke="none" stroke-dasharray="none" stroke-dashoffset="0" stroke-linecap="round" stroke-linejoin="miter" stroke-miterlimit="4" stroke-opacity="1" stroke-width="1" marker-end="none" marker-mid="none" marker-start="none" d="M 22.1875 12.9375 A 9.8125 9.8125 0 1 1 2.5625,12.9375 A 9.8125 9.8125 0 1 1 22.1875 12.9375 z" color="#000" display="inline" opacity=".161" overflow="visible" transform="matrix(1.324842,0,0,1.324842,4.605084,2.859861)" visibility="visible" style="marker:none"/><path id="path2970" fill="url(#radialGradient23426)" fill-opacity="1" fill-rule="nonzero" stroke="none" stroke-dasharray="none" stroke-dashoffset="0" stroke-linecap="round" stroke-linejoin="round" stroke-miterlimit="4" stroke-opacity="1" stroke-width="1" marker-end="none" marker-mid="none" marker-start="none" d="M 41.542523 30.145554 A 13.258252 4.5078058 0 1 1 15.026019,30.145554 A 13.258252 4.5078058 0 1 1 41.542523 30.145554 z" color="#000" display="inline" opacity=".072" overflow="visible" transform="matrix(1.585832,0,0,1.204644,-19.35411,4.31756)" visibility="visible" style="marker:none"/><g id="g2875" opacity=".7"><path id="rect1945" fill="url(#linearGradient2849)" fill-opacity="1" stroke="#3465a4" stroke-dasharray="none" stroke-linecap="round" stroke-linejoin="miter" stroke-miterlimit="4" stroke-opacity="1" stroke-width="1" d="M 12,10.5 C 11.722565,10.5 11.5,10.722565 11.5,11 L 11.5,17.5 L 14.5,17.5 L 14.5,13.5 L 18.5,13.5 L 18.5,10.5 L 12,10.5 z M 23.5,10.5 L 23.5,13.5 L 27.5,13.5 L 27.5,17.5 L 30.5,17.5 L 30.5,11 C 30.5,10.722565 30.277436,10.5 30,10.5 L 23.5,10.5 z M 11.5,22.5 L 11.5,29 C 11.5,29.277435 11.722564,29.5 12,29.5 L 18.5,29.5 L 18.5,26.5 L 14.5,26.5 L 14.5,22.5 L 11.5,22.5 z M 27.5,22.5 L 27.5,26.5 L 23.5,26.5 L 23.5,29.5 L 30,29.5 C 30.277435,29.5 30.5,29.277436 30.5,29 L 30.5,22.5 L 27.5,22.5 z" opacity="1"/><g id="g2867" stroke="#fff"><path id="path2851" fill="none" fill-rule="evenodd" stroke="#fff" stroke-linecap="butt" stroke-linejoin="miter" stroke-opacity="1" stroke-width="1" d="M 12.5,17 L 12.5,11.5 L 18,11.5"/><path id="path2853" fill="none" fill-rule="evenodd" stroke="#fff" stroke-linecap="butt" stroke-linejoin="miter" stroke-opacity="1" stroke-width="1" d="M 24,11.5 L 30,11.5"/><path id="path2855" fill="none" fill-rule="evenodd" stroke="#fff" stroke-linecap="butt" stroke-linejoin="miter" stroke-opacity="1" stroke-width="1" d="M 28.5,13 L 28.5,17"/><path id="path2861" fill="none" fill-rule="evenodd" stroke="#fff" stroke-linecap="butt" stroke-linejoin="miter" stroke-opacity="1" stroke-width="1" d="M 28.5,23 L 28.5,27.5 L 24.5,27.5 L 24.5,28.5"/><path id="path2863" fill="none" fill-rule="evenodd" stroke="#fff" stroke-linecap="butt" stroke-linejoin="miter" stroke-opacity="1" stroke-width="1" d="M 18,27.5 L 14,27.5"/><path id="path2865" fill="none" fill-rule="evenodd" stroke="#fff" stroke-linecap="butt" stroke-linejoin="miter" stroke-opacity="1" stroke-width="1" d="M 12.5,29 L 12.5,23.5 L 14,23.5"/></g></g></g></svg>