<svg xmlns="http://www.w3.org/2000/svg" xmlns:svg="http://www.w3.org/2000/svg" xmlns:xlink="http://www.w3.org/1999/xlink" id="svg249" width="48" height="48" version="1.1"><defs id="defs3"><linearGradient id="linearGradient23434"><stop id="stop23436" offset="0" stop-color="#2e3436"/><stop id="stop23438" offset="1" stop-color="#555753"/></linearGradient><linearGradient id="linearGradient19914"><stop id="stop19916" offset="0" stop-color="#000" stop-opacity="1"/><stop id="stop19918" offset="1" stop-color="#000" stop-opacity="0"/></linearGradient><linearGradient id="linearGradient19900"><stop id="stop19902" offset="0" stop-color="#888a85"/><stop id="stop19904" offset="1" stop-color="#d3d7cf"/></linearGradient><linearGradient id="linearGradient15493"><stop id="stop15495" offset="0" stop-color="#eeeeec" stop-opacity="1"/><stop id="stop15497" offset="1" stop-color="#fff" stop-opacity="1"/></linearGradient><linearGradient id="linearGradient11102"><stop id="stop11104" offset="0" stop-color="#fff" stop-opacity="1"/><stop id="stop11106" offset="1" stop-color="#fff" stop-opacity="0"/></linearGradient><linearGradient id="linearGradient4952"><stop id="stop4954" offset="0" stop-color="#fff" stop-opacity="1"/><stop id="stop4956" offset="1" stop-color="#fff" stop-opacity="0"/></linearGradient><linearGradient id="linearGradient4931"><stop id="stop4933" offset="0" stop-color="#babdb6" stop-opacity="1"/><stop id="stop4935" offset="1" stop-color="#888a85"/></linearGradient><linearGradient id="linearGradient4919"><stop id="stop4921" offset="0" stop-color="#429eff" stop-opacity="1"/><stop id="stop4923" offset="1" stop-color="#0044a7" stop-opacity="1"/></linearGradient><linearGradient id="linearGradient2980"><stop id="stop2982" offset="0" stop-color="#000" stop-opacity="1"/><stop id="stop2984" offset="1" stop-color="#000" stop-opacity="0"/></linearGradient><linearGradient id="linearGradient2609"><stop id="stop2611" offset="0" stop-color="#fff" stop-opacity="1"/><stop id="stop2613" offset="1" stop-color="#eeeeec"/></linearGradient><linearGradient id="linearGradient2617"><stop id="stop2619" offset="0" stop-color="#fbfbfa" stop-opacity="1"/><stop id="stop2621" offset="1" stop-color="#d3d7cf"/></linearGradient><linearGradient id="linearGradient2690"><stop id="stop2692" offset="0" stop-color="#2e3436"/><stop id="stop2694" offset="1" stop-color="#555753"/></linearGradient><linearGradient id="linearGradient2698"><stop id="stop2700" offset="0" stop-color="#555753"/><stop id="stop2706" offset=".702" stop-color="#a3a5a2" stop-opacity="1"/><stop id="stop2702" offset="1" stop-color="#888a85"/></linearGradient><radialGradient id="radialGradient1409" cx="45.095" cy="-2.694" r="10.498" fx="45.095" fy="-2.694" gradientTransform="matrix(-3.294293e-16,1.143443,-1.247217,-1.248581e-6,41.735,-54.25682)" gradientUnits="userSpaceOnUse" xlink:href="#linearGradient2609"/><radialGradient id="radialGradient1411" cx="59.787" cy="10.902" r="10.556" fx="59.787" fy="10.902" gradientTransform="matrix(4.928248e-11,-1.686609,1.66336,-1.770202e-15,41.65431,111.7396)" gradientUnits="userSpaceOnUse" xlink:href="#linearGradient2617"/><linearGradient id="linearGradient1421" x1="81.332" x2="82.92" y1="55.107" y2="53.511" gradientUnits="userSpaceOnUse" xlink:href="#linearGradient2698"/><linearGradient id="linearGradient1423" x1="81.096" x2="83.629" y1="57.148" y2="54.615" gradientUnits="userSpaceOnUse" xlink:href="#linearGradient2690"/><radialGradient id="radialGradient4925" cx="17.062" cy="28.851" r="13.5" fx="17.062" fy="28.851" gradientTransform="matrix(1.459545,-9.027299e-15,-5.118666e-17,1.345339,-7.403138,-10.82184)" gradientUnits="userSpaceOnUse" xlink:href="#linearGradient4919"/><linearGradient id="linearGradient4937" x1="54.113" x2="50.08" y1="12.847" y2="-3.881" gradientUnits="userSpaceOnUse" xlink:href="#linearGradient4931"/><radialGradient id="radialGradient4960" cx="16.83" cy="24.744" r="16.925" fx="16.83" fy="24.744" gradientTransform="matrix(2.231289,-0.597872,0.530253,1.979013,-30.74857,-16.49764)" gradientUnits="userSpaceOnUse" xlink:href="#linearGradient4952"/><radialGradient id="radialGradient11108" cx="8.04" cy="9.528" r="9.813" fx="8.04" fy="9.528" gradientTransform="matrix(0.946826,-1.897043e-16,1.897043e-16,0.946826,0.469351,0.499261)" gradientUnits="userSpaceOnUse" xlink:href="#linearGradient11102"/><linearGradient id="linearGradient17263" x1="19" x2="19.656" y1="14.875" y2="29" gradientTransform="translate(2,-1)" gradientUnits="userSpaceOnUse" xlink:href="#linearGradient15493"/><linearGradient id="linearGradient19906" x1="40.25" x2="43.063" y1="41" y2="38.435" gradientTransform="translate(-1,0)" gradientUnits="userSpaceOnUse" xlink:href="#linearGradient19900"/><linearGradient id="linearGradient19920" x1="33.985" x2="37.211" y1="32.046" y2="35.272" gradientTransform="translate(-1,0)" gradientUnits="userSpaceOnUse" xlink:href="#linearGradient19914"/><radialGradient id="radialGradient23426" cx="28.284" cy="30.146" r="13.258" fx="28.284" fy="30.146" gradientTransform="matrix(1,0,0,0.34,1.362626e-15,19.89607)" gradientUnits="userSpaceOnUse" xlink:href="#linearGradient2980"/><linearGradient id="linearGradient23440" x1="55.878" x2="52.5" y1="12.472" y2="-4.621" gradientUnits="userSpaceOnUse" xlink:href="#linearGradient23434"/><radialGradient id="radialGradient3206" cx="28.284" cy="30.146" r="13.258" fx="28.284" fy="30.146" gradientTransform="matrix(1,0,0,0.34,0,19.89607)" gradientUnits="userSpaceOnUse" xlink:href="#linearGradient2980"/><radialGradient id="radialGradient3320" cx="17.062" cy="28.851" r="13.5" fx="17.062" fy="28.851" gradientTransform="matrix(1.459545,0,0,1.345339,-7.403138,-10.82184)" gradientUnits="userSpaceOnUse" xlink:href="#linearGradient4919"/><radialGradient id="radialGradient3324" cx="59.787" cy="10.902" r="10.556" fx="59.787" fy="10.902" gradientTransform="matrix(0,-1.686609,1.66336,0,41.65431,111.7396)" gradientUnits="userSpaceOnUse" xlink:href="#linearGradient2617"/><linearGradient id="linearGradient3326" x1="81.332" x2="82.92" y1="55.107" y2="53.511" gradientUnits="userSpaceOnUse" xlink:href="#linearGradient2698"/><linearGradient id="linearGradient3328" x1="81.096" x2="83.629" y1="57.148" y2="54.615" gradientUnits="userSpaceOnUse" xlink:href="#linearGradient2690"/><radialGradient id="radialGradient3334" cx="45.095" cy="-2.694" r="10.498" fx="45.095" fy="-2.694" gradientTransform="matrix(0,1.143443,-1.247217,-1.248581e-6,41.735,-54.25682)" gradientUnits="userSpaceOnUse" xlink:href="#linearGradient2609"/><linearGradient id="linearGradient3336" x1="55.878" x2="52.5" y1="12.472" y2="-4.621" gradientUnits="userSpaceOnUse" xlink:href="#linearGradient23434"/><linearGradient id="linearGradient3338" x1="54.113" x2="50.08" y1="12.847" y2="-3.881" gradientUnits="userSpaceOnUse" xlink:href="#linearGradient4931"/><radialGradient id="radialGradient3340" cx="8.04" cy="9.528" r="9.813" fx="8.04" fy="9.528" gradientTransform="matrix(0.946826,0,0,0.946826,0.469351,0.499261)" gradientUnits="userSpaceOnUse" xlink:href="#linearGradient11102"/><radialGradient id="radialGradient3344" cx="28.284" cy="30.146" r="13.258" fx="28.284" fy="30.146" gradientTransform="matrix(1,0,0,0.34,0,19.89607)" gradientUnits="userSpaceOnUse" xlink:href="#linearGradient2980"/><linearGradient id="linearGradient3355" x1="33.985" x2="37.211" y1="32.046" y2="35.272" gradientTransform="matrix(-0.9605244,0.27295083,0.27819578,0.94241516,34.508497,-7.0466694)" gradientUnits="userSpaceOnUse" xlink:href="#linearGradient19914"/><linearGradient id="linearGradient3358" x1="40.25" x2="43.063" y1="41" y2="38.435" gradientTransform="matrix(-0.9605244,0.27295083,0.27819578,0.94241516,34.508497,-7.0466694)" gradientUnits="userSpaceOnUse" xlink:href="#linearGradient19900"/><radialGradient id="radialGradient3365" cx="16.83" cy="24.744" r="16.925" fx="16.83" fy="24.744" gradientTransform="matrix(-2.309533,0.04558854,0.04123214,2.0097849,58.49315,-30.714192)" gradientUnits="userSpaceOnUse" xlink:href="#linearGradient4952"/><linearGradient id="linearGradient3368" x1="19" x2="19.656" y1="14.875" y2="29" gradientTransform="translate(2,-1)" gradientUnits="userSpaceOnUse" xlink:href="#linearGradient15493"/><radialGradient id="radialGradient3259" cx="17.062" cy="28.851" r="13.5" fx="17.062" fy="28.851" gradientTransform="matrix(1.459545,0,0,1.345339,-7.403138,-10.82184)" gradientUnits="userSpaceOnUse" xlink:href="#linearGradient4919-5"/><linearGradient id="linearGradient4919-5"><stop id="stop4921-0" offset="0" stop-color="#429eff" stop-opacity="1"/><stop id="stop4923-4" offset="1" stop-color="#0044a7" stop-opacity="1"/></linearGradient><radialGradient id="radialGradient3304" cx="16.83" cy="24.744" r="16.925" fx="16.83" fy="24.744" gradientTransform="matrix(-2.2840124,0.3325768,0.30212738,1.9135354,50.674567,-34.252822)" gradientUnits="userSpaceOnUse" xlink:href="#linearGradient4952-8"/><linearGradient id="linearGradient4952-8"><stop id="stop4954-7" offset="0" stop-color="#fff" stop-opacity="1"/><stop id="stop4956-1" offset="1" stop-color="#fff" stop-opacity="0"/></linearGradient><radialGradient id="radialGradient3263" cx="59.787" cy="10.902" r="10.556" fx="59.787" fy="10.902" gradientTransform="matrix(0,-1.686609,1.66336,0,41.65431,111.7396)" gradientUnits="userSpaceOnUse" xlink:href="#linearGradient2617-7"/><linearGradient id="linearGradient2617-7"><stop id="stop2619-2" offset="0" stop-color="#fbfbfa" stop-opacity="1"/><stop id="stop2621-7" offset="1" stop-color="#d3d7cf"/></linearGradient><linearGradient id="linearGradient3265" x1="81.332" x2="82.92" y1="55.107" y2="53.511" gradientUnits="userSpaceOnUse" xlink:href="#linearGradient2698-2"/><linearGradient id="linearGradient2698-2"><stop id="stop2700-2" offset="0" stop-color="#555753"/><stop id="stop2706-6" offset=".702" stop-color="#a3a5a2" stop-opacity="1"/><stop id="stop2702-1" offset="1" stop-color="#888a85"/></linearGradient><linearGradient id="linearGradient3267" x1="81.096" x2="83.629" y1="57.148" y2="54.615" gradientUnits="userSpaceOnUse" xlink:href="#linearGradient2690-0"/><linearGradient id="linearGradient2690-0"><stop id="stop2692-6" offset="0" stop-color="#2e3436"/><stop id="stop2694-1" offset="1" stop-color="#555753"/></linearGradient><linearGradient id="linearGradient3297" x1="40.25" x2="43.063" y1="41" y2="38.435" gradientTransform="matrix(-0.91689513,0.3807964,0.39833682,0.86488415,29.969866,-8.6561267)" gradientUnits="userSpaceOnUse" xlink:href="#linearGradient19900-5"/><linearGradient id="linearGradient19900-5"><stop id="stop19902-9" offset="0" stop-color="#888a85"/><stop id="stop19904-4" offset="1" stop-color="#d3d7cf"/></linearGradient><linearGradient id="linearGradient3294" x1="33.985" x2="37.211" y1="32.046" y2="35.272" gradientTransform="matrix(-0.91689513,0.3807964,0.39833682,0.86488415,29.969866,-8.6561267)" gradientUnits="userSpaceOnUse" xlink:href="#linearGradient19914-9"/><linearGradient id="linearGradient19914-9"><stop id="stop19916-0" offset="0" stop-color="#000" stop-opacity="1"/><stop id="stop19918-9" offset="1" stop-color="#000" stop-opacity="0"/></linearGradient><radialGradient id="radialGradient3273" cx="45.095" cy="-2.694" r="10.498" fx="45.095" fy="-2.694" gradientTransform="matrix(0,1.143443,-1.247217,-1.248581e-6,41.735,-54.25682)" gradientUnits="userSpaceOnUse" xlink:href="#linearGradient2609-1"/><linearGradient id="linearGradient2609-1"><stop id="stop2611-7" offset="0" stop-color="#fff" stop-opacity="1"/><stop id="stop2613-7" offset="1" stop-color="#eeeeec"/></linearGradient><linearGradient id="linearGradient3275" x1="55.878" x2="52.5" y1="12.472" y2="-4.621" gradientUnits="userSpaceOnUse" xlink:href="#linearGradient23434-1"/><linearGradient id="linearGradient23434-1"><stop id="stop23436-1" offset="0" stop-color="#2e3436"/><stop id="stop23438-5" offset="1" stop-color="#555753"/></linearGradient><linearGradient id="linearGradient3277" x1="54.113" x2="50.08" y1="12.847" y2="-3.881" gradientUnits="userSpaceOnUse" xlink:href="#linearGradient4931-9"/><linearGradient id="linearGradient4931-9"><stop id="stop4933-7" offset="0" stop-color="#babdb6" stop-opacity="1"/><stop id="stop4935-7" offset="1" stop-color="#888a85"/></linearGradient><radialGradient id="radialGradient3279" cx="8.04" cy="9.528" r="9.813" fx="8.04" fy="9.528" gradientTransform="matrix(0.946826,0,0,0.946826,0.469351,0.499261)" gradientUnits="userSpaceOnUse" xlink:href="#linearGradient11102-6"/><linearGradient id="linearGradient11102-6"><stop id="stop11104-7" offset="0" stop-color="#fff" stop-opacity="1"/><stop id="stop11106-3" offset="1" stop-color="#fff" stop-opacity="0"/></linearGradient><linearGradient id="linearGradient3307" x1="19" x2="19.656" y1="14.875" y2="29" gradientTransform="translate(2,-1)" gradientUnits="userSpaceOnUse" xlink:href="#linearGradient15493-6"/><linearGradient id="linearGradient15493-6"><stop id="stop15495-5" offset="0" stop-color="#eeeeec" stop-opacity="1"/><stop id="stop15497-6" offset="1" stop-color="#fff" stop-opacity="1"/></linearGradient><radialGradient id="radialGradient3283" cx="28.284" cy="30.146" r="13.258" fx="28.284" fy="30.146" gradientTransform="matrix(1,0,0,0.34,0,19.89607)" gradientUnits="userSpaceOnUse" xlink:href="#linearGradient2980-3"/><linearGradient id="linearGradient2980-3"><stop id="stop2982-9" offset="0" stop-color="#000" stop-opacity="1"/><stop id="stop2984-4" offset="1" stop-color="#000" stop-opacity="0"/></linearGradient><radialGradient id="radialGradient3995" cx="28.284" cy="30.146" r="13.258" fx="28.284" fy="30.146" gradientTransform="matrix(1,0,0,0.34,0,19.89607)" gradientUnits="userSpaceOnUse" xlink:href="#linearGradient2980-3"/><linearGradient id="linearGradient4155" x1="33.985" x2="37.211" y1="32.046" y2="35.272" gradientTransform="matrix(-0.91689513,0.3807964,0.39833682,0.86488415,30.271522,-8.4832521)" gradientUnits="userSpaceOnUse" xlink:href="#linearGradient19914-9"/><linearGradient id="linearGradient4158" x1="40.25" x2="43.063" y1="41" y2="38.435" gradientTransform="matrix(-0.91689513,0.3807964,0.39833682,0.86488415,30.271522,-8.4832521)" gradientUnits="userSpaceOnUse" xlink:href="#linearGradient19900-5"/><radialGradient id="radialGradient4165" cx="16.83" cy="24.744" r="16.925" fx="16.83" fy="24.744" gradientTransform="matrix(-2.2840124,0.3325768,0.30212738,1.9135354,50.976223,-34.079947)" gradientUnits="userSpaceOnUse" xlink:href="#linearGradient4952-8"/><linearGradient id="linearGradient4168" x1="19" x2="19.656" y1="14.875" y2="29" gradientTransform="translate(2,-1)" gradientUnits="userSpaceOnUse" xlink:href="#linearGradient15493-6"/></defs><metadata id="metadata4"/><g id="layer5" display="inline"><path id="path23418" fill="url(#radialGradient3206)" fill-opacity="1" fill-rule="nonzero" stroke="none" stroke-width="1" d="m 41.542523,30.145554 a 13.258252,4.5078058 0 1 1 -26.516504,0 13.258252,4.5078058 0 1 1 26.516504,0 z" color="#000" display="inline" opacity=".047" overflow="visible" transform="matrix(1.0028608,-0.02269424,0.0156831,0.69306327,3.8134156,19.801095)" visibility="visible" style="marker:none"/><path id="path1425" fill="url(#radialGradient3259)" fill-opacity="1" fill-rule="nonzero" stroke="none" stroke-width="2" d="m 31,18.25 a 13.5,13.75 0 1 1 -27,0 13.5,13.75 0 1 1 27,0 z" color="#000" display="inline" opacity=".6" overflow="visible" transform="matrix(-1.0866903,0.45131417,0.46351946,1.0064111,28.624421,-9.0730452)" visibility="visible" style="marker:none"/><path id="path4939" fill="url(#radialGradient4165)" fill-opacity="1" fill-rule="nonzero" stroke="none" stroke-width="2" d="m 12.015903,2.7046143 c 7.937506,-2.96266511 16.982489,0.5191617 20.406201,7.9528567 0.962747,2.090354 0.594348,4.618103 0.389319,6.753677 C 31.082017,12.536633 28.465657,12.402314 27.233818,13.410634 23.496503,16.46981 16.529714,20.733021 7.0810135,20.13853 3.7686364,19.930123 3.6946532,23.841982 2.4538828,20.868934 0.21037928,13.769783 4.0541807,6.0112033 11.451555,2.9389944 11.640692,2.8604438 11.825403,2.7757152 12.015903,2.7046143 z" color="#000" display="inline" opacity=".5" overflow="visible" visibility="visible" style="marker:none"/><path id="path2607" fill="none" stroke="url(#radialGradient3263)" stroke-dasharray="none" stroke-dashoffset="0" stroke-linecap="round" stroke-linejoin="miter" stroke-miterlimit="4" stroke-opacity="1" stroke-width="1.875" d="m 62.5,4.5 a 10,10 0 1 1 -20,0 10,10 0 1 1 20,0 z" color="#000" display="inline" overflow="visible" transform="matrix(-1.4670322,0.60927423,0.63733892,1.3838146,92.217732,-21.022112)" visibility="visible" style="marker:none"/><g id="g2708" transform="matrix(-1.4157337,0.58796943,0.61185172,1.3284758,90.116131,-79.129986)"><path id="path2682" fill="url(#linearGradient3265)" fill-opacity="1" fill-rule="nonzero" stroke="url(#linearGradient3267)" stroke-dashoffset="0" stroke-linecap="round" stroke-linejoin="round" stroke-miterlimit="4" stroke-opacity="1" stroke-width=".677" d="m 76.796351,49.768459 0.647647,3.255175 5.181173,5.213494 c 0.192503,0.193704 0.97147,0.320302 1.942939,-0.65625 0.97147,-0.976552 0.895574,-1.70388 0.647647,-1.953105 l -5.181173,-5.208279 -3.238233,-0.651035 z" color="#000" display="inline" overflow="visible" visibility="visible" style="marker:none"/><path id="path2687" fill="#fff" fill-opacity="1" fill-rule="nonzero" stroke="none" stroke-width="1" d="m 79.567301,51.320041 c -0.003,0.0112 0.294101,0.324318 -0.245291,0.864982 -0.539399,0.540663 -1.007144,0.373988 -0.993486,0.360259 l -0.269149,-1.521577 1.507926,0.296336 z" color="#000" display="inline" opacity=".192" overflow="visible" visibility="visible" style="marker:none"/></g><path stroke-opacity="1" style="marker:none" id="path17267" fill="none" stroke="url(#linearGradient4158)" stroke-dasharray="none" stroke-dashoffset="0" stroke-linecap="round" stroke-linejoin="miter" stroke-miterlimit="4" stroke-width=".972" d="m 11.175293,33.735142 0.704333,3.005757 -3.8693881,9.384635 c -0.1902944,0.46154 -0.7694377,0.544068 -1.9976635,0.092 -1.2282284,-0.45206 -1.6351962,-0.76466 -1.3958441,-1.34461 l 3.871373,-9.380322 2.6871897,-1.75746 z" color="#000" display="inline" overflow="visible" visibility="visible"/><path id="path19908" fill="url(#linearGradient4155)" fill-opacity="1" fill-rule="nonzero" stroke="none" stroke-width=".677" d="m 11.795473,31.636446 c 0.273091,-0.02327 0.516911,0.15628 0.558257,0.411074 l 1.059484,4.703394 c 0.01332,0.08891 4.94e-4,0.179769 -0.03712,0.262696 L 9.2692737,46.97832 C 9.0843835,47.423097 8.6320869,47.718499 7.9873823,47.856893 7.3426767,47.995287 6.4785304,47.930432 5.4168944,47.539682 4.3640216,47.15216 3.7004357,46.689841 3.3177106,46.185987 2.9349851,45.682132 2.8140092,45.125581 2.9964307,44.687377 l 4.170137,-9.94156 c 0.041413,-0.09682 0.1142759,-0.179037 0.2080896,-0.234788 L 11.530023,31.74669 c 0.0759,-0.05949 0.167922,-0.09771 0.265448,-0.110252 z" color="#000" display="inline" opacity=".153" overflow="visible" visibility="visible" style="marker:none"/><path id="path2605" fill="none" stroke="url(#radialGradient3273)" stroke-dasharray="none" stroke-dashoffset="0" stroke-linecap="round" stroke-linejoin="miter" stroke-miterlimit="4" stroke-opacity="1" stroke-width=".606" d="m 62.5,4.5 a 10,10 0 1 1 -20,0 10,10 0 1 1 20,0 z" color="#000" display="inline" overflow="visible" transform="matrix(-1.5128769,0.62831404,0.65725577,1.4270588,94.534947,-22.2163)" visibility="visible" style="marker:none"/><path id="path2599" fill="none" stroke="url(#linearGradient3275)" stroke-dasharray="none" stroke-dashoffset="0" stroke-linecap="round" stroke-linejoin="miter" stroke-miterlimit="4" stroke-opacity="1" stroke-width=".571" d="m 62.5,4.5 a 10,10 0 1 1 -20,0 10,10 0 1 1 20,0 z" color="#000" display="inline" overflow="visible" transform="matrix(-1.6045665,0.6663937,0.69708944,1.5135472,99.1694,-24.604679)" visibility="visible" style="marker:none"/><path id="path4927" fill="none" stroke="url(#linearGradient3277)" stroke-dasharray="none" stroke-dashoffset="0" stroke-linecap="round" stroke-linejoin="miter" stroke-miterlimit="4" stroke-opacity="1" stroke-width=".688" d="m 62.5,4.5 a 10,10 0 1 1 -20,0 10,10 0 1 1 20,0 z" color="#000" display="inline" overflow="visible" transform="matrix(-1.3324064,0.55336266,0.57885311,1.256828,85.413067,-17.51532)" visibility="visible" style="marker:none"/><path id="path11092" fill="url(#radialGradient3279)" fill-opacity="1" fill-rule="nonzero" stroke="none" stroke-width="1" d="m 22.1875,12.9375 a 9.8125,9.8125 0 1 1 -19.625,0 9.8125,9.8125 0 1 1 19.625,0 z" color="#000" display="inline" opacity=".161" overflow="visible" transform="matrix(-1.2147411,0.50449504,0.52773334,1.1458348,26.271436,-3.875408)" visibility="visible" style="marker:none"/><path id="path2970" fill="url(#radialGradient3995)" fill-opacity="1" fill-rule="nonzero" stroke="none" stroke-width="1" d="m 41.542523,30.145554 a 13.258252,4.5078058 0 1 1 -26.516504,0 13.258252,4.5078058 0 1 1 26.516504,0 z" color="#000" display="inline" opacity=".072" overflow="visible" transform="matrix(-1.4540417,0.60387911,0.47985407,1.0418775,48.820159,-11.738241)" visibility="visible" style="marker:none"/><g id="g1399" opacity=".761" transform="matrix(-0.70467682,-0.7093291,-0.69387045,0.69388405,46.001355,18.68952)"><path stroke-miterlimit="4" style="marker:none" id="rect8466" fill="url(#linearGradient3368)" fill-opacity="1" fill-rule="nonzero" stroke="#3465a4" stroke-dasharray="none" stroke-dashoffset="0" stroke-linecap="round" stroke-linejoin="miter" stroke-opacity="1" stroke-width="1" d="m 18.5,10.5 0,6 -6,0 0,5 6,0 0,6 5,0 0,-6 6,0 0,-5 -6,0 0,-6 -5,0 z" color="#000" display="inline" overflow="visible" visibility="visible"/><path stroke-opacity="1" style="marker:none" id="rect12861" fill="none" stroke="#fff" stroke-dasharray="none" stroke-dashoffset="0" stroke-linecap="round" stroke-linejoin="miter" stroke-miterlimit="4" stroke-width="1" d="m 19.5,11.5 0,6 -6,0 0,3 6,0 0,6 3,0 0,-6 6,0 0,-3 -6,0 0,-6 -3,0 z" color="#000" display="inline" overflow="visible" visibility="visible"/></g></g></svg>