<svg xmlns="http://www.w3.org/2000/svg" xmlns:cc="http://web.resource.org/cc/" xmlns:svg="http://www.w3.org/2000/svg" xmlns:xlink="http://www.w3.org/1999/xlink" id="svg11300" width="48" height="48"><defs id="defs3"><linearGradient id="linearGradient2065"><stop id="stop2067" offset="0" stop-color="#555753"/><stop id="stop2069" offset="1" stop-color="#fcaf3e"/></linearGradient><linearGradient id="linearGradient4928"><stop id="stop4930" offset="0" stop-color="#fce94f" stop-opacity="1"/><stop id="stop4932" offset="1" stop-color="#fce94f" stop-opacity="0"/></linearGradient><linearGradient id="linearGradient12129"><stop id="stop12131" offset="0" stop-color="#000" stop-opacity="1"/><stop id="stop12133" offset="1" stop-color="#000" stop-opacity="0"/></linearGradient><linearGradient id="aigrd1" x1="12.487" x2="31.081" y1="3.732" y2="36.033" stroke-dasharray="none" stroke-miterlimit="4" stroke-width="1.217" gradientUnits="userSpaceOnUse"><stop id="stop16177" stroke-dasharray="none" stroke-miterlimit="4" stroke-width="1.217" offset="0" stop-color="#D2D2D2"/><stop id="stop16179" stroke-dasharray="none" stroke-miterlimit="4" stroke-width="1.217" offset="1" stop-color="#EDEDED"/></linearGradient><linearGradient id="aigrd3" x1="21.933" x2="21.933" y1="24.627" y2="7.109" stroke-dasharray="none" stroke-miterlimit="4" stroke-width="1.217" gradientUnits="userSpaceOnUse"><stop id="stop16199" stroke-dasharray="none" stroke-miterlimit="4" stroke-width="1.217" offset="0" stop-color="#D0D6E5"/><stop id="stop16201" stroke-dasharray="none" stroke-miterlimit="4" stroke-width="1.217" offset="1" stop-color="#093A80"/></linearGradient><linearGradient id="linearGradient7648" x1="21.933" x2="21.933" y1="24.627" y2="7.109" stroke-dasharray="none" stroke-miterlimit="4" stroke-width="1.217" gradientUnits="userSpaceOnUse"><stop id="stop7650" offset="0" stop-color="#e6ee53" stop-opacity="1"/><stop id="stop3678" offset="0" stop-color="#44577b" stop-opacity="1"/><stop id="stop7652" offset="1" stop-color="#041a3b" stop-opacity="1"/></linearGradient><linearGradient id="linearGradient8171"><stop id="stop8173" offset="0" stop-color="#bbbdba" stop-opacity="1"/><stop id="stop8175" offset="1" stop-color="#70746e" stop-opacity="1"/></linearGradient><linearGradient id="linearGradient2224"><stop id="stop2226" offset="0" stop-color="#7c7c7c" stop-opacity="1"/><stop id="stop2228" offset="1" stop-color="#b8b8b8" stop-opacity="1"/></linearGradient><linearGradient id="linearGradient8155"><stop id="stop8157" offset="0" stop-color="#fff" stop-opacity="1"/><stop id="stop8159" offset="1" stop-color="#fff" stop-opacity="0"/></linearGradient><linearGradient id="linearGradient2846"><stop id="stop2848" offset="0" stop-color="#8a8a8a" stop-opacity="1"/><stop id="stop2850" offset="1" stop-color="#484848" stop-opacity="1"/></linearGradient><linearGradient id="linearGradient2366"><stop id="stop2368" offset="0" stop-color="#fff" stop-opacity="1"/><stop id="stop2374" offset=".5" stop-color="#fff" stop-opacity=".219"/><stop id="stop2370" offset="1" stop-color="#fff" stop-opacity="1"/></linearGradient><linearGradient id="linearGradient4487"><stop id="stop4489" offset="0" stop-color="#fff" stop-opacity="1"/><stop id="stop4491" offset="1" stop-color="#fff" stop-opacity="0"/></linearGradient><linearGradient id="linearGradient4477"><stop id="stop4479" offset="0" stop-color="#000" stop-opacity="1"/><stop id="stop4481" offset="1" stop-color="#000" stop-opacity="0"/></linearGradient><linearGradient id="linearGradient4467"><stop id="stop4469" offset="0" stop-color="#fff" stop-opacity="1"/><stop id="stop4471" offset="1" stop-color="#fff" stop-opacity=".248"/></linearGradient><linearGradient id="linearGradient4454"><stop id="stop4456" offset="0" stop-color="#729fcf" stop-opacity=".208"/><stop id="stop4458" offset="1" stop-color="#729fcf" stop-opacity=".676"/></linearGradient><linearGradient id="linearGradient4440"><stop id="stop4442" offset="0" stop-color="#7d7d7d" stop-opacity="1"/><stop id="stop4448" offset=".5" stop-color="#b1b1b1" stop-opacity="1"/><stop id="stop4444" offset="1" stop-color="#686868" stop-opacity="1"/></linearGradient><radialGradient id="radialGradient4460" cx="18.241" cy="21.818" r="8.309" fx="18.241" fy="21.818" gradientUnits="userSpaceOnUse" xlink:href="#linearGradient4454"/><radialGradient id="radialGradient4493" cx="24.13" cy="37.968" r="16.529" fx="24.13" fy="37.968" gradientTransform="matrix(1,0,0,0.237968,3.152859e-15,28.93278)" gradientUnits="userSpaceOnUse" xlink:href="#linearGradient4487"/><linearGradient id="linearGradient2372" x1="18.293" x2="17.501" y1="13.602" y2="25.743" gradientUnits="userSpaceOnUse" xlink:href="#linearGradient2366"/><radialGradient id="radialGradient2842" cx="24.13" cy="37.968" r="16.529" fx="24.13" fy="37.968" gradientTransform="matrix(1,0,0,0.237968,-2.511622e-14,28.93278)" gradientUnits="userSpaceOnUse" xlink:href="#linearGradient4477"/><radialGradient id="radialGradient1642" cx="24.218" cy="41.636" r="22.097" fx="24.218" fy="41.636" gradientTransform="matrix(1,0,0,0.184,0,33.97501)" gradientUnits="userSpaceOnUse" xlink:href="#linearGradient12129"/><radialGradient id="radialGradient1659" cx="12.7" cy="10.405" r="19.969" fx="12.7" fy="10.405" gradientTransform="matrix(1.710531,-5.396358e-24,2.470345e-24,1.124849,-10.66155,-3.083005)" gradientUnits="userSpaceOnUse" xlink:href="#linearGradient8155"/><linearGradient id="linearGradient1688" x1="12.487" x2="31.081" y1="3.732" y2="36.033" gradientTransform="matrix(1.434003,0,0,0.990087,53.22846,-2.046665)" gradientUnits="userSpaceOnUse" xlink:href="#aigrd1"/><linearGradient id="linearGradient1927" x1="21.865" x2="22.322" y1="5.003" y2="24.984" gradientTransform="matrix(1.159185,0,0,1.16202,-1.968746,-5.569092)" gradientUnits="userSpaceOnUse" xlink:href="#linearGradient2065"/><linearGradient id="linearGradient1930" x1="21.933" x2="21.933" y1="24.627" y2="7.109" gradientTransform="matrix(1.159185,0,0,-0.837636,-1.968746,38.78922)" gradientUnits="userSpaceOnUse" xlink:href="#linearGradient7648"/><radialGradient id="radialGradient3685" cx="15.414" cy="13.078" r="6.656" fx="15.414" fy="13.078" gradientTransform="matrix(2.592963,-7.7469e-24,-5.714443e-24,2.252104,-55.05975,-14.87515)" gradientUnits="userSpaceOnUse" xlink:href="#linearGradient4467"/><linearGradient id="linearGradient3692" x1="30.656" x2="33.219" y1="34" y2="31.063" gradientTransform="matrix(1.334593,0,0,1.291292,-36.97384,-3.394809)" gradientUnits="userSpaceOnUse" xlink:href="#linearGradient4440"/><linearGradient id="linearGradient3696" x1="27.366" x2="31.336" y1="26.58" y2="30.558" gradientTransform="translate(-30,4.065849)" gradientUnits="userSpaceOnUse" xlink:href="#linearGradient2846"/><linearGradient id="linearGradient4582" x1="27.366" x2="31.336" y1="26.58" y2="30.558" gradientTransform="translate(-30,4.065849)" gradientUnits="userSpaceOnUse" xlink:href="#linearGradient2846"/><linearGradient id="linearGradient4584" x1="30.656" x2="33.219" y1="34" y2="31.063" gradientTransform="matrix(1.334593,1.703943e-15,-1.648675e-15,1.291292,-36.97384,-3.394809)" gradientUnits="userSpaceOnUse" xlink:href="#linearGradient4440"/><linearGradient id="linearGradient4586" x1="18.293" x2="17.501" y1="13.602" y2="25.743" gradientUnits="userSpaceOnUse" xlink:href="#linearGradient2366"/><radialGradient id="radialGradient4588" cx="24.13" cy="37.968" r="16.529" fx="24.13" fy="37.968" gradientTransform="matrix(1,6.829386e-17,-5.705758e-16,0.237968,-2.01222e-13,28.93278)" gradientUnits="userSpaceOnUse" xlink:href="#linearGradient4487"/><radialGradient id="radialGradient4590" cx="18.241" cy="21.818" r="8.309" fx="18.241" fy="21.818" gradientUnits="userSpaceOnUse" xlink:href="#linearGradient4454"/><radialGradient id="radialGradient4592" cx="15.414" cy="13.078" r="6.656" fx="15.414" fy="13.078" gradientTransform="matrix(2.592963,3.310577e-15,-2.875375e-15,2.252104,-55.05975,-14.87515)" gradientUnits="userSpaceOnUse" xlink:href="#linearGradient4467"/><radialGradient id="radialGradient4616" cx="24.218" cy="41.636" r="22.097" fx="24.218" fy="41.636" gradientTransform="matrix(1,0,0,0.184,0,33.97501)" gradientUnits="userSpaceOnUse" xlink:href="#linearGradient12129"/><linearGradient id="linearGradient4618" x1="12.487" x2="31.081" y1="3.732" y2="36.033" gradientTransform="matrix(1.434003,0,0,0.990087,53.22846,-2.046665)" gradientUnits="userSpaceOnUse" xlink:href="#aigrd1"/><linearGradient id="linearGradient4620" x1="21.865" x2="22.322" y1="5.003" y2="24.984" gradientTransform="matrix(1.159185,0,0,1.16202,-1.968746,-5.569092)" gradientUnits="userSpaceOnUse" xlink:href="#linearGradient2065"/><linearGradient id="linearGradient4622" x1="21.933" x2="21.933" y1="24.627" y2="7.109" gradientTransform="matrix(1.159185,0,0,-0.837636,-1.968746,38.78922)" gradientUnits="userSpaceOnUse" xlink:href="#linearGradient7648"/><radialGradient id="radialGradient4624" cx="12.7" cy="10.405" r="19.969" fx="12.7" fy="10.405" gradientTransform="matrix(1.710531,-5.396358e-24,2.470345e-24,1.124849,-10.66155,-3.083005)" gradientUnits="userSpaceOnUse" xlink:href="#linearGradient8155"/></defs><metadata id="metadata4"/><g id="layer1"><g id="g4594" transform="matrix(1,0,0,1.125023,0,-0.133674)"><path id="path12127" fill="url(#radialGradient4616)" fill-opacity="1" fill-rule="nonzero" stroke="none" stroke-dasharray="none" stroke-dashoffset="0" stroke-linecap="butt" stroke-linejoin="miter" stroke-miterlimit="4" stroke-opacity=".617" stroke-width="1" marker-end="none" marker-mid="none" marker-start="none" d="M 46.315495 41.63604 A 22.097088 4.0658641 0 1 1 2.1213188,41.63604 A 22.097088 4.0658641 0 1 1 46.315495 41.63604 z" color="#000" display="block" opacity=".528" transform="translate(-0.4797,-7.869975)" visibility="visible" style="marker:none"/><path stroke-width="1" style="marker:none" id="rect7603" fill="url(#linearGradient4618)" fill-opacity="1" fill-rule="nonzero" stroke="#bbbfbb" stroke-dashoffset="0" stroke-linecap="butt" stroke-linejoin="miter" stroke-miterlimit="4" stroke-opacity="1" marker-end="none" marker-mid="none" marker-start="none" d="M 3.624557,1.5691928 L 44.286329,1.5691928 C 44.909578,1.5691928 45.411328,2.0709426 45.411328,2.6941924 L 45.411328,33.213717 C 45.411328,33.836967 44.954627,34.61429 44.331378,34.61429 L 3.624557,34.61429 C 3.001307,34.61429 2.499558,34.11254 2.499558,33.48929 L 2.499558,2.6941924 C 2.499558,2.0709426 3.001307,1.5691928 3.624557,1.5691928 z" color="#000" display="inline" overflow="visible" visibility="visible"/><path id="path16203" fill="url(#linearGradient4620)" fill-opacity="1" fill-rule="nonzero" stroke="none" stroke-miterlimit="4" stroke-width="1.217" d="M 5.9067874,5.0991086 L 41.906792,5.0991086 L 41.906792,20.207958 L 5.9067874,20.207958 L 5.9067874,5.0991086 z"/><g id="g16205" fill-rule="nonzero" stroke="#000" stroke-miterlimit="4" stroke-width="1.156" transform="matrix(1.254355,0,0,1.248665,2.373687,0.328308)"><g id="g16207"><path id="path16209" fill="#e8f52f" stroke="none" d="M 18.4,15.4 C 18.4,17.6 16.6,19.5 14.3,19.5 C 12.1,19.5 10.2,17.7 10.2,15.4 C 10.2,13.2 12,11.3 14.3,11.3 C 16.5,11.3 18.4,13.1 18.4,15.4 z" opacity=".05"/><path id="path16211" fill="#ecf751" stroke="none" d="M 18,15.4 C 18,17.4 16.4,19.1 14.3,19.1 C 12.3,19.1 10.6,17.5 10.6,15.4 C 10.6,13.4 12.2,11.7 14.3,11.7 C 16.3,11.7 18,13.3 18,15.4 L 18,15.4 z" opacity=".208"/><path id="path16213" fill="#f0f972" stroke="none" d="M 17.6,15.4 C 17.6,17.2 16.1,18.7 14.3,18.7 C 12.5,18.7 11,17.2 11,15.4 C 11,13.6 12.5,12.1 14.3,12.1 C 16.1,12.1 17.6,13.6 17.6,15.4 L 17.6,15.4 z" opacity=".367"/><path id="path16215" fill="#f4fa95" stroke="none" d="M 17.2,15.4 C 17.2,17 15.9,18.3 14.3,18.3 C 12.7,18.3 11.4,17 11.4,15.4 C 11.4,13.8 12.7,12.5 14.3,12.5 C 15.9,12.5 17.2,13.8 17.2,15.4 z" opacity=".525"/><path id="path16217" fill="#f7fcb7" stroke="none" d="M 16.8,15.4 C 16.8,16.8 15.7,17.9 14.3,17.9 C 12.9,17.9 11.8,16.8 11.8,15.4 C 11.8,14 12.9,12.9 14.3,12.9 C 15.7,12.9 16.8,14 16.8,15.4 L 16.8,15.4 z" opacity=".683"/><path id="path16219" fill="#fbfddb" stroke="none" d="M 16.4,15.4 C 16.4,16.6 15.4,17.5 14.3,17.5 C 13.2,17.5 12.2,16.5 12.2,15.4 C 12.2,14.3 13.2,13.3 14.3,13.3 C 15.4,13.3 16.4,14.3 16.4,15.4 z" opacity=".842"/><path id="path16221" fill="#fff" stroke="none" d="M 16,15.4 C 16,16.4 15.2,17.2 14.2,17.2 C 13.2,17.2 12.4,16.4 12.4,15.4 C 12.4,14.4 13.2,13.6 14.2,13.6 C 15.2,13.6 16,14.4 16,15.4 L 16,15.4 z"/></g></g><path id="path7644" fill="url(#linearGradient4622)" fill-opacity="1" fill-rule="nonzero" stroke="none" stroke-miterlimit="4" stroke-width="1.217" d="M 5.9067874,31.0991 L 41.906792,31.0991 L 41.906792,20.207958 L 5.9067874,20.207958 L 5.9067874,31.0991 z"/><path id="path16223" fill-rule="nonzero" stroke="none" stroke-miterlimit="4" stroke-width="1.217" d="M 26.478218,22.330688 L 35.635016,22.330688 L 37.391113,22.830155 L 34.38066,22.830155 C 34.38066,22.830155 37.391113,23.079887 38.896342,24.952885 C 40.401567,26.701016 37.140243,28.823749 37.140243,28.823749 C 37.140243,28.823749 37.140243,28.823749 37.140243,28.823749 C 37.014808,28.449148 36.262193,25.452351 34.756967,24.203686 C 33.628045,23.204754 32.37369,22.95502 32.37369,22.95502 L 26.478218,22.95502 L 26.478218,22.455555 L 26.478218,22.330688 z" opacity=".3"/><path id="path16225" fill-rule="nonzero" stroke="none" stroke-miterlimit="4" stroke-width="1.217" d="M 32.499128,23.079887 L 27.230833,23.079887 L 37.014808,28.574014 L 32.499128,23.079887 L 32.499128,23.079887 z" opacity=".3"/><path id="path16227" fill="#2e3436" fill-opacity="1" fill-rule="nonzero" stroke="none" stroke-miterlimit="4" stroke-width="1.217" d="M 26.478218,22.455555 L 35.635016,22.455555 L 37.014808,21.581488 L 34.004355,21.581488 C 34.004355,21.581488 36.763935,21.082023 37.140243,17.960359 C 37.516548,14.838696 32.875433,11.342435 32.875433,11.342435 C 32.875433,11.342435 32.875433,11.342435 32.875433,11.467301 C 33.000867,12.2165 34.255222,17.460894 33.377176,19.45876 C 33.000867,21.206888 31.871948,21.581488 31.871948,21.581488 L 26.101911,21.581488 L 26.352783,22.455555 L 26.478218,22.455555 z"/><path id="path16229" fill="#2e3436" fill-opacity="1" fill-rule="nonzero" stroke="none" stroke-miterlimit="4" stroke-width="1.217" d="M 31.997385,21.082023 L 26.72909,21.082023 L 33.000867,11.592166 L 31.997385,21.082023 z"/><path stroke-width="1" style="marker:none" id="rect7675" fill="none" fill-opacity="1" fill-rule="nonzero" stroke="#fff" stroke-dashoffset="0" stroke-linecap="butt" stroke-linejoin="miter" stroke-miterlimit="4" stroke-opacity="1" marker-end="none" marker-mid="none" marker-start="none" d="M 3.711017,2.5672764 L 44.14077,2.5672764 C 44.291151,2.5672764 44.412216,2.6883413 44.412216,2.8387224 L 44.412216,32.802234 C 44.412216,33.74811 43.662025,33.614418 43.511644,33.614418 L 3.711017,33.614418 C 3.560636,33.614418 3.439571,33.493353 3.439571,33.342972 L 3.439571,2.8387224 C 3.439571,2.6883413 3.560636,2.5672764 3.711017,2.5672764 z" color="#000" display="inline" overflow="visible" visibility="visible"/><rect stroke-linejoin="miter" style="marker:none" id="rect8163" width="35.063" height="25.063" x="6.407" y="5.614" fill="none" fill-opacity="1" fill-rule="nonzero" stroke="#4f4f4f" stroke-dasharray="none" stroke-dashoffset="0" stroke-linecap="butt" stroke-miterlimit="4" stroke-opacity="1" stroke-width="1" marker-end="none" marker-mid="none" marker-start="none" color="#000" display="inline" opacity=".847" overflow="visible" visibility="visible"/><path stroke-width="1" style="marker:none" id="rect8150" fill="url(#radialGradient4624)" fill-opacity="1" fill-rule="nonzero" stroke="none" stroke-dasharray="none" stroke-dashoffset="0" stroke-linecap="butt" stroke-linejoin="miter" stroke-miterlimit="4" stroke-opacity="1" marker-end="none" marker-mid="none" marker-start="none" d="M 3.969285,3.1144179 L 3.969285,25.176918 C 26.295364,26.065279 28.791419,12.114418 43.906785,12.114418 L 43.906785,3.1144179 L 3.969285,3.1144179 z" color="#000" display="inline" opacity=".301" overflow="visible" visibility="visible"/></g><path id="path4475" fill="url(#radialGradient2842)" fill-opacity="1" fill-rule="evenodd" stroke="none" stroke-dasharray="none" stroke-dashoffset="0" stroke-linecap="round" stroke-linejoin="miter" stroke-miterlimit="10" stroke-opacity="1" stroke-width="1" marker-end="none" marker-mid="none" marker-start="none" d="M 40.65864 37.967922 A 16.528622 3.9332814 0 1 1 7.6013966,37.967922 A 16.528622 3.9332814 0 1 1 40.65864 37.967922 z" color="#000" display="inline" opacity=".171" overflow="visible" transform="matrix(1.446431,0,0,1.51999,-10.97453,-13.68583)" visibility="visible" style="marker:none"/><g id="g4572" transform="matrix(0.805118,-0.192885,0.192885,0.805118,17.96103,11.47502)"><path id="path2844" fill="#dcdcdc" fill-opacity="1" fill-rule="evenodd" stroke="url(#linearGradient4582)" stroke-dasharray="none" stroke-dashoffset="0" stroke-linecap="round" stroke-linejoin="miter" stroke-miterlimit="10" stroke-opacity="1" stroke-width="2" marker-end="none" marker-mid="none" marker-start="none" d="M -11.372431,7.2094038 C -19.511561,7.2094038 -26.117232,13.815075 -26.117232,21.954205 C -26.117232,30.093335 -19.511561,36.699007 -11.372431,36.699007 C -7.892876,36.699007 -4.82143,35.314614 -2.298708,33.29636 C -2.504085,34.303241 -2.376743,35.331728 -1.542564,36.056285 L 9.42152,45.583695 C 10.654936,46.655024 12.508982,46.514655 13.58031,45.281238 C 14.651638,44.04782 14.511269,42.193776 13.277853,41.122448 L 2.313769,31.595037 C 1.642242,31.011758 0.820891,30.839068 0.007531,30.952315 C 1.994231,28.439893 3.37237,25.403512 3.37237,21.954205 C 3.37237,13.815075 -3.233301,7.2094038 -11.372431,7.2094038 z M -11.448046,8.4355871 C -3.808587,8.4355871 1.843729,13.224538 1.843729,21.727362 C 1.843729,30.402475 -3.972961,35.019137 -11.448046,35.019137 C -18.750995,35.019137 -24.739819,29.541045 -24.739819,21.727362 C -24.739819,13.743255 -18.915181,8.435587 -11.448046,8.4355871 z" color="#000" display="inline" overflow="visible" visibility="visible" style="marker:none"/><path id="path4430" fill="#dcdcdc" fill-opacity="1" fill-rule="evenodd" stroke="none" stroke-dasharray="none" stroke-dashoffset="0" stroke-linecap="round" stroke-linejoin="miter" stroke-miterlimit="10" stroke-opacity="1" stroke-width="1" marker-end="none" marker-mid="none" marker-start="none" d="M -11.397095,7.1462041 C -19.562535,7.1462041 -26.189559,13.773228 -26.189559,21.938668 C -26.189559,30.104108 -19.562535,36.731132 -11.397095,36.731132 C -7.906292,36.731132 -4.824918,35.342265 -2.29404,33.317487 C -2.500081,34.327623 -2.372328,35.359434 -1.535453,36.086333 L 9.464073,45.64454 C 10.701476,46.719332 12.561515,46.57851 13.636306,45.341105 C 14.711097,44.103701 14.570274,42.243663 13.332871,41.168872 L 2.333346,31.610664 C 1.659648,31.0255 0.835642,30.852251 0.019653,30.965865 C 2.012775,28.445321 3.395369,25.399125 3.395369,21.938668 C 3.395369,13.773228 -3.231655,7.1462041 -11.397095,7.1462041 z M -11.472954,10.332273 C -5.191846,10.332273 -0.094136,15.429984 -0.094136,21.711092 C -0.094136,27.9922 -5.191846,33.08991 -11.472954,33.08991 C -17.754062,33.08991 -22.851772,27.9922 -22.851772,21.711092 C -22.851772,15.429984 -17.754062,10.332273 -11.472954,10.332273 z" color="#000" display="inline" overflow="visible" visibility="visible" style="marker:none"/><path id="path4438" fill="url(#linearGradient4584)" fill-opacity="1" fill-rule="evenodd" stroke="none" stroke-dasharray="none" stroke-dashoffset="0" stroke-linecap="round" stroke-linejoin="miter" stroke-miterlimit="10" stroke-opacity="1" stroke-width="1" marker-end="none" marker-mid="none" marker-start="none" d="M 9.507004,45.643539 C 9.028332,43.370352 10.904334,40.832117 13.091057,40.855164 C 13.091057,40.855164 2.33069,31.597053 2.33069,31.597053 C -0.614101,31.540347 -1.938812,33.869669 -1.446124,36.196975 L 9.507004,45.643539 z" color="#000" display="inline" overflow="visible" visibility="visible" style="marker:none"/><path id="path4450" fill="none" fill-opacity="1" fill-rule="evenodd" stroke="url(#linearGradient4586)" stroke-dasharray="none" stroke-dashoffset="0" stroke-linecap="round" stroke-linejoin="miter" stroke-miterlimit="10" stroke-opacity="1" stroke-width=".803" marker-end="none" marker-mid="none" marker-start="none" d="M 28.549437 18.920233 A 11.048544 11.048544 0 1 1 6.4523487,18.920233 A 11.048544 11.048544 0 1 1 28.549437 18.920233 z" color="#000" display="inline" overflow="visible" transform="matrix(1.245743,0,0,1.245743,-33.42535,-2.111184)" visibility="visible" style="marker:none"/><path id="path4485" fill="url(#radialGradient4588)" fill-opacity="1" fill-rule="evenodd" stroke="none" stroke-dasharray="none" stroke-dashoffset="0" stroke-linecap="round" stroke-linejoin="miter" stroke-miterlimit="10" stroke-opacity="1" stroke-width="1" marker-end="none" marker-mid="none" marker-start="none" d="M 40.65864 37.967922 A 16.528622 3.9332814 0 1 1 7.6013966,37.967922 A 16.528622 3.9332814 0 1 1 40.65864 37.967922 z" color="#000" display="inline" overflow="visible" transform="matrix(0.497764,0,0,0.609621,-21.02647,19.68514)" visibility="visible" style="marker:none"/><rect id="rect4495" width="19.048" height="4.44" x="20.184" y="22.945" fill="none" fill-opacity="1" fill-rule="evenodd" stroke="#fff" stroke-dasharray="none" stroke-dashoffset="0" stroke-linecap="round" stroke-linejoin="miter" stroke-miterlimit="10" stroke-opacity="1" stroke-width="1" marker-end="none" marker-mid="none" marker-start="none" color="#000" display="inline" opacity=".433" overflow="visible" rx="2.581" ry="2.28" transform="matrix(0.752986,0.658037,-0.648902,0.760872,0,0)" visibility="visible" style="marker:none"/><path id="path4452" fill="url(#radialGradient4590)" fill-opacity="1" fill-rule="evenodd" stroke="#3063a3" stroke-dashoffset="0" stroke-linecap="round" stroke-linejoin="miter" stroke-miterlimit="10" stroke-opacity="1" stroke-width=".715" marker-end="none" marker-mid="none" marker-start="none" d="M 25.897786 18.478292 A 8.3085051 8.3085051 0 1 1 9.280776,18.478292 A 8.3085051 8.3085051 0 1 1 25.897786 18.478292 z" color="#000" transform="matrix(1.398614,0,0,1.398614,-36.22434,-4.233109)" visibility="visible" style="marker:none"/><path id="path4462" fill="url(#radialGradient4592)" fill-opacity="1" fill-rule="evenodd" stroke="none" stroke-dasharray="none" stroke-dashoffset="0" stroke-linecap="round" stroke-linejoin="miter" stroke-miterlimit="10" stroke-opacity="1" stroke-width="1" marker-end="none" marker-mid="none" marker-start="none" d="M -11.843085,11.462543 C -17.050675,11.462543 -21.267632,15.6795 -21.267632,20.88709 C -21.267632,22.391065 -20.847325,23.774863 -20.22046,25.036993 C -18.96808,25.498606 -17.637703,25.812676 -16.225693,25.812676 C -10.054738,25.812676 -5.126411,20.951039 -4.745587,14.875547 C -6.476551,12.830016 -8.955626,11.462543 -11.843085,11.462543 z" color="#000" display="inline" opacity=".592" overflow="visible" visibility="visible" style="marker:none"/></g></g></svg>