<svg xmlns="http://www.w3.org/2000/svg" xmlns:cc="http://web.resource.org/cc/" xmlns:svg="http://www.w3.org/2000/svg" xmlns:xlink="http://www.w3.org/1999/xlink" id="svg2108" width="48" height="48"><defs id="defs3"><linearGradient id="linearGradient4356"><stop id="stop4358" offset="0" stop-color="#000" stop-opacity="1"/><stop id="stop4360" offset="1" stop-color="#000" stop-opacity="0"/></linearGradient><linearGradient id="linearGradient4344"><stop id="stop4346" offset="0" stop-color="#727e0a" stop-opacity="1"/><stop id="stop4348" offset="1" stop-color="#5b6508" stop-opacity="1"/></linearGradient><linearGradient id="linearGradient4338"><stop id="stop4340" offset="0" stop-color="#e9b15e" stop-opacity="1"/><stop id="stop4342" offset="1" stop-color="#966416" stop-opacity="1"/></linearGradient><linearGradient id="linearGradient4163"><stop id="stop4165" offset="0" stop-color="#3b74bc" stop-opacity="1"/><stop id="stop4167" offset="1" stop-color="#2d5990" stop-opacity="1"/></linearGradient><linearGradient id="linearGradient3824"><stop id="stop3826" offset="0" stop-color="#fff" stop-opacity="1"/><stop id="stop3828" offset="1" stop-color="#c9c9c9" stop-opacity="1"/></linearGradient><linearGradient id="linearGradient3816"><stop id="stop3818" offset="0" stop-color="#000" stop-opacity="1"/><stop id="stop3820" offset="1" stop-color="#000" stop-opacity="0"/></linearGradient><linearGradient id="linearGradient3800"><stop id="stop3802" offset="0" stop-color="#f4d9b1" stop-opacity="1"/><stop id="stop3804" offset="1" stop-color="#df9725" stop-opacity="1"/></linearGradient><radialGradient id="radialGradient3806" cx="29.345" cy="17.064" r="9.162" fx="29.345" fy="17.064" gradientUnits="userSpaceOnUse" xlink:href="#linearGradient3800"/><linearGradient id="linearGradient4175" x1="30.936" x2="30.936" y1="29.553" y2="35.803" gradientTransform="translate(0.707108,0.000000)" gradientUnits="userSpaceOnUse" xlink:href="#linearGradient3824"/><linearGradient id="linearGradient4326" x1="30.936" x2="30.936" y1="29.553" y2="35.803" gradientTransform="translate(-12.41789,-7.000000)" gradientUnits="userSpaceOnUse" xlink:href="#linearGradient3824"/><linearGradient id="linearGradient4332" x1="30.936" x2="30.936" y1="29.553" y2="35.803" gradientTransform="translate(-13.12500,-7.000000)" gradientUnits="userSpaceOnUse" xlink:href="#linearGradient3824"/><radialGradient id="radialGradient4350" cx="16.215" cy="19.836" r="13.565" fx="16.215" fy="19.836" gradientTransform="matrix(1.000000,0.000000,0.000000,0.681917,0.000000,8.233773)" gradientUnits="userSpaceOnUse" xlink:href="#linearGradient4344"/><linearGradient id="linearGradient4372" x1="20.662" x2="22.627" y1="35.818" y2="36.218" gradientTransform="matrix(0.983375,0.181588,-0.181588,0.983375,-7.072120,-9.824920)" gradientUnits="userSpaceOnUse" xlink:href="#linearGradient4356"/><linearGradient id="linearGradient4374" x1="22.687" x2="21.408" y1="36.39" y2="35.74" gradientTransform="matrix(-0.977685,0.210075,0.210075,0.977685,41.80576,-11.11866)" gradientUnits="userSpaceOnUse" xlink:href="#linearGradient4356"/><radialGradient id="radialGradient4367" cx="31.113" cy="19.009" r="8.662" fx="31.113" fy="19.009" gradientUnits="userSpaceOnUse" xlink:href="#linearGradient3816"/><radialGradient id="radialGradient4369" cx="31.113" cy="19.009" r="8.662" fx="31.113" fy="19.009" gradientUnits="userSpaceOnUse" xlink:href="#linearGradient3816"/><radialGradient id="radialGradient4371" cx="29.345" cy="17.064" r="9.162" fx="29.345" fy="17.064" gradientTransform="matrix(0.267566,1.316655e-16,-1.316655e-16,0.267566,15.02723,20.21152)" gradientUnits="userSpaceOnUse" xlink:href="#linearGradient4338"/><radialGradient id="radialGradient4373" cx="29.345" cy="17.064" r="9.162" fx="29.345" fy="17.064" gradientTransform="matrix(0.267566,1.316655e-16,-1.316655e-16,0.267566,16.48968,20.14375)" gradientUnits="userSpaceOnUse" xlink:href="#linearGradient3800"/><radialGradient id="radialGradient4399" cx="31.113" cy="19.009" r="8.662" fx="31.113" fy="19.009" gradientUnits="userSpaceOnUse" xlink:href="#linearGradient3816"/><radialGradient id="radialGradient4403" cx="31.113" cy="19.009" r="8.662" fx="31.113" fy="19.009" gradientUnits="userSpaceOnUse" xlink:href="#linearGradient3816"/><radialGradient id="radialGradient4405" cx="29.345" cy="17.064" r="9.162" fx="29.345" fy="17.064" gradientTransform="matrix(0.787998,3.877637e-16,-3.877637e-16,0.787998,6.221198,3.617627)" gradientUnits="userSpaceOnUse" xlink:href="#linearGradient4338"/><radialGradient id="radialGradient4413" cx="31.113" cy="19.009" r="8.662" fx="31.113" fy="19.009" gradientUnits="userSpaceOnUse" xlink:href="#linearGradient3816"/><radialGradient id="radialGradient4419" cx="31.113" cy="19.009" r="8.662" fx="31.113" fy="19.009" gradientUnits="userSpaceOnUse" xlink:href="#linearGradient3816"/><radialGradient id="radialGradient4421" cx="29.345" cy="17.064" r="9.162" fx="29.345" fy="17.064" gradientTransform="matrix(0.787998,3.877637e-16,-3.877637e-16,0.787998,6.221198,3.617627)" gradientUnits="userSpaceOnUse" xlink:href="#linearGradient3800"/><linearGradient id="linearGradient4438" x1="30.936" x2="30.936" y1="29.553" y2="35.803" gradientTransform="matrix(1.091954,0,0,1.091954,7.212621e-2,-5.306401)" gradientUnits="userSpaceOnUse" xlink:href="#linearGradient3824"/><radialGradient id="radialGradient4441" cx="28.09" cy="27.203" r="13.565" fx="28.09" fy="27.203" gradientTransform="matrix(1.416879,3.146105e-16,-2.145383e-16,0.966194,-9.054977,8.836238e-2)" gradientUnits="userSpaceOnUse" xlink:href="#linearGradient4163"/><linearGradient id="linearGradient4451" x1="30.936" x2="30.936" y1="29.553" y2="35.803" gradientTransform="matrix(1.091954,0,0,1.091954,-20.23583,-6.813323)" gradientUnits="userSpaceOnUse" xlink:href="#linearGradient3824"/><radialGradient id="radialGradient4460" cx="16.215" cy="19.836" r="13.565" fx="16.215" fy="19.836" gradientTransform="matrix(1.091954,0,0,0.744622,-4.46089,11.40353)" gradientUnits="userSpaceOnUse" xlink:href="#linearGradient4344"/><linearGradient id="linearGradient1506" x1="22.687" x2="21.408" y1="36.39" y2="35.74" gradientTransform="matrix(-0.977685,0.210075,0.210075,0.977685,41.80576,-11.11866)" gradientUnits="userSpaceOnUse" xlink:href="#linearGradient4356"/><linearGradient id="linearGradient1504" x1="20.662" x2="22.627" y1="35.818" y2="36.218" gradientTransform="matrix(0.983375,0.181588,-0.181588,0.983375,-7.072120,-9.824920)" gradientUnits="userSpaceOnUse" xlink:href="#linearGradient4356"/><linearGradient id="linearGradient4366" x1="22.687" x2="21.408" y1="36.39" y2="35.74" gradientTransform="matrix(-0.977685,0.210075,0.210075,0.977685,55.1096,-3.945209)" gradientUnits="userSpaceOnUse" xlink:href="#linearGradient4356"/><linearGradient id="linearGradient4362" x1="20.662" x2="22.627" y1="35.818" y2="36.218" gradientTransform="matrix(0.983375,0.181588,-0.181588,0.983375,6.231716,-2.651466)" gradientUnits="userSpaceOnUse" xlink:href="#linearGradient4356"/><radialGradient id="radialGradient1500" cx="16.215" cy="19.836" r="13.565" fx="16.215" fy="19.836" gradientTransform="matrix(1.000000,0.000000,0.000000,0.681917,0.000000,8.233773)" gradientUnits="userSpaceOnUse" xlink:href="#linearGradient4344"/><linearGradient id="linearGradient1497" x1="30.936" x2="30.936" y1="29.553" y2="35.803" gradientTransform="translate(-13.12500,-7.000000)" gradientUnits="userSpaceOnUse" xlink:href="#linearGradient3824"/><linearGradient id="linearGradient1493" x1="30.936" x2="30.936" y1="29.553" y2="35.803" gradientTransform="translate(-12.41789,-7.000000)" gradientUnits="userSpaceOnUse" xlink:href="#linearGradient3824"/><radialGradient id="radialGradient4179" cx="31.113" cy="19.009" r="8.662" fx="31.113" fy="19.009" gradientUnits="userSpaceOnUse" xlink:href="#linearGradient3816"/><linearGradient id="linearGradient1490" x1="30.936" x2="30.936" y1="29.553" y2="35.803" gradientTransform="translate(0.707108,0.000000)" gradientUnits="userSpaceOnUse" xlink:href="#linearGradient3824"/><radialGradient id="radialGradient4171" cx="29.345" cy="17.064" r="9.162" fx="29.345" fy="17.064" gradientTransform="matrix(0.787998,3.877637e-16,-3.877637e-16,0.787998,6.221198,3.617627)" gradientUnits="userSpaceOnUse" xlink:href="#linearGradient3800"/><radialGradient id="radialGradient4169" cx="28.09" cy="27.203" r="13.565" fx="28.09" fy="27.203" gradientTransform="matrix(1.297564,2.881172e-16,-1.96472e-16,0.884831,-8.358505,4.940469)" gradientUnits="userSpaceOnUse" xlink:href="#linearGradient4163"/><linearGradient id="linearGradient3830" x1="30.936" x2="30.936" y1="29.553" y2="35.803" gradientUnits="userSpaceOnUse" xlink:href="#linearGradient3824"/><radialGradient id="radialGradient3822" cx="31.113" cy="19.009" r="8.662" fx="31.113" fy="19.009" gradientUnits="userSpaceOnUse" xlink:href="#linearGradient3816"/><radialGradient id="radialGradient1484" cx="29.345" cy="17.064" r="9.162" fx="29.345" fy="17.064" gradientUnits="userSpaceOnUse" xlink:href="#linearGradient3800"/><linearGradient id="linearGradient1478"><stop id="stop1480" offset="0" stop-color="#f4d9b1" stop-opacity="1"/><stop id="stop1482" offset="1" stop-color="#df9725" stop-opacity="1"/></linearGradient><linearGradient id="linearGradient1466"><stop id="stop1468" offset="0" stop-color="#fff" stop-opacity="1"/><stop id="stop1470" offset="1" stop-color="#c9c9c9" stop-opacity="1"/></linearGradient><linearGradient id="linearGradient1460"><stop id="stop1462" offset="0" stop-color="#3b74bc" stop-opacity="1"/><stop id="stop1464" offset="1" stop-color="#2d5990" stop-opacity="1"/></linearGradient><linearGradient id="linearGradient1454"><stop id="stop1456" offset="0" stop-color="#e9b15e" stop-opacity="1"/><stop id="stop1458" offset="1" stop-color="#966416" stop-opacity="1"/></linearGradient><linearGradient id="linearGradient1448"><stop id="stop1450" offset="0" stop-color="#727e0a" stop-opacity="1"/><stop id="stop1452" offset="1" stop-color="#5b6508" stop-opacity="1"/></linearGradient><radialGradient id="radialGradient1575" cx="31.113" cy="19.009" r="8.662" fx="31.113" fy="19.009" gradientUnits="userSpaceOnUse" xlink:href="#linearGradient3816"/><radialGradient id="radialGradient1579" cx="31.113" cy="19.009" r="8.662" fx="31.113" fy="19.009" gradientUnits="userSpaceOnUse" xlink:href="#linearGradient3816"/><radialGradient id="radialGradient1581" cx="29.345" cy="17.064" r="9.162" fx="29.345" fy="17.064" gradientTransform="matrix(0.787998,3.877637e-16,-3.877637e-16,0.787998,6.221198,3.617627)" gradientUnits="userSpaceOnUse" xlink:href="#linearGradient4338"/><linearGradient id="linearGradient1590" x1="22.687" x2="21.408" y1="36.39" y2="35.74" gradientTransform="matrix(-0.977685,0.210075,0.210075,0.977685,87.1236,-3.36141)" gradientUnits="userSpaceOnUse" xlink:href="#linearGradient4356"/><linearGradient id="linearGradient1596" x1="30.936" x2="30.936" y1="29.553" y2="35.803" gradientTransform="translate(32.89995,0.75725)" gradientUnits="userSpaceOnUse" xlink:href="#linearGradient3824"/><radialGradient id="radialGradient1605" cx="16.215" cy="19.836" r="13.565" fx="16.215" fy="19.836" gradientTransform="matrix(1,0,0,0.681917,45.31784,15.99102)" gradientUnits="userSpaceOnUse" xlink:href="#linearGradient4344"/><radialGradient id="radialGradient2481" cx="16.691" cy="26.655" r="5.007" fx="16.691" fy="26.655" gradientTransform="matrix(-2.374369,-3.683884e-2,1.691102e-2,-1.08993,50.10878,62.16619)" gradientUnits="userSpaceOnUse" xlink:href="#linearGradient4356"/><radialGradient id="radialGradient2485" cx="13.541" cy="30.231" r="5.007" fx="13.541" fy="30.231" gradientTransform="matrix(-0.806302,2.342756e-6,9.208376e-7,0.321036,44.43072,19.25688)" gradientUnits="userSpaceOnUse" xlink:href="#linearGradient4356"/><radialGradient id="radialGradient2488" cx="13.198" cy="29.968" r="5.007" fx="13.198" fy="29.968" gradientTransform="matrix(-1.256791,2.27057e-2,7.651146e-3,0.423504,52.73764,16.94703)" gradientUnits="userSpaceOnUse" xlink:href="#linearGradient4356"/></defs><metadata id="metadata4"/><g id="layer1" display="inline"><path id="path4177" fill="url(#radialGradient4399)" fill-opacity="1" fill-rule="evenodd" stroke="none" stroke-dasharray="none" stroke-dashoffset="0" stroke-linecap="round" stroke-linejoin="round" stroke-miterlimit="4" stroke-opacity="1" stroke-width="1" marker-end="none" marker-mid="none" marker-start="none" d="M 39.774755 19.008621 A 8.6620579 8.6620579 0 1 1 22.45064,19.008621 A 8.6620579 8.6620579 0 1 1 39.774755 19.008621 z" color="#000" display="inline" overflow="visible" transform="matrix(1.58051,0,0,0.894679,-34.42709,19.81269)" visibility="visible" style="marker:none"/><path id="path2329" fill="url(#radialGradient4460)" fill-opacity="1" fill-rule="evenodd" stroke="#404604" stroke-dasharray="none" stroke-dashoffset="0" stroke-linecap="round" stroke-linejoin="round" stroke-miterlimit="4" stroke-opacity="1" stroke-width="1.092" marker-end="none" marker-mid="none" marker-start="none" d="M 9.6630798,40.07325 L 21.164833,40.233581 C 24.446377,40.233581 25.991116,39.030402 22.240547,31.64512 C 28.672044,28.625735 30.503192,24.480856 21.743928,21.123417 L 8.0386585,21.123417 C 4.1505599,21.988404 0.9892565,24.796848 0.99457958,29.059942 C 1.1417598,31.535269 1.7249037,33.867617 5.179397,35.363519 C 3.1954644,40.132537 7.9257927,40.07325 9.6630798,40.07325 z" color="#000" display="inline" overflow="visible" visibility="visible" style="marker:none"/><path id="path3812" fill="#9db029" fill-opacity="1" fill-rule="evenodd" stroke="none" stroke-dasharray="none" stroke-dashoffset="0" stroke-linecap="round" stroke-linejoin="round" stroke-miterlimit="4" stroke-opacity="1" stroke-width="1" marker-end="none" marker-mid="none" marker-start="none" d="M 15.120423,24.018896 C 15.120423,24.018896 12.771278,25.831904 12.973652,28.016028 C 10.744728,26.049645 10.680687,22.281608 10.680687,22.281608 L 15.120423,24.018896 z" color="#000" display="inline" overflow="visible" visibility="visible" style="marker:none"/><path stroke-width="1.092" style="marker:none" id="path3838" fill="none" fill-opacity="1" fill-rule="evenodd" stroke="#fff" stroke-dasharray="none" stroke-dashoffset="0" stroke-linecap="round" stroke-linejoin="round" stroke-miterlimit="4" stroke-opacity="1" marker-end="none" marker-mid="none" marker-start="none" d="M 7.3732795,38.991355 L 20.963403,39.07152 C 25.032566,39.308861 23.157114,37.06439 20.937452,31.097473 C 27.915873,27.782362 29.066268,24.953413 21.199083,22.285458 L 8.6146172,22.285458 C 3.6946264,22.587028 1.3338021,27.280707 2.2560563,31.173752 C 3.0116763,32.830112 4.8704894,34.014693 6.3813053,34.430914 C 8.2331511,34.705331 13.819303,34.935938 19.941026,34.266168 C 14.303416,35.072228 9.1513939,35.78888 6.3672036,35.371577 C 5.0868472,38.092073 6.7305241,38.851064 7.3732795,38.991355 z" color="#000" display="inline" opacity=".215" overflow="visible" visibility="visible"/><path id="path3810" fill="#9db029" fill-opacity="1" fill-rule="evenodd" stroke="none" stroke-dasharray="none" stroke-dashoffset="0" stroke-linecap="round" stroke-linejoin="round" stroke-miterlimit="4" stroke-opacity="1" stroke-width="1" marker-end="none" marker-mid="none" marker-start="none" d="M 16.18882,24.018896 C 16.18882,24.018896 18.537966,25.831904 18.335592,28.016028 C 20.564516,26.049645 20.628557,22.281608 20.628557,22.281608 L 16.18882,24.018896 z" color="#000" display="inline" overflow="visible" visibility="visible" style="marker:none"/><path id="path3814" fill="url(#radialGradient4403)" fill-opacity="1" fill-rule="evenodd" stroke="none" stroke-dasharray="none" stroke-dashoffset="0" stroke-linecap="round" stroke-linejoin="round" stroke-miterlimit="4" stroke-opacity="1" stroke-width="1" marker-end="none" marker-mid="none" marker-start="none" d="M 39.774755 19.008621 A 8.6620579 8.6620579 0 1 1 22.45064,19.008621 A 8.6620579 8.6620579 0 1 1 39.774755 19.008621 z" color="#000" display="inline" overflow="visible" transform="matrix(1.091954,0,0,1.091954,-18.92927,-1.409208)" visibility="visible" style="marker:none"/><path id="path2327" fill="url(#radialGradient4405)" fill-opacity="1" fill-rule="evenodd" stroke="#6f4709" stroke-dasharray="none" stroke-dashoffset="0" stroke-linecap="round" stroke-linejoin="round" stroke-miterlimit="4" stroke-opacity="1" stroke-width="1" marker-end="none" marker-mid="none" marker-start="none" d="M 39.774755 19.008621 A 8.6620579 8.6620579 0 1 1 22.45064,19.008621 A 8.6620579 8.6620579 0 1 1 39.774755 19.008621 z" color="#000" display="inline" overflow="visible" transform="matrix(1.091954,0,0,1.091954,-18.79278,-5.231046)" visibility="visible" style="marker:none"/><path stroke-width="1.14" style="marker:none" id="path3834" fill="none" fill-opacity="1" fill-rule="evenodd" stroke="#fff" stroke-dasharray="none" stroke-dashoffset="0" stroke-linecap="round" stroke-linejoin="round" stroke-miterlimit="4" stroke-opacity="1" marker-end="none" marker-mid="none" marker-start="none" d="M 39.774755 19.008621 A 8.6620579 8.6620579 0 1 1 22.45064,19.008621 A 8.6620579 8.6620579 0 1 1 39.774755 19.008621 z" color="#000" display="inline" opacity=".127" overflow="visible" transform="matrix(0.957747,0,0,0.957747,-14.61723,-2.679951)" visibility="visible"/><path id="path4173" fill="url(#linearGradient4451)" fill-opacity="1" fill-rule="evenodd" stroke="none" stroke-dasharray="none" stroke-dashoffset="0" stroke-linecap="round" stroke-linejoin="round" stroke-miterlimit="4" stroke-opacity="1" stroke-width="1" marker-end="none" marker-mid="none" marker-start="none" d="M 17.984487,30.350929 L 21.193204,30.430042 L 19.914807,27.841513 L 19.335711,28.61364 L 18.756614,28.034545 L 17.984487,30.350929 z" color="#000" display="inline" overflow="visible" visibility="visible" style="marker:none"/><path id="path5357" fill="none" fill-opacity="1" fill-rule="evenodd" stroke="#404604" stroke-dasharray="none" stroke-dashoffset="0" stroke-linecap="round" stroke-linejoin="round" stroke-miterlimit="4" stroke-opacity="1" stroke-width="1.092" marker-end="none" marker-mid="none" marker-start="none" d="M 1.023959,29.90077 C 1.9487406,38.221471 14.387972,35.440162 20.844171,35.263321" color="#000" display="inline" overflow="visible" visibility="visible" style="marker:none"/><path stroke-width="1" style="marker:none" id="path4368" fill="url(#radialGradient2481)" fill-opacity="1" fill-rule="evenodd" stroke="none" stroke-dasharray="none" stroke-dashoffset="0" stroke-linecap="round" stroke-linejoin="round" stroke-miterlimit="4" stroke-opacity="1" marker-end="none" marker-mid="none" marker-start="none" d="M 17.814941,30.563179 C 14.118533,30.653659 10.48155,30.796243 6.8813219,30.197493 C 5.3883587,29.529345 7.0592496,28.189013 7.6449391,26.99162 C 8.1988417,28.349295 10.571767,26.718051 14.013848,27.766866 C 18.051408,28.997125 18.640568,28.183197 17.814941,30.563179 z" color="#000" display="inline" opacity=".228" overflow="visible" visibility="visible"/></g><g id="layer2" display="inline"><path id="path1469" fill="url(#radialGradient4413)" fill-opacity="1" fill-rule="evenodd" stroke="none" stroke-dasharray="none" stroke-dashoffset="0" stroke-linecap="round" stroke-linejoin="round" stroke-miterlimit="4" stroke-opacity="1" stroke-width="1" marker-end="none" marker-mid="none" marker-start="none" d="M 39.774755 19.008621 A 8.6620579 8.6620579 0 1 1 22.45064,19.008621 A 8.6620579 8.6620579 0 1 1 39.774755 19.008621 z" color="#000" display="inline" overflow="visible" transform="matrix(1.644928,0,0,0.774367,-17.28889,22.66562)" visibility="visible" style="marker:none"/><path id="path1471" fill="url(#radialGradient4441)" fill-opacity="1" fill-rule="evenodd" stroke="#204a87" stroke-dasharray="none" stroke-dashoffset="0" stroke-linecap="round" stroke-linejoin="round" stroke-miterlimit="4" stroke-opacity="1" stroke-width="1.092" marker-end="none" marker-mid="none" marker-start="none" d="M 28.447825,40.158226 L 40.029742,40.158226 C 43.795172,40.158226 43.229141,38.829791 42.26086,34.820143 C 43.558528,34.253334 46.052406,32.252466 46.382012,31.38187 C 46.739668,29.228237 47.944053,26.066892 40.60884,21.048062 L 26.903569,21.048062 C 18.282706,19.592067 29.766678,26.177849 25.720224,31.209 C 24.057413,38.142876 24.973249,40.158226 28.447825,40.158226 z" color="#000" display="inline" overflow="visible" visibility="visible" style="marker:none"/><path id="path1473" fill="url(#linearGradient4438)" fill-opacity="1" fill-rule="evenodd" stroke="none" stroke-dashoffset="0" stroke-linecap="round" stroke-linejoin="round" stroke-miterlimit="4" stroke-opacity="1" stroke-width="1" marker-end="none" marker-mid="none" marker-start="none" d="M 29.219953,22.785349 C 30.95724,24.329604 32.279345,27.702746 33.099732,30.887774 L 35.675188,30.476318 C 36.399058,27.267161 37.134262,24.233088 38.485486,22.592317 L 29.219953,22.785349 z" color="#000" display="inline" overflow="visible" visibility="visible" style="marker:none"/><path id="path1475" fill="none" fill-opacity="1" fill-rule="evenodd" stroke="#fff" stroke-dasharray="none" stroke-dashoffset="0" stroke-linecap="round" stroke-linejoin="round" stroke-miterlimit="4" stroke-opacity="1" stroke-width="1.092" marker-end="none" marker-mid="none" marker-start="none" d="M 25.266987,21.864104 C 25.226327,21.870111 25.17355,21.894475 25.143295,21.905336 C 25.133769,21.909223 25.110491,21.942139 25.102064,21.946566 C 25.09812,21.948913 25.064509,21.944085 25.060833,21.946566 C 25.055054,21.952333 25.024361,21.981495 25.019602,21.987798 C 25.01772,21.991217 25.021238,22.025475 25.019602,22.029028 C 25.018683,22.032982 25.020288,22.066173 25.019602,22.07026 C 25.019375,22.074613 25.019605,22.107004 25.019602,22.11149 C 25.022238,22.140001 25.009433,22.201897 25.019602,22.235184 C 25.379176,23.234933 28.616922,26.212307 27.493459,30.934912 C 26.017308,36.233518 24.99362,38.992048 28.359308,39.016177 C 32.794836,38.975191 40.638067,39.355776 41.841542,38.77026 C 41.895359,37.48107 41.133203,35.719214 41.136102,34.185264 C 39.655894,34.61938 36.943046,35.249674 28.895311,34.893082 C 35.947338,35.24877 44.145993,33.527907 45.299126,30.812687 C 46.274902,28.26821 45.040063,25.392162 40.139158,22.035862 L 27.410997,22.193952 C 26.24236,21.926828 25.592276,21.816044 25.266987,21.864104 z" color="#000" display="inline" opacity=".215" overflow="visible" visibility="visible" style="marker:none"/><path id="path1477" fill="url(#radialGradient4419)" fill-opacity="1" fill-rule="evenodd" stroke="none" stroke-dasharray="none" stroke-dashoffset="0" stroke-linecap="round" stroke-linejoin="round" stroke-miterlimit="4" stroke-opacity="1" stroke-width="1" marker-end="none" marker-mid="none" marker-start="none" d="M 39.774755 19.008621 A 8.6620579 8.6620579 0 1 1 22.45064,19.008621 A 8.6620579 8.6620579 0 1 1 39.774755 19.008621 z" color="#000" display="inline" overflow="visible" transform="matrix(1.091954,0,0,1.091954,-6.436429e-2,-1.484563)" visibility="visible" style="marker:none"/><path id="path1479" fill="url(#radialGradient4421)" fill-opacity="1" fill-rule="evenodd" stroke="#c17d11" stroke-dasharray="none" stroke-dashoffset="0" stroke-linecap="round" stroke-linejoin="round" stroke-miterlimit="4" stroke-opacity="1" stroke-width="1" marker-end="none" marker-mid="none" marker-start="none" d="M 39.774755 19.008621 A 8.6620579 8.6620579 0 1 1 22.45064,19.008621 A 8.6620579 8.6620579 0 1 1 39.774755 19.008621 z" color="#000" display="inline" overflow="visible" transform="matrix(1.091954,0,0,1.091954,7.212621e-2,-5.306401)" visibility="visible" style="marker:none"/><path stroke-width="1.14" style="marker:none" id="path1481" fill="none" fill-opacity="1" fill-rule="evenodd" stroke="#fff" stroke-dasharray="none" stroke-dashoffset="0" stroke-linecap="round" stroke-linejoin="round" stroke-miterlimit="4" stroke-opacity="1" marker-end="none" marker-mid="none" marker-start="none" d="M 39.774755 19.008621 A 8.6620579 8.6620579 0 1 1 22.45064,19.008621 A 8.6620579 8.6620579 0 1 1 39.774755 19.008621 z" color="#000" display="inline" opacity=".196" overflow="visible" transform="matrix(0.957747,0,0,0.957747,4.24768,-2.755306)" visibility="visible"/><path id="path4469" fill="none" fill-opacity="1" fill-rule="evenodd" stroke="#204a87" stroke-dasharray="none" stroke-dashoffset="0" stroke-linecap="round" stroke-linejoin="round" stroke-miterlimit="4" stroke-opacity="1" stroke-width="1.092" marker-end="none" marker-mid="none" marker-start="none" d="M 27.979314,35.594798 C 29.945243,36.218419 42.695336,36.461947 46.259054,31.364305" color="#000" display="inline" overflow="visible" visibility="visible" style="marker:none"/><g id="g4359" transform="matrix(1.31939,0,0,1.31939,-7.938224,-0.402181)"><path id="path1534" fill="url(#radialGradient4367)" fill-opacity="1" fill-rule="evenodd" stroke="none" stroke-dasharray="none" stroke-dashoffset="0" stroke-linecap="round" stroke-linejoin="round" stroke-miterlimit="4" stroke-opacity="1" stroke-width="1" marker-end="none" marker-mid="none" marker-start="none" d="M 39.774755 19.008621 A 8.6620579 8.6620579 0 1 1 22.45064,19.008621 A 8.6620579 8.6620579 0 1 1 39.774755 19.008621 z" color="#000" display="inline" overflow="visible" transform="matrix(0.339551,0,0,0.339551,14.68425,19.57896)" visibility="visible" style="marker:none"/><path id="path4318" fill="url(#radialGradient4369)" fill-opacity="1" fill-rule="evenodd" stroke="none" stroke-dasharray="none" stroke-dashoffset="0" stroke-linecap="round" stroke-linejoin="round" stroke-miterlimit="4" stroke-opacity="1" stroke-width="1" marker-end="none" marker-mid="none" marker-start="none" d="M 39.774755 19.008621 A 8.6620579 8.6620579 0 1 1 22.45064,19.008621 A 8.6620579 8.6620579 0 1 1 39.774755 19.008621 z" color="#000" display="inline" overflow="visible" transform="matrix(0.339551,0,0,0.339551,12.37005,19.59432)" visibility="visible" style="marker:none"/><path id="path1598" fill="url(#radialGradient4371)" fill-opacity="1" fill-rule="evenodd" stroke="#6f4709" stroke-dashoffset="0" stroke-linecap="round" stroke-linejoin="round" stroke-miterlimit="4" stroke-opacity="1" stroke-width=".34" marker-end="none" marker-mid="none" marker-start="none" d="M 23.804875,25.386267 C 23.804875,27.009815 25.10271,28.378761 23.479162,28.378761 C 21.855614,28.378761 20.537952,27.061099 20.537952,25.437551 C 20.537952,23.814003 21.855614,22.49634 23.479162,22.49634 C 25.10271,22.49634 23.804875,23.762719 23.804875,25.386267 z" color="#000" display="inline" overflow="visible" visibility="visible" style="marker:none"/><path id="path2486" fill="none" fill-opacity="1" fill-rule="evenodd" stroke="#fff" stroke-dashoffset="0" stroke-linecap="round" stroke-linejoin="round" stroke-miterlimit="4" stroke-opacity="1" stroke-width=".34" marker-end="none" marker-mid="none" marker-start="none" d="M 23.47954,25.363104 C 23.418495,26.407592 24.042529,27.681702 23.930432,27.936057 C 23.431716,28.312502 21.00112,27.90642 20.858681,25.407024 C 20.858681,24.016614 22.109073,22.654158 23.798168,22.857642 C 24.266361,22.87799 23.47954,23.972694 23.47954,25.363104 z" color="#000" display="inline" opacity=".196" overflow="visible" visibility="visible" style="marker:none"/><path stroke-width=".34" style="marker:none" id="path4320" fill="url(#radialGradient4373)" fill-opacity="1" fill-rule="evenodd" stroke="#c17d11" stroke-dashoffset="0" stroke-linecap="round" stroke-linejoin="round" stroke-miterlimit="4" stroke-opacity="1" marker-end="none" marker-mid="none" marker-start="none" d="M 24.790919,22.427068 C 23.363924,22.52394 24.165226,24.156887 24.165226,25.729699 C 24.257388,26.427905 24.891271,27.909823 24.504916,28.310696 C 24.689358,28.305376 24.58201,28.311936 24.944772,28.311936 C 26.56832,28.311936 27.880795,26.999461 27.880795,25.375913 C 27.880795,23.752364 26.56832,22.427068 24.944772,22.427068 C 24.894036,22.427068 24.836951,22.423943 24.790919,22.427068 z" color="#000" display="inline" overflow="visible" visibility="visible"/><path id="path1609" fill="none" fill-opacity="1" fill-rule="evenodd" stroke="#fff" stroke-dasharray="none" stroke-dashoffset="0" stroke-linecap="round" stroke-linejoin="round" stroke-miterlimit="4" stroke-opacity="1" stroke-width=".34" marker-end="none" marker-mid="none" marker-start="none" d="M 24.919765,22.771812 C 23.694984,22.693715 24.514396,24.286605 24.509925,25.690078 C 24.591913,26.100073 25.007377,27.620873 24.954871,27.993076 C 26.241005,27.942205 27.53931,26.748426 27.54471,25.410891 C 27.550108,24.073434 26.473914,22.779254 24.919765,22.771812 z" color="#000" display="inline" opacity=".196" overflow="visible" visibility="visible" style="marker:none"/></g><path id="path2483" fill="url(#radialGradient2488)" fill-opacity="1" fill-rule="evenodd" stroke="none" stroke-dasharray="none" stroke-dashoffset="0" stroke-linecap="round" stroke-linejoin="round" stroke-miterlimit="4" stroke-opacity="1" stroke-width="1" marker-end="none" marker-mid="none" marker-start="none" d="M 41.624286,32.5017 C 44.85731,28.225977 42.501911,26.242961 39.790954,27.489876 C 41.184766,29.365889 40.409894,29.351729 36.167877,30.365359 C 33.060923,31.01724 28.949469,31.353694 28.949469,31.353694 C 28.949469,31.353694 35.360696,33.364027 41.624286,32.5017 z" color="#000" display="inline" opacity=".228" overflow="visible" visibility="visible" style="marker:none"/></g></svg>