<svg xmlns="http://www.w3.org/2000/svg" xmlns:svg="http://www.w3.org/2000/svg" xmlns:xlink="http://www.w3.org/1999/xlink" id="svg2885" width="48" height="48" version="1.1"><title id="title2826">gramps-geo-mainmap</title><defs id="defs2887"><linearGradient id="linearGradient3678" x1="288.368" x2="359.155" y1="423.653" y2="423.653" gradientUnits="userSpaceOnUse" xlink:href="#linearGradient3668"/><linearGradient id="linearGradient3668"><stop id="stop3670" offset="0" stop-color="#000" stop-opacity="1"/><stop id="stop3672" offset="1" stop-color="#000" stop-opacity="0"/></linearGradient><linearGradient id="linearGradient2933" x1="288.368" x2="359.155" y1="423.653" y2="423.653" gradientUnits="userSpaceOnUse" xlink:href="#linearGradient3668"/></defs><metadata id="metadata2890"/><g id="layer1"><g id="g2924" transform="matrix(0.17199268,0,0,0.17199268,22.498415,21.978915)"><path id="path2453" fill="#000" fill-opacity="1" fill-rule="evenodd" stroke="#000" stroke-linecap="butt" stroke-linejoin="miter" stroke-opacity="1" stroke-width="1" d="M -7.3280437,99.688239 C 52.392489,112.24117 40.973749,81.525559 40.973749,81.525559 l 29.48923,-19.77662 c 0,0 15.33285,1.24267 25.51172,0.55428 5.809741,-0.39292 15.582901,-6.08404 13.705391,-12.80082 C 102.59575,24.158229 66.496889,9.0898787 42.522839,7.9989287 c -11.82208,-0.53797 -17.1668,4.0514603 -17.1668,4.0514603 -8.95006,5.63522 0.50864,22.64179 0.50864,22.64179 L 2.3205863,58.062719 c -56.5463703,-4.60402 -28.7859003,28.67243 -28.7859003,28.67243 l -57.30311,53.256671 c 0,0 -0.50709,8.88643 15.73561,-0.0636 l 60.7047703,-40.239951 0,-3e-5 z"/><g id="g2893" fill="url(#linearGradient2933)" fill-opacity="1" transform="translate(-377.63439,-338.79656)"><path id="path3225" fill="#8ae234" fill-opacity="1" fill-rule="evenodd" stroke="#000" stroke-dasharray="none" stroke-linecap="butt" stroke-linejoin="miter" stroke-miterlimit="4" stroke-opacity="1" stroke-width="6" d="M 319.44354,366.56878 292.72208,469.6616 c -2.1317,22.81794 12.07963,3.30695 12.07963,3.30695 l 50.2167,-93.83671 -35.57487,-12.56306 z"/></g><path id="path3227" fill="#8ae234" fill-opacity="1" stroke="#000" stroke-dasharray="none" stroke-dashoffset="0" stroke-linecap="round" stroke-miterlimit="4" stroke-opacity="1" stroke-width="6" d="m 26.233499,22.655739 c -3.19176,8.00888 -12.17263,13.95644 -24.4071727,16.16357 -12.2345303,2.20713 -27.5720603,0.64666 -41.6825503,-4.24087 -14.11049,-4.88752 -26.82016,-13.0419 -34.54087,-22.16104 -7.72071,-9.1191303 -10.35737,-19.0907203 -7.16561,-27.0996 3.19176,-8.008884 14.51353,-11.713444 26.88494,-12.199134 14.55253,-0.57132 26.44444,0.74125 37.28908,4.40699 10.8446403,3.665744 20.6420203,9.684664 31.005483,18.5260437 9.08309,7.74905 15.80846,18.5951603 12.6167,26.6040403 z"/><path id="path3233" fill="#8ae234" fill-opacity="1" fill-rule="nonzero" stroke="#000" stroke-dasharray="none" stroke-linecap="butt" stroke-linejoin="miter" stroke-miterlimit="4" stroke-opacity="1" stroke-width="6.083" d="m -40.487424,-67.046765 -18.05941,58.3595337 C -52.909284,12.866729 -9.8369237,26.548859 5.3993663,12.594929 L 27.104489,-38.965035"/><path id="path3231" fill="#8ae234" fill-opacity="1" fill-rule="nonzero" stroke="#000" stroke-dasharray="none" stroke-linecap="butt" stroke-linejoin="miter" stroke-miterlimit="4" stroke-opacity="1" stroke-width="6" d="m -44.801154,-110.06678 -8.37934,22.182435 c 0.65991,29.40996 75.840293,61.52608 107.732193,40.77249 l 9.61302,-23.20386"/><path id="path3229" fill="#8ae234" fill-opacity="1" stroke="#000" stroke-dasharray="none" stroke-dashoffset="0" stroke-linecap="round" stroke-miterlimit="4" stroke-opacity="1" stroke-width="6" d="m 62.389519,-65.463465 c -3.80036,4.94256 -13.30111,7.46121 -25.81914,6.84467 -12.51803,-0.61655 -27.8990727,-4.36071 -41.7993327,-10.17507 -13.9002603,-5.81436 -26.1484503,-13.62728 -33.2855203,-21.23229 -7.13708,-7.60502 -10.0662,-14.412865 -6.25783,-19.352075 3.80036,-4.94256 14.29222,-7.95676 26.81025,-7.34022 12.5180303,0.61655 27.8990703,4.36071 41.799333,10.17507 13.90026,5.81436 26.14845,13.627285 33.28552,21.232295 7.13708,7.60502 9.07509,14.90841 5.26672,19.84762 z"/></g></g></svg>