<svg xmlns="http://www.w3.org/2000/svg" xmlns:cc="http://web.resource.org/cc/" xmlns:svg="http://www.w3.org/2000/svg" xmlns:xlink="http://www.w3.org/1999/xlink" id="svg2108" width="48" height="48"><defs id="defs3"><linearGradient id="linearGradient1739" x1="30.936" x2="30.936" y1="29.553" y2="35.803" gradientTransform="matrix(1.386065,0,0,1.320668,-57.80026,8.794486)" gradientUnits="userSpaceOnUse" xlink:href="#linearGradient3824"/><linearGradient id="linearGradient1736" x1="22.687" x2="21.408" y1="36.39" y2="35.74" gradientTransform="matrix(-1.355135,0.277439,0.291178,1.291197,17.35724,3.355106)" gradientUnits="userSpaceOnUse" xlink:href="#linearGradient4356"/><radialGradient id="radialGradient1702" cx="31.113" cy="19.009" r="8.662" fx="31.113" fy="19.009" gradientUnits="userSpaceOnUse" xlink:href="#linearGradient3816"/><linearGradient id="linearGradient3493"><stop id="stop3495" offset="0" stop-color="#888a85" stop-opacity="1"/><stop id="stop3497" offset="1" stop-color="#555753" stop-opacity=".941"/></linearGradient><radialGradient id="radialGradient1732" cx="28.09" cy="27.203" r="13.565" fx="28.09" fy="27.203" gradientTransform="matrix(1.798508,3.805072e-16,-2.72323e-16,1.168568,-52.17368,24.56388)" gradientUnits="userSpaceOnUse" xlink:href="#linearGradient3493"/><linearGradient id="linearGradient1729" x1="30.936" x2="30.936" y1="29.553" y2="35.803" gradientTransform="matrix(1.386065,0,0,1.320668,-40.58826,18.03917)" gradientUnits="userSpaceOnUse" xlink:href="#linearGradient3824"/><radialGradient id="radialGradient1708" cx="31.113" cy="19.009" r="8.662" fx="31.113" fy="19.009" gradientUnits="userSpaceOnUse" xlink:href="#linearGradient3816"/><linearGradient id="linearGradient2614"><stop id="stop2616" offset="0" stop-color="#d3d7cf" stop-opacity="1"/><stop id="stop2618" offset="1" stop-color="#aeb1a9" stop-opacity="1"/></linearGradient><radialGradient id="radialGradient1710" cx="29.345" cy="17.064" r="9.162" fx="29.345" fy="17.064" gradientTransform="matrix(0.787998,3.877637e-16,-3.877637e-16,0.787998,6.221198,3.617627)" gradientUnits="userSpaceOnUse" xlink:href="#linearGradient2614"/><linearGradient id="linearGradient1720" x1="20.662" x2="22.627" y1="35.818" y2="36.218" gradientTransform="matrix(1.363022,0.239817,-0.251693,1.298712,-31.9507,14.53746)" gradientUnits="userSpaceOnUse" xlink:href="#linearGradient4356"/><linearGradient id="linearGradient1717" x1="22.687" x2="21.408" y1="36.39" y2="35.74" gradientTransform="matrix(-1.355135,0.277439,0.291178,1.291197,35.79723,12.82885)" gradientUnits="userSpaceOnUse" xlink:href="#linearGradient4356"/><linearGradient id="linearGradient4356"><stop id="stop4358" offset="0" stop-color="#000" stop-opacity="1"/><stop id="stop4360" offset="1" stop-color="#000" stop-opacity="0"/></linearGradient><linearGradient id="linearGradient4344"><stop id="stop4346" offset="0" stop-color="#727e0a" stop-opacity="1"/><stop id="stop4348" offset="1" stop-color="#5b6508" stop-opacity="1"/></linearGradient><linearGradient id="linearGradient4338"><stop id="stop4340" offset="0" stop-color="#e9b15e" stop-opacity="1"/><stop id="stop4342" offset="1" stop-color="#966416" stop-opacity="1"/></linearGradient><linearGradient id="linearGradient4163"><stop id="stop4165" offset="0" stop-color="#3b74bc" stop-opacity="1"/><stop id="stop4167" offset="1" stop-color="#2d5990" stop-opacity="1"/></linearGradient><linearGradient id="linearGradient3824"><stop id="stop3826" offset="0" stop-color="#fff" stop-opacity="1"/><stop id="stop3828" offset="1" stop-color="#c9c9c9" stop-opacity="1"/></linearGradient><linearGradient id="linearGradient3816"><stop id="stop3818" offset="0" stop-color="#000" stop-opacity="1"/><stop id="stop3820" offset="1" stop-color="#000" stop-opacity="0"/></linearGradient><linearGradient id="linearGradient3800"><stop id="stop3802" offset="0" stop-color="#f4d9b1" stop-opacity="1"/><stop id="stop3804" offset="1" stop-color="#df9725" stop-opacity="1"/></linearGradient><radialGradient id="radialGradient3806" cx="29.345" cy="17.064" r="9.162" fx="29.345" fy="17.064" gradientUnits="userSpaceOnUse" xlink:href="#linearGradient3800"/><linearGradient id="linearGradient4175" x1="30.936" x2="30.936" y1="29.553" y2="35.803" gradientTransform="translate(0.707108,0.000000)" gradientUnits="userSpaceOnUse" xlink:href="#linearGradient3824"/><linearGradient id="linearGradient4326" x1="30.936" x2="30.936" y1="29.553" y2="35.803" gradientTransform="translate(-12.41789,-7.000000)" gradientUnits="userSpaceOnUse" xlink:href="#linearGradient3824"/><radialGradient id="radialGradient4328" cx="29.345" cy="17.064" r="9.162" fx="29.345" fy="17.064" gradientTransform="matrix(0.787998,0,0,0.787998,6.221198,3.617627)" gradientUnits="userSpaceOnUse" xlink:href="#linearGradient4338"/><radialGradient id="radialGradient4330" cx="31.113" cy="19.009" r="8.662" fx="31.113" fy="19.009" gradientUnits="userSpaceOnUse" xlink:href="#linearGradient3816"/><linearGradient id="linearGradient4332" x1="30.936" x2="30.936" y1="29.553" y2="35.803" gradientTransform="translate(-13.12500,-7.000000)" gradientUnits="userSpaceOnUse" xlink:href="#linearGradient3824"/><radialGradient id="radialGradient4336" cx="31.113" cy="19.009" r="8.662" fx="31.113" fy="19.009" gradientUnits="userSpaceOnUse" xlink:href="#linearGradient3816"/><radialGradient id="radialGradient4350" cx="16.215" cy="19.836" r="13.565" fx="16.215" fy="19.836" gradientTransform="matrix(1.000000,0.000000,0.000000,0.681917,0.000000,8.233773)" gradientUnits="userSpaceOnUse" xlink:href="#linearGradient4344"/><linearGradient id="linearGradient4372" x1="20.662" x2="22.627" y1="35.818" y2="36.218" gradientTransform="matrix(0.983375,0.181588,-0.181588,0.983375,-7.072120,-9.824920)" gradientUnits="userSpaceOnUse" xlink:href="#linearGradient4356"/><linearGradient id="linearGradient4374" x1="22.687" x2="21.408" y1="36.39" y2="35.74" gradientTransform="matrix(-0.977685,0.210075,0.210075,0.977685,41.80576,-11.11866)" gradientUnits="userSpaceOnUse" xlink:href="#linearGradient4356"/><linearGradient id="linearGradient1366" x1="22.687" x2="21.408" y1="36.39" y2="35.74" gradientTransform="matrix(-0.977685,0.210075,0.210075,0.977685,41.80576,-11.11866)" gradientUnits="userSpaceOnUse" xlink:href="#linearGradient4356"/><linearGradient id="linearGradient1369" x1="20.662" x2="22.627" y1="35.818" y2="36.218" gradientTransform="matrix(0.983375,0.181588,-0.181588,0.983375,-7.07212,-9.82492)" gradientUnits="userSpaceOnUse" xlink:href="#linearGradient4356"/><linearGradient id="linearGradient1372" x1="30.936" x2="30.936" y1="29.553" y2="35.803" gradientTransform="translate(-12.41789,-7)" gradientUnits="userSpaceOnUse" xlink:href="#linearGradient3824"/><radialGradient id="radialGradient1381" cx="16.215" cy="19.836" r="13.565" fx="16.215" fy="19.836" gradientTransform="matrix(1,0,0,0.681917,0,8.233773)" gradientUnits="userSpaceOnUse" xlink:href="#linearGradient4344"/><radialGradient id="radialGradient1978" cx="31.113" cy="19.009" r="8.662" fx="31.113" fy="19.009" gradientUnits="userSpaceOnUse" xlink:href="#linearGradient3816"/><radialGradient id="radialGradient1980" cx="28.09" cy="27.203" r="13.565" fx="28.09" fy="27.203" gradientTransform="matrix(1.297564,0,0,0.884831,-8.358505,4.940469)" gradientUnits="userSpaceOnUse" xlink:href="#linearGradient4163"/><linearGradient id="linearGradient1982" x1="30.936" x2="30.936" y1="29.553" y2="35.803" gradientUnits="userSpaceOnUse" xlink:href="#linearGradient3824"/><radialGradient id="radialGradient1984" cx="31.113" cy="19.009" r="8.662" fx="31.113" fy="19.009" gradientUnits="userSpaceOnUse" xlink:href="#linearGradient3816"/><radialGradient id="radialGradient1986" cx="29.345" cy="17.064" r="9.162" fx="29.345" fy="17.064" gradientTransform="matrix(0.787998,0,0,0.787998,6.221198,3.617627)" gradientUnits="userSpaceOnUse" xlink:href="#linearGradient3800"/><linearGradient id="linearGradient1988" x1="20.662" x2="22.627" y1="35.818" y2="36.218" gradientTransform="matrix(0.983375,0.181588,-0.181588,0.983375,6.231716,-2.651466)" gradientUnits="userSpaceOnUse" xlink:href="#linearGradient4356"/><linearGradient id="linearGradient1990" x1="22.687" x2="21.408" y1="36.39" y2="35.74" gradientTransform="matrix(-0.977685,0.210075,0.210075,0.977685,55.1096,-3.945209)" gradientUnits="userSpaceOnUse" xlink:href="#linearGradient4356"/><radialGradient id="radialGradient2343" cx="31.113" cy="19.009" r="8.662" fx="31.113" fy="19.009" gradientUnits="userSpaceOnUse" xlink:href="#linearGradient3816"/><radialGradient id="radialGradient2345" cx="28.09" cy="27.203" r="13.565" fx="28.09" fy="27.203" gradientTransform="matrix(1.297564,0,0,0.884831,-8.358505,4.940469)" gradientUnits="userSpaceOnUse" xlink:href="#linearGradient4163"/><linearGradient id="linearGradient2347" x1="30.936" x2="30.936" y1="29.553" y2="35.803" gradientUnits="userSpaceOnUse" xlink:href="#linearGradient3824"/><radialGradient id="radialGradient2349" cx="31.113" cy="19.009" r="8.662" fx="31.113" fy="19.009" gradientUnits="userSpaceOnUse" xlink:href="#linearGradient3816"/><radialGradient id="radialGradient2351" cx="29.345" cy="17.064" r="9.162" fx="29.345" fy="17.064" gradientTransform="matrix(0.787998,0,0,0.787998,6.221198,3.617627)" gradientUnits="userSpaceOnUse" xlink:href="#linearGradient3800"/><linearGradient id="linearGradient2353" x1="20.662" x2="22.627" y1="35.818" y2="36.218" gradientTransform="matrix(0.983375,0.181588,-0.181588,0.983375,6.231716,-2.651466)" gradientUnits="userSpaceOnUse" xlink:href="#linearGradient4356"/><linearGradient id="linearGradient2355" x1="22.687" x2="21.408" y1="36.39" y2="35.74" gradientTransform="matrix(-0.977685,0.210075,0.210075,0.977685,55.1096,-3.945209)" gradientUnits="userSpaceOnUse" xlink:href="#linearGradient4356"/><linearGradient id="linearGradient3573" x1="30.936" x2="30.936" y1="29.553" y2="35.803" gradientTransform="matrix(1.386065,0,0,1.320668,-57.80026,8.794486)" gradientUnits="userSpaceOnUse" xlink:href="#linearGradient3824"/><linearGradient id="linearGradient3575" x1="22.687" x2="21.408" y1="36.39" y2="35.74" gradientTransform="matrix(-1.355135,0.277439,0.291178,1.291197,17.35724,3.355106)" gradientUnits="userSpaceOnUse" xlink:href="#linearGradient4356"/><radialGradient id="radialGradient3577" cx="31.113" cy="19.009" r="8.662" fx="31.113" fy="19.009" gradientUnits="userSpaceOnUse" xlink:href="#linearGradient3816"/><radialGradient id="radialGradient3579" cx="28.09" cy="27.203" r="13.565" fx="28.09" fy="27.203" gradientTransform="matrix(1.798508,0,0,1.168568,-52.17368,24.56388)" gradientUnits="userSpaceOnUse" xlink:href="#linearGradient3493"/><linearGradient id="linearGradient3581" x1="30.936" x2="30.936" y1="29.553" y2="35.803" gradientTransform="matrix(1.386065,0,0,1.320668,-40.58826,18.03917)" gradientUnits="userSpaceOnUse" xlink:href="#linearGradient3824"/><radialGradient id="radialGradient3583" cx="31.113" cy="19.009" r="8.662" fx="31.113" fy="19.009" gradientUnits="userSpaceOnUse" xlink:href="#linearGradient3816"/><radialGradient id="radialGradient3585" cx="29.345" cy="17.064" r="9.162" fx="29.345" fy="17.064" gradientTransform="matrix(0.787998,0,0,0.787998,6.221198,3.617627)" gradientUnits="userSpaceOnUse" xlink:href="#linearGradient2614"/><linearGradient id="linearGradient3587" x1="20.662" x2="22.627" y1="35.818" y2="36.218" gradientTransform="matrix(1.363022,0.239817,-0.251693,1.298712,-31.9507,14.53746)" gradientUnits="userSpaceOnUse" xlink:href="#linearGradient4356"/><linearGradient id="linearGradient3589" x1="22.687" x2="21.408" y1="36.39" y2="35.74" gradientTransform="matrix(-1.355135,0.277439,0.291178,1.291197,35.79723,12.82885)" gradientUnits="userSpaceOnUse" xlink:href="#linearGradient4356"/></defs><metadata id="metadata4"/><g id="layer1" display="inline"><g id="g1965" transform="translate(-2.875,1.375)"><path stroke-width="1" style="marker:none" id="path4177" fill="url(#radialGradient4336)" fill-opacity="1" fill-rule="evenodd" stroke="none" stroke-dasharray="none" stroke-dashoffset="0" stroke-linecap="round" stroke-linejoin="round" stroke-miterlimit="4" stroke-opacity="1" marker-end="none" marker-mid="none" marker-start="none" d="M 39.774755 19.008621 A 8.6620579 8.6620579 0 1 1 22.45064,19.008621 A 8.6620579 8.6620579 0 1 1 39.774755 19.008621 z" color="#000" display="inline" opacity="1" overflow="visible" transform="matrix(1.77551,0,0,0.959183,-37.37822,11.77153)" visibility="visible"/><path stroke-width="1" style="marker:none" id="path2329" fill="url(#radialGradient1381)" fill-opacity="1" fill-rule="evenodd" stroke="#404604" stroke-dasharray="none" stroke-dashoffset="0" stroke-linecap="round" stroke-linejoin="round" stroke-miterlimit="4" stroke-opacity="1" marker-end="none" marker-mid="none" marker-start="none" d="M 12.861174,34.636039 L 23.467776,34.636039 C 26.47298,34.636039 29.44826,33.534107 30.538843,30.393398 C 31.574482,27.410922 30.71562,21.73134 23.998106,17.135146 L 11.44696,17.135146 C 4.729446,21.377786 3.889969,27.179977 5.436553,30.570174 C 7.012148,34.023964 9.679193,34.636039 12.861174,34.636039 z" color="#000" display="inline" opacity="1" overflow="visible" visibility="visible"/><path id="path3812" fill="#9db029" fill-opacity="1" fill-rule="evenodd" stroke="none" stroke-dasharray="none" stroke-dashoffset="0" stroke-linecap="round" stroke-linejoin="round" stroke-miterlimit="4" stroke-opacity="1" stroke-width="1" marker-end="none" marker-mid="none" marker-start="none" d="M 17.932367,19.786797 C 17.932367,19.786797 15.781044,21.447132 15.966376,23.44733 C 13.92515,21.646536 13.866503,18.195806 13.866503,18.195806 L 17.932367,19.786797 z" color="#000" display="inline" opacity="1" overflow="visible" visibility="visible" style="marker:none"/><path id="path3838" fill="none" fill-opacity="1" fill-rule="evenodd" stroke="#fff" stroke-dasharray="none" stroke-dashoffset="0" stroke-linecap="round" stroke-linejoin="round" stroke-miterlimit="4" stroke-opacity="1" stroke-width="1" marker-end="none" marker-mid="none" marker-start="none" d="M 12.966639,33.571836 L 23.283309,33.571836 C 25.923032,33.571836 28.53647,32.603917 29.494421,29.845169 C 30.40411,27.225409 29.399699,22.236555 23.499142,18.199332 L 11.974417,18.199332 C 6.07386,21.925999 5.086477,27.022551 6.444971,30.000446 C 7.828949,33.0342 10.171638,33.571836 12.966639,33.571836 z" color="#000" display="inline" opacity=".215" overflow="visible" visibility="visible" style="marker:none"/><path stroke-width="1" style="marker:none" id="path3810" fill="#9db029" fill-opacity="1" fill-rule="evenodd" stroke="none" stroke-dasharray="none" stroke-dashoffset="0" stroke-linecap="round" stroke-linejoin="round" stroke-miterlimit="4" stroke-opacity="1" marker-end="none" marker-mid="none" marker-start="none" d="M 18.910795,19.786797 C 18.910795,19.786797 21.062118,21.447132 20.876786,23.44733 C 22.918012,21.646536 22.976659,18.195806 22.976659,18.195806 L 18.910795,19.786797 z" color="#000" display="inline" opacity="1" overflow="visible" visibility="visible"/><path id="path3814" fill="url(#radialGradient4330)" fill-opacity="1" fill-rule="evenodd" stroke="none" stroke-dasharray="none" stroke-dashoffset="0" stroke-linecap="round" stroke-linejoin="round" stroke-miterlimit="4" stroke-opacity="1" stroke-width="1" marker-end="none" marker-mid="none" marker-start="none" d="M 39.774755 19.008621 A 8.6620579 8.6620579 0 1 1 22.45064,19.008621 A 8.6620579 8.6620579 0 1 1 39.774755 19.008621 z" color="#000" display="inline" opacity="1" overflow="visible" transform="translate(-13.25,-3.5)" visibility="visible" style="marker:none"/><path id="path2327" fill="url(#radialGradient4328)" fill-opacity="1" fill-rule="evenodd" stroke="#6f4709" stroke-dasharray="none" stroke-dashoffset="0" stroke-linecap="round" stroke-linejoin="round" stroke-miterlimit="4" stroke-opacity="1" stroke-width="1" marker-end="none" marker-mid="none" marker-start="none" d="M 39.774755 19.008621 A 8.6620579 8.6620579 0 1 1 22.45064,19.008621 A 8.6620579 8.6620579 0 1 1 39.774755 19.008621 z" color="#000" display="inline" opacity="1" overflow="visible" transform="translate(-13.125,-7)" visibility="visible" style="marker:none"/><path id="path3834" fill="none" fill-opacity="1" fill-rule="evenodd" stroke="#fff" stroke-dasharray="none" stroke-dashoffset="0" stroke-linecap="round" stroke-linejoin="round" stroke-miterlimit="4" stroke-opacity="1" stroke-width="1.14" marker-end="none" marker-mid="none" marker-start="none" d="M 39.774755 19.008621 A 8.6620579 8.6620579 0 1 1 22.45064,19.008621 A 8.6620579 8.6620579 0 1 1 39.774755 19.008621 z" color="#000" display="inline" opacity=".127" overflow="visible" transform="matrix(0.877095,0,0,0.877095,-9.301073,-4.663733)" visibility="visible" style="marker:none"/><path stroke-width="1" style="marker:none" id="path4173" fill="url(#linearGradient1372)" fill-opacity="1" fill-rule="evenodd" stroke="none" stroke-dasharray="none" stroke-dashoffset="0" stroke-linecap="round" stroke-linejoin="round" stroke-miterlimit="4" stroke-opacity="1" marker-end="none" marker-mid="none" marker-start="none" d="M 22.583894,27.034641 L 26.826534,27.034641 L 24.351661,24.736544 L 23.821331,25.443651 L 23.291,24.913321 L 22.583894,27.034641 z" color="#000" display="inline" opacity="1" overflow="visible" visibility="visible"/><path stroke-width="1" style="marker:none" id="path4368" fill="url(#linearGradient1369)" fill-opacity="1" fill-rule="evenodd" stroke="none" stroke-dasharray="none" stroke-dashoffset="0" stroke-linecap="round" stroke-linejoin="round" stroke-miterlimit="4" stroke-opacity="1" marker-end="none" marker-mid="none" marker-start="none" d="M 8.5479535,33.601747 C 7.3003465,33.056778 6.7419595,31.74347 6.7419595,31.74347 C 7.5832405,27.674334 10.461885,24.697254 10.461885,24.697254 C 10.461885,24.697254 8.1825635,31.108768 8.5479535,33.601747 z" color="#000" display="inline" opacity=".228" overflow="visible" visibility="visible"/><path id="path4370" fill="url(#linearGradient1366)" fill-opacity="1" fill-rule="evenodd" stroke="none" stroke-dasharray="none" stroke-dashoffset="0" stroke-linecap="round" stroke-linejoin="round" stroke-miterlimit="4" stroke-opacity="1" stroke-width="1" marker-end="none" marker-mid="none" marker-start="none" d="M 27.453661,32.743396 C 28.684912,32.162418 29.258041,30.741075 29.258041,30.741075 C 28.298921,26.698092 25.281892,23.898254 25.281892,23.898254 C 25.281892,23.898254 27.746485,30.240856 27.453661,32.743396 z" color="#000" display="inline" opacity=".228" overflow="visible" visibility="visible" style="marker:none"/></g></g><g id="layer2" display="inline" opacity="1"><g id="g1952" transform="translate(2.125,-5.25)"><path stroke-width="1" style="marker:none" id="path4306" fill="url(#radialGradient1978)" fill-opacity="1" fill-rule="evenodd" stroke="none" stroke-dasharray="none" stroke-dashoffset="0" stroke-linecap="round" stroke-linejoin="round" stroke-miterlimit="4" stroke-opacity="1" marker-end="none" marker-mid="none" marker-start="none" d="M 39.774755 19.008621 A 8.6620579 8.6620579 0 1 1 22.45064,19.008621 A 8.6620579 8.6620579 0 1 1 39.774755 19.008621 z" color="#000" display="inline" opacity="1" overflow="visible" transform="matrix(1.77551,0,0,0.959183,-24.25322,18.77153)" visibility="visible"/><path stroke-width="1" style="marker:none" id="path4308" fill="url(#radialGradient1980)" fill-opacity="1" fill-rule="evenodd" stroke="#204a87" stroke-dasharray="none" stroke-dashoffset="0" stroke-linecap="round" stroke-linejoin="round" stroke-miterlimit="4" stroke-opacity="1" marker-end="none" marker-mid="none" marker-start="none" d="M 25.986174,41.636039 L 36.592776,41.636039 C 39.59798,41.636039 42.57326,40.534107 43.663843,37.393398 C 44.699482,34.410922 43.84062,28.73134 37.123106,24.135146 L 24.57196,24.135146 C 17.854446,28.377786 17.014969,34.179977 18.561553,37.570174 C 20.137148,41.023964 22.804193,41.636039 25.986174,41.636039 z" color="#000" display="inline" opacity="1" overflow="visible" visibility="visible"/><path stroke-width="1" style="marker:none" id="path4310" fill="url(#linearGradient1982)" fill-opacity="1" fill-rule="evenodd" stroke="none" stroke-dasharray="none" stroke-dashoffset="0" stroke-linecap="round" stroke-linejoin="round" stroke-miterlimit="4" stroke-opacity="1" marker-end="none" marker-mid="none" marker-start="none" d="M 26.693281,25.726136 C 29.875261,28.554563 31.289475,38.807612 31.289475,38.807612 C 31.289475,38.807612 32.703688,28.554564 35.178562,25.54936 L 26.693281,25.726136 z" color="#000" display="inline" opacity="1" overflow="visible" visibility="visible"/><path id="path4312" fill="#729fcf" fill-opacity="1" fill-rule="evenodd" stroke="none" stroke-dasharray="none" stroke-dashoffset="0" stroke-linecap="round" stroke-linejoin="round" stroke-miterlimit="4" stroke-opacity="1" stroke-width="1" marker-end="none" marker-mid="none" marker-start="none" d="M 28.972721,26.786797 C 28.972721,26.786797 26.821398,28.447132 27.00673,30.44733 C 24.965504,28.646536 24.906857,25.195806 24.906857,25.195806 L 28.972721,26.786797 z" color="#000" display="inline" opacity="1" overflow="visible" visibility="visible" style="marker:none"/><path id="path4314" fill="none" fill-opacity="1" fill-rule="evenodd" stroke="#fff" stroke-dasharray="none" stroke-dashoffset="0" stroke-linecap="round" stroke-linejoin="round" stroke-miterlimit="4" stroke-opacity="1" stroke-width="1" marker-end="none" marker-mid="none" marker-start="none" d="M 25.914862,40.593933 L 36.408309,40.571836 C 39.048032,40.571836 41.66147,39.603917 42.619421,36.845169 C 43.52911,34.225409 42.524699,29.236555 36.624142,25.199332 L 25.099417,24.956264 C 19.19886,28.682931 18.056797,33.779483 19.437388,37.000446 C 20.81798,40.221409 22.832599,40.571836 25.914862,40.593933 z" color="#000" display="inline" opacity=".215" overflow="visible" visibility="visible" style="marker:none"/><path stroke-width="1" style="marker:none" id="path4316" fill="#729fcf" fill-opacity="1" fill-rule="evenodd" stroke="none" stroke-dasharray="none" stroke-dashoffset="0" stroke-linecap="round" stroke-linejoin="round" stroke-miterlimit="4" stroke-opacity="1" marker-end="none" marker-mid="none" marker-start="none" d="M 33.410795,26.786797 C 33.410795,26.786797 35.562118,28.447132 35.376786,30.44733 C 37.418012,28.646536 37.476659,25.195806 37.476659,25.195806 L 33.410795,26.786797 z" color="#000" display="inline" opacity="1" overflow="visible" visibility="visible"/><path id="path4318" fill="url(#radialGradient1984)" fill-opacity="1" fill-rule="evenodd" stroke="none" stroke-dasharray="none" stroke-dashoffset="0" stroke-linecap="round" stroke-linejoin="round" stroke-miterlimit="4" stroke-opacity="1" stroke-width="1" marker-end="none" marker-mid="none" marker-start="none" d="M 39.774755 19.008621 A 8.6620579 8.6620579 0 1 1 22.45064,19.008621 A 8.6620579 8.6620579 0 1 1 39.774755 19.008621 z" color="#000" display="inline" opacity="1" overflow="visible" transform="translate(-0.125,3.5)" visibility="visible" style="marker:none"/><path id="path4320" fill="url(#radialGradient1986)" fill-opacity="1" fill-rule="evenodd" stroke="#c17d11" stroke-dasharray="none" stroke-dashoffset="0" stroke-linecap="round" stroke-linejoin="round" stroke-miterlimit="4" stroke-opacity="1" stroke-width="1" marker-end="none" marker-mid="none" marker-start="none" d="M 39.774755 19.008621 A 8.6620579 8.6620579 0 1 1 22.45064,19.008621 A 8.6620579 8.6620579 0 1 1 39.774755 19.008621 z" color="#000" display="inline" opacity="1" overflow="visible" visibility="visible" style="marker:none"/><path id="path4322" fill="none" fill-opacity="1" fill-rule="evenodd" stroke="#fff" stroke-dasharray="none" stroke-dashoffset="0" stroke-linecap="round" stroke-linejoin="round" stroke-miterlimit="4" stroke-opacity="1" stroke-width="1.14" marker-end="none" marker-mid="none" marker-start="none" d="M 39.774755 19.008621 A 8.6620579 8.6620579 0 1 1 22.45064,19.008621 A 8.6620579 8.6620579 0 1 1 39.774755 19.008621 z" color="#000" display="inline" opacity=".196" overflow="visible" transform="matrix(0.877095,0,0,0.877095,3.823927,2.336267)" visibility="visible" style="marker:none"/><path stroke-width="1" style="marker:none" id="path4354" fill="url(#linearGradient1988)" fill-opacity="1" fill-rule="evenodd" stroke="none" stroke-dasharray="none" stroke-dashoffset="0" stroke-linecap="round" stroke-linejoin="round" stroke-miterlimit="4" stroke-opacity="1" marker-end="none" marker-mid="none" marker-start="none" d="M 21.85179,40.775197 C 20.604183,40.230228 20.045796,38.91692 20.045796,38.91692 C 20.887077,34.847784 23.765721,31.870704 23.765721,31.870704 C 23.765721,31.870704 21.4864,38.282218 21.85179,40.775197 z" color="#000" display="inline" opacity=".228" overflow="visible" visibility="visible"/><path id="path4364" fill="url(#linearGradient1990)" fill-opacity="1" fill-rule="evenodd" stroke="none" stroke-dasharray="none" stroke-dashoffset="0" stroke-linecap="round" stroke-linejoin="round" stroke-miterlimit="4" stroke-opacity="1" stroke-width="1" marker-end="none" marker-mid="none" marker-start="none" d="M 40.757497,39.916846 C 41.988748,39.335868 42.561877,37.914525 42.561877,37.914525 C 41.602757,33.871542 38.585728,31.071704 38.585728,31.071704 C 38.585728,31.071704 41.050321,37.414306 40.757497,39.916846 z" color="#000" display="inline" opacity=".228" overflow="visible" visibility="visible" style="marker:none"/></g></g><g id="layer3"><g id="g2292" display="inline" opacity="1" transform="translate(-8.237686,3.795331)"><g id="g3540" transform="matrix(0.63351,0,0,0.63351,29.8034,-5.62889)"><path id="path3514" fill="url(#linearGradient3573)" fill-opacity="1" fill-rule="evenodd" stroke="none" stroke-dasharray="none" stroke-dashoffset="0" stroke-linecap="round" stroke-linejoin="round" stroke-miterlimit="4" stroke-opacity="1" stroke-width="1" marker-end="none" marker-mid="none" marker-start="none" d="M -9.2855096,53.742947 L -3.4049346,53.742947 L -6.8352696,50.707924 L -7.5703416,51.641777 L -8.3054146,50.941387 L -9.2855096,53.742947 z" color="#000" display="inline" overflow="visible" visibility="visible" style="marker:none"/><path id="path3516" fill="url(#linearGradient3575)" fill-opacity="1" fill-rule="evenodd" stroke="none" stroke-dasharray="none" stroke-dashoffset="0" stroke-linecap="round" stroke-linejoin="round" stroke-miterlimit="4" stroke-opacity="1" stroke-width="1" marker-end="none" marker-mid="none" marker-start="none" d="M -2.5356956,61.282317 C -0.82910164,60.515038 -0.034707641,58.637916 -0.034707641,58.637916 C -1.3641106,53.298477 -5.5459086,49.600821 -5.5459086,49.600821 C -5.5459086,49.600821 -2.1298226,57.977292 -2.5356956,61.282317 z" color="#000" display="inline" opacity=".228" overflow="visible" visibility="visible" style="marker:none"/><path id="path3518" fill="url(#radialGradient3577)" fill-opacity="1" fill-rule="evenodd" stroke="none" stroke-dasharray="none" stroke-dashoffset="0" stroke-linecap="round" stroke-linejoin="round" stroke-miterlimit="4" stroke-opacity="1" stroke-width="1" marker-end="none" marker-mid="none" marker-start="none" d="M 39.774755 19.008621 A 8.6620579 8.6620579 0 1 1 22.45064,19.008621 A 8.6620579 8.6620579 0 1 1 39.774755 19.008621 z" color="#000" display="inline" overflow="visible" transform="matrix(2.460972,0,0,1.266762,-74.20479,42.83012)" visibility="visible" style="marker:none"/><path id="path3520" fill="url(#radialGradient3579)" fill-opacity="1" fill-rule="evenodd" stroke="#555753" stroke-dasharray="none" stroke-dashoffset="0" stroke-linecap="round" stroke-linejoin="round" stroke-miterlimit="4" stroke-opacity="1" stroke-width="1.353" marker-end="none" marker-mid="none" marker-start="none" d="M -4.5697286,73.026546 L 10.131711,73.026546 C 14.297119,73.026546 18.421051,71.57126 19.93267,67.423426 C 21.368133,63.484565 20.177694,55.983723 10.866783,49.913676 L -6.5299206,49.913676 C -15.840832,55.516795 -17.004402,63.179563 -14.860736,67.656888 C -12.676859,72.218198 -8.9801606,73.026546 -4.5697286,73.026546 z" color="#000" display="inline" overflow="visible" visibility="visible" style="marker:none"/><path id="path3522" fill="url(#linearGradient3581)" fill-opacity="1" fill-rule="evenodd" stroke="none" stroke-dasharray="none" stroke-dashoffset="0" stroke-linecap="round" stroke-linejoin="round" stroke-miterlimit="4" stroke-opacity="1" stroke-width="1" marker-end="none" marker-mid="none" marker-start="none" d="M -3.5896316,52.014846 C 0.82079936,55.750259 2.7809914,69.291133 2.7809914,69.291133 C 2.7809914,69.291133 4.7411824,55.75026 8.1715194,51.781384 L -3.5896316,52.014846 z" color="#000" display="inline" overflow="visible" visibility="visible" style="marker:none"/><path id="path3524" fill="#babdb6" fill-opacity="1" fill-rule="evenodd" stroke="none" stroke-dasharray="none" stroke-dashoffset="0" stroke-linecap="round" stroke-linejoin="round" stroke-miterlimit="4" stroke-opacity="1" stroke-width="1" marker-end="none" marker-mid="none" marker-start="none" d="M -0.43017964,53.415627 C -0.43017964,53.415627 -3.4120536,55.608378 -3.1551716,58.249976 C -5.9844436,55.871725 -6.0657316,51.314456 -6.0657316,51.314456 L -0.43017964,53.415627 z" color="#000" display="inline" overflow="visible" visibility="visible" style="marker:none"/><path id="path3526" fill="none" fill-opacity="1" fill-rule="evenodd" stroke="#fff" stroke-dasharray="none" stroke-dashoffset="0" stroke-linecap="round" stroke-linejoin="round" stroke-miterlimit="4" stroke-opacity="1" stroke-width="1.353" marker-end="none" marker-mid="none" marker-start="none" d="M -4.6685716,71.65027 L 9.8760284,71.621087 C 13.534855,71.621087 17.15725,70.342787 18.485033,66.699397 C 19.745921,63.239564 18.353742,56.650944 10.175186,51.319113 L -5.7988316,50.998101 C -13.977387,55.919791 -15.56036,62.650644 -13.646771,66.904467 C -11.733181,71.158289 -8.9407886,71.621087 -4.6685716,71.65027 z" color="#000" display="inline" opacity=".215" overflow="visible" visibility="visible" style="marker:none"/><path id="path3528" fill="#babdb6" fill-opacity="1" fill-rule="evenodd" stroke="none" stroke-dasharray="none" stroke-dashoffset="0" stroke-linecap="round" stroke-linejoin="round" stroke-miterlimit="4" stroke-opacity="1" stroke-width="1" marker-end="none" marker-mid="none" marker-start="none" d="M 5.7212794,53.415627 C 5.7212794,53.415627 8.7031524,55.608378 8.4462704,58.249976 C 11.275542,55.871725 11.35683,51.314456 11.35683,51.314456 L 5.7212794,53.415627 z" color="#000" display="inline" overflow="visible" visibility="visible" style="marker:none"/><path id="path3530" fill="url(#radialGradient3583)" fill-opacity="1" fill-rule="evenodd" stroke="none" stroke-dasharray="none" stroke-dashoffset="0" stroke-linecap="round" stroke-linejoin="round" stroke-miterlimit="4" stroke-opacity="1" stroke-width="1" marker-end="none" marker-mid="none" marker-start="none" d="M 39.774755 19.008621 A 8.6620579 8.6620579 0 1 1 22.45064,19.008621 A 8.6620579 8.6620579 0 1 1 39.774755 19.008621 z" color="#000" display="inline" overflow="visible" transform="matrix(1.386065,0,0,1.320668,-40.76151,22.6615)" visibility="visible" style="marker:none"/><path id="path3532" fill="url(#radialGradient3585)" fill-opacity="1" fill-rule="evenodd" stroke="#555753" stroke-dasharray="none" stroke-dashoffset="0" stroke-linecap="round" stroke-linejoin="round" stroke-miterlimit="4" stroke-opacity="1" stroke-width="1" marker-end="none" marker-mid="none" marker-start="none" d="M 39.774755 19.008621 A 8.6620579 8.6620579 0 1 1 22.45064,19.008621 A 8.6620579 8.6620579 0 1 1 39.774755 19.008621 z" color="#000" display="inline" overflow="visible" transform="matrix(1.386065,0,0,1.320668,-40.58825,18.03917)" visibility="visible" style="marker:none"/><path id="path3534" fill="none" fill-opacity="1" fill-rule="evenodd" stroke="#fff" stroke-dasharray="none" stroke-dashoffset="0" stroke-linecap="round" stroke-linejoin="round" stroke-miterlimit="4" stroke-opacity="1" stroke-width="1.14" marker-end="none" marker-mid="none" marker-start="none" d="M 39.774755 19.008621 A 8.6620579 8.6620579 0 1 1 22.45064,19.008621 A 8.6620579 8.6620579 0 1 1 39.774755 19.008621 z" color="#000" display="inline" opacity=".196" overflow="visible" transform="matrix(1.215711,0,0,1.158351,-35.28805,21.1246)" visibility="visible" style="marker:none"/><path stroke-width="1" style="marker:none" id="path3536" fill="url(#linearGradient3587)" fill-opacity="1" fill-rule="evenodd" stroke="none" stroke-dasharray="none" stroke-dashoffset="0" stroke-linecap="round" stroke-linejoin="round" stroke-miterlimit="4" stroke-opacity="1" marker-end="none" marker-mid="none" marker-start="none" d="M -10.300254,71.889659 C -12.029518,71.169936 -12.803478,69.435492 -12.803478,69.435492 C -11.637409,64.061515 -7.6474206,60.12978 -7.6474206,60.12978 C -7.6474206,60.12978 -10.806708,68.597262 -10.300254,71.889659 z" color="#000" display="inline" opacity=".228" overflow="visible" visibility="visible"/><path id="path3538" fill="url(#linearGradient3589)" fill-opacity="1" fill-rule="evenodd" stroke="none" stroke-dasharray="none" stroke-dashoffset="0" stroke-linecap="round" stroke-linejoin="round" stroke-miterlimit="4" stroke-opacity="1" stroke-width="1" marker-end="none" marker-mid="none" marker-start="none" d="M 15.904285,70.756063 C 17.610879,69.988784 18.405273,68.111661 18.405273,68.111661 C 17.07587,62.772223 12.894072,59.074567 12.894072,59.074567 C 12.894072,59.074567 16.310158,67.451038 15.904285,70.756063 z" color="#000" display="inline" opacity=".228" overflow="visible" visibility="visible" style="marker:none"/></g></g></g></svg>