<svg xmlns="http://www.w3.org/2000/svg" xmlns:cc="http://web.resource.org/cc/" xmlns:svg="http://www.w3.org/2000/svg" xmlns:xlink="http://www.w3.org/1999/xlink" id="svg5816" width="48" height="48"><defs id="defs3"><linearGradient id="linearGradient2624"><stop id="stop2626" offset="0" stop-color="#dfe0df" stop-opacity="1"/><stop id="stop2630" offset=".238" stop-color="#a6b0a6" stop-opacity="1"/><stop id="stop2628" offset="1" stop-color="#b5beb5" stop-opacity="1"/></linearGradient><linearGradient id="linearGradient2573"><stop id="stop2575" offset="0" stop-color="#fff" stop-opacity="1"/><stop id="stop2577" offset="1" stop-color="#fff" stop-opacity="0"/></linearGradient><linearGradient id="linearGradient2274"><stop id="stop2276" offset="0" stop-color="#000" stop-opacity=".129"/><stop id="stop2278" offset="1" stop-color="#000" stop-opacity="0"/></linearGradient><linearGradient id="linearGradient9749"><stop id="stop9751" offset="0" stop-color="#fff" stop-opacity="1"/><stop id="stop9753" offset="1" stop-color="#ededed" stop-opacity="1"/></linearGradient><linearGradient id="linearGradient15107"><stop id="stop15109" offset="0" stop-color="#fff" stop-opacity="1"/><stop id="stop15111" offset="1" stop-color="#e2e2e2" stop-opacity="1"/></linearGradient><linearGradient id="linearGradient10691"><stop id="stop10693" offset="0" stop-color="#000" stop-opacity="1"/><stop id="stop10695" offset="1" stop-color="#000" stop-opacity="0"/></linearGradient><linearGradient id="linearGradient4274"><stop id="stop4276" offset="0" stop-color="#fff" stop-opacity=".255"/><stop id="stop4278" offset="1" stop-color="#fff" stop-opacity="1"/></linearGradient><linearGradient id="linearGradient2187"><stop id="stop2189" offset="0" stop-color="#fff" stop-opacity="1"/><stop id="stop2191" offset="1" stop-color="#fff" stop-opacity="0"/></linearGradient><linearGradient id="linearGradient6901"><stop id="stop6903" offset="0" stop-color="#3465a4" stop-opacity="1"/><stop id="stop6905" offset="1" stop-color="#3465a4" stop-opacity="0"/></linearGradient><linearGradient id="linearGradient6925"><stop id="stop6927" offset="0" stop-color="#204a87" stop-opacity="1"/><stop id="stop6929" offset="1" stop-color="#204a87" stop-opacity="0"/></linearGradient><linearGradient id="linearGradient2562" x1="14.752" x2="12.252" y1="15.868" y2="30.558" gradientTransform="matrix(0,1,-1,0,37.07553,-5.879343)" gradientUnits="userSpaceOnUse" xlink:href="#linearGradient6901"/><linearGradient id="linearGradient2564" x1="12.25" x2="9.582" y1="18.25" y2="27.057" gradientTransform="matrix(0,1,-1,0,37.07553,-5.879343)" gradientUnits="userSpaceOnUse" xlink:href="#linearGradient6925"/><linearGradient id="linearGradient2566" x1="33.06" x2="12.624" y1="27.394" y2="12.584" gradientTransform="matrix(-1.412791e-16,0.914114,-0.914114,-1.412791e-16,39.78243,-9.748047)" gradientUnits="userSpaceOnUse" xlink:href="#linearGradient2187"/><linearGradient id="linearGradient2365" x1="32.058" x2="27.909" y1="8.669" y2="18.069" gradientTransform="matrix(0,1,-1,0,37.07553,-5.879343)" gradientUnits="userSpaceOnUse" xlink:href="#linearGradient4274"/><radialGradient id="radialGradient1481" cx="6.703" cy="73.616" r="7.228" fx="6.703" fy="73.616" gradientTransform="scale(1.902215,0.525703)" gradientUnits="userSpaceOnUse" xlink:href="#linearGradient10691"/><linearGradient id="linearGradient1483" x1="11.573" x2="18.475" y1="4.746" y2="26.023" gradientTransform="matrix(1.343475,0,0,1.505846,2.879511,-2.266018)" gradientUnits="userSpaceOnUse" xlink:href="#linearGradient15107"/><linearGradient id="linearGradient1487" x1="9.164" x2="9.886" y1="38.071" y2="52.091" gradientTransform="matrix(2.454781,0,0,0.762004,2.88175,0.337386)" gradientUnits="userSpaceOnUse" xlink:href="#linearGradient2624"/><radialGradient id="radialGradient1491" cx="27.741" cy="38.712" r="17.978" fx="27.741" fy="38.712" gradientTransform="matrix(0.629929,0.459373,-0.147675,0.248512,16.51724,9.053737)" gradientUnits="userSpaceOnUse" xlink:href="#linearGradient2274"/><linearGradient id="linearGradient1493" x1="11.742" x2="13.847" y1="11.485" y2="11.982" gradientTransform="matrix(1.276531,0,0,-1.406115,24.24763,33.3374)" gradientUnits="userSpaceOnUse" xlink:href="#linearGradient15107"/><linearGradient id="linearGradient1497" x1="11.742" x2="13.847" y1="11.485" y2="11.982" gradientTransform="matrix(1.296015,0,0,-1.43692,3.746576,33.20516)" gradientUnits="userSpaceOnUse" xlink:href="#linearGradient15107"/><linearGradient id="linearGradient1501" x1="10.027" x2="17.178" y1="20.22" y2="-7.527" gradientTransform="matrix(1.570607,0,0,-1.231511,2.973436,33.33485)" gradientUnits="userSpaceOnUse" xlink:href="#linearGradient15107"/><linearGradient id="linearGradient1503" x1="11.842" x2="40.024" y1="4.251" y2="7.412" gradientTransform="matrix(1.370928,0,0,-1.46456,2.525057,33.71269)" gradientUnits="userSpaceOnUse" xlink:href="#linearGradient9749"/><linearGradient id="linearGradient1505" x1="17.397" x2="22.178" y1="33.357" y2="31.027" gradientUnits="userSpaceOnUse" xlink:href="#linearGradient2573"/></defs><metadata id="metadata4"/><g id="layer1"><path id="path10699" fill="url(#radialGradient1481)" fill-opacity="1" fill-rule="nonzero" stroke="none" stroke-dashoffset="0" stroke-linecap="butt" stroke-linejoin="miter" stroke-miterlimit="4" stroke-opacity="1" stroke-width=".8" marker-end="none" marker-mid="none" marker-start="none" d="M 26.5 38.700001 A 13.75 3.8 0 1 1 -1,38.700001 A 13.75 3.8 0 1 1 26.5 38.700001 z" color="#000" display="inline" opacity=".3" overflow="visible" transform="matrix(1.596973,0,0,1.526064,3.680228,-19.70947)" visibility="visible" style="marker:none"/><g id="g2570" transform="matrix(1.004727,0,0,1.006001,5.456518e-2,-9.119156)"><path id="path12723" fill="url(#linearGradient1483)" fill-opacity="1" fill-rule="evenodd" stroke="#888a85" stroke-dasharray="none" stroke-linecap="butt" stroke-linejoin="round" stroke-miterlimit="4" stroke-opacity="1" stroke-width=".995" d="M 6.34375,15.454879 L 6.34375,41.44216 L 43.3125,41.44216 L 43.25,15.554447 C 43.249987,15.548732 43.250374,15.527358 43.25,15.521258 C 43.249269,15.514776 43.251086,15.494928 43.25,15.488068 C 43.248562,15.480833 43.220538,15.462487 43.21875,15.454879 L 6.34375,15.454879 z"/><path id="path1634" fill="url(#linearGradient1487)" fill-opacity="1" fill-rule="evenodd" stroke="none" stroke-linecap="butt" stroke-linejoin="miter" stroke-miterlimit="4" stroke-opacity="1" stroke-width="1" d="M 20.490674,29.058712 L 7.09471,40.0307 L 21.003552,30.426394 L 30.02171,30.426394 L 42.440757,39.908587 L 30.577332,29.058712 L 20.490674,29.058712 z"/><path id="path15103" fill="none" fill-opacity=".75" fill-rule="evenodd" stroke="#fff" stroke-dasharray="none" stroke-linecap="butt" stroke-linejoin="miter" stroke-miterlimit="4" stroke-opacity="1" stroke-width=".995" d="M 7.34375,16.733862 C 7.3370547,16.747199 7.3491438,16.753505 7.34375,16.765454 C 7.3413822,16.771079 7.3145363,16.791778 7.3125,16.797048 C 7.3107976,16.801959 7.313866,16.824087 7.3125,16.82864 C 7.3114729,16.83283 7.3131858,16.85641 7.3125,16.860233 L 7.34375,40.333651 L 42.28125,40.333651 L 42.21875,16.986604 C 42.218063,16.982892 42.219774,16.959094 42.21875,16.955011 C 42.204092,16.906933 42.176921,16.822855 42.125,16.733862 L 7.34375,16.733862 z"/><path id="path2563" fill="url(#radialGradient1491)" fill-opacity="1" fill-rule="evenodd" stroke="none" stroke-linecap="butt" stroke-linejoin="round" stroke-miterlimit="4" stroke-opacity="1" stroke-width=".857" d="M 23.329298,32.996721 C 20.937189,32.550375 7.9003872,18.771125 6.5966059,16.372022 C 6.5816495,16.343448 6.5559705,16.288608 6.5446896,16.2636 L 41.057803,16.2636 C 40.780724,18.766404 33.533576,32.769346 31.496524,32.996721 C 31.488351,32.997189 31.475247,32.996721 31.467251,32.996721 L 23.446392,32.996721 C 23.412766,32.996721 23.368838,33.004099 23.329298,32.996721 z"/><path id="path1613" fill="url(#linearGradient1497)" fill-opacity="1" fill-rule="evenodd" stroke="#989898" stroke-linecap="butt" stroke-linejoin="round" stroke-miterlimit="4" stroke-opacity="1" stroke-width=".852" d="M 20.77475,31.085394 C 18.407309,30.694257 7.945269,18.619435 7.1185841,16.517089 C 7.109327,16.49205 7.094677,16.443993 7.088438,16.422079 L 42.630645,16.422079 C 41.807029,18.615299 31.332195,30.886144 29.185502,31.085394 C 29.176984,31.085803 29.16359,31.085394 29.155355,31.085394 L 20.895334,31.085394 C 20.860706,31.085394 20.813881,31.091858 20.77475,31.085394 z"/><path id="path18153" fill="url(#linearGradient1501)" fill-opacity="1" fill-rule="evenodd" stroke="none" stroke-linecap="butt" stroke-linejoin="miter" stroke-opacity="1" stroke-width=".333" d="M 20.625174,30.490479 C 18.519211,29.999928 7.7224803,17.987711 7.0314243,16.466377 C 7.0288882,16.460379 7.0336023,16.439689 7.0314243,16.434063 C 7.0259731,16.418307 7.002328,16.381764 7.0001743,16.369436 C 7.000203,16.366104 6.9997682,16.34006 7.0001743,16.337122 C 7.0013435,16.334982 7.0298695,16.338859 7.0314243,16.337122 L 7.1251743,16.240181 L 42.593924,16.240181 C 42.591209,16.264507 42.57124,16.307054 42.562674,16.337122 C 42.555173,16.360727 42.542103,16.407355 42.531424,16.434063 C 41.609326,18.615 31.023436,30.200512 29.187674,30.490479 C 29.172746,30.492123 29.138826,30.490479 29.125174,30.490479 L 20.750174,30.490479 C 20.719887,30.488811 20.66042,30.498689 20.625174,30.490479 z"/><path id="path1616" fill="none" fill-opacity=".75" fill-rule="evenodd" stroke="url(#linearGradient1503)" stroke-linecap="butt" stroke-linejoin="miter" stroke-miterlimit="4" stroke-opacity="1" stroke-width=".852" d="M 20.875174,30.051141 C 18.427215,29.501671 8.7040003,18.433898 7.5314243,16.451725 L 42.125174,16.451725 C 40.634986,18.784896 31.078502,29.863516 28.968924,30.051141 C 28.960181,30.051543 28.946142,30.051141 28.937674,30.051141 L 21.031424,30.051141 C 21.00503,30.051141 20.966542,30.054692 20.937674,30.051141 C 20.917888,30.047995 20.896025,30.055821 20.875174,30.051141 z"/><path id="path1636" fill="url(#linearGradient1505)" fill-opacity="1" fill-rule="evenodd" stroke="none" stroke-linecap="butt" stroke-linejoin="miter" stroke-miterlimit="4" stroke-opacity="1" stroke-width="1" d="M 20.959511,30.447113 L 9.018012,38.717969 L 11.237445,38.724076 L 21.23557,31.855136 L 30.057478,30.432298 L 20.959511,30.447113 z"/></g></g></svg>