<svg xmlns="http://www.w3.org/2000/svg" xmlns:cc="http://web.resource.org/cc/" xmlns:svg="http://www.w3.org/2000/svg" xmlns:xlink="http://www.w3.org/1999/xlink" id="svg249" width="48" height="48" version="1.0"><defs id="defs3"><linearGradient id="linearGradient2301"><stop id="stop2303" offset="0" stop-color="#c4a000" stop-opacity="1"/><stop id="stop2305" offset="1" stop-color="#edd400"/></linearGradient><linearGradient id="linearGradient3277" x1="29.034" x2="25.992" y1="14.298" y2="11.257" gradientUnits="userSpaceOnUse" xlink:href="#linearGradient2301"/><linearGradient id="linearGradient2275"><stop id="stop2277" offset="0" stop-color="#fce94f" stop-opacity="1"/><stop id="stop2279" offset="1" stop-color="#c4a000"/></linearGradient><linearGradient id="linearGradient3275" x1="26.993" x2="30.432" y1="11.252" y2="14.691" gradientUnits="userSpaceOnUse" xlink:href="#linearGradient2275"/><linearGradient id="linearGradient1813"><stop id="stop1815" offset="0" stop-color="#000" stop-opacity="1"/><stop id="stop1817" offset="1" stop-color="#000" stop-opacity="0"/></linearGradient><linearGradient id="linearGradient3273" x1="18.188" x2="32.938" y1="18.538" y2="18.392" gradientTransform="matrix(1,0,0,0.415008,0,14.33231)" gradientUnits="userSpaceOnUse" xlink:href="#linearGradient1813"/><linearGradient id="linearGradient2833"><stop id="stop2835" offset="0" stop-color="#fff" stop-opacity="1"/><stop id="stop2837" offset="1" stop-color="#fff" stop-opacity=".563"/></linearGradient><linearGradient id="linearGradient3702"><stop id="stop3704" offset="0" stop-color="#000" stop-opacity="0"/><stop id="stop3710" offset=".5" stop-color="#000" stop-opacity="1"/><stop id="stop3706" offset="1" stop-color="#000" stop-opacity="0"/></linearGradient><linearGradient id="linearGradient2098" x1="25.058" x2="25.058" y1="47.028" y2="39.999" gradientUnits="userSpaceOnUse" xlink:href="#linearGradient3702"/><radialGradient id="radialGradient2096" cx="4.993" cy="43.5" r="2.5" fx="4.993" fy="43.5" gradientTransform="matrix(2.003784,0,0,1.4,-20.01187,-104.4)" gradientUnits="userSpaceOnUse" xlink:href="#linearGradient3688"/><linearGradient id="linearGradient3688"><stop id="stop3690" offset="0" stop-color="#000" stop-opacity="1"/><stop id="stop3692" offset="1" stop-color="#000" stop-opacity="0"/></linearGradient><radialGradient id="radialGradient2094" cx="4.993" cy="43.5" r="2.5" fx="4.993" fy="43.5" gradientTransform="matrix(2.003784,0,0,1.4,27.98813,-17.4)" gradientUnits="userSpaceOnUse" xlink:href="#linearGradient3688"/><linearGradient id="linearGradient5345"><stop id="stop5347" offset="0" stop-color="#ef2929" stop-opacity="1"/><stop id="stop1936" offset=".425" stop-color="#c00" stop-opacity="1"/><stop id="stop7129" offset=".904" stop-color="#c00" stop-opacity="1"/><stop id="stop5349" offset="1" stop-color="#ef2929" stop-opacity="1"/></linearGradient><linearGradient id="linearGradient2378"><stop id="stop2380" offset="0" stop-color="#fff" stop-opacity="1"/><stop id="stop4146" offset=".25" stop-color="#fefede" stop-opacity=".918"/><stop id="stop2386" offset=".5" stop-color="#f5f328" stop-opacity="1"/><stop id="stop2382" offset="1" stop-color="#f5f32d" stop-opacity=".122"/></linearGradient><linearGradient id="linearGradient4790"><stop id="stop4792" offset="0" stop-color="#000" stop-opacity="1"/><stop id="stop4794" offset="1" stop-color="#000" stop-opacity="0"/></linearGradient><linearGradient id="linearGradient2251"><stop id="stop2253" offset="0" stop-color="#fff" stop-opacity="1"/><stop id="stop2255" offset="1" stop-color="#fff" stop-opacity="0"/></linearGradient><linearGradient id="linearGradient8166" x1="33.396" x2="34.17" y1="36.921" y2="38.07" gradientTransform="matrix(-3.277938e-2,-0.999463,0.999463,-3.277938e-2,-0.709646,45.06274)" gradientUnits="userSpaceOnUse" xlink:href="#linearGradient2251"/><linearGradient id="linearGradient15662"><stop id="stop15664" offset="0" stop-color="#fff" stop-opacity="1"/><stop id="stop15666" offset="1" stop-color="#f8f8f8" stop-opacity="1"/></linearGradient><linearGradient id="linearGradient269"><stop id="stop270" offset="0" stop-color="#a3a3a3" stop-opacity="1"/><stop id="stop271" offset="1" stop-color="#8a8a8a" stop-opacity="1"/></linearGradient><linearGradient id="linearGradient259"><stop id="stop260" offset="0" stop-color="#fafafa" stop-opacity="1"/><stop id="stop261" offset="1" stop-color="#bbb" stop-opacity="1"/></linearGradient><radialGradient id="radialGradient15656" cx="8.824" cy="3.756" r="37.752" fx="8.824" fy="3.756" gradientTransform="matrix(0.9717435,0,0,1.0360674,3.2383519,0.5060885)" gradientUnits="userSpaceOnUse" xlink:href="#linearGradient269"/><radialGradient id="radialGradient15658" cx="33.967" cy="35.737" r="86.708" fx="33.967" fy="35.737" gradientTransform="matrix(0.9639356,0,0,1.0444591,-0.127221,-0.1424244)" gradientUnits="userSpaceOnUse" xlink:href="#linearGradient259"/><radialGradient id="radialGradient15668" cx="8.144" cy="7.268" r="38.159" fx="8.144" fy="7.268" gradientTransform="matrix(0.9731786,0,0,1.034993,3.1656505,0.5540137)" gradientUnits="userSpaceOnUse" xlink:href="#linearGradient15662"/><radialGradient id="radialGradient5350" cx="31.863" cy="2.367" r="37.752" fx="31.863" fy="2.367" gradientTransform="matrix(0.331735,0,0,0.3585438,20.10526,9.5269319)" gradientUnits="userSpaceOnUse" xlink:href="#linearGradient269"/><radialGradient id="radialGradient5352" cx="30.654" cy="14.937" r="86.708" fx="30.654" fy="14.937" gradientTransform="matrix(0.148355,1.022578e-2,-1.104438e-2,0.1645276,25.06011,12.804777)" gradientUnits="userSpaceOnUse" xlink:href="#linearGradient259"/><radialGradient id="radialGradient4796" cx="37.03" cy="12.989" r="4.293" fx="37.03" fy="12.989" gradientTransform="matrix(1.744653,2.313551e-22,-1.663e-22,1.283833,-26.58256,-3.478359)" gradientUnits="userSpaceOnUse" xlink:href="#linearGradient4790"/><radialGradient id="radialGradient3271" cx="38.659" cy="9.341" r="8.342" fx="38.659" fy="9.341" gradientUnits="userSpaceOnUse" xlink:href="#linearGradient2378"/><linearGradient id="linearGradient5351" x1="17.948" x2="17.948" y1="17.797" y2="4.362" gradientTransform="matrix(0.9309477,0,0,1,0.6917802,-4.41941e-2)" gradientUnits="userSpaceOnUse" xlink:href="#linearGradient5345"/><linearGradient id="linearGradient2839" x1="13.469" x2="13.469" y1="3.03" y2="5.501" gradientUnits="userSpaceOnUse" xlink:href="#linearGradient2833"/></defs><metadata id="metadata4"/><g id="layer6"><g id="g2043" transform="matrix(1,0,0,0.555556,-1.8e-5,19.888883)"><g id="g2036" display="inline"><g id="g3712" opacity=".4" transform="matrix(1.052632,0,0,1.285713,-1.263158,-13.42854)"><rect id="rect2801" width="5" height="7" x="38" y="40" fill="url(#radialGradient2094)" fill-opacity="1" stroke="none" stroke-dasharray="none" stroke-linecap="round" stroke-linejoin="miter" stroke-miterlimit="4" stroke-opacity="1" stroke-width="1" opacity="1"/><rect id="rect3696" width="5" height="7" x="-10" y="-47" fill="url(#radialGradient2096)" fill-opacity="1" stroke="none" stroke-dasharray="none" stroke-linecap="round" stroke-linejoin="miter" stroke-miterlimit="4" stroke-opacity="1" stroke-width="1" opacity="1" transform="scale(-1,-1)"/><rect id="rect3700" width="28" height="7" x="10" y="40" fill="url(#linearGradient2098)" fill-opacity="1" stroke="none" stroke-dasharray="none" stroke-linecap="round" stroke-linejoin="miter" stroke-miterlimit="4" stroke-opacity="1" stroke-width="1" opacity="1"/></g></g></g></g><g id="layer1" display="inline"><path id="rect15391" fill="url(#radialGradient15658)" fill-opacity="1" fill-rule="nonzero" stroke="url(#radialGradient15656)" stroke-dashoffset="0" stroke-linecap="round" stroke-linejoin="round" stroke-miterlimit="4" stroke-opacity="1" stroke-width="1" marker-end="none" marker-mid="none" marker-start="none" d="M 7.6531674,3.5156747 L 31.184222,3.4999998 C 31.184222,3.4999998 41.5,13.07421 41.5,13.712818 L 41.5,43.414218 C 41.5,44.052825 40.985687,44.566938 40.346833,44.566938 L 7.6531674,44.566938 C 7.0143129,44.566938 6.5000004,44.052825 6.5000004,43.414218 L 6.5000004,4.6683954 C 6.5000004,4.0297882 7.0143129,3.5156747 7.6531674,3.5156747 z" color="#000" display="block" overflow="visible" visibility="visible" style="marker:none"/><path id="rect15660" fill="none" fill-opacity="1" fill-rule="nonzero" stroke="url(#radialGradient15668)" stroke-dashoffset="0" stroke-linecap="round" stroke-linejoin="round" stroke-miterlimit="4" stroke-opacity="1" stroke-width="1" marker-end="none" marker-mid="none" marker-start="none" d="M 7.6498034,4.4999998 L 32.652226,4.4999998 C 32.652226,4.4999998 40.441938,12.538716 40.441938,12.621467 L 40.441938,43.380959 C 40.441938,43.46371 40.375127,43.53033 40.292135,43.53033 L 7.6498034,43.53033 C 7.5668121,43.53033 7.4999997,43.46371 7.4999997,43.380959 L 7.4999997,4.6493697 C 7.4999997,4.5666188 7.5668121,4.4999998 7.6498034,4.4999998 z" color="#000" display="block" overflow="visible" visibility="visible" style="marker:none"/></g><g id="layer5" display="inline"><path id="path5348" fill="url(#radialGradient4796)" fill-opacity="1" fill-rule="evenodd" stroke="none" stroke-dasharray="none" stroke-dashoffset="0" stroke-linecap="butt" stroke-linejoin="miter" stroke-miterlimit="4" stroke-opacity="1" stroke-width="1" marker-end="none" marker-mid="none" marker-start="none" d="M 40.985189,13.861445 C 40.256827,12.514817 34.882221,10.130934 32.084635,9.3314083 C 32.254143,10.904354 31.961856,15.649439 31.961856,15.649439 C 34.024356,14.274439 40.204485,13.699331 40.985189,13.861445 z" color="#000" display="inline" opacity=".357" overflow="visible" visibility="visible" style="marker:none"/><path id="path2210" fill="url(#radialGradient5352)" fill-opacity="1" fill-rule="nonzero" stroke="url(#radialGradient5350)" stroke-dasharray="none" stroke-dashoffset="0" stroke-linecap="butt" stroke-linejoin="round" stroke-miterlimit="4" stroke-opacity="1" stroke-width="1" marker-end="none" marker-mid="none" marker-start="none" d="M 41.410559,13.739267 C 41.423724,12.305276 35.058025,3.3960606 31.175441,3.500918 C 32.148479,3.7370164 32.925796,9.7511015 31.536076,12.601062 C 34.286076,12.601062 40.446694,11.856343 41.410559,13.739267 z" color="#000" display="block" opacity="1" overflow="visible" visibility="visible" style="marker:none"/><path stroke-width="1" style="marker:none" id="path2247" fill="none" fill-opacity="1" fill-rule="evenodd" stroke="url(#linearGradient8166)" stroke-dasharray="none" stroke-dashoffset="0" stroke-linecap="butt" stroke-linejoin="miter" stroke-miterlimit="4" stroke-opacity="1" marker-end="none" marker-mid="none" marker-start="none" d="M 39.121563,11.586207 C 38.393201,10.239579 34.963027,6.5166576 33.040441,5.2796316 C 33.279381,6.7054805 33.577496,8.9620596 32.961856,11.524439 C 32.961856,11.524439 38.340859,11.424093 39.121563,11.586207 z" color="#000" display="inline" opacity="1" overflow="visible" visibility="visible"/><path id="path7273" fill="#2e3436" fill-opacity="1" fill-rule="evenodd" stroke="none" stroke-linecap="butt" stroke-linejoin="round" stroke-opacity="1" stroke-width="1" d="M 8.518214,2.986098 L 22,2.986098 L 22,23.928002 L 16.515644,17.234797 L 10.96121,24 L 10.96121,3.9419039 C 10.96121,3.404299 9.435316,2.986098 8.518214,2.986098 z" display="inline" opacity=".15"/><path id="path4386" fill="url(#linearGradient5351)" fill-opacity="1" fill-rule="evenodd" stroke="#a40000" stroke-linecap="butt" stroke-linejoin="round" stroke-opacity="1" stroke-width="1" d="M 10.018213,2.5 L 21.422873,2.5 C 22.994417,2.5 23.499999,3.0073903 23.499999,4.470952 L 23.499999,23.441904 L 18.015643,16.748699 L 12.461209,23.513902 L 12.508084,4.4558059 C 12.508084,2.8706328 10.935315,2.5 10.018213,2.5 z"/><path id="path1934" fill="none" fill-opacity="1" fill-rule="evenodd" stroke="url(#linearGradient2839)" stroke-linecap="butt" stroke-linejoin="miter" stroke-opacity="1" stroke-width="1" d="M 13.25,3.53125 C 13.362221,3.8338001 13.53125,4.1151264 13.53125,4.46875 L 13.5,20.625 L 17.25,16.09375 C 17.445904,15.855316 17.738283,15.717133 18.046875,15.717133 C 18.355467,15.717133 18.647846,15.855316 18.84375,16.09375 L 22.46875,20.53125 L 22.46875,4.46875 C 22.46875,3.8522811 22.365083,3.7081684 22.34375,3.6875 C 22.322417,3.6668316 22.11277,3.53125 21.4375,3.53125 L 13.25,3.53125 z" display="inline" opacity=".6"/><g id="g2369" transform="translate(4.391957,14.85372)"><path id="path2334" fill="url(#linearGradient3273)" fill-opacity="1" fill-rule="evenodd" stroke="none" stroke-dasharray="none" stroke-linecap="butt" stroke-linejoin="miter" stroke-miterlimit="4" stroke-opacity="1" stroke-width="2" d="M 34.53125,16.03125 L 19.53125,20.504163 L 19.40625,20.569008 L 19.3125,20.646822 L 16.5625,23.5 L 24,22.657016 L 24.28125,22.631078 L 24.46875,22.553264 L 34.53125,19.870071 L 34.53125,16.03125 z" display="inline" opacity=".235"/><g id="g2321" transform="translate(-0.15625,-0.25)"><path id="path2273" fill="url(#linearGradient3275)" fill-opacity="1" fill-rule="evenodd" stroke="url(#linearGradient3277)" stroke-dasharray="none" stroke-linecap="butt" stroke-linejoin="miter" stroke-miterlimit="4" stroke-opacity="1" stroke-width="1" d="M 19.5,18 L 36.5,1 C 38.675049,1.359961 39.584719,2.7322249 40,4.5 L 23,21.5 L 17.5,23 L 19.5,18 z"/><path id="path2313" fill="none" fill-opacity="1" fill-rule="evenodd" stroke="#fff" stroke-dasharray="none" stroke-linecap="butt" stroke-linejoin="miter" stroke-miterlimit="4" stroke-opacity="1" stroke-width="1" d="M 20.399998,18.5 L 36.897748,2.1022524 C 37.987493,2.280687 38.415009,3.0901961 38.897748,4.1022524 L 22.5,20.600002 L 19.199997,21.500003 L 20.399998,18.5 z" display="inline" opacity=".282"/><path id="path2298" fill="#fff" fill-opacity="1" fill-rule="evenodd" stroke="none" stroke-dasharray="none" stroke-linecap="butt" stroke-linejoin="miter" stroke-miterlimit="4" stroke-opacity="1" stroke-width=".312" d="M 18.34633,22.276561 L 19.94414,18.268127 C 19.94414,18.268127 21.094356,18.503399 21.796875,19.203125 C 22.499394,19.902851 22.754217,21.067032 22.754217,21.067032 L 18.34633,22.276561 z" opacity=".502"/><path id="path2283" fill="#000" fill-opacity="1" fill-rule="evenodd" stroke="none" stroke-dasharray="none" stroke-linecap="butt" stroke-linejoin="miter" stroke-miterlimit="4" stroke-opacity="1" stroke-width="1" d="M 17.5625,21.5 L 16.65625,23.75 L 19,23.09375 C 19.00202,23.061913 19,23.032344 19,23 C 19,22.197875 18.354692,21.540199 17.5625,21.5 z" display="inline"/></g></g></g></svg>