<svg xmlns="http://www.w3.org/2000/svg" xmlns:svg="http://www.w3.org/2000/svg" xmlns:xlink="http://www.w3.org/1999/xlink" id="svg2455" width="48" height="48" version="1.0"><defs id="defs3"><filter id="filter3363"><feGaussianBlur id="feGaussianBlur3365" stdDeviation=".609"/></filter><linearGradient id="linearGradient3315"><stop id="stop3317" offset="0" stop-color="#000" stop-opacity="1"/><stop id="stop3319" offset="1" stop-color="#000" stop-opacity="0"/></linearGradient><linearGradient id="linearGradient3321" x1="64.192" x2="63.436" y1="131.891" y2="103.341" gradientUnits="userSpaceOnUse" xlink:href="#linearGradient3315"/><linearGradient id="linearGradient3335"><stop id="stop3337" offset="0" stop-color="#a40000" stop-opacity="1"/><stop id="stop3343" offset=".725" stop-color="#c00" stop-opacity="1"/><stop id="stop3349" offset=".856" stop-color="#ef2929" stop-opacity=".533"/><stop id="stop3339" offset="1" stop-color="#ef2929" stop-opacity="1"/></linearGradient><radialGradient id="radialGradient3347" cx="64.65" cy="125.641" r="65.386" fx="64.65" fy="125.641" gradientTransform="matrix(1.006948,-4.6236582e-2,1.7086631e-2,0.607885,-2.4409328,49.337379)" gradientUnits="userSpaceOnUse" xlink:href="#linearGradient3335"/><radialGradient id="radialGradient3279" cx="413.03" cy="164.845" r="62.673" fx="413.03" fy="164.845" gradientTransform="matrix(1.0528913,0.2432999,-0.1328866,0.5750727,-7.0536693e-2,-20.362734)" gradientUnits="userSpaceOnUse" xlink:href="#linearGradient3263"/><filter id="filter3295"><feGaussianBlur id="feGaussianBlur3297" stdDeviation="2.108"/></filter><linearGradient id="linearGradient3263"><stop id="stop3271" offset="0" stop-color="#ef2929" stop-opacity="1"/><stop id="stop3267" offset="1" stop-color="#a40000" stop-opacity="1"/></linearGradient><radialGradient id="radialGradient3269" cx="65.121" cy="105.035" r="64.499" fx="65.121" fy="105.035" gradientTransform="matrix(0.8669623,1.2506865e-2,-4.5610337e-3,0.634702,9.1000894,44.028236)" gradientUnits="userSpaceOnUse" xlink:href="#linearGradient3263"/><linearGradient id="linearGradient3255"><stop id="stop3257" offset="0" stop-color="#fff" stop-opacity="1"/><stop id="stop3259" offset="1" stop-color="#848484" stop-opacity="1"/></linearGradient><radialGradient id="radialGradient3261" cx="280.563" cy="429.615" r="50.012" fx="280.563" fy="429.615" gradientTransform="matrix(0.3285219,0.1205343,-2.2582858,6.155061,1172.647,-2214.2386)" gradientUnits="userSpaceOnUse" xlink:href="#linearGradient3255"/><linearGradient id="linearGradient2563"><stop id="stop2565" offset="0" stop-color="#e2e2e2" stop-opacity="1"/><stop id="stop2567" offset="1" stop-color="#9f9f9f" stop-opacity="1"/></linearGradient><linearGradient id="linearGradient2526"><stop id="stop2528" offset="0" stop-color="#e7ebeb" stop-opacity="1"/><stop id="stop2534" offset=".5" stop-color="#e6ebeb" stop-opacity="1"/><stop id="stop2530" offset="1" stop-color="#fff" stop-opacity="1"/></linearGradient><linearGradient id="linearGradient2551"><stop id="stop2553" offset="0" stop-color="#000" stop-opacity="1"/><stop id="stop2555" offset="1" stop-color="#000" stop-opacity="0"/></linearGradient><linearGradient id="linearGradient2463" x1="18.432" x2="48.287" y1="23.975" y2="39.115" gradientTransform="translate(-139.75386,143.46545)" gradientUnits="userSpaceOnUse" xlink:href="#linearGradient2551"/><linearGradient id="linearGradient5208"><stop id="stop5210" offset="0" stop-color="#edd400" stop-opacity="1"/><stop id="stop5212" offset="1" stop-color="#c4a000" stop-opacity="1"/></linearGradient><linearGradient id="linearGradient2419"><stop id="stop2420" offset="0" stop-color="#000" stop-opacity=".505"/><stop id="stop2421" offset="1" stop-color="#000" stop-opacity="0"/></linearGradient><linearGradient id="linearGradient2422" x1="156.338" x2="264.569" y1="184.921" y2="184.921" gradientTransform="scale(1.19593,0.836169)" gradientUnits="userSpaceOnUse" xlink:href="#linearGradient2419"/><linearGradient id="linearGradient2411"><stop id="stop2412" offset="0" stop-color="#FFF" stop-opacity="1"/><stop id="stop2413" offset="1" stop-color="#FFF" stop-opacity="0"/></linearGradient><radialGradient id="radialGradient2415" cx="212.598" cy="70.866" r="35.433" fx="212.598" fy="70.866" gradientUnits="userSpaceOnUse" xlink:href="#linearGradient2411"/><linearGradient id="linearGradient1779" x1="414.132" x2="302.991" y1="240.144" y2="240.802" gradientTransform="scale(0.689104,1.45116)" gradientUnits="userSpaceOnUse" xlink:href="#linearGradient1767"/><linearGradient id="linearGradient1767"><stop id="stop1768" offset="0" stop-color="#3F3318" stop-opacity="1"/><stop id="stop1769" offset="1" stop-color="#815F0E" stop-opacity="1"/></linearGradient><linearGradient id="linearGradient1778" x1="299.373" x2="411.727" y1="252.27" y2="252.27" gradientTransform="matrix(0.697599,0,0,1.47183,0,-11.8264)" gradientUnits="userSpaceOnUse" xlink:href="#linearGradient1767"/><linearGradient id="linearGradient1754"><stop id="stop1755" offset="0" stop-color="#747474" stop-opacity="1"/><stop id="stop1757" offset=".5" stop-color="#BEBEBE" stop-opacity="1"/><stop id="stop1759" offset=".625" stop-color="#D5D5D5" stop-opacity="1"/><stop id="stop1758" offset=".75" stop-color="#818181" stop-opacity="1"/><stop id="stop1756" offset="1" stop-color="#C3C3C3" stop-opacity="1"/></linearGradient><linearGradient id="linearGradient1777" x1="150.495" x2="345.533" y1="42.808" y2="242.18" gradientTransform="scale(1.00007,0.999929)" gradientUnits="userSpaceOnUse" xlink:href="#linearGradient1754"/><pattern id="pattern2568" width="28.945" height="33.076" patternTransform="translate(190.49, 70.8434)" patternUnits="userSpaceOnUse"><text id="text2569" x="189.699" y="67.75" fill="#000" fill-opacity="1" stroke="none" stroke-linecap="butt" stroke-linejoin="miter" stroke-opacity="1" stroke-width="1pt" font-family="Bitstream Vera Sans" font-style="normal" font-weight="normal" transform="translate(-190.49, -70.8434)" xml:space="preserve"><tspan id="tspan2576" x="189.699" y="79.75">0010</tspan><tspan id="tspan2578" x="189.699" y="91.75">0100</tspan><tspan id="tspan2580" x="189.699" y="103.75">0111</tspan></text></pattern><pattern id="pattern2606" width="32.232" height="37.876" patternTransform="translate(183.767, 59.4684)" patternUnits="userSpaceOnUse"><text id="text2607" x="189.699" y="67.75" fill="#000" fill-opacity="1" stroke="none" stroke-linecap="butt" stroke-linejoin="miter" stroke-opacity="1" stroke-width="1pt" font-family="Bitstream Vera Sans" font-stretch="normal" font-style="normal" font-variant="normal" font-weight="bold" text-anchor="middle" transform="translate(-173.586, -58.8434)" xml:space="preserve"><tspan id="tspan2608" x="189.699" y="67.75">0010</tspan><tspan id="tspan2610" x="189.699" y="82.15">0100</tspan><tspan id="tspan2612" x="189.699" y="96.55">0111</tspan></text></pattern><pattern id="pattern2623" width="32.232" height="28.276" patternTransform="translate(183.767, 59.4684)" patternUnits="userSpaceOnUse"><text id="text2624" x="189.699" y="67.75" fill="#000" fill-opacity="1" stroke="none" stroke-linecap="butt" stroke-linejoin="miter" stroke-opacity="1" stroke-width="1pt" font-family="Bitstream Vera Sans" font-stretch="normal" font-style="normal" font-variant="normal" font-weight="bold" text-anchor="middle" transform="translate(-173.586, -58.8434)" xml:space="preserve"><tspan id="tspan2625" x="189.699" y="67.75">0010</tspan><tspan id="tspan2627" x="189.699" y="77.35">0100</tspan><tspan id="tspan2629" x="189.699" y="86.95">0111</tspan></text></pattern><pattern id="pattern2639" width="32.232" height="25.876" patternTransform="translate(183.767, 59.4684)" patternUnits="userSpaceOnUse"><text id="text2640" x="189.699" y="67.75" fill="#000" fill-opacity="1" stroke="none" stroke-linecap="butt" stroke-linejoin="miter" stroke-opacity="1" stroke-width="1pt" font-family="Bitstream Vera Sans" font-stretch="normal" font-style="normal" font-variant="normal" font-weight="bold" text-anchor="middle" transform="translate(-173.586, -58.8434)" xml:space="preserve"><tspan id="tspan2641" x="189.699" y="67.75">0010</tspan><tspan id="tspan2643" x="189.699" y="76.15">0100</tspan><tspan id="tspan2645" x="189.699" y="84.55">0111</tspan></text></pattern><pattern id="pattern2692" width="96.697" height="77.629" patternTransform="translate(151.54, 41.6559)" patternUnits="userSpaceOnUse"><text id="text2693" x="189.699" y="67.75" fill="#000" fill-opacity="1" stroke="none" stroke-linecap="butt" stroke-linejoin="miter" stroke-opacity="1" stroke-width="1pt" font-family="Bitstream Vera Sans" font-stretch="normal" font-style="normal" font-variant="normal" font-weight="bold" text-anchor="middle" transform="translate(-141.359, -41.0309)" xml:space="preserve"><tspan id="tspan2694" x="189.699" y="67.75">0010</tspan><tspan id="tspan2696" x="189.699" y="92.95">0100</tspan><tspan id="tspan2698" x="189.699" y="118.15">0111</tspan></text></pattern><radialGradient id="radialGradient6136" cx="280.563" cy="429.615" r="50.012" fx="280.563" fy="429.615" gradientTransform="matrix(1.9301935e-2,7.0818572e-3,-0.132683,0.3616337,96.967332,-145.93804)" gradientUnits="userSpaceOnUse" xlink:href="#linearGradient3255"/><radialGradient id="radialGradient6138" cx="63.756" cy="138.482" r="64.499" fx="63.756" fy="138.482" gradientTransform="matrix(4.6474545e-2,1.3024677e-2,-1.0144861e-2,3.1419814e-2,47.724874,-3.8199386)" gradientUnits="userSpaceOnUse" xlink:href="#linearGradient3263"/><radialGradient id="radialGradient6140" cx="409.433" cy="180.725" r="62.673" fx="409.433" fy="180.725" gradientTransform="matrix(6.1861444e-2,1.4294812e-2,-7.8076027e-3,3.378775e-2,28.065633,-17.039329)" gradientUnits="userSpaceOnUse" xlink:href="#linearGradient3263"/><radialGradient id="radialGradient6160" cx="280.563" cy="429.615" r="50.012" fx="280.563" fy="429.615" gradientTransform="matrix(1.9301935e-2,7.0818572e-3,-0.132683,0.3616337,96.967332,-145.93804)" gradientUnits="userSpaceOnUse" xlink:href="#linearGradient3255"/><radialGradient id="radialGradient6162" cx="63.756" cy="138.482" r="64.499" fx="63.756" fy="138.482" gradientTransform="matrix(4.6474545e-2,1.3024677e-2,-1.0144861e-2,3.1419814e-2,47.724874,-3.8199386)" gradientUnits="userSpaceOnUse" xlink:href="#linearGradient3263"/><radialGradient id="radialGradient6164" cx="409.433" cy="180.725" r="62.673" fx="409.433" fy="180.725" gradientTransform="matrix(6.1861444e-2,1.4294812e-2,-7.8076027e-3,3.378775e-2,28.065633,-17.039329)" gradientUnits="userSpaceOnUse" xlink:href="#linearGradient3263"/><radialGradient id="radialGradient5460" cx="280.563" cy="429.615" r="50.012" fx="280.563" fy="429.615" gradientTransform="matrix(4.8455562e-2,1.3460504e-2,-0.3330873,0.6873581,179.34172,-262.32626)" gradientUnits="userSpaceOnUse" xlink:href="#linearGradient3255"/><radialGradient id="radialGradient5462" cx="63.756" cy="138.482" r="64.499" fx="63.756" fy="138.482" gradientTransform="matrix(0.1166697,2.4756036e-2,-2.5467651e-2,5.9719719e-2,55.723498,7.7979733)" gradientUnits="userSpaceOnUse" xlink:href="#linearGradient3263"/><radialGradient id="radialGradient5464" cx="409.433" cy="180.725" r="62.673" fx="409.433" fy="180.725" gradientTransform="matrix(0.1552969,2.7170185e-2,-1.96002e-2,6.4220461e-2,6.3709545,-17.328155)" gradientUnits="userSpaceOnUse" xlink:href="#linearGradient3263"/><radialGradient id="radialGradient6684" cx="409.433" cy="180.725" r="62.673" fx="409.433" fy="180.725" gradientTransform="matrix(0.1130665,2.1822215e-2,-1.4270251e-2,5.15798e-2,45.365743,-14.98849)" gradientUnits="userSpaceOnUse" xlink:href="#linearGradient3263"/><radialGradient id="radialGradient6689" cx="63.756" cy="138.482" r="64.499" fx="63.756" fy="138.482" gradientTransform="matrix(8.4943312e-2,1.9883248e-2,-1.8542146e-2,4.7964949e-2,61.988311,7.2714754)" gradientUnits="userSpaceOnUse" xlink:href="#linearGradient3263"/><radialGradient id="radialGradient6692" cx="280.563" cy="429.615" r="50.012" fx="280.563" fy="429.615" gradientTransform="matrix(3.5278876e-2,1.0811042e-2,-0.2425097,0.5520638,152.18865,-211.26794)" gradientUnits="userSpaceOnUse" xlink:href="#linearGradient3255"/><radialGradient id="radialGradient5380" cx="280.563" cy="429.615" r="50.012" fx="280.563" fy="429.615" gradientTransform="matrix(0.03527888,0.01081104,-0.2425097,0.5520638,152.18865,-211.26794)" gradientUnits="userSpaceOnUse" xlink:href="#linearGradient3255"/><radialGradient id="radialGradient5382" cx="63.756" cy="138.482" r="64.499" fx="63.756" fy="138.482" gradientTransform="matrix(0.08494331,0.01988325,-0.01854215,0.04796495,61.988311,7.2714754)" gradientUnits="userSpaceOnUse" xlink:href="#linearGradient3263"/></defs><metadata id="metadata4"/><g id="layer4" display="inline"><g id="g5384" transform="matrix(-0.0462529,-1.0014923,1.1231331,-0.04124348,-4.4108026,49.940205)"><path id="path2670" fill="#edd400" fill-opacity="1" stroke="#7c7c7c" stroke-linecap="butt" stroke-linejoin="miter" stroke-miterlimit="4" stroke-opacity="1" stroke-width=".824" d="M 4.3194641,7.8618014 C 18.555924,7.7862647 32.856027,6.5387482 47.092432,6.4995453 c -0.0843,3.0031609 -0.106112,7.6023897 0.260935,10.5873197 -1.658318,2.89611 -2.153268,6.247001 -3.287619,9.34816 0.946165,2.877206 1.767374,5.815802 2.565864,8.724178 0.354562,3.848309 0.279552,9.006356 0.639931,12.85431 C 31.767099,47.100116 16.25958,46.30966 0.7718911,45.048857 2.4332679,42.242736 3.1000322,39.002802 4.4485404,36.055824 3.460062,33.828765 2.6092477,31.53453 1.9758277,29.180707 3.6278646,25.419064 3.7691535,21.120868 5.6633076,17.457618 5.3880019,14.235289 4.8143299,11.054386 4.3194641,7.8618014 z"/><path id="path2682" fill="#4e9a06" fill-opacity="1" fill-rule="evenodd" stroke="none" d="m 33.01552,45.990981 c -2.120326,-2.568582 -6.394869,-6.616357 -5.42859,-6.616357 1.464304,0 1.994993,-0.543233 0.614631,-0.543233 -0.458418,0 0.978079,-2.650198 1.445058,-3.388773 -0.0777,-1.505494 -0.178214,-1.905223 0.927706,-3.01775 0.573017,-0.57644 1.039831,-1.128717 0.525708,-2.644246 4.685703,2.610536 3.087104,-0.673964 2.486041,-2.035421 7.673716,-0.20121 -2.394051,-8.945821 5.047921,-8.134287 1.781092,1.195039 2.960663,2.172638 3.583026,2.928094 0.496089,0.602177 -0.214347,3.394172 -0.964561,4.831332 0.821849,2.482327 2.77621,6.366753 3.124266,7.96191 0.944079,0.675111 1.080035,0.520537 1.172037,1.841173 0.04485,0.643758 0.119433,5.702282 0.233574,9.483369 C 30.72285,45.96913 40.660618,46.471567 33.01552,45.990981 z"/><path id="path1901" fill="#3465a4" fill-opacity="1" fill-rule="evenodd" stroke="none" d="m 15.249903,32.336144 c 0.447906,-1.822675 4.19115,-0.677191 4.389195,-3.667684 -0.891201,-5.217822 -2.458974,-9.070528 1.576885,-9.121297 3.133013,-0.03941 6.018316,4.744043 6.880361,8.503375 -0.198045,2.638197 0.41447,7.1509 0.41447,8.699854 0,2.69831 4.743163,8.57672 4.871775,9.282946 C 30.95948,45.886363 17.085627,45.105209 14.997691,44.85626 14.33263,44.77696 12.009068,43.701243 11.338926,43.701243 9.0155661,42.963587 6.9326761,41.100078 6.6792651,39.864884 c 1.123006,-3.344968 2.0750514,-0.97072 2.5251825,-4.154358 -1.662117,-2.061197 2.8075734,-4.767613 6.0454554,-3.374382 z"/><path id="path2680" fill="#75507b" fill-opacity="1" fill-rule="evenodd" stroke="none" d="m 26.94833,12.457805 2.622904,-4.3008938 -0.231918,4.4016978 3.280495,-2.6455508 5.690714,-1.787493 -3.101539,4.4119908 3.092376,-1.635115 2.777298,1.614062 2.902233,-0.01041 c 0,0 -1.808072,3.215 -1.998893,4.225883 -1.140492,0.887628 -3.707295,2.248627 -3.707295,2.248627 l -2.862845,-2.042907 -2.822039,2.063298 -0.0077,2.347713 -5.68489,0.02039 5.699411,-4.421304 -5.069707,-0.115449 -1.523392,-4.261769 0.944834,-0.112767 z"/><g id="g1922" transform="matrix(0.1310541,0,0,0.1325049,3.2982481,5.140903)"><path id="path1903" fill="none" stroke="#826d35" stroke-dasharray="none" stroke-linecap="butt" stroke-linejoin="miter" stroke-miterlimit="4" stroke-opacity="1" stroke-width=".375" d="m 9.4051085,158.70149 c -7.4687986,-3.73286 26.7619155,0.74731 35.9871595,0.74731 16.055156,0 -0.744559,17.71653 15.58242,17.71653 9.202663,0 18.405326,0 27.607989,0 1.605012,0 -4.794742,-17.71653 8.299328,-17.71653 7.785065,0 6.325225,-35.43307 16.259915,-35.43307 3.55859,0 3.75283,-21.6988 4.06498,-25.101236 1.65221,-18.009074 24.52538,-25.224593 24.52538,-52.84473 0,-9.451083 0.75558,-4.654088 0.75558,-14.105171"/><path id="path1904" fill="none" stroke="#826d35" stroke-dasharray="none" stroke-linecap="butt" stroke-linejoin="miter" stroke-miterlimit="4" stroke-opacity="1" stroke-width=".375" d="m 12.694651,144.52514 c 0,-11.9691 36.310932,-2.79288 48.280037,-2.79288 24.506532,0 12.142116,-6.2167 27.607989,-10.97543 13.435033,-4.13385 -15.933839,-24.45764 7.621831,-24.45764 3.019274,0 -4.077039,-17.716533 10.094702,-17.716533 14.3968,0 0,-28.793593 0,-43.190389 0,-3.319739 6.06047,-9.634448 2.20381,-15.157994"/><path id="path1905" fill="none" stroke="#826d35" stroke-dasharray="none" stroke-linecap="butt" stroke-linejoin="miter" stroke-miterlimit="4" stroke-opacity="1" stroke-width=".375" d="m 177.92093,31.168119 c 0,8.999419 -0.75558,4.547234 -0.75558,13.546652 0,18.554655 -17.71653,-1.23663 -17.71653,15.582421 0,10.810024 -0.37523,17.11971 -8.36709,21.002392 -6.39627,3.107494 -11.33526,20.047716 -16.93742,24.999606 -11.35798,10.03961 -16.93741,-2.26797 -16.93741,17.71654 0,4.25743 6.80885,6.54865 6.80885,10.80608 0,23.62236 -17.71654,15.64959 -17.71654,33.87483 0,10.95103 -17.716533,6.81419 -17.716533,26.18523 0,6.43778 -11.394591,6.47384 -17.716535,7.68959 -1.151692,0.22148 -3.96652,10.02695 -17.716536,10.02695 -0.353925,0 2.887564,-17.71654 -9.789828,-17.71654 -6.048539,0 -15.813928,-17.66312 -22.44693,-21.5732 -6.620156,-3.90251 -14.7349349,-3.73656 -14.8774219,-3.73656"/><path id="path1906" fill="none" stroke="#826d35" stroke-dasharray="none" stroke-linecap="butt" stroke-linejoin="miter" stroke-miterlimit="4" stroke-opacity="1" stroke-width=".375" d="m 14.859019,243.23115 c 9.418353,-5.64884 34.652588,22.51686 45.438173,22.51686 13.817978,0 19.203367,2.60352 28.285485,-6.94433 2.976494,-3.12913 8.810138,-7.66194 11.009314,-10.7722 7.102729,-10.0453 6.707219,27.6757 6.707219,27.70961 0,5.6269 11.97278,15.22286 17.71654,16.93741 8.82025,2.63291 20.12878,-0.83017 28.42097,-1.35499 2.3327,-0.14764 4.67473,0 7.0121,0 3.28586,0 0,3.58246 0,6.86832"/><path id="path1907" fill="none" stroke="#826d35" stroke-dasharray="none" stroke-linecap="butt" stroke-linejoin="miter" stroke-miterlimit="4" stroke-opacity="1" stroke-width=".375" d="m 167.6804,298.93915 c 6.88789,0 13.77576,0 15.92116,0 9.79425,0 18.26209,-5.31126 28.99687,-8.29314 2.30649,-0.64069 0,-4.78764 0,-7.18146 0,-6.63571 17.71653,-2.44274 17.71653,-9.07845 0,-33.27417 13.19356,-18.52847 35.43307,-35.26371 9.05027,-6.81033 15.20896,7.58632 17.71654,-17.6149 0.21355,-2.1461 15.55983,8.80745 17.71653,8.80745 14.2745,0 -4.26498,-28.33992 -8.5026,-41.9709 -1.34421,-4.3239 11.34385,-13.15424 12.28052,-14.16796"/><path id="path1908" fill="none" stroke="#826d35" stroke-dasharray="none" stroke-linecap="butt" stroke-linejoin="miter" stroke-miterlimit="4" stroke-opacity="1" stroke-width=".375" d="m 216.45509,299.77411 c -1.60661,-5.16791 51.96485,-32.32893 59.9635,-34.0261 14.08811,-2.98925 34.2051,-5.78213 45.27088,-5.78213"/></g><path id="path2670-3" fill="none" stroke="#fff" stroke-linecap="butt" stroke-linejoin="miter" stroke-miterlimit="4" stroke-opacity=".688" stroke-width=".824" d="M 5.3146309,8.6438471 C 19.551091,8.5683071 31.968364,7.2650955 46.204769,7.2258929 c -0.0843,3.0031601 -0.208856,6.8913601 0.158195,9.8762901 -1.658318,2.89611 -1.955223,6.247001 -3.089574,9.34816 0.946165,2.877207 1.767374,5.914826 2.565864,8.823202 0.354562,3.848309 0.176371,8.020122 0.53675,11.868076 C 30.871556,46.228224 17.546688,45.631823 2.0589991,44.37102 3.7203758,41.564899 3.9643879,39.057781 5.3128961,36.110803 4.3244177,33.883744 3.500266,31.450827 2.866846,29.097004 4.5188829,25.33536 4.6893975,21.03429 6.5835516,17.37104 6.3082459,14.148711 5.8094967,11.836431 5.3146309,8.6438471 z" display="inline"/><path id="path5347" fill="#020300" fill-opacity="1" stroke="none" d="M 5.4462326,35.820243 45.451287,35.325132 43.074749,27.205294 3.366762,29.383786 5.4462326,35.820243 z" opacity=".15"/><path id="path5347-8" fill="#020300" fill-opacity="1" stroke="none" d="M 7.1296143,16.857451 45.847376,16.956475 45.816617,7.5771751 5.7433002,9.1337025 7.1296143,16.857451 z" display="inline" opacity=".15"/></g></g><g id="layer5" display="none"><path id="path2538" fill="none" fill-opacity="1" stroke="none" stroke-dashoffset="0" stroke-linecap="butt" stroke-linejoin="round" stroke-miterlimit="4" stroke-opacity="1" stroke-width="1.25" d="M 325.80811,118.61269 A 100.89618,100.89618 0 1 1 124.01575,118.61269 A 100.89618,100.89618 0 1 1 325.80811,118.61269 z" opacity=".329" transform="translate(10.1811,0.625001)"/><path id="path2615" fill="url(#pattern2692) #000000" fill-opacity="1" stroke="none" stroke-dashoffset="0" stroke-linecap="butt" stroke-linejoin="round" stroke-miterlimit="4" stroke-opacity="1" stroke-width="1.25" d="M 325.80811,118.61269 A 100.89618,100.89618 0 1 1 124.01575,118.61269 A 100.89618,100.89618 0 1 1 325.80811,118.61269 z" opacity=".36" transform="translate(10.8061,6.60814e-7)"/><rect id="rect2614" width="32.232" height="37.876" x="183.767" y="59.468" fill="none" stroke="none"/><rect id="rect2631" width="32.232" height="28.276" x="183.767" y="59.468" fill="none" stroke="none"/><rect id="rect2684" width="74.525" height="53.15" x="379.398" y="159.449" fill="none" fill-opacity="1" stroke="none" stroke-dashoffset="0" stroke-linecap="butt" stroke-linejoin="round" stroke-miterlimit="4" stroke-opacity="1" stroke-width="2.5" opacity=".36"/></g><g id="layer1" display="none"><g id="g2489" display="block"><g id="g1774" transform="matrix(0.707107,0.707107,-0.707107,0.707107,161.603,-155.887)"><path id="path1736" fill="url(#linearGradient1777) #000000" fill-opacity="1" stroke="#000" stroke-linecap="butt" stroke-linejoin="miter" stroke-miterlimit="4" stroke-opacity="1" stroke-width="6.25" d="M 248.03125,35.4375 C 189.35409,35.4375 141.71875,83.041586 141.71875,141.71875 C 141.71875,194.3456 180.07689,237.97584 230.3125,246.4375 L 230.3125,283.46875 L 265.75,283.46875 L 265.75,246.4375 C 315.98562,237.97584 354.34377,194.3456 354.34375,141.71875 C 354.34375,83.041586 306.70841,35.4375 248.03125,35.4375 z M 248.03125,53.15625 C 296.92889,53.15625 336.625,92.821111 336.625,141.71875 C 336.62501,190.61639 296.92889,230.3125 248.03125,230.3125 C 199.13361,230.31251 159.4375,190.61639 159.4375,141.71875 C 159.43749,92.821111 199.13361,53.15625 248.03125,53.15625 z"/><rect id="rect1762" width="70.866" height="157.653" x="212.598" y="280.646" fill="url(#linearGradient1778) #000000" fill-opacity="1" stroke="url(#linearGradient1779) #000000" stroke-linecap="butt" stroke-linejoin="round" stroke-miterlimit="4" stroke-opacity="1" stroke-width="7.612" rx="20" ry="20"/></g><path id="path2410" fill="url(#radialGradient2415) #000000" fill-opacity="1" stroke="none" stroke-linecap="butt" stroke-linejoin="round" stroke-miterlimit="4" stroke-opacity="1" stroke-width="6.25" d="M 248.03149,70.866119 A 35.433071,35.433071 0 1 1 177.16535,70.866119 A 35.433071,35.433071 0 1 1 248.03149,70.866119 z" transform="matrix(0.933079,0,0,0.933079,15.9212,6.43622)"/><path id="path2416" fill="url(#linearGradient2422) #000000" fill-opacity="1" stroke="none" stroke-linecap="butt" stroke-linejoin="round" stroke-miterlimit="4" stroke-opacity="1" stroke-width="6.25" d="M 315.0625,109.375 C 299.69703,151.4495 259.43408,181.5625 212.0625,181.5625 C 203.41775,181.5625 195.03901,180.45504 186.96875,178.5625 C 200.7201,191.72641 219.31873,199.875 239.84375,199.875 C 282.10327,199.875 316.40626,165.57202 316.40625,123.3125 C 316.40625,118.55128 315.89556,113.89642 315.0625,109.375 z"/></g></g></svg>