<svg xmlns="http://www.w3.org/2000/svg" xmlns:cc="http://web.resource.org/cc/" xmlns:svg="http://www.w3.org/2000/svg" xmlns:xlink="http://www.w3.org/1999/xlink" id="svg2" width="48" height="48" version="1.0"><defs id="defs4"><radialGradient id="radialGradient2738" cx="15.414" cy="13.078" r="6.656" fx="15.414" fy="13.078" gradientTransform="matrix(2.592963,-7.7469e-24,-5.714443e-24,2.252104,-25.05976,-18.941)" gradientUnits="userSpaceOnUse" xlink:href="#linearGradient4467"/><radialGradient id="radialGradient2736" cx="18.241" cy="21.818" r="8.309" fx="18.241" fy="21.818" gradientTransform="matrix(-1,0,0,1,43.352,5.882878e-16)" gradientUnits="userSpaceOnUse" xlink:href="#linearGradient4454"/><linearGradient id="linearGradient2734" x1="18.293" x2="17.501" y1="13.602" y2="25.743" gradientTransform="matrix(-1,0,0,1,44.17827,-3.838079e-17)" gradientUnits="userSpaceOnUse" xlink:href="#linearGradient2366"/><linearGradient id="linearGradient2732" x1="30.656" x2="33.219" y1="34" y2="31.063" gradientTransform="matrix(-1.334593,0,0,1.291292,55.15793,-7.460658)" gradientUnits="userSpaceOnUse" xlink:href="#linearGradient4440"/><linearGradient id="linearGradient2730" x1="27.366" x2="31.336" y1="26.58" y2="30.558" gradientTransform="matrix(-1,0,0,1,48.18409,-6.22072e-15)" gradientUnits="userSpaceOnUse" xlink:href="#linearGradient2846"/><linearGradient id="linearGradient4467"><stop id="stop4469" offset="0" stop-color="#fff" stop-opacity="1"/><stop id="stop4471" offset="1" stop-color="#fff" stop-opacity=".248"/></linearGradient><linearGradient id="linearGradient4454"><stop id="stop4456" offset="0" stop-color="#729fcf" stop-opacity=".208"/><stop id="stop4458" offset="1" stop-color="#729fcf" stop-opacity=".676"/></linearGradient><linearGradient id="linearGradient2366"><stop id="stop2368" offset="0" stop-color="#fff" stop-opacity="1"/><stop id="stop2374" offset=".5" stop-color="#fff" stop-opacity=".219"/><stop id="stop2370" offset="1" stop-color="#fff" stop-opacity="1"/></linearGradient><linearGradient id="linearGradient4440"><stop id="stop4442" offset="0" stop-color="#7d7d7d" stop-opacity="1"/><stop id="stop4448" offset=".5" stop-color="#b1b1b1" stop-opacity="1"/><stop id="stop4444" offset="1" stop-color="#686868" stop-opacity="1"/></linearGradient><linearGradient id="linearGradient2846"><stop id="stop2848" offset="0" stop-color="#8a8a8a" stop-opacity="1"/><stop id="stop2850" offset="1" stop-color="#484848" stop-opacity="1"/></linearGradient><linearGradient id="linearGradient4477"><stop id="stop4479" offset="0" stop-color="#000" stop-opacity="1"/><stop id="stop4481" offset="1" stop-color="#000" stop-opacity="0"/></linearGradient><linearGradient id="linearGradient2309"><stop id="stop2311" offset="0" stop-color="#fff" stop-opacity="1"/><stop id="stop2313" offset="1" stop-color="#fff" stop-opacity="0"/></linearGradient><linearGradient id="linearGradient2301"><stop id="stop2303" offset="0" stop-color="#790000" stop-opacity="1"/><stop id="stop2305" offset="1" stop-color="#b03636" stop-opacity="1"/></linearGradient><linearGradient id="linearGradient2286"><stop id="stop2288" offset="0" stop-color="#555753"/><stop id="stop2290" offset="1" stop-color="#555753" stop-opacity="0"/></linearGradient><linearGradient id="linearGradient2276"><stop id="stop2278" offset="0" stop-color="#babdb6" stop-opacity="1"/><stop id="stop2280" offset="1" stop-color="#8f9488" stop-opacity="1"/></linearGradient><linearGradient id="linearGradient2258"><stop id="stop2260" offset="0" stop-color="#ffa4a4" stop-opacity="1"/><stop id="stop2262" offset="1" stop-color="#a40000"/></linearGradient><linearGradient id="linearGradient2235"><stop id="stop2237" offset="0" stop-color="#ccc" stop-opacity="1"/><stop id="stop2239" offset="1" stop-color="#9b9b9b" stop-opacity="1"/></linearGradient><linearGradient id="linearGradient2229"><stop id="stop2231" offset="0" stop-color="#888a85"/><stop id="stop2233" offset="1" stop-color="#d3d7cf" stop-opacity="0"/></linearGradient><linearGradient id="linearGradient2221"><stop id="stop2223" offset="0" stop-color="#babdb6"/><stop id="stop2225" offset="1" stop-color="#d3d7cf" stop-opacity="0"/></linearGradient><linearGradient id="linearGradient2184"><stop id="stop2186" offset="0" stop-color="#fff" stop-opacity="1"/><stop id="stop2188" offset="1" stop-color="#e3e3e3" stop-opacity="1"/></linearGradient><radialGradient id="radialGradient7516" cx="24.13" cy="37.968" r="16.529" fx="24.13" fy="37.968" gradientTransform="matrix(1,0,0,0.237968,-1.864568e-14,28.93278)" gradientUnits="userSpaceOnUse" xlink:href="#linearGradient4477"/><linearGradient id="linearGradient7518" x1="27.366" x2="31.336" y1="26.58" y2="30.558" gradientUnits="userSpaceOnUse" xlink:href="#linearGradient2846"/><linearGradient id="linearGradient7520" x1="30.656" x2="33.219" y1="34" y2="31.063" gradientTransform="matrix(1.334593,0,0,1.291292,-6.973842,-7.460658)" gradientUnits="userSpaceOnUse" xlink:href="#linearGradient4440"/><linearGradient id="linearGradient7522" x1="18.293" x2="17.501" y1="13.602" y2="25.743" gradientUnits="userSpaceOnUse" xlink:href="#linearGradient2366"/><radialGradient id="radialGradient7524" cx="18.241" cy="21.818" r="8.309" fx="18.241" fy="21.818" gradientUnits="userSpaceOnUse" xlink:href="#linearGradient4454"/><radialGradient id="radialGradient7526" cx="15.414" cy="13.078" r="6.656" fx="15.414" fy="13.078" gradientTransform="matrix(2.592963,-7.7469e-24,-5.714443e-24,2.252104,-25.05975,-18.941)" gradientUnits="userSpaceOnUse" xlink:href="#linearGradient4467"/><radialGradient id="radialGradient7540" cx="24" cy="36.75" r="22.5" fx="24" fy="36.75" gradientTransform="matrix(1,0,0,0.3,-3.16587e-17,25.725)" gradientUnits="userSpaceOnUse" xlink:href="#linearGradient2286"/><linearGradient id="linearGradient7542" x1="37.536" x2="9.929" y1="34.196" y2="20.089" gradientUnits="userSpaceOnUse" xlink:href="#linearGradient2276"/><linearGradient id="linearGradient7544" x1="6.723" x2="37.805" y1="37.683" y2="29.097" gradientUnits="userSpaceOnUse" xlink:href="#linearGradient2309"/><linearGradient id="linearGradient7546" x1="15.714" x2="36.482" y1="16.829" y2="20.668" gradientUnits="userSpaceOnUse" xlink:href="#linearGradient2184"/><linearGradient id="linearGradient7548" x1="19.941" x2="24" y1="10.919" y2="22.751" gradientUnits="userSpaceOnUse" xlink:href="#linearGradient2235"/><linearGradient id="linearGradient7550" x1="24" x2="32" y1="19.997" y2="19.906" gradientTransform="matrix(-1,0,0,1,48,0)" gradientUnits="userSpaceOnUse" xlink:href="#linearGradient2221"/><linearGradient id="linearGradient7552" x1="24" x2="19.982" y1="19.506" y2="19.55" gradientTransform="matrix(-1,0,0,1,48,0)" gradientUnits="userSpaceOnUse" xlink:href="#linearGradient2229"/><linearGradient id="linearGradient7554" x1="32.795" x2="34.795" y1="21.696" y2="32.321" gradientUnits="userSpaceOnUse" xlink:href="#linearGradient2258"/><linearGradient id="linearGradient7556" x1="23.955" x2="29.214" y1="10.009" y2="30.277" gradientUnits="userSpaceOnUse" xlink:href="#linearGradient2301"/></defs><metadata id="metadata7"/><g id="layer1"><g id="g7528" transform="translate(0,4)"><path id="path2284" fill="url(#radialGradient7540)" fill-opacity="1" fill-rule="nonzero" stroke="none" stroke-dasharray="none" stroke-dashoffset="17.85" stroke-linecap="round" stroke-linejoin="miter" stroke-miterlimit="4" stroke-opacity="1" stroke-width="1" marker-end="none" marker-mid="none" marker-start="none" d="M 46.5 36.75 A 22.5 6.75 0 1 1 1.5,36.75 A 22.5 6.75 0 1 1 46.5 36.75 z" color="#000" display="block" opacity=".502" overflow="visible" transform="matrix(1.066667,0,0,0.962963,-1.600001,1.111111)" visibility="visible" style="marker:none"/><path id="rect1304" fill="#523856" fill-opacity="1" fill-rule="nonzero" stroke="#3e263b" stroke-dasharray="none" stroke-dashoffset="17.85" stroke-linecap="round" stroke-linejoin="round" stroke-miterlimit="4" stroke-opacity="1" stroke-width="1" marker-end="none" marker-mid="none" marker-start="none" d="M 4.5,11.5 L 43.5,11.5 L 47.5,38.5 L 29,38.5 L 28,37.5 C 26,39 22,39 20,37.5 L 19,38.5 L 0.5,38.5 L 4.5,11.5 z" color="#000" display="block" overflow="visible" visibility="visible" style="marker:none"/><path stroke-width="1" style="marker:none" id="path2274" fill="none" fill-opacity="1" fill-rule="nonzero" stroke="#fff" stroke-dasharray="none" stroke-dashoffset="17.85" stroke-linecap="round" stroke-linejoin="round" stroke-miterlimit="4" stroke-opacity="1" marker-end="none" marker-mid="none" marker-start="none" d="M 5.28125,12.40625 L 1.5625,37.59375 L 18.59375,37.59375 L 19.34375,36.84375 C 19.667151,36.507336 20.191452,36.467006 20.5625,36.75 C 21.327469,37.323727 22.653015,37.71875 24,37.71875 C 25.346985,37.71875 26.672531,37.323727 27.4375,36.75 C 27.808548,36.467006 28.332849,36.507336 28.65625,36.84375 L 29.40625,37.59375 L 46.4375,37.59375 L 42.71875,12.40625 L 5.28125,12.40625 z" color="#000" display="block" opacity=".133" overflow="visible" visibility="visible" xlink:href="#rect1304"/><path id="path2180" fill="url(#linearGradient7542)" fill-opacity="1" fill-rule="evenodd" stroke="#888a85" stroke-dasharray="none" stroke-linecap="butt" stroke-linejoin="miter" stroke-miterlimit="4" stroke-opacity="1" stroke-width="1" d="M 2,36.5 C 7.6666667,36.5 16,35 19,36.5 C 22,34 26,34 29,36.5 C 32,35 41,36.5 46,36.5 L 45.5,34 C 38.5,31.5 29,28.5 24,33 C 19,28.5 9.5,31.5 2.5,34 L 2,36.5 z"/><path id="path2266" fill="none" fill-opacity="1" fill-rule="evenodd" stroke="url(#linearGradient7544)" stroke-dasharray="none" stroke-linecap="butt" stroke-linejoin="miter" stroke-miterlimit="4" stroke-opacity="1" stroke-width="1" d="M 14.125,31.9375 C 10.58845,32.393829 6.7674231,33.623885 3.40625,34.8125 L 3.3125,35.375 C 5.8346971,35.295407 8.678905,35.038338 11.4375,34.875 C 14.331687,34.703634 16.846628,34.699177 18.78125,35.40625 C 20.133116,34.409774 21.661646,33.894157 23.21875,33.75 C 21.053263,31.841421 17.820494,31.460662 14.125,31.9375 z M 28.6875,31.9375 C 27.15954,32.214977 25.855253,32.803414 24.78125,33.75 C 26.338354,33.894157 27.866884,34.409774 29.21875,35.40625 C 31.197568,34.6847 33.835046,34.703224 36.8125,34.875 C 39.629965,35.037546 42.386123,35.262501 44.6875,35.34375 L 44.59375,34.8125 C 41.232577,33.623885 37.41155,32.393829 33.875,31.9375 C 32.012338,31.697156 30.240328,31.655507 28.6875,31.9375 z" opacity=".302" xlink:href="#path2180"/><path id="path2182" fill="url(#linearGradient7546)" fill-opacity="1" fill-rule="evenodd" stroke="url(#linearGradient7548)" stroke-dasharray="none" stroke-linecap="butt" stroke-linejoin="miter" stroke-miterlimit="4" stroke-opacity="1" stroke-width="1" d="M 2.5,34 C 9,31.5 20,29 24,33 C 28,29 39,31.5 45.5,34 L 42.5,10.5 C 37,8 27.5,6 24,9 C 20,6 12,8 5.5,10.5 L 2.5,34 z"/><path stroke-width="1" style="marker:none" id="rect2192" fill="url(#linearGradient7550)" fill-opacity="1" fill-rule="nonzero" stroke="none" stroke-dashoffset="17.85" stroke-linecap="round" stroke-linejoin="miter" stroke-miterlimit="4" stroke-opacity="1" marker-end="none" marker-mid="none" marker-start="none" d="M 24,9.5 C 22,8 19.5,7.5 16,8 L 16,30.5 C 18,29.5 22,30.5 24,32.5 L 24,9.5 z" color="#000" display="block" overflow="visible" visibility="visible"/><path stroke-width="1" style="marker:none" id="path2195" fill="url(#linearGradient7552)" fill-opacity="1" fill-rule="nonzero" stroke="none" stroke-dashoffset="17.85" stroke-linecap="round" stroke-linejoin="miter" stroke-miterlimit="4" stroke-opacity="1" marker-end="none" marker-mid="none" marker-start="none" d="M 24,9.5 C 25.221264,8.803878 26.327771,7.9069322 28,8 L 29,30.5 C 27.5,30 25.5,31.5 24,32.5 L 24,9.5 z" color="#000" display="block" overflow="visible" visibility="visible"/><path id="path2243" fill="none" fill-opacity="1" fill-rule="evenodd" stroke="#fff" stroke-dasharray="none" stroke-linecap="butt" stroke-linejoin="miter" stroke-miterlimit="4" stroke-opacity="1" stroke-width="1" d="M 17,8.5 C 13.686857,8.7714867 9.8310063,9.9099341 6.34375,11.21875 L 3.59375,32.65625 C 6.7156264,31.555997 10.446534,30.517777 14.09375,30.125 C 17.942801,29.710487 21.586233,30.019594 24,31.90625 C 26.413767,30.019594 30.057199,29.710487 33.90625,30.125 C 37.553466,30.517777 41.284374,31.555997 44.40625,32.65625 L 41.65625,11.1875 C 39.042061,10.053977 35.590319,8.9956649 32.375,8.59375 C 28.988395,8.1704244 25.951176,8.5552417 24.59375,9.71875 C 24.262671,9.9972426 23.783138,10.010203 23.4375,9.75 C 22.596584,9.119313 21.522981,8.7113924 20.21875,8.53125 C 19.242487,8.396407 18.155606,8.4053069 17,8.5 z" opacity=".651" xlink:href="#path2182"/><path id="path2227" fill="url(#linearGradient7554)" fill-opacity="1" fill-rule="evenodd" stroke="url(#linearGradient7556)" stroke-dasharray="none" stroke-linecap="square" stroke-linejoin="miter" stroke-miterlimit="4" stroke-opacity="1" stroke-width="1" d="M 24.455357,8.7321429 C 24.5,20.5 34,20 33.5,30.5 L 32.5,34.5 L 34,34 L 35,35 L 35.5,31 C 36,20 24.544643,19.089286 24.5,8.5 L 24.455357,8.7321429 z"/></g><g id="g2711" display="inline" transform="translate(3.953149,-5.07532)"><path id="path2844" fill="#dcdcdc" fill-opacity="1" fill-rule="evenodd" stroke="url(#linearGradient2730)" stroke-dasharray="none" stroke-dashoffset="0" stroke-linecap="round" stroke-linejoin="miter" stroke-miterlimit="10" stroke-opacity="1" stroke-width="3.109" marker-end="none" marker-mid="none" marker-start="none" d="M 18.627569,3.1435548 C 10.488439,3.1435548 3.8827682,9.7492259 3.8827682,17.888356 C 3.8827682,26.027486 10.488439,32.633158 18.627569,32.633158 C 22.107124,32.633158 25.17857,31.248765 27.701292,29.230511 C 27.495915,30.237392 27.623257,31.265879 28.457436,31.990436 L 39.42152,41.517846 C 40.654936,42.589175 42.508982,42.448806 43.58031,41.215389 C 44.651638,39.981971 44.511269,38.127927 43.277853,37.056599 L 32.313769,27.529188 C 31.642242,26.945909 30.820891,26.773219 30.007531,26.886466 C 31.994231,24.374044 33.37237,21.337663 33.37237,17.888356 C 33.37237,9.7492259 26.766699,3.1435548 18.627569,3.1435548 z M 18.551954,4.3697381 C 26.191413,4.3697381 31.843729,9.1586886 31.843729,17.661513 C 31.843729,26.336626 26.027039,30.953288 18.551954,30.953288 C 11.249005,30.953288 5.2601806,25.475196 5.2601806,17.661513 C 5.2601806,9.6774061 11.084819,4.369738 18.551954,4.3697381 z" color="#000" display="inline" overflow="visible" transform="matrix(-0.643277,0,0,0.643277,31.49802,4.828704)" visibility="visible" style="marker:none"/><path id="path4430" fill="#dcdcdc" fill-opacity="1" fill-rule="evenodd" stroke="none" stroke-dasharray="none" stroke-dashoffset="0" stroke-linecap="round" stroke-linejoin="miter" stroke-miterlimit="10" stroke-opacity="1" stroke-width="1" marker-end="none" marker-mid="none" marker-start="none" d="M 18.602905,3.0803551 C 10.437465,3.0803551 3.8104408,9.7073791 3.8104408,17.872819 C 3.8104408,26.038259 10.437465,32.665283 18.602905,32.665283 C 22.093708,32.665283 25.175082,31.276416 27.70596,29.251638 C 27.499919,30.261774 27.627672,31.293585 28.464547,32.020484 L 39.464073,41.578691 C 40.701476,42.653483 42.561515,42.512661 43.636306,41.275256 C 44.711097,40.037852 44.570274,38.177814 43.332871,37.103023 L 32.333346,27.544815 C 31.659648,26.959651 30.835642,26.786402 30.019653,26.900016 C 32.012775,24.379472 33.395369,21.333276 33.395369,17.872819 C 33.395369,9.7073791 26.768345,3.0803551 18.602905,3.0803551 z M 18.527046,6.2664243 C 24.808154,6.2664245 29.905864,11.364135 29.905864,17.645243 C 29.905864,23.926351 24.808154,29.024061 18.527046,29.024061 C 12.245938,29.024061 7.1482276,23.926351 7.1482276,17.645243 C 7.1482278,11.364135 12.245938,6.2664243 18.527046,6.2664243 z" color="#000" display="inline" overflow="visible" transform="matrix(-0.643277,0,0,0.643277,31.49802,4.828704)" visibility="visible" style="marker:none"/><path id="path4438" fill="url(#linearGradient2732)" fill-opacity="1" fill-rule="evenodd" stroke="none" stroke-dasharray="none" stroke-dashoffset="0" stroke-linecap="round" stroke-linejoin="miter" stroke-miterlimit="10" stroke-opacity="1" stroke-width="1" marker-end="none" marker-mid="none" marker-start="none" d="M 39.507004,41.57769 C 39.028332,39.304503 40.904334,36.766268 43.091057,36.789315 C 43.091057,36.789315 32.33069,27.531204 32.33069,27.531204 C 29.385899,27.474498 28.061188,29.80382 28.553876,32.131126 L 39.507004,41.57769 z" color="#000" display="inline" overflow="visible" transform="matrix(-0.643277,0,0,0.643277,31.49802,4.828704)" visibility="visible" style="marker:none"/><path id="path4450" fill="none" fill-opacity="1" fill-rule="evenodd" stroke="url(#linearGradient2734)" stroke-dasharray="none" stroke-dashoffset="0" stroke-linecap="round" stroke-linejoin="miter" stroke-miterlimit="10" stroke-opacity="1" stroke-width="1.248" marker-end="none" marker-mid="none" marker-start="none" d="M 28.549437 18.920233 A 11.048544 11.048544 0 1 1 6.4523487,18.920233 A 11.048544 11.048544 0 1 1 28.549437 18.920233 z" color="#000" display="inline" overflow="visible" transform="matrix(-0.801358,0,0,0.801358,33.70147,0.855159)" visibility="visible" style="marker:none"/><rect id="rect4495" width="19.048" height="4.44" x="40.373" y=".141" fill="none" fill-opacity="1" fill-rule="evenodd" stroke="#fff" stroke-dasharray="none" stroke-dashoffset="0" stroke-linecap="round" stroke-linejoin="miter" stroke-miterlimit="10" stroke-opacity="1" stroke-width="1.555" marker-end="none" marker-mid="none" marker-start="none" color="#000" display="inline" opacity=".433" overflow="visible" rx="3.322" ry="2.935" transform="matrix(-0.484379,0.4233,0.417423,0.489452,31.49802,4.828704)" visibility="visible" style="marker:none"/><path id="path4452" fill="url(#radialGradient2736)" fill-opacity="1" fill-rule="evenodd" stroke="#3063a3" stroke-dashoffset="0" stroke-linecap="round" stroke-linejoin="miter" stroke-miterlimit="10" stroke-opacity="1" stroke-width="1.111" marker-end="none" marker-mid="none" marker-start="none" d="M 25.897786 18.478292 A 8.3085051 8.3085051 0 1 1 9.280776,18.478292 A 8.3085051 8.3085051 0 1 1 25.897786 18.478292 z" color="#000" transform="matrix(-0.899697,0,0,0.899697,35.502,-0.509826)" visibility="visible" style="marker:none"/><path id="path4462" fill="url(#radialGradient2738)" fill-opacity="1" fill-rule="evenodd" stroke="none" stroke-dasharray="none" stroke-dashoffset="0" stroke-linecap="round" stroke-linejoin="miter" stroke-miterlimit="10" stroke-opacity="1" stroke-width="1" marker-end="none" marker-mid="none" marker-start="none" d="M 18.156915,7.3966938 C 12.949325,7.3966938 8.7323681,11.613651 8.7323681,16.821241 C 8.7323681,18.325216 9.1526753,19.709014 9.77954,20.971144 C 11.03192,21.432757 12.362297,21.746827 13.774307,21.746827 C 19.945262,21.746827 24.873589,16.88519 25.254413,10.809698 C 23.523449,8.7641668 21.044374,7.3966938 18.156915,7.3966938 z" color="#000" display="inline" opacity=".834" overflow="visible" transform="matrix(0.643277,0,0,0.643277,7.855933,4.828704)" visibility="visible" style="marker:none"/></g></g></svg>